<svg width="159" height="194" viewBox="0 0 159 194" fill="none" xmlns="http://www.w3.org/2000/svg">
<path d="M142.255 143.9L155.971 156.51L137.677 177.003L115.205 189.511C113.836 190.273 112.33 190.751 110.775 190.916L90.7176 193.05L80.5842 182.724L77.7966 187.808L18.209 187.647L24.5999 179.545L103.244 156.245" fill="#F5F5F5"/>
<path d="M90.7173 194C90.5919 194 90.4677 193.975 90.352 193.927C90.2362 193.878 90.1312 193.807 90.0431 193.717L80.7996 184.297L78.6238 188.265C78.5435 188.417 78.4235 188.543 78.2769 188.63C78.1303 188.717 77.9628 188.762 77.7927 188.759L18.2026 188.601C18.0254 188.599 17.8522 188.548 17.7026 188.453C17.5529 188.357 17.433 188.221 17.3563 188.06C17.2797 187.899 17.2494 187.72 17.269 187.543C17.2886 187.365 17.3572 187.197 17.4671 187.057L23.8574 178.954C23.9788 178.801 24.1442 178.689 24.3312 178.633L102.976 155.329C103.215 155.264 103.47 155.295 103.686 155.417C103.903 155.538 104.063 155.741 104.133 155.98C104.203 156.219 104.177 156.477 104.06 156.697C103.944 156.917 103.746 157.083 103.51 157.158L25.1519 180.372L20.1633 186.698L77.2398 186.85L79.7565 182.26C79.8275 182.13 79.9276 182.019 80.0489 181.935C80.1701 181.851 80.3092 181.797 80.4549 181.776C80.6006 181.756 80.7491 181.77 80.8884 181.818C81.0277 181.865 81.1541 181.945 81.2575 182.051L91.071 192.053L110.675 189.968C112.104 189.818 113.489 189.379 114.747 188.677L137.079 176.247L154.638 156.576L141.616 144.604C141.522 144.521 141.445 144.419 141.391 144.305C141.336 144.191 141.304 144.067 141.298 143.941C141.291 143.815 141.309 143.688 141.351 143.569C141.394 143.45 141.459 143.34 141.544 143.247C141.629 143.154 141.731 143.078 141.845 143.025C141.959 142.972 142.082 142.942 142.208 142.937C142.333 142.932 142.458 142.953 142.576 142.998C142.693 143.042 142.801 143.11 142.892 143.197L156.606 155.804C156.791 155.974 156.901 156.21 156.913 156.461C156.926 156.713 156.839 156.959 156.672 157.146L138.378 177.639C138.307 177.718 138.224 177.784 138.132 177.836L115.663 190.344C114.185 191.169 112.556 191.685 110.874 191.862L90.8185 193.995C90.7849 193.998 90.7511 194 90.7173 194Z" fill="#000072"/>
<path d="M20.9607 150.074L1.04688 165.14L14.5164 169.342" fill="#F5F5F5"/>
<path d="M14.5167 170.297C14.4217 170.297 14.3273 170.282 14.2366 170.254L0.766993 166.051C0.600518 165.999 0.451543 165.902 0.336496 165.77C0.221449 165.638 0.1448 165.476 0.115004 165.303C0.0852082 165.13 0.103421 164.953 0.167636 164.789C0.231851 164.626 0.339572 164.484 0.478919 164.378L20.3927 149.314C20.5937 149.167 20.844 149.105 21.0896 149.142C21.3352 149.18 21.5564 149.313 21.7055 149.513C21.8546 149.713 21.9197 149.964 21.8867 150.212C21.8537 150.46 21.7253 150.685 21.5291 150.838L3.09671 164.782L14.7968 168.433C15.0132 168.5 15.1983 168.644 15.3187 168.837C15.4391 169.03 15.4866 169.261 15.4527 169.486C15.4188 169.712 15.3057 169.918 15.134 170.066C14.9622 170.215 14.7432 170.297 14.5167 170.297Z" fill="#000072"/>
<path d="M157.221 174.262L95.6075 178.59L89.3747 181.608L73.733 180.814L68.5979 176.842L9.14453 174.262L13.978 163.761L33.586 125.318L83.1799 122.208L132.776 125.318L135.306 130.278C135.306 130.282 135.308 130.285 135.31 130.288L152.383 163.764L157.133 174.071L157.221 174.262Z" fill="#F5F5F5"/>
<g opacity="0.3">
<path d="M157.129 174.07C143.611 174.063 123.43 173.793 123.43 173.793L115.474 171.811L122.84 161.542C144.169 160.484 135.485 130.881 135.308 130.29L152.382 163.766L157.129 174.07Z" fill="#000072"/>
</g>
<path d="M89.3748 182.562H89.327L73.6871 181.767C73.4951 181.758 73.3107 181.689 73.1581 181.572L68.2596 177.783L9.10166 175.217C8.94631 175.21 8.79502 175.165 8.66117 175.085C8.52733 175.005 8.41503 174.893 8.33421 174.76C8.2534 174.626 8.20654 174.474 8.19779 174.317C8.18904 174.161 8.21865 174.005 8.28403 173.863L13.1212 163.362L13.1378 163.327L32.7451 124.882C32.8201 124.735 32.9316 124.611 33.0688 124.52C33.206 124.43 33.3642 124.377 33.5278 124.367L83.1242 121.257C83.1634 121.254 83.2027 121.254 83.2419 121.257L132.838 124.367C133.001 124.377 133.159 124.43 133.297 124.52C133.434 124.611 133.545 124.735 133.62 124.882L153.228 163.327C153.233 163.339 153.239 163.35 153.244 163.362L158.081 173.862C158.145 174.002 158.175 174.156 158.168 174.31C158.16 174.464 158.115 174.614 158.037 174.747C157.959 174.88 157.85 174.992 157.72 175.074C157.589 175.155 157.441 175.203 157.288 175.214L95.8546 179.527L89.7867 182.467C89.6582 182.529 89.5174 182.562 89.3748 182.562ZM74.0769 179.878L89.1848 180.645L95.2006 177.731C95.3086 177.679 95.4255 177.648 95.5451 177.639L155.789 173.408L151.538 164.182L132.186 126.236L83.1855 123.163L34.1855 126.236L14.8294 164.182L10.596 173.372L68.6396 175.89C68.834 175.899 69.0209 175.968 69.1753 176.087L74.0769 179.878Z" fill="#000072"/>
<g opacity="0.3">
<path d="M72.0762 122.904L64.7677 169.341C64.7677 169.341 53.4525 171.075 47.3037 172.925L47.8553 174.266L72.892 175.01L74.6658 178.591L83.7866 178.061L81.7916 123.838" fill="#000072"/>
</g>
<g opacity="0.3">
<path d="M95.0547 122.904L102.363 169.341C102.363 169.341 113.679 171.075 119.827 172.925L119.276 174.266L94.2395 175.01L92.4651 178.591L83.3442 178.061L85.3393 123.838" fill="#000072"/>
</g>
<path d="M157.955 174.263V179.544H95.1864L93.6326 182.564C93.3291 183.154 92.8703 183.649 92.3065 183.994C91.7427 184.34 91.0955 184.522 90.4356 184.522H75.9259C75.2656 184.522 74.618 184.34 74.054 183.994C73.4899 183.648 73.0311 183.153 72.7277 182.562L71.1764 179.544H8.40771V174.263H72.4525L75.0133 178.59H91.3427L93.9041 174.26L157.955 174.263Z" fill="#FD8342"/>
<g opacity="0.6">
<path d="M157.959 174.264V175.932L93.9103 175.929L91.3489 180.259H75.0194L72.4586 175.932H8.4126V174.264H72.4586L75.0194 178.591H91.3489L93.9103 174.261L157.959 174.264Z" fill="#F5F5F5"/>
</g>
<path d="M90.4337 185.476H75.924C75.0899 185.478 74.2714 185.248 73.5588 184.811C72.8462 184.374 72.2672 183.748 71.8855 183.001L70.5984 180.497H8.40582C8.15489 180.497 7.91427 180.396 7.73683 180.218C7.55939 180.039 7.45964 179.796 7.45947 179.544V174.263C7.45964 174.01 7.55939 173.768 7.73683 173.589C7.91427 173.41 8.15489 173.31 8.40582 173.31H72.4506C72.6145 173.31 72.7756 173.353 72.918 173.434C73.0605 173.516 73.1795 173.633 73.2634 173.775L75.5489 177.638H90.8033L93.0889 173.772C93.173 173.63 93.2921 173.513 93.4346 173.431C93.5772 173.35 93.7383 173.307 93.9023 173.307L157.953 173.31C158.204 173.31 158.444 173.41 158.622 173.589C158.799 173.768 158.899 174.01 158.899 174.263V179.544C158.899 179.796 158.799 180.039 158.622 180.218C158.445 180.396 158.204 180.497 157.953 180.497H95.76L94.4729 183.002C94.0904 183.749 93.5111 184.375 92.7985 184.811C92.0859 185.247 91.2677 185.477 90.4337 185.476ZM9.35218 178.59H71.1745C71.348 178.59 71.5181 178.638 71.6663 178.729C71.8145 178.82 71.9351 178.95 72.0148 179.105L73.5661 182.124C73.7891 182.56 74.1273 182.926 74.5433 183.181C74.9593 183.436 75.4371 183.57 75.924 183.569H90.4337C90.9204 183.57 91.3979 183.436 91.8138 183.181C92.2297 182.927 92.5678 182.561 92.791 182.126L94.3442 179.105C94.4241 178.95 94.5448 178.82 94.6929 178.729C94.8411 178.638 95.0111 178.59 95.1845 178.59H157.007V175.216L94.4416 175.213L92.1554 179.078C92.0717 179.22 91.9527 179.338 91.8102 179.419C91.6677 179.501 91.5066 179.544 91.3427 179.544H75.0133C74.8494 179.544 74.6884 179.501 74.5459 179.419C74.4035 179.338 74.2844 179.22 74.2005 179.079L71.9149 175.216H9.35218V178.59Z" fill="#000072"/>
<path d="M36.9649 175.223C36.7075 175.223 36.4488 175.22 36.1889 175.215C35.9404 175.206 35.7052 175.099 35.5344 174.917C35.3636 174.735 35.2708 174.492 35.2761 174.242C35.2814 173.991 35.3844 173.753 35.5628 173.578C35.7412 173.404 35.9807 173.307 36.2294 173.309C42.4328 173.439 48.0287 171.838 52.9695 170.423C61.0705 168.103 68.067 166.101 72.8803 173.757C72.9501 173.863 72.9984 173.982 73.0221 174.106C73.0458 174.231 73.0445 174.359 73.0183 174.484C72.9921 174.608 72.9415 174.726 72.8695 174.83C72.7975 174.934 72.7055 175.023 72.599 175.091C72.4925 175.159 72.3735 175.205 72.2492 175.226C72.1248 175.247 71.9975 175.242 71.8748 175.213C71.7521 175.184 71.6364 175.13 71.5346 175.055C71.4327 174.981 71.3468 174.886 71.2818 174.777C67.2248 168.324 61.4628 169.975 53.4874 172.259C48.6202 173.651 43.1303 175.223 36.9649 175.223Z" fill="#000072"/>
<path d="M129.404 175.222C123.238 175.222 117.749 173.65 112.883 172.258C104.907 169.974 99.1445 168.324 95.0882 174.776C94.9539 174.99 94.7409 175.141 94.496 175.196C94.2511 175.252 93.9944 175.207 93.7824 175.071C93.5703 174.936 93.4203 174.722 93.3653 174.475C93.3103 174.228 93.3548 173.97 93.4891 173.756C98.3017 166.1 105.299 168.104 113.4 170.422C118.341 171.837 123.942 173.441 130.14 173.308C130.389 173.306 130.628 173.403 130.807 173.577C130.985 173.752 131.088 173.99 131.093 174.241C131.099 174.491 131.006 174.734 130.835 174.916C130.664 175.098 130.429 175.205 130.18 175.214C129.921 175.219 129.662 175.222 129.404 175.222Z" fill="#000072"/>
<g opacity="0.25">
<path d="M26.3313 158.772C26.1231 158.776 25.9216 158.698 25.7709 158.553C25.6201 158.408 25.5323 158.21 25.5267 158C25.521 157.79 25.5979 157.587 25.7406 157.434C25.8833 157.281 26.0802 157.192 26.2884 157.185C31.3431 156.902 37.0794 155.959 43.338 154.383C58.924 150.458 70.2097 149.357 78.3009 155.988C78.3814 156.054 78.4482 156.135 78.4975 156.227C78.5469 156.319 78.5778 156.42 78.5885 156.523C78.5992 156.627 78.5895 156.732 78.5599 156.832C78.5303 156.933 78.4815 157.026 78.4161 157.107C78.3507 157.188 78.2702 157.255 78.179 157.305C78.0878 157.355 77.9878 157.386 77.8847 157.397C77.7815 157.407 77.6773 157.398 77.5779 157.368C77.4785 157.338 77.386 157.289 77.3055 157.223C70.6688 151.784 61.5663 151.434 43.7205 155.926C37.3651 157.527 31.5294 158.485 26.3748 158.773C26.3607 158.772 26.346 158.772 26.3313 158.772Z" fill="#000072"/>
</g>
<g opacity="0.25">
<path d="M30.2747 152.048C30.074 152.046 29.8814 151.968 29.7361 151.828C29.5907 151.689 29.5036 151.499 29.4924 151.297C29.4813 151.095 29.5469 150.897 29.6759 150.742C29.805 150.587 29.9878 150.488 30.1871 150.464C34.2232 150.006 38.6454 149.176 43.322 147.997C58.908 144.072 70.1937 142.971 78.2849 149.603C78.3654 149.668 78.4322 149.75 78.4815 149.841C78.5309 149.933 78.5618 150.034 78.5725 150.138C78.5832 150.242 78.5735 150.347 78.5439 150.447C78.5143 150.547 78.4655 150.64 78.4001 150.721C78.3347 150.802 78.2542 150.87 78.163 150.919C78.0718 150.969 77.9718 151 77.8687 151.011C77.7655 151.022 77.6613 151.012 77.5619 150.982C77.4625 150.953 77.37 150.903 77.2895 150.837C70.6528 145.399 61.5503 145.049 43.7044 149.541C38.9574 150.736 34.4689 151.578 30.3636 152.044C30.3341 152.047 30.3044 152.048 30.2747 152.048Z" fill="#000072"/>
</g>
<g opacity="0.25">
<path d="M34.5337 144.971C34.3352 144.971 34.1438 144.896 33.9977 144.761C33.8517 144.626 33.7617 144.44 33.7457 144.241C33.7298 144.041 33.7891 143.843 33.9117 143.686C34.0344 143.529 34.2114 143.424 34.4075 143.393C37.2269 142.928 40.2302 142.296 43.3328 141.516C58.9194 137.59 70.2045 136.49 78.2957 143.121C78.3762 143.187 78.443 143.268 78.4924 143.36C78.5417 143.452 78.5726 143.552 78.5833 143.656C78.594 143.76 78.5843 143.865 78.5547 143.965C78.5252 144.065 78.4763 144.159 78.4109 144.24C78.3456 144.321 78.265 144.388 78.1738 144.438C78.0826 144.488 77.9826 144.519 77.8795 144.529C77.7764 144.54 77.6721 144.53 77.5728 144.501C77.4734 144.471 77.3808 144.422 77.3003 144.356C70.6636 138.917 61.5611 138.566 43.7153 143.059C40.5734 143.85 37.5248 144.491 34.6618 144.963C34.6194 144.969 34.5766 144.972 34.5337 144.971Z" fill="#000072"/>
</g>
<g opacity="0.25">
<path d="M140.847 158.773C140.832 158.773 140.818 158.773 140.803 158.773C135.649 158.484 129.813 157.526 123.457 155.926C105.612 151.432 96.509 151.783 89.8693 157.222C89.7888 157.288 89.6962 157.337 89.5968 157.367C89.4974 157.397 89.3932 157.407 89.2901 157.396C89.187 157.385 89.0869 157.354 88.9958 157.304C88.9046 157.255 88.824 157.187 88.7586 157.106C88.6933 157.025 88.6444 156.932 88.6148 156.832C88.5853 156.732 88.5755 156.627 88.5862 156.523C88.5969 156.419 88.6278 156.318 88.6772 156.226C88.7265 156.134 88.7934 156.053 88.8739 155.987C96.9644 149.357 108.25 150.458 123.837 154.382C130.096 155.958 135.832 156.901 140.887 157.184C141.095 157.191 141.293 157.28 141.436 157.433C141.579 157.586 141.656 157.79 141.65 158C141.644 158.209 141.556 158.409 141.405 158.553C141.254 158.698 141.052 158.776 140.844 158.771L140.847 158.773Z" fill="#000072"/>
</g>
<g opacity="0.25">
<path d="M136.887 152.049C136.857 152.049 136.828 152.047 136.798 152.043C132.692 151.578 128.204 150.735 123.457 149.54C105.612 145.046 96.509 145.397 89.8693 150.836C89.7067 150.969 89.4984 151.032 89.2901 151.01C89.0818 150.988 88.8906 150.884 88.7586 150.72C88.6267 150.556 88.5646 150.347 88.5862 150.137C88.6079 149.927 88.7113 149.734 88.8739 149.601C96.9644 142.972 108.25 144.072 123.837 147.996C128.516 149.175 132.936 150.005 136.972 150.463C137.171 150.487 137.354 150.586 137.483 150.741C137.612 150.896 137.677 151.094 137.666 151.296C137.655 151.498 137.568 151.688 137.423 151.827C137.277 151.967 137.085 152.045 136.884 152.046L136.887 152.049Z" fill="#000072"/>
</g>
<g opacity="0.25">
<path d="M132.639 144.97C132.596 144.97 132.553 144.966 132.511 144.959C129.645 144.488 126.599 143.848 123.457 143.056C105.612 138.561 96.509 138.912 89.8693 144.352C89.7888 144.418 89.6962 144.467 89.5968 144.497C89.4974 144.527 89.3932 144.537 89.2901 144.526C89.187 144.515 89.0869 144.484 88.9957 144.434C88.9046 144.385 88.824 144.317 88.7586 144.236C88.6933 144.155 88.6444 144.062 88.6148 143.962C88.5853 143.862 88.5755 143.757 88.5862 143.653C88.5969 143.549 88.6278 143.448 88.6772 143.356C88.7265 143.265 88.7934 143.183 88.8739 143.118C96.9644 136.487 108.25 137.587 123.837 141.512C126.939 142.298 129.942 142.927 132.762 143.392C132.958 143.423 133.135 143.528 133.257 143.685C133.38 143.842 133.439 144.041 133.423 144.24C133.407 144.439 133.317 144.625 133.171 144.76C133.025 144.896 132.833 144.971 132.635 144.97H132.639Z" fill="#000072"/>
</g>
<g opacity="0.25">
<path d="M129.271 139.276C129.228 139.276 129.185 139.273 129.143 139.266C126.276 138.793 123.23 138.154 120.09 137.362C102.244 132.868 93.1414 133.219 86.5016 138.658C86.339 138.791 86.1307 138.854 85.9224 138.832C85.7141 138.81 85.523 138.706 85.391 138.542C85.259 138.378 85.197 138.169 85.2186 137.959C85.2402 137.749 85.3436 137.556 85.5062 137.423C93.5968 130.793 104.883 131.893 120.47 135.818C123.568 136.599 126.571 137.23 129.395 137.696C129.591 137.727 129.768 137.832 129.891 137.989C130.013 138.146 130.073 138.344 130.057 138.544C130.041 138.743 129.951 138.929 129.805 139.064C129.659 139.2 129.467 139.274 129.269 139.274L129.271 139.276Z" fill="#000072"/>
</g>
<g opacity="0.25">
<path d="M127.02 133.583C126.977 133.583 126.934 133.58 126.892 133.573C124.021 133.1 120.976 132.461 117.839 131.669C99.9929 127.175 90.8904 127.526 84.2506 132.965C84.1701 133.031 84.0775 133.08 83.9782 133.11C83.8788 133.14 83.7746 133.149 83.6715 133.139C83.5684 133.128 83.4684 133.097 83.3773 133.047C83.2861 132.997 83.2056 132.93 83.1403 132.849C83.075 132.768 83.0262 132.675 82.9966 132.574C82.9671 132.474 82.9574 132.369 82.9681 132.266C82.9788 132.162 83.0098 132.061 83.0591 131.969C83.1085 131.877 83.1753 131.796 83.2558 131.73C91.3464 125.101 102.632 126.201 118.219 130.125C121.314 130.905 124.317 131.537 127.144 132.003C127.34 132.034 127.517 132.139 127.64 132.296C127.762 132.453 127.822 132.651 127.806 132.851C127.79 133.05 127.7 133.236 127.554 133.371C127.408 133.506 127.216 133.581 127.018 133.581L127.02 133.583Z" fill="#000072"/>
</g>
<path d="M100.73 148.444L92.125 146.658L91.0524 146.754L84.8619 147.304L83.8653 147.393L83.4742 147.428L83.3069 147.443L83.1843 147.453L82.8938 147.428L74.2418 146.658L72.8192 146.954L67.4194 148.075L65.6376 148.446H65.6339C62.1298 151.849 55.8088 152.132 52.0271 150.483C48.7908 149.076 47.4154 146.255 51.2511 142.766C46.3618 135.061 45.2016 121.742 52.5125 119.73C52.8882 109.185 55.2382 99.5165 61.8963 91.7705L63.9563 91.8464L81.5913 92.4855H84.7736L104.469 91.7705C111.127 99.5165 113.479 109.185 113.852 119.73C121.164 121.742 120.003 135.061 115.114 142.766C123.431 150.341 107.227 154.761 100.73 148.444Z" fill="#AD9FBC"/>
<path d="M103.477 142.364L102.417 145.637L101.563 147.82V149.569C101.563 149.569 114.446 155.782 117.996 147.488L117.689 145.636L116.666 143.775C116.666 143.775 118.212 141.088 103.477 142.364Z" fill="#F5F5F5"/>
<path d="M63.4873 142.364L64.547 145.637L65.4008 147.82V149.569C65.4008 149.569 52.5172 155.782 48.9678 147.488L49.2742 145.636L50.2966 143.775C50.2966 143.775 48.752 141.088 63.4873 142.364Z" fill="#F5F5F5"/>
<path d="M54.2069 142.767C50.4625 142.052 48.9646 146.332 48.9646 146.332C35.1052 143.581 30.4175 134.332 28.7492 124.625C27.6833 118.407 27.8537 112.005 27.6459 107C27.4443 102.079 26.9018 99.2512 26.0523 97.2842C24.6898 94.1354 22.5452 93.2019 19.7601 89.4172C19.6651 89.2937 19.5762 89.1634 19.4885 89.0362C15.7411 83.5413 20.7659 76.2288 27.223 77.6902C32.298 78.8373 36.3034 83.4981 38.7006 90.552C40.6619 96.3124 41.5488 103.668 41.0664 112.011C40.9941 113.273 40.8901 114.557 40.7545 115.865C40.524 118.083 40.6123 120.329 41.1075 122.506C42.1734 127.227 44.2647 130.131 47.621 130.779C47.6241 130.773 49.2011 142.688 54.2069 142.767Z" fill="#AD9FBC"/>
<path d="M36.564 85.6355C36.564 85.6355 32.8681 98.2306 21.708 91.7719L18.3369 86.2992V81.9119L21.0571 79.6782L22.807 78.5205L25.5394 77.4975C25.5394 77.4975 26.4404 77.4678 27.2286 77.6827C28.0168 77.8976 30.162 79.1379 30.162 79.1379L32.0559 80.064L35.0255 83.2128L36.564 85.6355Z" fill="#F5F5F5"/>
<g opacity="0.3">
<path d="M51.2473 142.766C49.8247 144.059 49.1211 145.26 48.9605 146.331C35.1011 143.58 30.4135 134.33 28.7451 124.624C35.7888 135.026 39.3021 127.871 41.0648 112.007C40.9925 113.268 40.8885 114.553 40.7529 115.861C40.5224 118.078 40.6107 120.325 41.1059 122.502C42.1436 127.099 44.1527 129.972 47.3577 130.713C47.6513 134.855 49.0837 139.36 51.2473 142.766Z" fill="#000072"/>
</g>
<path d="M48.9692 147.286C48.9074 147.286 48.8459 147.28 48.7853 147.268C27.4875 143.042 27.0805 123.725 26.8115 110.942C26.782 109.561 26.7551 108.257 26.7048 107.036C26.3303 97.9073 24.7955 96.3317 22.2531 93.7207C21.2976 92.7396 20.2146 91.6277 19.0047 89.9835C18.9033 89.8456 18.8065 89.709 18.7141 89.5736C16.7724 86.7255 16.7736 83.1606 18.7141 80.2693C20.6878 77.3316 24.03 75.9851 27.4354 76.7556C37.993 79.1431 43.8617 95.2654 41.7005 115.961C41.4701 118.17 41.5822 120.299 42.0327 122.29C43.0024 126.575 44.7382 129.008 47.3382 129.728C47.4603 129.759 47.575 129.814 47.6756 129.89C47.7762 129.967 47.8607 130.062 47.9241 130.172C47.9875 130.282 48.0285 130.403 48.0448 130.529C48.0611 130.654 48.0523 130.782 48.0189 130.905C47.9856 131.027 47.9283 131.141 47.8505 131.241C47.7727 131.341 47.6759 131.424 47.5658 131.485C47.4557 131.547 47.3345 131.586 47.2094 131.6C47.0842 131.613 46.9575 131.602 46.8368 131.566C43.5479 130.656 41.3107 127.676 40.1872 122.713C39.6902 120.518 39.5664 118.179 39.8195 115.762C40.8296 106.077 40.0414 97.017 37.5995 90.2502C35.2581 83.7601 31.5015 79.6309 27.0223 78.6152C23.8792 77.9046 21.4796 79.5555 20.2802 81.3374C19.1076 83.0828 18.4892 85.879 20.271 88.4931C20.3506 88.6104 20.434 88.729 20.5216 88.8475C21.6543 90.3861 22.6883 91.448 23.601 92.3852C26.3634 95.2216 28.1881 97.0948 28.5926 106.956C28.6435 108.197 28.6711 109.51 28.7005 110.9C28.972 123.8 29.344 141.467 49.1482 145.396C49.3783 145.443 49.5831 145.574 49.7228 145.763C49.8626 145.953 49.9273 146.189 49.9043 146.424C49.8814 146.659 49.7725 146.878 49.5988 147.037C49.4251 147.196 49.199 147.284 48.9643 147.284L48.9692 147.286Z" fill="#000072"/>
<g opacity="0.6">
<path d="M104.958 92.3612L86.8153 93.0187H83.636L63.941 92.3038C57.2829 100.05 54.9311 109.719 54.5572 120.264C47.2457 122.275 48.4065 135.594 53.2958 143.299C49.2334 146.998 51.0182 149.946 54.6675 151.256C49.7642 150.416 46.4795 147.109 51.2487 142.769C46.3594 135.064 45.1991 121.745 52.51 119.733C52.8858 109.188 55.2357 99.5194 61.8939 91.7734L81.5889 92.4884H84.7718L104.467 91.7734C104.63 91.9673 104.797 92.1667 104.958 92.3612Z" fill="#F5F5F5"/>
</g>
<path d="M79.402 152.697C73.6074 152.795 68.4442 152.103 65.6302 148.448C65.031 147.659 64.5586 146.78 64.2303 145.844H64.2266V145.837C63.6842 144.34 63.3912 142.536 63.3943 140.359L61.5016 120.647L60.9751 115.152L74.6169 118.558L79.6386 119.813C79.6386 119.813 78.9441 144.193 79.1654 144.278C81.2156 145.081 82.3887 146.236 82.8901 147.43C83.9027 149.85 82.165 152.449 79.402 152.697Z" fill="#AD9FBC"/>
<path d="M65.3999 148.128C65.3999 148.128 75.0675 139.827 80.745 144.593L82.5501 146.921L82.691 148.128L82.8872 150.205L82.2687 151.462L80.6138 152.418C80.6138 152.418 68.6649 153.569 65.3999 148.128Z" fill="#F5F5F5"/>
<g opacity="0.3">
<path d="M83.1812 147.453L82.8907 147.428C83.9032 149.849 82.1656 152.448 79.4025 152.695C73.608 152.794 68.4447 152.101 65.6308 148.447C62.1267 151.85 55.8057 152.133 52.0239 150.484C57.6922 148.181 59.5059 141.27 56.4682 132.094C53.1057 121.94 61.3066 120.672 61.4991 120.643H61.5021L64.2241 145.834V145.84H64.2278C65.4537 146.834 66.5048 147.562 67.415 148.073C71.1213 150.168 72.4085 148.7 72.8148 146.952C73.1526 145.519 72.8939 143.895 72.8939 143.895L72.0769 121.508C72.9411 120.269 73.79 119.297 74.6162 118.553C81.4105 112.428 86.7692 121.508 86.7692 121.508L87.2927 142.764L83.18 146.603C83.18 146.603 83.2272 146.923 83.3025 147.441L83.1812 147.453Z" fill="#000072"/>
</g>
<path d="M79.9552 119.82C80.0034 122.897 80.0292 125.974 80.0324 129.05L80.0459 133.664L80.0404 138.274C80.0404 139.809 80.0306 141.348 80.049 142.872C80.0545 143.248 80.0606 143.64 80.079 143.983L80.087 144.083C80.087 144.083 80.087 144.104 80.087 144.094C80.087 144.084 80.087 144.069 80.0815 144.057L80.0551 143.96C79.9796 143.734 79.8202 143.545 79.6101 143.435C79.4735 143.373 79.517 143.396 79.5151 143.393L79.5237 143.396L79.5421 143.404L79.8302 143.523C80.023 143.6 80.2137 143.686 80.402 143.782C81.1861 144.154 81.9073 144.648 82.5393 145.246C83.1786 145.875 83.7271 146.675 83.9968 147.617C84.2665 148.558 84.2365 149.602 83.8712 150.514C83.5166 151.421 82.9021 152.2 82.106 152.753C81.7181 153.024 81.2965 153.243 80.8519 153.403C80.411 153.554 79.9542 153.653 79.4906 153.699C79.4703 153.701 79.4498 153.703 79.4293 153.703H79.4201C77.4392 153.732 75.4361 153.674 73.4227 153.382C71.4209 153.082 69.3676 152.548 67.5325 151.413C66.6103 150.842 65.7864 150.124 65.0931 149.287C64.4064 148.45 63.8572 147.508 63.4664 146.497C62.6757 144.498 62.4655 142.397 62.4496 140.359L62.4539 140.451C62.3484 139.401 62.2277 138.351 62.1431 137.302C62.0585 136.252 61.9966 135.196 61.9218 134.143L61.4928 127.825L61.0638 121.506L60.6641 115.185C60.6574 115.101 60.6834 115.019 60.7365 114.955C60.7897 114.891 60.8656 114.85 60.9481 114.842C61.0305 114.834 61.1128 114.859 61.1772 114.912C61.2417 114.964 61.283 115.04 61.2924 115.123L62.102 121.404L62.8817 127.689L63.6613 133.973C63.7882 135.023 63.9273 136.068 64.0444 137.117C64.1615 138.166 64.2424 139.216 64.338 140.265C64.341 140.294 64.3423 140.323 64.3429 140.352V140.358C64.3558 142.239 64.5598 144.124 65.2255 145.791C65.8522 147.454 67.0186 148.854 68.5353 149.765C70.0455 150.691 71.8555 151.168 73.7016 151.428C75.5569 151.686 77.4692 151.723 79.3889 151.692L79.3172 151.697C80.5185 151.603 81.6101 150.838 82.0061 149.783C82.2084 149.263 82.2404 148.692 82.0974 148.153C81.9503 147.608 81.6242 147.09 81.1817 146.638C80.7033 146.177 80.1566 145.794 79.5611 145.502C79.4087 145.42 79.2522 145.346 79.0922 145.281L78.8526 145.176L78.722 145.115C78.5057 144.992 78.342 144.793 78.2623 144.556C78.2495 144.522 78.2401 144.487 78.2341 144.451L78.2292 144.424L78.2133 144.315L78.2078 144.253C78.2016 144.177 78.2004 144.121 78.1986 144.068C78.1882 143.64 78.1986 143.265 78.1986 142.87C78.2274 141.319 78.2746 139.783 78.3297 138.24L78.5198 133.626L78.7557 129.016C78.9098 125.943 79.0996 122.871 79.3251 119.8C79.3302 119.718 79.3669 119.641 79.4274 119.585C79.4879 119.53 79.5675 119.5 79.6494 119.502C79.7313 119.505 79.809 119.539 79.8662 119.598C79.9234 119.657 79.9555 119.736 79.9558 119.819L79.9552 119.82Z" fill="#000072"/>
<path d="M69.107 145.701C69.8112 145.083 70.5737 144.641 71.3932 144.26C72.2144 143.885 73.0737 143.601 73.9558 143.413C74.1764 143.364 74.4002 143.334 74.6239 143.294L74.9597 143.239L75.2975 143.206L75.9766 143.144L76.6575 143.129L76.9996 143.123L77.3397 143.14L78.0219 143.177C78.4755 143.216 78.9241 143.289 79.3783 143.345C79.5021 143.36 79.6216 143.4 79.7301 143.462C79.8386 143.523 79.934 143.606 80.0107 143.705C80.0875 143.804 80.1441 143.917 80.1774 144.038C80.2107 144.16 80.22 144.286 80.2048 144.411C80.1896 144.535 80.1502 144.656 80.0888 144.765C80.0273 144.874 79.9452 144.97 79.8469 145.048C79.7486 145.125 79.6362 145.182 79.5161 145.216C79.3959 145.249 79.2704 145.259 79.1466 145.243C79.1118 145.239 79.0772 145.233 79.043 145.225L78.9578 145.204C78.5668 145.107 78.1757 144.991 77.7792 144.908L77.1816 144.8L76.8813 144.747L76.5797 144.716L75.9735 144.654L75.3649 144.635L75.0584 144.626L74.752 144.639C74.5491 144.65 74.3444 144.652 74.139 144.67C73.3215 144.742 72.5141 144.902 71.7309 145.149C70.9525 145.396 70.1661 145.741 69.5109 146.186L69.4851 146.203C69.4188 146.25 69.3372 146.269 69.2573 146.256C69.1774 146.244 69.1054 146.201 69.0562 146.136C69.007 146.071 68.9844 145.99 68.993 145.909C69.0017 145.828 69.0409 145.754 69.1027 145.701L69.107 145.701Z" fill="#000072"/>
<path d="M73.8742 148.045C74.0104 148.391 74.1172 148.747 74.1935 149.11C74.2734 149.484 74.3183 149.864 74.3277 150.246C74.3321 150.658 74.282 151.068 74.1788 151.467C74.0533 151.906 73.8498 152.319 73.5781 152.685L73.5432 152.732C73.3911 152.939 73.1637 153.077 72.9109 153.114C72.6582 153.152 72.4008 153.088 72.1954 152.935C71.99 152.781 71.8534 152.552 71.8157 152.298C71.778 152.043 71.8423 151.784 71.9943 151.577C72.0575 151.492 72.1338 151.417 72.2205 151.356C72.4166 151.222 72.5867 151.053 72.7225 150.858C72.8734 150.62 72.992 150.362 73.0749 150.093C73.1616 149.793 73.2201 149.486 73.2496 149.176C73.2807 148.855 73.2858 148.532 73.2649 148.211V148.186C73.2575 148.109 73.2782 148.031 73.3233 147.968C73.3684 147.905 73.4347 147.861 73.5099 147.844C73.585 147.827 73.6639 147.838 73.7316 147.875C73.7993 147.912 73.8513 147.972 73.8779 148.045H73.8742Z" fill="#000072"/>
<path d="M79.1187 148.043C79.2653 148.408 79.3881 148.783 79.4864 149.164C79.5891 149.554 79.6602 149.951 79.6991 150.352C79.7443 150.783 79.7351 151.219 79.6715 151.648C79.595 152.141 79.4169 152.612 79.1487 153.031L79.0929 153.116C78.9496 153.326 78.7304 153.471 78.4823 153.52C78.2343 153.569 77.977 153.518 77.7657 153.378C77.5543 153.239 77.4057 153.021 77.3515 152.773C77.2974 152.524 77.3421 152.264 77.476 152.048C77.5359 151.957 77.6097 151.877 77.6949 151.81C77.889 151.649 78.0455 151.446 78.1533 151.217C78.2871 150.93 78.3829 150.626 78.4383 150.313C78.5024 149.973 78.5386 149.627 78.5468 149.28C78.5579 148.925 78.5464 148.57 78.5125 148.216V148.199C78.5017 148.121 78.52 148.041 78.564 147.976C78.608 147.91 78.6744 147.863 78.7505 147.844C78.8267 147.825 78.9071 147.835 78.9763 147.873C79.0455 147.91 79.0987 147.971 79.1254 148.046L79.1187 148.043Z" fill="#000072"/>
<path d="M57.1482 152.409C55.6349 152.409 54.1731 152.2 52.897 151.816C50.2455 151.018 48.4882 149.508 48.077 147.674C47.8183 146.521 47.9789 144.741 50.0457 142.611C46.552 136.668 45.3488 128.651 47.263 123.648C48.1352 121.369 49.624 119.786 51.5939 119.031C52.1192 107.012 55.1734 98.1383 61.1812 91.1474C61.2617 91.0502 61.3607 90.97 61.4723 90.9117C61.5839 90.8534 61.7059 90.8181 61.8312 90.8078C61.9565 90.7976 62.0826 90.8125 62.2021 90.8519C62.3216 90.8912 62.4321 90.9542 62.5272 91.037C62.6222 91.1199 62.7 91.221 62.7558 91.3344C62.8117 91.4479 62.8445 91.5714 62.8525 91.6978C62.8604 91.8242 62.8433 91.9509 62.802 92.0705C62.7608 92.1902 62.6964 92.3003 62.6124 92.3946C56.7896 99.1681 53.8826 107.866 53.459 119.765C53.4517 119.969 53.3801 120.164 53.2547 120.323C53.1294 120.482 52.9568 120.597 52.7621 120.651C51.0392 121.124 49.7827 122.363 49.0288 124.334C47.2673 128.938 48.5943 136.809 52.0487 142.253C52.1693 142.443 52.2191 142.67 52.1892 142.893C52.1594 143.117 52.0518 143.323 51.8857 143.474C50.821 144.442 49.6178 145.885 49.9243 147.254C50.1768 148.38 51.4909 149.403 53.44 149.989C56.9472 151.046 62.0363 150.618 64.9777 147.757C65.1583 147.582 65.4007 147.486 65.6517 147.49C65.9027 147.494 66.1416 147.599 66.316 147.781C66.4903 147.963 66.5858 148.207 66.5814 148.46C66.5769 148.713 66.473 148.954 66.2924 149.129C63.9228 151.435 60.4175 152.409 57.1482 152.409Z" fill="#000072"/>
<path d="M52.4314 118.782L57.176 119.018C57.2533 119.021 57.3267 119.053 57.3825 119.107C57.4383 119.161 57.4726 119.234 57.4791 119.311C57.4856 119.389 57.4637 119.466 57.4176 119.529C57.3715 119.592 57.3044 119.635 57.2287 119.651L52.5914 120.682C52.4677 120.713 52.3393 120.718 52.2135 120.698C52.0878 120.678 51.9674 120.632 51.8593 120.565C51.7512 120.497 51.6576 120.408 51.5841 120.303C51.5105 120.199 51.4585 120.08 51.4311 119.955C51.4037 119.83 51.4014 119.7 51.4244 119.574C51.4474 119.448 51.4952 119.328 51.5649 119.22C51.6347 119.113 51.7251 119.021 51.8307 118.95C51.9364 118.878 52.0552 118.828 52.1801 118.804C52.2626 118.786 52.347 118.779 52.4314 118.782Z" fill="#000072"/>
<path d="M50.8092 141.924C50.9214 141.873 51.0364 141.828 51.1536 141.791C51.2578 141.754 51.3559 141.729 51.4564 141.697C51.6556 141.643 51.853 141.592 52.0485 141.555C52.4334 141.476 52.8221 141.416 53.213 141.377C53.9764 141.305 54.7441 141.29 55.5096 141.332C56.2609 141.372 57.0093 141.456 57.7511 141.582C58.1189 141.644 58.4866 141.724 58.8482 141.794L59.9294 142.057C60.0077 142.076 60.076 142.123 60.1206 142.191C60.1653 142.258 60.1827 142.34 60.1695 142.419C60.1563 142.499 60.1134 142.571 60.0496 142.62C59.9857 142.669 59.9057 142.692 59.8258 142.683H59.8111L58.7348 142.582C58.3751 142.566 58.0177 142.54 57.6604 142.533C56.9505 142.516 56.2402 142.54 55.5329 142.604C54.8399 142.667 54.1523 142.781 53.476 142.945C53.1486 143.027 52.8255 143.126 52.5082 143.241C52.3513 143.296 52.2017 143.359 52.0546 143.422C51.9853 143.456 51.91 143.488 51.8462 143.523C51.792 143.548 51.7399 143.578 51.6905 143.612C51.595 143.727 51.4749 143.82 51.3392 143.882C51.2035 143.944 51.0557 143.975 50.9066 143.972C50.7575 143.968 50.611 143.932 50.478 143.864C50.345 143.796 50.2289 143.699 50.1382 143.579C50.0475 143.46 49.9846 143.322 49.9541 143.175C49.9236 143.028 49.9264 142.876 49.9621 142.73C49.9979 142.584 50.0658 142.448 50.1607 142.333C50.2557 142.217 50.3753 142.124 50.5107 142.061L50.8092 141.924Z" fill="#000072"/>
<path d="M58.3979 145.951C58.297 146.422 58.2479 146.903 58.2514 147.385C58.2483 147.843 58.3163 148.299 58.4531 148.736C58.5773 149.114 58.7925 149.455 59.0795 149.729C59.3388 149.987 59.7028 150.112 60.0553 150.23L60.1466 150.261C60.387 150.342 60.5857 150.516 60.699 150.744C60.8123 150.973 60.8309 151.237 60.7506 151.479C60.6704 151.721 60.498 151.921 60.2712 152.036C60.0445 152.15 59.7821 152.168 59.5416 152.088C59.4776 152.065 59.416 152.037 59.3578 152.002L58.941 151.755L58.7375 151.628C58.6719 151.581 58.61 151.523 58.5469 151.47C58.4243 151.36 58.2968 151.255 58.1791 151.139C58.0731 151.01 57.9695 150.881 57.8696 150.751C57.5129 150.228 57.2887 149.626 57.2168 148.996C57.1595 148.426 57.1907 147.85 57.3094 147.29C57.4163 146.754 57.5828 146.231 57.8059 145.733C57.8385 145.662 57.896 145.605 57.9674 145.574C58.0388 145.543 58.119 145.539 58.1928 145.564C58.2666 145.589 58.3287 145.64 58.3673 145.708C58.406 145.776 58.4184 145.856 58.4022 145.933L58.3979 145.951Z" fill="#000072"/>
<path d="M53.969 145.942C53.7733 146.368 53.627 146.816 53.5332 147.276C53.4389 147.71 53.4143 148.156 53.4603 148.597C53.5094 148.979 53.6541 149.341 53.8808 149.651C53.94 149.719 53.9966 149.787 54.0505 149.855L54.2614 150.027C54.3292 150.089 54.4061 150.141 54.4894 150.18L54.7278 150.322L54.813 150.372C55.0317 150.501 55.1904 150.712 55.2544 150.959C55.3184 151.206 55.2823 151.469 55.1541 151.689C55.0259 151.909 54.8162 152.069 54.5709 152.133C54.3257 152.198 54.0651 152.161 53.8464 152.032C53.7888 151.997 53.7347 151.957 53.6846 151.912L53.3365 151.591C53.2165 151.487 53.1086 151.37 53.0147 151.242L52.726 150.857C52.6488 150.713 52.574 150.568 52.5029 150.425C52.2512 149.854 52.1458 149.228 52.1965 148.605C52.2543 148.044 52.401 147.496 52.631 146.981C52.8455 146.49 53.1164 146.025 53.4382 145.597C53.4852 145.534 53.5538 145.49 53.6305 145.476C53.7073 145.461 53.7868 145.475 53.8537 145.516C53.9207 145.556 53.9702 145.621 53.9927 145.696C54.0153 145.771 54.0092 145.853 53.9758 145.924L53.969 145.942Z" fill="#000072"/>
<path d="M105.38 115.149L102.961 140.357C102.964 143.996 102.144 146.598 100.721 148.445C98.4624 151.385 94.6837 152.411 90.2805 152.644C89.2048 152.706 88.0918 152.714 86.9529 152.695C84.1899 152.448 82.4517 149.848 83.4642 147.427C83.7065 146.871 84.0549 146.367 84.4896 145.946C85.1264 145.313 86.0127 144.739 87.1865 144.279C87.4071 144.193 86.7133 119.813 86.7133 119.813L99.7465 116.56L105.38 115.149Z" fill="#AD9FBC"/>
<path d="M100.864 148.128C100.864 148.128 91.1972 139.828 85.5197 144.593L83.7147 146.921L83.5731 148.128L83.377 150.205L83.9954 151.462L85.6503 152.417C85.6503 152.417 97.5992 153.569 100.864 148.128Z" fill="#F5F5F5"/>
<path d="M87.0386 119.801C87.2605 122.872 87.4503 125.944 87.608 129.017L87.8446 133.627L88.0346 138.241C88.0891 139.78 88.1369 141.317 88.1651 142.871C88.1707 143.264 88.178 143.64 88.1651 144.069C88.1651 144.124 88.1615 144.179 88.1553 144.254L88.1504 144.316L88.1339 144.424L88.129 144.452C88.1198 144.486 88.1443 144.408 88.1014 144.557C88.0217 144.794 87.8578 144.993 87.6411 145.115L87.5105 145.177L87.2715 145.282C87.1115 145.347 86.955 145.421 86.8026 145.502C86.2071 145.794 85.6601 146.178 85.1814 146.639C84.7395 147.091 84.4128 147.608 84.2664 148.154C84.1227 148.693 84.1547 149.264 84.3577 149.784C84.7536 150.837 85.8452 151.602 87.0466 151.697L86.9748 151.693C88.8945 151.723 90.8068 151.687 92.6615 151.429C94.5162 151.171 96.3182 150.688 97.8285 149.766C99.3451 148.855 100.512 147.455 101.138 145.792C101.803 144.125 102.008 142.241 102.021 140.359V140.355C102.021 140.326 102.021 140.293 102.025 140.266C102.121 139.217 102.202 138.163 102.319 137.117C102.436 136.072 102.576 135.022 102.702 133.974L103.482 127.69L104.262 121.401L105.071 115.12C105.081 115.037 105.122 114.961 105.186 114.909C105.251 114.856 105.333 114.831 105.416 114.839C105.498 114.847 105.574 114.888 105.627 114.952C105.68 115.016 105.706 115.098 105.7 115.182L105.3 121.503L104.871 127.822L104.442 134.14C104.367 135.193 104.305 136.248 104.221 137.299C104.136 138.35 104.015 139.398 103.91 140.448L103.914 140.356C103.898 142.393 103.688 144.495 102.897 146.494C102.506 147.506 101.957 148.447 101.271 149.284C100.577 150.121 99.753 150.839 98.8306 151.41C96.9961 152.545 94.9422 153.077 92.941 153.379C90.9282 153.671 88.9246 153.729 86.943 153.7H86.9356C86.9141 153.7 86.8926 153.698 86.8713 153.696C86.4078 153.651 85.9512 153.551 85.5106 153.4C85.066 153.24 84.6443 153.021 84.2565 152.75C83.4601 152.197 82.8453 151.418 82.4907 150.511C82.123 149.599 82.1027 148.55 82.3681 147.614C82.6335 146.678 83.1864 145.872 83.8257 145.243C84.4576 144.645 85.1788 144.152 85.9629 143.779C86.1509 143.683 86.3415 143.597 86.5348 143.521L86.8228 143.401L86.8406 143.393L86.8498 143.39C86.8498 143.39 86.8909 143.368 86.7548 143.432C86.5443 143.542 86.3847 143.73 86.3098 143.957L86.2835 144.054C86.2804 144.066 86.2786 144.079 86.278 144.091C86.278 144.101 86.278 144.083 86.278 144.081L86.2859 143.98C86.3043 143.64 86.3098 143.248 86.3153 142.869C86.3343 141.345 86.3258 139.806 86.3245 138.271L86.319 133.661L86.3325 129.047C86.3325 125.971 86.3583 122.895 86.4097 119.817C86.4118 119.736 86.4447 119.658 86.5017 119.601C86.5587 119.543 86.6354 119.51 86.7161 119.508C86.7968 119.505 86.8753 119.534 86.9355 119.588C86.9957 119.642 87.033 119.718 87.0398 119.799L87.0386 119.801Z" fill="#000072"/>
<path d="M96.8457 146.187C96.1905 145.742 95.4035 145.396 94.6251 145.15C93.8419 144.903 93.0345 144.743 92.2169 144.671C92.0141 144.653 91.8087 144.651 91.604 144.64L91.2976 144.627L90.9911 144.636L90.3825 144.655L89.7763 144.717L89.4741 144.748L89.1744 144.801L88.5762 144.909C88.1802 144.992 87.7892 145.108 87.3982 145.205L87.3185 145.224C87.1973 145.254 87.0716 145.26 86.9483 145.24C86.8251 145.221 86.7069 145.178 86.6003 145.113C86.4938 145.047 86.401 144.962 86.3274 144.86C86.2537 144.759 86.2006 144.644 86.1711 144.522C86.1415 144.4 86.1361 144.273 86.1552 144.149C86.1743 144.025 86.2174 143.906 86.2822 143.798C86.347 143.691 86.4321 143.598 86.5327 143.523C86.6333 143.449 86.7474 143.396 86.8686 143.366C86.9029 143.357 86.9434 143.351 86.9777 143.346C87.4319 143.289 87.8805 143.217 88.3341 143.178L89.0163 143.141L89.3564 143.124L89.6984 143.13L90.3794 143.145L91.0579 143.207L91.3962 143.239L91.7321 143.295C91.9552 143.335 92.1789 143.365 92.4002 143.414C93.2823 143.602 94.1415 143.886 94.9628 144.261C95.7823 144.642 96.5448 145.085 97.249 145.702C97.3108 145.754 97.35 145.829 97.3587 145.91C97.3673 145.991 97.3447 146.072 97.2955 146.136C97.2463 146.201 97.1742 146.244 97.0944 146.257C97.0145 146.269 96.9329 146.25 96.8666 146.204L96.8457 146.187Z" fill="#000072"/>
<path d="M93.0981 148.211C93.0771 148.532 93.0824 148.855 93.114 149.176C93.143 149.486 93.2013 149.793 93.2881 150.093C93.3711 150.362 93.4896 150.62 93.6405 150.858C93.7767 151.053 93.9467 151.222 94.1425 151.356C94.3509 151.504 94.4931 151.728 94.538 151.98C94.5828 152.232 94.5268 152.492 94.3821 152.703C94.2373 152.914 94.0157 153.059 93.7655 153.106C93.5153 153.152 93.2568 153.098 93.0466 152.953C92.9608 152.893 92.885 152.82 92.8223 152.736L92.7855 152.684C92.5136 152.319 92.3099 151.906 92.1842 151.467C92.0815 151.068 92.0316 150.658 92.0359 150.246C92.0448 149.864 92.0896 149.484 92.1695 149.11C92.2463 148.747 92.3534 148.391 92.4895 148.045C92.516 147.972 92.568 147.912 92.6357 147.875C92.7034 147.838 92.7823 147.827 92.8574 147.844C92.9326 147.861 92.9989 147.905 93.044 147.968C93.0891 148.031 93.1098 148.109 93.1024 148.186L93.0981 148.211Z" fill="#000072"/>
<path d="M87.8614 148.213C87.8272 148.567 87.8157 148.922 87.827 149.278C87.8352 149.624 87.8715 149.97 87.9355 150.311C87.9907 150.623 88.0863 150.927 88.2199 151.214C88.3277 151.443 88.4843 151.646 88.6784 151.807C88.7893 151.893 88.8802 152.003 88.9448 152.128C89.0094 152.254 89.0462 152.392 89.0527 152.533C89.0591 152.674 89.0351 152.814 88.9821 152.945C88.9292 153.076 88.8487 153.193 88.7461 153.29C88.6436 153.386 88.5215 153.459 88.3883 153.503C88.2551 153.547 88.1141 153.561 87.9749 153.544C87.8356 153.528 87.7016 153.481 87.5821 153.408C87.4626 153.334 87.3605 153.235 87.2828 153.117L87.2215 153.028C86.9538 152.609 86.7759 152.138 86.6993 151.645C86.6351 151.216 86.6258 150.78 86.6717 150.349C86.7106 149.948 86.7817 149.551 86.8844 149.162C86.9821 148.78 87.105 148.405 87.2521 148.04C87.281 147.969 87.3343 147.91 87.4023 147.875C87.4703 147.841 87.5485 147.832 87.6225 147.85C87.6966 147.869 87.7615 147.913 87.8055 147.976C87.8494 148.039 87.8695 148.116 87.862 148.192L87.8614 148.213Z" fill="#000072"/>
<path d="M109.213 152.409C105.943 152.409 102.438 151.432 100.07 149.129C99.9805 149.042 99.9089 148.938 99.8593 148.824C99.8098 148.709 99.7831 148.585 99.7809 148.46C99.7787 148.335 99.801 148.211 99.8466 148.094C99.8921 147.978 99.96 147.871 100.046 147.781C100.133 147.691 100.236 147.619 100.35 147.569C100.464 147.519 100.586 147.492 100.711 147.49C100.835 147.488 100.958 147.51 101.074 147.556C101.19 147.602 101.295 147.67 101.385 147.757C104.327 150.618 109.414 151.046 112.922 149.989C114.871 149.403 116.185 148.38 116.438 147.254C116.744 145.885 115.54 144.442 114.477 143.474C114.31 143.323 114.203 143.117 114.173 142.893C114.143 142.67 114.193 142.443 114.314 142.253C117.768 136.809 119.094 128.938 117.333 124.334C116.579 122.363 115.323 121.123 113.6 120.651C113.405 120.597 113.233 120.482 113.108 120.323C112.982 120.164 112.911 119.969 112.903 119.765C112.479 107.866 109.571 99.1681 103.75 92.3946C103.666 92.3003 103.601 92.1902 103.56 92.0705C103.519 91.9509 103.502 91.8242 103.51 91.6978C103.518 91.5714 103.551 91.4479 103.606 91.3344C103.662 91.221 103.74 91.1199 103.835 91.037C103.93 90.9542 104.041 90.8912 104.16 90.8519C104.28 90.8125 104.406 90.7976 104.531 90.8078C104.656 90.8181 104.778 90.8534 104.89 90.9117C105.002 90.97 105.101 91.0502 105.181 91.1474C111.188 98.1383 114.243 107.015 114.768 119.031C116.738 119.786 118.226 121.369 119.099 123.648C121.013 128.649 119.81 136.668 116.316 142.611C118.383 144.741 118.544 146.521 118.285 147.674C117.873 149.508 116.117 151.018 113.465 151.816C112.188 152.2 110.726 152.409 109.213 152.409Z" fill="#000072"/>
<path d="M113.774 120.682L109.135 119.651C109.059 119.635 108.992 119.591 108.946 119.529C108.9 119.466 108.878 119.389 108.884 119.311C108.891 119.234 108.925 119.161 108.981 119.107C109.037 119.053 109.11 119.021 109.188 119.018L113.932 118.782C114.183 118.772 114.428 118.863 114.614 119.034C114.799 119.205 114.91 119.443 114.922 119.696C114.935 119.949 114.848 120.196 114.68 120.385C114.512 120.574 114.277 120.688 114.027 120.703C113.942 120.707 113.857 120.7 113.774 120.682Z" fill="#000072"/>
<path d="M114.672 143.609C114.622 143.575 114.57 143.545 114.516 143.52C114.455 143.485 114.376 143.453 114.307 143.42C114.161 143.358 114.011 143.296 113.854 143.238C113.537 143.123 113.213 143.024 112.886 142.942C112.209 142.778 111.522 142.664 110.829 142.601C110.122 142.537 109.411 142.513 108.701 142.53C108.344 142.537 107.987 142.563 107.627 142.579L106.551 142.681H106.536C106.457 142.689 106.377 142.666 106.313 142.617C106.249 142.568 106.206 142.496 106.193 142.416C106.18 142.337 106.197 142.255 106.242 142.188C106.286 142.12 106.355 142.073 106.433 142.054L107.514 141.791C107.878 141.721 108.243 141.64 108.611 141.579C109.353 141.453 110.101 141.369 110.853 141.329C111.618 141.287 112.386 141.302 113.149 141.374C113.54 141.414 113.929 141.473 114.314 141.552C114.509 141.59 114.707 141.64 114.905 141.694C115.006 141.725 115.104 141.751 115.209 141.788C115.326 141.825 115.441 141.87 115.553 141.921L115.844 142.054C115.966 142.107 116.076 142.183 116.168 142.279C116.26 142.375 116.333 142.489 116.38 142.613C116.428 142.738 116.451 142.87 116.447 143.004C116.444 143.137 116.413 143.269 116.358 143.39C116.304 143.511 116.225 143.621 116.128 143.711C116.03 143.802 115.916 143.872 115.792 143.917C115.667 143.962 115.535 143.982 115.402 143.975C115.27 143.969 115.14 143.935 115.021 143.877C114.887 143.815 114.767 143.723 114.672 143.609Z" fill="#000072"/>
<path d="M108.557 145.732C108.78 146.231 108.946 146.754 109.053 147.29C109.172 147.85 109.203 148.426 109.146 148.995C109.074 149.625 108.85 150.228 108.493 150.751C108.393 150.88 108.29 151.01 108.184 151.139C108.068 151.255 107.943 151.36 107.816 151.469C107.755 151.522 107.693 151.58 107.625 151.628L107.422 151.755L107.005 152.001C106.787 152.132 106.527 152.17 106.281 152.107C106.035 152.044 105.825 151.885 105.695 151.666C105.566 151.446 105.528 151.184 105.591 150.936C105.653 150.689 105.811 150.477 106.029 150.346C106.086 150.312 106.146 150.284 106.209 150.262L106.305 150.23C106.658 150.112 107.022 149.987 107.281 149.729C107.568 149.455 107.783 149.114 107.908 148.735C108.045 148.299 108.113 147.843 108.109 147.385C108.113 146.903 108.064 146.422 107.962 145.951L107.958 145.93C107.94 145.853 107.952 145.772 107.99 145.703C108.029 145.634 108.091 145.581 108.166 145.556C108.24 145.531 108.322 145.535 108.393 145.567C108.465 145.599 108.523 145.657 108.554 145.73L108.557 145.732Z" fill="#000072"/>
<path d="M112.919 145.596C113.241 146.024 113.512 146.489 113.726 146.981C113.957 147.495 114.104 148.043 114.162 148.604C114.212 149.227 114.107 149.853 113.855 150.425C113.783 150.569 113.709 150.715 113.631 150.857L113.343 151.242C113.249 151.37 113.141 151.487 113.022 151.591L112.673 151.912C112.581 151.997 112.472 152.063 112.355 152.106C112.237 152.15 112.111 152.169 111.986 152.163C111.861 152.158 111.737 152.128 111.624 152.074C111.51 152.021 111.408 151.945 111.323 151.852C111.238 151.759 111.173 151.649 111.13 151.531C111.087 151.412 111.068 151.286 111.073 151.159C111.079 151.033 111.109 150.909 111.162 150.794C111.215 150.68 111.29 150.577 111.383 150.492C111.431 150.447 111.484 150.408 111.54 150.374L111.63 150.321L111.869 150.18C111.952 150.141 112.029 150.089 112.097 150.027L112.307 149.855C112.361 149.787 112.417 149.719 112.477 149.651C112.703 149.341 112.848 148.978 112.897 148.597C112.943 148.155 112.919 147.709 112.825 147.276C112.731 146.816 112.585 146.368 112.389 145.942L112.38 145.922C112.347 145.851 112.341 145.77 112.364 145.695C112.387 145.62 112.436 145.556 112.503 145.516C112.569 145.475 112.648 145.461 112.725 145.475C112.801 145.49 112.869 145.532 112.917 145.594L112.919 145.596Z" fill="#000072"/>
<g opacity="0.3">
<path d="M100.72 148.445C98.4619 151.384 94.6832 152.41 90.28 152.643C89.9551 152.497 89.7786 152.414 89.7786 152.414C82.9844 152.932 83.1737 149.451 83.8547 147.391C84.0184 146.889 84.2309 146.405 84.4891 145.945C84.4891 146.536 84.6117 146.984 84.8483 147.304C85.7946 148.622 88.4761 147.91 91.0388 146.754C92.3456 146.157 93.6131 145.477 94.8334 144.717C98.2118 142.617 98.8676 132.519 99.6564 118.221C99.6879 117.645 99.7173 117.089 99.7447 116.554C100.382 103.785 99.6564 102.174 99.6564 102.174C74.7381 105.193 62.7837 91.8704 62.7837 91.8704L63.9446 91.8445L81.5795 92.4835H84.7643L104.459 91.7686C111.118 99.5145 113.469 109.183 113.843 119.728C115.326 120.135 116.458 121.009 117.284 122.204C109.102 117.419 103.652 117.774 104.077 129.18L104.055 134.423C105.91 126.07 120.164 118.749 118.114 135.059L118.634 133.495C118.032 136.79 116.789 140.11 115.105 142.763C123.421 150.342 107.218 154.761 100.72 148.445Z" fill="#000072"/>
</g>
<path d="M101.208 10.099C131.401 -7.6693 134.919 0.438474 127.809 36.6654C132.54 61.3369 138.324 86.4425 101.046 93.7927C90.6358 95.8443 79.9291 95.8443 69.5184 93.7927C32.2411 86.4455 38.0246 61.3369 42.7558 36.6654C35.6459 0.438474 39.1653 -7.6693 69.3566 10.099C79.9748 6.87863 90.5921 6.87863 101.208 10.099Z" fill="#AD9FBC"/>
<g opacity="0.3">
<path d="M69.5249 91.3224C79.9354 93.374 90.6419 93.374 101.052 91.3224C124.265 86.7449 130.779 75.2822 131.247 61.3276C131.045 54.5682 129.691 47.3341 128.295 40.082C128.175 40.1302 128.052 40.1786 127.927 40.2271C128.014 40.1938 128.097 40.1604 128.181 40.1271C128.525 43.1722 128.714 46.1524 128.655 49.0307C128.962 64.2448 123.195 76.9572 98.4383 81.8366C88.0277 83.8894 77.3207 83.8894 66.9102 81.8366C51.1134 78.7211 43.0504 72.4193 39.3618 64.3097C39.4311 64.4615 39.5052 64.6122 39.5776 64.7628C40.9995 77.1455 48.2455 87.1265 69.5249 91.3224Z" fill="#000072"/>
</g>
<g opacity="0.6">
<path d="M130.343 7.04911C127.156 0.936794 118.626 2.91558 102.124 12.628C91.5057 9.40883 80.889 9.40883 70.2736 12.628C40.0811 -5.14033 36.5629 2.96744 43.6728 39.1943C41.2034 52.0672 38.4495 65.0636 41.6759 75.5867C37.0833 64.6586 40.0903 50.5904 42.762 36.6654C35.6521 0.438549 39.1691 -7.66923 69.3628 10.0991C79.9774 6.87994 90.593 6.87994 101.21 10.0991C119.674 -0.7691 128.167 -1.95575 130.343 7.04911Z" fill="#F5F5F5"/>
</g>
<path d="M84.3101 80.9348C91.8453 80.9348 97.9538 76.4294 97.9538 70.8717C97.9538 65.314 91.8453 60.8086 84.3101 60.8086C76.775 60.8086 70.6665 65.314 70.6665 70.8717C70.6665 76.4294 76.775 80.9348 84.3101 80.9348Z" fill="#F5F5F5"/>
<path d="M51.458 58.7784C51.8631 57.1342 52.6838 55.5246 53.9814 54.2207C54.6475 53.553 55.4243 53.0077 56.2768 52.6092C57.1688 52.1932 58.1356 51.9645 59.1183 51.9369C60.1114 51.9173 61.0972 52.1129 62.0088 52.5104C62.8879 52.8947 63.6855 53.4455 64.3581 54.133C65.6667 55.4709 66.4255 57.1379 66.7442 58.8043C66.7796 58.982 66.7528 59.1666 66.6685 59.3268C66.5841 59.4869 66.4475 59.6128 66.2816 59.683C66.1157 59.7533 65.9308 59.7636 65.7582 59.7123C65.5856 59.661 65.4359 59.5511 65.3345 59.4013L65.3174 59.376C64.4531 58.119 63.5607 56.991 62.5145 56.2081C61.4682 55.4252 60.3319 55.0066 59.174 55.0159C58.0162 55.035 56.8321 55.482 55.7625 56.2766C54.6813 57.0632 53.7485 58.1708 52.8573 59.4044L52.8419 59.426C52.7358 59.573 52.5823 59.6783 52.4076 59.7238C52.2329 59.7693 52.0479 59.7522 51.8844 59.6755C51.7208 59.5987 51.5888 59.467 51.5111 59.303C51.4333 59.139 51.4145 58.9529 51.458 58.7765V58.7784Z" fill="#000072"/>
<path d="M116.252 59.4063C115.362 58.1715 114.429 57.0651 113.348 56.2785C112.278 55.4839 111.094 55.0369 109.936 55.0177C108.778 55.0085 107.637 55.4271 106.596 56.21C105.555 56.9928 104.657 58.1208 103.792 59.3779L103.776 59.4019C103.674 59.5502 103.525 59.6586 103.353 59.7091C103.181 59.7596 102.997 59.749 102.832 59.6791C102.667 59.6092 102.531 59.4844 102.447 59.3254C102.363 59.1665 102.335 58.9831 102.369 58.8061C102.688 57.1391 103.446 55.4722 104.755 54.1349C105.427 53.4472 106.223 52.8958 107.101 52.5105C108.013 52.1129 108.999 51.9173 109.992 51.9369C110.974 51.9645 111.941 52.1932 112.833 52.6092C113.686 53.0077 114.463 53.553 115.129 54.2207C116.425 55.5246 117.247 57.1342 117.652 58.7784C117.696 58.9548 117.677 59.1411 117.6 59.3053C117.522 59.4694 117.39 59.6013 117.226 59.6781C117.063 59.755 116.878 59.7721 116.703 59.7266C116.528 59.681 116.374 59.5756 116.268 59.4285L116.252 59.4063Z" fill="#000072"/>
<path d="M80.936 64.5424C83.0138 63.3076 85.0912 63.3327 87.1682 64.6177C87.3091 64.7064 87.4291 64.8251 87.5196 64.9655C87.6102 65.1058 87.6691 65.2645 87.6923 65.4302C87.7155 65.596 87.7024 65.7648 87.6539 65.9249C87.6054 66.0851 87.5226 66.2325 87.4115 66.357C86.944 66.8745 86.3797 67.2941 85.7511 67.5918C85.2279 67.8439 84.6545 67.9723 84.0746 67.967C83.4947 67.9618 82.9237 67.8231 82.4051 67.5615C81.7907 67.2588 81.2258 66.8632 80.73 66.3885C80.5993 66.2651 80.4991 66.1127 80.4371 65.9435C80.3752 65.7742 80.3534 65.5927 80.3734 65.4134C80.3934 65.2341 80.4547 65.0621 80.5523 64.9108C80.65 64.7596 80.7814 64.6335 80.936 64.5424Z" fill="#000072"/>
<path d="M85.3427 67.6014C85.3635 67.9145 85.3801 68.2275 85.3874 68.5399C85.3954 68.6745 85.3874 68.9147 85.3789 69.1079C85.3606 69.3108 85.3303 69.5125 85.2881 69.7117C85.112 70.5119 84.7222 71.2484 84.161 71.8418C83.4652 72.5772 82.5406 73.0509 81.5407 73.184C81.4439 73.1958 81.3428 73.21 81.2502 73.218L80.9854 73.2316C80.6341 73.2449 80.2822 73.2338 79.9324 73.1982C79.2341 73.1286 78.5491 72.9591 77.8981 72.695C77.2485 72.4221 76.6233 72.04 76.1072 71.4979C75.8428 71.2218 75.6261 70.9032 75.4661 70.5551C75.3068 70.2003 75.2233 69.8158 75.2209 69.4265C75.2117 68.651 75.5218 67.9725 75.9043 67.4267C75.9534 67.3566 76.0265 67.3073 76.1095 67.2884C76.1926 67.2694 76.2797 67.2822 76.3539 67.3243C76.4281 67.3663 76.4843 67.4346 76.5114 67.5159C76.5385 67.5972 76.5347 67.6858 76.5007 67.7644L76.4964 67.7743C76.2672 68.3071 76.1385 68.8622 76.2371 69.3462C76.3358 69.8303 76.6049 70.2291 76.9996 70.5415C77.4197 70.8579 77.8993 71.0848 78.4093 71.2083C78.9359 71.3474 79.4789 71.4132 80.0231 71.404C80.2938 71.399 80.5639 71.3784 80.8322 71.3423L81.0308 71.3114L81.2006 71.2713C81.3102 71.2442 81.4181 71.2104 81.5236 71.17C81.9307 71.0023 82.2919 70.7386 82.5768 70.401C82.8617 70.0635 83.0619 69.6619 83.1607 69.2302C83.1873 69.1244 83.2078 69.0172 83.222 68.9091C83.222 68.7899 83.2422 68.7171 83.244 68.5387C83.2514 68.2263 83.2673 67.9132 83.2888 67.6002C83.3057 67.3372 83.4213 67.0906 83.6121 66.9104C83.803 66.7302 84.0548 66.6299 84.3164 66.6299C84.578 66.6299 84.8297 66.7302 85.0206 66.9104C85.2114 67.0906 85.327 67.3372 85.3439 67.6002L85.3427 67.6014Z" fill="#000072"/>
<path d="M88.0648 72.6062C88.0648 73.4242 87.8252 74.0966 87.428 74.6177C86.0342 76.46 82.7324 76.46 81.338 74.6177C80.9408 74.0966 80.7012 73.4242 80.7012 72.6062C80.7012 72.6062 83.9552 70.4292 84.383 70.4773C84.8108 70.5255 88.0648 72.6062 88.0648 72.6062Z" fill="#000072"/>
<path d="M87.4284 74.6177C86.0346 76.4601 82.7328 76.4601 81.3384 74.6177C82.7328 72.7785 86.0346 72.7785 87.4284 74.6177Z" fill="#F43838"/>
<path d="M85.3403 67.6031C85.3612 67.9162 85.3777 68.2292 85.3851 68.5416C85.3851 68.72 85.4047 68.7929 85.4072 68.912C85.4214 69.0202 85.4418 69.1274 85.4684 69.2331C85.5699 69.7255 85.8081 70.1788 86.1553 70.5401C86.5025 70.9015 86.9445 71.1561 87.4298 71.2742L87.599 71.3144L87.7982 71.3452C88.0665 71.3814 88.3366 71.402 88.6072 71.407C89.1515 71.4161 89.6945 71.3503 90.221 71.2113C90.731 71.0877 91.2107 70.8609 91.6308 70.5445C92.0255 70.2321 92.3007 69.8301 92.3932 69.3492C92.4858 68.8682 92.3632 68.3101 92.134 67.7772L92.1297 67.7674C92.0957 67.6887 92.0919 67.6002 92.119 67.5188C92.1461 67.4375 92.2022 67.3692 92.2764 67.3272C92.3507 67.2852 92.4378 67.2724 92.5208 67.2913C92.6039 67.3102 92.677 67.3595 92.726 67.4296C93.1085 67.9754 93.418 68.654 93.4088 69.4294C93.407 69.8188 93.3235 70.2035 93.1637 70.558C93.0037 70.9056 92.7872 71.2238 92.5232 71.4996C92.0071 72.0417 91.3813 72.4257 90.7322 72.6967C90.0813 72.9608 89.3963 73.1303 88.6979 73.1999C88.3481 73.2355 87.9963 73.2466 87.6449 73.2333L87.3801 73.2197C87.2876 73.2116 87.1865 73.1974 87.0896 73.1857C86.09 73.0516 85.1657 72.5782 84.4694 71.8435C83.9081 71.2501 83.5184 70.5136 83.3422 69.7134C83.2997 69.5142 83.2695 69.3126 83.2515 69.1096C83.2423 68.9164 83.2343 68.6774 83.2429 68.5416C83.2503 68.2292 83.2662 67.9162 83.2877 67.6031C83.3045 67.3402 83.4201 67.0935 83.611 66.9133C83.8018 66.7331 84.0536 66.6328 84.3152 66.6328C84.5768 66.6328 84.8286 66.7331 85.0195 66.9133C85.2103 67.0935 85.3259 67.3402 85.3428 67.6031H85.3403Z" fill="#000072"/>
<path d="M59.4886 14.2381C53.6658 17.8191 49.6138 23.101 46.7668 29.5337C43.6225 9.8681 41.8867 3.35138 59.4886 14.2381Z" fill="#F982BB"/>
<g opacity="0.3">
<path d="M59.4924 14.2398C59.102 14.4775 58.722 14.7263 58.3487 14.9807C47.5729 9.14992 47.0899 13.2285 48.9097 25.3278C48.1212 26.6894 47.4077 28.0936 46.7724 29.5342C43.6275 9.86858 41.8905 3.35433 59.4924 14.2398Z" fill="#000072"/>
</g>
<path d="M111.077 14.2381C116.9 17.8191 120.953 23.101 123.799 29.5337C126.941 9.8681 128.679 3.35138 111.077 14.2381Z" fill="#F982BB"/>
<g opacity="0.3">
<path d="M125.811 14.0629C124.273 11.7859 121.296 12.738 115.453 17.5439C114.099 16.306 112.632 15.1994 111.072 14.2389C122.609 7.10476 125.838 7.44618 125.811 14.0629Z" fill="#000072"/>
</g>
<path d="M84.3851 76.8595C83.2242 76.8595 82.1332 76.4891 81.3138 75.818C80.3539 75.032 79.8471 73.9213 79.8471 72.6074C79.8394 72.4894 79.8558 72.3711 79.8954 72.2597C79.9349 72.1484 79.9967 72.0463 80.077 71.96C80.1573 71.8737 80.2543 71.8049 80.362 71.7578C80.4697 71.7108 80.5859 71.6865 80.7033 71.6865C80.8207 71.6865 80.9369 71.7108 81.0446 71.7578C81.1523 71.8049 81.2493 71.8737 81.3296 71.96C81.4099 72.0463 81.4717 72.1484 81.5112 72.2597C81.5508 72.3711 81.5672 72.4894 81.5596 72.6074C81.5596 74.6048 83.337 75.1388 84.3851 75.1388C85.4332 75.1388 87.2107 74.6054 87.2107 72.6074C87.225 72.3885 87.3214 72.1831 87.4804 72.0331C87.6394 71.8831 87.8491 71.7996 88.0669 71.7996C88.2848 71.7996 88.4945 71.8831 88.6535 72.0331C88.8125 72.1831 88.9089 72.3885 88.9232 72.6074C88.9232 75.3981 86.6401 76.8595 84.3851 76.8595Z" fill="#000072"/>
<path d="M46.7704 30.5697C46.7259 30.5697 46.6814 30.5666 46.6374 30.5604C46.4175 30.5316 46.2128 30.4318 46.0539 30.2759C45.8951 30.1201 45.7905 29.9167 45.756 29.6961C45.6252 28.8823 45.4979 28.0912 45.3741 27.3228C43.6304 16.5182 42.6693 10.5639 45.626 8.56721C47.9184 7.01875 51.9569 8.36099 60.0297 13.3533C60.1796 13.446 60.3033 13.5758 60.3892 13.7304C60.475 13.885 60.5201 14.0591 60.5201 14.2362C60.5201 14.4133 60.475 14.5875 60.3892 14.7421C60.3033 14.8966 60.1796 15.0264 60.0297 15.1191C54.7077 18.3945 50.6784 23.246 47.71 29.9529C47.6295 30.1363 47.4979 30.2923 47.3311 30.4018C47.1643 30.5113 46.9695 30.5696 46.7704 30.5697ZM47.8209 10.028C47.3956 10.028 47.0382 10.1089 46.7704 10.2898C44.9702 11.5054 45.9411 17.9246 47.2668 26.1571C49.9533 21.1005 53.347 17.185 57.5578 14.2671C54.8291 12.6205 50.2328 10.028 47.8203 10.028H47.8209Z" fill="#000072"/>
<path d="M85.2835 96.3847C79.9246 96.3834 74.5785 95.8593 69.3199 94.8195C52.5761 91.5183 42.8491 84.2971 39.5834 72.7442C36.7082 62.5718 39.0931 50.199 41.3983 38.2312L41.6992 36.6661C38.0156 17.8475 36.8706 5.37965 42.4703 1.36466C46.8882 -1.80324 54.9806 0.469426 69.494 8.9674C79.975 5.87481 90.5926 5.87481 101.072 8.9674C115.586 0.469426 123.678 -1.80324 128.096 1.36466C133.696 5.3778 132.551 17.8494 128.867 36.6661L129.168 38.2312C131.474 50.1965 133.858 62.57 130.983 72.7442C127.717 84.2971 117.989 91.5183 101.246 94.8195C95.9881 95.8592 90.6421 96.3834 85.2835 96.3847ZM47.2823 2.06789C45.7917 2.06789 44.5996 2.40438 43.6734 3.06871C38.702 6.63299 40.7841 21.2254 43.774 36.463C43.7997 36.5953 43.7997 36.7313 43.774 36.8636L43.4338 38.6307C38.7603 62.8842 34.3454 85.7924 69.7171 92.7667C79.9947 94.8035 90.5679 94.8035 100.846 92.7667C136.217 85.79 131.802 62.8842 127.129 38.6313L126.789 36.8636C126.764 36.7313 126.764 36.5953 126.789 36.463C129.779 21.2254 131.861 6.63299 126.89 3.06871C123.248 0.457696 115.489 2.90448 101.728 11.0018C101.605 11.0742 101.469 11.1203 101.327 11.1371C101.186 11.154 101.042 11.1414 100.906 11.0999C90.5381 7.95486 80.024 7.95486 69.6558 11.0999C69.5194 11.1416 69.3759 11.1543 69.2344 11.1374C69.0928 11.1205 68.9563 11.0743 68.8333 11.0018C58.576 4.96414 51.6512 2.06789 47.2829 2.06789H47.2823Z" fill="#000072"/>
<path d="M123.797 30.5702C123.598 30.5702 123.404 30.5122 123.237 30.4033C123.071 30.2944 122.939 30.1392 122.858 29.9565C119.891 23.2497 115.861 18.3981 110.539 15.1228C110.389 15.0301 110.265 14.9003 110.179 14.7457C110.093 14.5911 110.048 14.417 110.048 14.2399C110.048 14.0628 110.093 13.8886 110.179 13.734C110.265 13.5795 110.389 13.4496 110.539 13.357C118.611 8.36464 122.65 7.02301 124.942 8.57085C127.899 10.5675 126.939 16.5206 125.194 27.3264C125.072 28.0949 124.945 28.886 124.813 29.6997C124.778 29.9203 124.674 30.1237 124.515 30.2795C124.356 30.4353 124.151 30.5351 123.932 30.5641C123.887 30.5692 123.842 30.5713 123.797 30.5702ZM113.009 14.2707C117.222 17.188 120.616 21.106 123.303 26.1583C124.629 17.9282 125.599 11.5091 123.799 10.2909C122.013 9.08515 116.219 12.3302 113.007 14.2677L113.009 14.2707Z" fill="#000072"/>
<path d="M121.957 73.602C122.454 73.5007 122.876 73.4445 123.336 73.389C123.797 73.3334 124.234 73.2964 124.685 73.2698C125.58 73.2148 126.478 73.2051 127.374 73.2408C129.163 73.3173 130.946 73.5618 132.674 74.0323C134.405 74.4897 136.065 75.1813 137.611 76.0883C139.155 76.986 140.539 78.1399 141.747 79.4346C141.807 79.4998 141.84 79.5862 141.839 79.6755C141.838 79.7648 141.802 79.8501 141.74 79.9135C141.677 79.9769 141.593 80.0135 141.504 80.0155C141.416 80.0175 141.33 79.9847 141.264 79.9242L141.259 79.9186C140.015 78.7536 138.63 77.7491 137.118 77.002C135.612 76.2494 134.012 75.7058 132.361 75.3863C130.717 75.0553 129.034 74.9405 127.361 74.9812C126.526 75.0043 125.692 75.0697 124.863 75.177C124.449 75.2301 124.038 75.2937 123.631 75.3702C123.225 75.4468 122.804 75.5351 122.457 75.6314L122.44 75.6357C122.309 75.6722 122.171 75.6822 122.036 75.6653C121.901 75.6483 121.77 75.6046 121.652 75.5368C121.533 75.4689 121.429 75.3782 121.345 75.2698C121.261 75.1614 121.199 75.0374 121.163 74.905C121.127 74.7726 121.117 74.6342 121.134 74.4979C121.151 74.3616 121.194 74.2299 121.261 74.1105C121.329 73.991 121.419 73.8861 121.527 73.8017C121.634 73.7173 121.757 73.6551 121.889 73.6186C121.91 73.6125 121.934 73.6063 121.957 73.602Z" fill="#000072"/>
<path d="M119.757 79.9311C120.019 80.0206 120.212 80.099 120.428 80.1904C120.644 80.2818 120.844 80.3719 121.047 80.4682C121.453 80.6615 121.851 80.8652 122.238 81.0856C124.557 82.3873 126.616 84.1103 128.311 86.1675C129.426 87.5273 130.363 89.0246 131.101 90.6233C131.821 92.2106 132.358 93.876 132.7 95.5866C132.72 95.6751 132.704 95.7679 132.657 95.8449C132.609 95.922 132.533 95.977 132.446 95.9982C132.358 96.0194 132.266 96.005 132.189 95.9581C132.112 95.9112 132.056 95.8357 132.034 95.7478C131.595 94.1304 130.973 92.5693 130.18 91.095C128.18 87.4653 125.098 84.5608 121.369 82.7927C121.002 82.618 120.634 82.46 120.262 82.313C120.078 82.2402 119.889 82.171 119.703 82.1074C119.517 82.0438 119.317 81.9796 119.174 81.9426H119.162C118.9 81.8684 118.678 81.6937 118.543 81.456C118.407 81.2183 118.37 80.9367 118.438 80.6715C118.507 80.4063 118.676 80.1788 118.909 80.0378C119.142 79.8968 119.421 79.8536 119.686 79.9175C119.709 79.9156 119.734 79.923 119.757 79.9311Z" fill="#000072"/>
<path d="M46.5933 75.6314C46.247 75.5351 45.8179 75.4462 45.4195 75.3702C45.0212 75.2943 44.6013 75.2301 44.1882 75.177C43.359 75.0697 42.525 75.0044 41.6893 74.9812C40.0166 74.9405 38.3336 75.0553 36.6897 75.3863C35.0389 75.7058 33.4387 76.2494 31.9328 77.002C30.4208 77.7491 29.0362 78.7536 27.7919 79.9186L27.787 79.9236C27.7219 79.9842 27.636 80.017 27.5473 80.0151C27.4587 80.0132 27.3742 79.9768 27.3117 79.9135C27.2491 79.8502 27.2134 79.7649 27.212 79.6756C27.2105 79.5863 27.2435 79.4999 27.304 79.4346C28.5115 78.138 29.8955 76.986 31.4394 76.0883C32.9853 75.1813 34.6461 74.4897 36.3765 74.0323C38.1043 73.5618 39.8879 73.3173 41.6764 73.2408C42.5729 73.2051 43.4705 73.2148 44.3659 73.2698C44.8146 73.2964 45.2633 73.3353 45.7144 73.389C46.1655 73.4427 46.597 73.5007 47.0941 73.602C47.2277 73.6292 47.3547 73.6827 47.4679 73.7594C47.581 73.8361 47.678 73.9345 47.7534 74.0489C47.8288 74.1634 47.881 74.2917 47.9072 74.4265C47.9334 74.5613 47.9329 74.7 47.9059 74.8346C47.8788 74.9692 47.8257 75.0972 47.7496 75.2112C47.6735 75.3251 47.5758 75.4229 47.4622 75.4988C47.3485 75.5747 47.2212 75.6274 47.0873 75.6537C46.9535 75.6801 46.8158 75.6796 46.6822 75.6524C46.6595 75.648 46.6374 75.6425 46.6154 75.6369L46.5933 75.6314Z" fill="#000072"/>
<path d="M49.8733 81.9379C49.7304 81.975 49.5239 82.0398 49.3443 82.1028C49.1647 82.1658 48.9716 82.2355 48.7853 82.3084C48.4139 82.4553 48.0431 82.6134 47.6778 82.7881C43.9431 84.5472 40.8583 87.4539 38.867 91.0904C38.0743 92.5646 37.4524 94.1258 37.0135 95.7431C36.9902 95.8296 36.9343 95.9035 36.8578 95.9493C36.7813 95.995 36.6901 96.009 36.6035 95.9882C36.517 95.9674 36.4419 95.9135 36.394 95.838C36.3462 95.7624 36.3294 95.671 36.3473 95.5832C36.6889 93.8733 37.2245 92.2085 37.9433 90.6217C38.6816 89.0231 39.6192 87.5257 40.7334 86.1659C42.429 84.1088 44.4882 82.3858 46.8068 81.0841C47.1942 80.8655 47.592 80.6618 47.9977 80.4667C48.2012 80.3703 48.4065 80.2777 48.6168 80.1888C48.827 80.0999 49.0256 80.019 49.2879 79.9295C49.5487 79.8404 49.834 79.8592 50.0811 79.982C50.3281 80.1047 50.5166 80.3212 50.6051 80.584C50.6936 80.8467 50.6749 81.1341 50.553 81.3829C50.4312 81.6317 50.2162 81.8216 49.9554 81.9108C49.9321 81.9188 49.9088 81.9262 49.8861 81.9324L49.8733 81.9379Z" fill="#000072"/>
<path d="M131.219 48.9646C131.124 47.3186 130.409 45.7712 129.219 44.6391C128.029 43.5071 126.454 42.8761 124.817 42.8752H99.3309C93.1655 42.7887 91.8532 47.5915 91.8532 47.5915C86.8216 44.6379 81.7911 44.6379 76.7619 47.5915C76.7619 47.5915 75.4502 42.7887 69.2842 42.8752H43.8026C42.1655 42.8749 40.5902 43.5055 39.3999 44.6378C38.2097 45.7701 37.4946 47.3182 37.4013 48.9646C36.884 58.0559 39.967 64.6468 47.1424 68.3889C53.1331 71.5148 60.2363 71.6531 66.4427 68.9964C72.1214 66.5675 76.2795 62.058 77.5918 53.6569C81.6677 50.1513 86.1028 49.8031 91.0252 53.6569C92.3399 62.058 96.498 66.5675 102.174 68.9964C108.383 71.6512 115.484 71.5148 121.474 68.3889C128.65 64.6455 131.732 58.0559 131.219 48.9646ZM61.5724 64.9771C58.9982 65.6704 56.2909 65.8118 53.6737 65.2907C47.3478 64.0281 43.5838 60.1811 42.7104 51.7146C42.6552 51.1948 42.7092 50.6691 42.8688 50.1718C43.0285 49.6744 43.2902 49.2164 43.637 48.8275C43.9839 48.4387 44.408 48.1277 44.8819 47.9148C45.3559 47.7018 45.869 47.5917 46.3879 47.5915H68.2128C69.1957 47.591 70.141 47.9717 70.8527 48.6545C71.5644 49.3374 71.9878 50.27 72.035 51.2589C72.3789 58.7623 69.1181 62.9514 61.5724 64.9771ZM125.907 51.7146C125.033 60.1811 121.269 64.0281 114.943 65.2907C112.329 65.8118 109.62 65.6704 107.044 64.9771C99.4988 62.9514 96.2381 58.7598 96.5838 51.2589C96.6321 50.2697 97.0563 49.3372 97.7685 48.6545C98.4808 47.9717 99.4264 47.5911 100.41 47.5915H122.23C122.748 47.5919 123.261 47.7021 123.735 47.9151C124.209 48.1281 124.633 48.4392 124.98 48.828C125.327 49.2168 125.588 49.6747 125.748 50.172C125.908 50.6693 125.962 51.1949 125.907 51.7146Z" fill="#FD8342"/>
<g opacity="0.6">
<path d="M72.0331 53.4788C72.0324 53.4501 72.0301 53.4214 72.0263 53.3929C71.6905 59.5719 68.3715 63.1535 61.573 64.9786C58.9987 65.6719 56.2914 65.8133 53.6742 65.2922C47.5708 64.0747 43.8515 60.4517 42.8133 52.5922C42.6977 53.0295 42.663 53.4845 42.7109 53.9344C43.5843 62.4009 47.3483 66.2479 53.6742 67.5105C56.2914 68.0316 58.9968 67.8902 61.573 67.1969C69.1186 65.1718 72.3794 60.9796 72.0331 53.4788ZM125.804 52.5897C124.766 60.4493 121.047 64.0734 114.943 65.2897C112.33 65.8108 109.62 65.6694 107.044 64.9761C100.246 63.151 96.9269 59.5695 96.591 53.3905C96.5872 53.4189 96.585 53.4476 96.5843 53.4763C96.2386 60.9772 99.4993 65.1693 107.044 67.1944C109.619 67.8878 112.33 68.0292 114.943 67.5081C121.269 66.2455 125.034 62.3984 125.907 53.9319C125.954 53.4819 125.919 53.027 125.804 52.5897ZM131.219 48.9637C131.125 47.3176 130.409 45.7702 129.219 44.6382C128.029 43.5061 126.455 42.8751 124.818 42.8742H99.3314C93.166 42.7878 91.8537 47.5906 91.8537 47.5906C86.8221 44.6369 81.7916 44.6369 76.7624 47.5906C76.7624 47.5906 75.4507 42.7878 69.2847 42.8742H43.8031C42.166 42.8739 40.5907 43.5045 39.4005 44.6368C38.2102 45.7691 37.4951 47.3172 37.4018 48.9637C37.3405 49.9849 37.3301 50.9752 37.3675 51.9309C37.3742 51.684 37.3883 51.437 37.4018 51.182C37.4951 49.5356 38.2102 47.9874 39.4005 46.8552C40.5907 45.7229 42.166 45.0922 43.8031 45.0925H69.286C75.4513 45.0061 76.7636 49.8089 76.7636 49.8089C81.7953 46.8561 86.8257 46.8561 91.855 49.8089C91.855 49.8089 93.1666 45.0061 99.3326 45.0925H124.819C126.456 45.0934 128.03 45.7245 129.22 46.8565C130.411 47.9886 131.126 49.536 131.22 51.182C131.234 51.429 131.248 51.6759 131.255 51.9229C131.288 50.968 131.276 49.9824 131.219 48.9661V48.9637ZM125.804 52.5897C124.766 60.4493 121.047 64.0734 114.943 65.2897C112.33 65.8108 109.62 65.6694 107.044 64.9761C100.246 63.151 96.9269 59.5695 96.591 53.3905C96.5872 53.4189 96.585 53.4476 96.5843 53.4763C96.2386 60.9772 99.4993 65.1693 107.044 67.1944C109.619 67.8878 112.33 68.0292 114.943 67.5081C121.269 66.2455 125.034 62.3984 125.907 53.9319C125.954 53.4819 125.919 53.027 125.804 52.5897ZM72.0331 53.4763C72.0324 53.4476 72.0301 53.4189 72.0263 53.3905C71.6905 59.5695 68.3715 63.151 61.573 64.9761C58.9987 65.6694 56.2914 65.8108 53.6742 65.2897C47.5708 64.0722 43.8515 60.4493 42.8133 52.5897C42.6977 53.027 42.663 53.482 42.7109 53.9319C43.5843 62.3984 47.3483 66.2455 53.6742 67.5081C56.2914 68.0292 58.9968 67.8878 61.573 67.1944C69.1186 65.1718 72.3794 60.9796 72.0331 53.4788V53.4763Z" fill="#F5F5F5"/>
</g>
<path d="M57.351 71.9172C53.6354 71.9228 49.973 71.0282 46.6727 69.3087C39.2907 65.4579 35.8271 58.5936 36.3756 48.9059C36.4848 46.9959 37.3148 45.2003 38.6957 43.8868C40.0766 42.5733 41.9038 41.8414 43.803 41.8409H69.2858C69.3435 41.8409 69.4011 41.8409 69.4575 41.8409C73.8447 41.8409 76.2529 44.2235 77.2716 46.1356C81.9463 43.7456 86.6714 43.7462 91.3455 46.1356C92.3783 44.1988 94.8275 41.7755 99.3454 41.8422H124.818C126.717 41.8438 128.543 42.5762 129.924 43.8894C131.304 45.2027 132.135 46.9976 132.245 48.9071C132.792 58.5942 129.328 65.4592 121.948 69.3093C115.743 72.5476 108.39 72.7816 101.774 69.9502C95.2271 67.1484 91.3988 62.0042 90.0792 54.2323C85.9659 51.1514 82.2841 51.1452 78.5452 54.2057C77.233 61.9931 73.4028 67.1459 66.8458 69.9496C63.8444 71.2419 60.6151 71.9111 57.351 71.9172ZM69.4507 43.9099H43.8055C42.4309 43.9101 41.1084 44.4398 40.109 45.3905C39.1096 46.3412 38.509 47.6409 38.4301 49.0232C37.9226 57.946 40.9278 63.9799 47.6178 67.4695C53.2788 70.4237 59.9952 70.6324 66.0435 68.0436C72.0918 65.4549 75.4328 60.8373 76.5796 53.4963C76.6176 53.2524 76.7409 53.0302 76.9271 52.8697C81.5976 48.8528 86.5537 48.8423 91.6581 52.8394C91.8644 53.001 92.0021 53.2357 92.043 53.4957C93.1922 60.8367 96.54 65.4598 102.579 68.0436C108.629 70.6324 115.345 70.4237 121.004 67.4695C127.694 63.9805 130.7 57.9466 130.198 49.0232C130.118 47.6411 129.517 46.3419 128.518 45.3913C127.519 44.4407 126.197 43.9105 124.823 43.9092H99.3337C94.0626 43.8296 92.8931 47.7069 92.8453 47.8718C92.8019 48.0232 92.7249 48.1627 92.6201 48.2797C92.5153 48.3968 92.3855 48.4883 92.2404 48.5473C92.0953 48.6064 91.9388 48.6315 91.7827 48.6206C91.6266 48.6098 91.475 48.5634 91.3394 48.4848C86.6107 45.7065 82.0125 45.7065 77.2826 48.4848C77.1468 48.5647 76.9946 48.6121 76.8378 48.6233C76.6809 48.6346 76.5236 48.6094 76.378 48.5497C76.2323 48.4901 76.1022 48.3976 75.9976 48.2793C75.893 48.161 75.8168 48.0201 75.7748 47.8674C75.7295 47.7112 74.5766 43.9099 69.4507 43.9099ZM111.729 66.6384C110.059 66.6359 108.396 66.4136 106.783 65.9772C98.7606 63.8255 95.1934 59.1332 95.5612 51.2113C95.6193 49.9554 96.1561 48.7705 97.06 47.9034C97.9638 47.0363 99.1649 46.5539 100.413 46.5567H122.233C122.896 46.5574 123.551 46.6983 124.156 46.9705C124.761 47.2427 125.303 47.6399 125.746 48.1365C126.188 48.6331 126.523 49.2179 126.727 49.853C126.931 50.4881 127 51.1594 126.93 51.8232C126.058 60.2736 122.313 64.8757 115.143 66.3069C114.018 66.5289 112.874 66.64 111.728 66.6384H111.729ZM100.414 48.6268C99.6941 48.6248 99.0015 48.9024 98.48 49.4019C97.9586 49.9014 97.6486 50.5842 97.6145 51.3082C97.2927 58.2775 100.193 62.0665 107.313 63.9774C109.799 64.6467 112.37 64.7498 114.747 64.2762C120.985 63.0309 124.113 59.124 124.888 51.6083C124.927 51.2314 124.888 50.8505 124.772 50.49C124.655 50.1296 124.465 49.7977 124.214 49.5159C123.965 49.2351 123.66 49.0107 123.319 48.8577C122.978 48.7046 122.608 48.6263 122.235 48.6281L100.414 48.6268ZM56.8962 66.6378C55.7491 66.6396 54.6044 66.5288 53.4786 66.3069C46.3074 64.8757 42.5643 60.2736 41.6921 51.8219C41.6222 51.1582 41.6915 50.487 41.8957 49.852C42.0998 49.217 42.4342 48.6323 42.8771 48.1359C43.3201 47.6394 43.8616 47.2423 44.4667 46.9702C45.0718 46.6982 45.7269 46.5573 46.3895 46.5567H68.2144C69.4626 46.5536 70.6637 47.0362 71.5671 47.9037C72.4706 48.7712 73.0066 49.9566 73.0633 51.2125C73.431 59.1326 69.8626 63.8249 61.8407 65.9778C60.2276 66.4134 58.565 66.6352 56.895 66.6378H56.8962ZM46.3895 48.6268C46.0159 48.625 45.6462 48.7032 45.3049 48.8563C44.9636 49.0094 44.6585 49.2338 44.4098 49.5147C44.1583 49.7965 43.9684 50.1284 43.8523 50.4888C43.7361 50.8492 43.6964 51.2302 43.7356 51.6071C44.5109 59.124 47.6387 63.0291 53.877 64.2762C56.2557 64.7492 58.8263 64.6467 61.3105 63.9774C68.4302 62.0634 71.3305 58.2775 71.0094 51.3076C70.9763 50.5838 70.667 49.9009 70.146 49.4013C69.625 48.9018 68.9325 48.6243 68.2132 48.6268H46.3895Z" fill="#000072"/>
<path d="M83.1828 179.545C83.0585 179.545 82.9355 179.52 82.8206 179.472C82.7058 179.424 82.6015 179.354 82.5136 179.265C82.4257 179.177 82.356 179.072 82.3085 178.956C82.2609 178.841 82.2364 178.717 82.2364 178.591V169.273C82.2365 169.171 82.2528 169.069 82.2849 168.972C82.4828 167.631 82.3609 154.438 82.2364 146.347C82.2327 146.095 82.3287 145.851 82.5034 145.669C82.6781 145.488 82.9172 145.384 83.1681 145.38H83.1828C83.4312 145.38 83.6697 145.479 83.8466 145.654C84.0236 145.83 84.1248 146.069 84.1285 146.319C84.397 163.735 84.2811 168.063 84.1224 169.274H84.1291V178.592C84.129 178.845 84.0292 179.087 83.8517 179.266C83.6743 179.444 83.4337 179.545 83.1828 179.545ZM82.386 168.755L82.3897 168.754L82.386 168.755Z" fill="#000072"/>
<g opacity="0.25">
<path d="M152.155 163.296C151.8 163.442 151.436 163.567 151.067 163.67L150.511 163.825L149.949 163.956C149.2 164.124 148.441 164.264 147.681 164.363C146.92 164.486 146.149 164.526 145.385 164.606C144.617 164.638 143.848 164.703 143.078 164.708C141.538 164.745 139.998 164.699 138.46 164.613L136.155 164.447L133.858 164.2C130.804 163.806 127.761 163.298 124.756 162.625L122.5 162.131C121.756 161.959 121.014 161.777 120.269 161.614C118.779 161.28 117.287 160.961 115.791 160.677C114.295 160.393 112.797 160.13 111.295 159.919C109.794 159.697 108.291 159.523 106.785 159.407C103.782 159.171 100.76 159.206 97.854 159.751C96.4102 160.018 94.9983 160.438 93.6413 161.002C92.2955 161.57 91.0233 162.301 89.8529 163.178C87.5042 164.932 85.5906 167.253 83.9884 169.785C83.8534 169.998 83.6399 170.148 83.3948 170.203C83.1498 170.257 82.8933 170.211 82.6817 170.075C82.5661 170 82.4678 169.901 82.3936 169.785C80.7896 167.257 78.8773 164.932 76.528 163.178C75.3578 162.301 74.0858 161.569 72.7401 161.001C71.3917 160.43 69.9758 160.03 68.5269 159.752C65.6222 159.207 62.6005 159.171 59.596 159.408C58.0927 159.525 56.5898 159.696 55.0873 159.921C53.5851 160.132 52.084 160.391 50.5909 160.679C49.0979 160.966 47.603 161.281 46.1166 161.616C45.3713 161.779 44.6291 161.96 43.885 162.131L41.63 162.625C38.6267 163.299 35.5811 163.806 32.5269 164.201L30.2297 164.448L27.9251 164.614C26.3873 164.7 24.8464 164.747 23.3067 164.709C22.5369 164.703 21.7677 164.639 20.9997 164.606C20.2329 164.527 19.4674 164.483 18.7031 164.359C17.9406 164.259 17.1824 164.121 16.4353 163.953L15.8738 163.822L15.3185 163.667C14.9488 163.563 14.5853 163.438 14.23 163.293C14.5916 163.415 14.96 163.517 15.3332 163.597L15.8941 163.716L16.4592 163.811C17.2137 163.932 17.9725 164.021 18.7337 164.074C19.4925 164.151 20.2575 164.156 21.0181 164.197C21.7812 164.189 22.543 164.214 23.3049 164.18C26.3524 164.081 29.3901 163.778 32.3976 163.273C35.4046 162.773 38.3963 162.176 41.3463 161.408L45.7961 160.274C47.2885 159.904 48.7865 159.543 50.2943 159.219C53.3056 158.561 56.3567 158.021 59.4556 157.742C61.0106 157.591 62.5727 157.526 64.1347 157.55C65.7129 157.567 67.2874 157.709 68.8438 157.974C71.9697 158.507 75.0428 159.747 77.6232 161.678C80.2171 163.597 82.2864 166.101 83.9848 168.757H82.3912C84.0908 166.102 86.1588 163.598 88.7527 161.679C91.3331 159.749 94.4057 158.506 97.5322 157.974C99.0885 157.71 100.663 157.568 102.241 157.55C103.803 157.527 105.365 157.591 106.92 157.742C110.019 158.021 113.069 158.563 116.081 159.22C117.588 159.544 119.084 159.899 120.579 160.275L125.032 161.41C127.985 162.178 130.977 162.775 133.981 163.275C136.989 163.78 140.026 164.082 143.074 164.18C143.837 164.214 144.598 164.19 145.362 164.197C146.122 164.159 146.887 164.154 147.646 164.074C148.407 164.021 149.166 163.932 149.92 163.811L150.486 163.716L151.046 163.597C151.421 163.518 151.792 163.418 152.155 163.296Z" fill="#000072"/>
<path d="M78.8324 171.65C77.7353 170.505 76.5848 169.428 75.3424 168.498C74.1 167.568 72.7755 166.769 71.3646 166.175C69.951 165.583 68.4749 165.155 66.965 164.9C65.4368 164.659 63.8916 164.545 62.3448 164.558C59.23 164.583 56.093 164.991 52.9739 165.504C49.8547 166.018 46.7349 166.669 43.606 167.277C43.5263 167.293 43.4436 167.278 43.375 167.234C43.3064 167.19 43.2572 167.122 43.2375 167.042C43.2178 166.963 43.2291 166.879 43.2692 166.808C43.3093 166.737 43.375 166.684 43.4527 166.66C46.5063 165.718 49.5954 164.888 52.7324 164.212C54.3027 163.883 55.8846 163.587 57.485 163.377C59.0853 163.168 60.7004 163.012 62.3307 162.994C63.9611 162.977 65.6043 163.056 67.2298 163.352C68.8638 163.639 70.4532 164.142 71.9573 164.846C74.9673 166.282 77.4644 168.597 79.3191 171.245C79.3653 171.311 79.3852 171.392 79.3747 171.472C79.3642 171.552 79.3241 171.624 79.2625 171.676C79.2008 171.727 79.1222 171.753 79.0424 171.748C78.9626 171.743 78.8876 171.708 78.8324 171.65V171.65Z" fill="#000072"/>
<path d="M12.6416 166.652C12.8052 166.728 13.0265 166.818 13.23 166.894C13.4335 166.971 13.6529 167.044 13.8637 167.12C14.2928 167.259 14.7267 167.397 15.1699 167.511C16.0488 167.757 16.9474 167.943 17.8545 168.106C19.6675 168.429 21.5124 168.6 23.3634 168.687L24.7541 168.728C25.2175 168.738 25.6821 168.722 26.1467 168.72C27.0759 168.727 28.0039 168.658 28.9337 168.613C29.8635 168.567 30.7884 168.449 31.7175 168.37C32.6424 168.256 33.5661 168.123 34.4922 168H34.5039C34.5713 167.992 34.639 168.011 34.6929 168.052C34.7467 168.094 34.7827 168.154 34.7931 168.222C34.8035 168.289 34.7877 168.358 34.7489 168.414C34.7101 168.47 34.6513 168.509 34.5848 168.522C33.6593 168.69 32.7344 168.868 31.8058 169.027C30.8723 169.15 29.9413 169.309 29.0029 169.404C28.0645 169.499 27.1255 169.608 26.1835 169.647C25.7115 169.671 25.2396 169.708 24.7664 169.721L23.3469 169.747C21.4458 169.76 19.5459 169.649 17.659 169.416C16.7132 169.287 15.7681 169.139 14.8291 168.926C14.359 168.828 13.8913 168.704 13.4231 168.576C13.1889 168.505 12.956 168.444 12.7213 168.363C12.4865 168.281 12.2634 168.211 11.9962 168.101C11.9002 168.062 11.8128 168.004 11.7391 167.931C11.6654 167.857 11.6067 167.77 11.5664 167.674C11.5261 167.578 11.5051 167.475 11.5044 167.37C11.5037 167.266 11.5235 167.162 11.5625 167.066C11.6016 166.969 11.6591 166.881 11.7319 166.807C11.8047 166.732 11.8913 166.673 11.9868 166.633C12.0823 166.592 12.1848 166.571 12.2884 166.57C12.392 166.57 12.4947 166.59 12.5907 166.629L12.622 166.642L12.6416 166.652Z" fill="#000072"/>
<path d="M11.5384 169.468C11.6322 169.548 11.7302 169.624 11.832 169.693C11.9411 169.773 12.06 169.847 12.1759 169.921C12.4137 170.066 12.6582 170.207 12.9114 170.331C13.4241 170.586 13.9572 170.797 14.505 170.962C15.0598 171.13 15.6268 171.254 16.2009 171.333C16.7823 171.412 17.3684 171.452 17.9551 171.45H17.968C18.0479 171.451 18.1244 171.483 18.182 171.539C18.2397 171.594 18.2742 171.67 18.2785 171.751C18.2829 171.831 18.2568 171.91 18.2055 171.972C18.1543 172.034 18.0816 172.073 18.0023 172.083C17.3847 172.167 16.7621 172.207 16.139 172.204C15.5089 172.201 14.8799 172.148 14.258 172.046C13.6278 171.942 13.0072 171.786 12.4027 171.578C12.0962 171.477 11.7965 171.355 11.4974 171.222C11.3484 171.152 11.2001 171.085 11.0518 171.005C10.892 170.923 10.7367 170.833 10.5866 170.734L10.5792 170.729C10.4923 170.672 10.4173 170.598 10.3587 170.512C10.3001 170.426 10.2589 170.328 10.2376 170.226C10.2162 170.124 10.2151 170.018 10.2343 169.915C10.2535 169.812 10.2926 169.714 10.3494 169.627C10.4062 169.539 10.4795 169.464 10.5653 169.405C10.651 169.346 10.7475 169.304 10.8491 169.283C10.9508 169.261 11.0556 169.26 11.1577 169.279C11.2598 169.299 11.3571 169.338 11.4441 169.395C11.4772 169.417 11.5087 169.442 11.5384 169.468Z" fill="#000072"/>
<path d="M87.3516 171.609C87.9032 170.683 88.5658 169.891 89.2902 169.135C90.0174 168.386 90.8103 167.706 91.6592 167.101C92.509 166.494 93.4078 165.96 94.3462 165.504C95.29 165.056 96.2664 164.681 97.2668 164.382C98.2671 164.08 99.2931 163.881 100.325 163.721C101.359 163.595 102.4 163.499 103.441 163.504C105.523 163.498 107.599 163.709 109.637 164.133C110.646 164.338 111.644 164.598 112.625 164.913L115.539 165.789C117.482 166.368 119.431 166.926 121.385 167.462C125.296 168.526 129.213 169.517 133.242 169.905C133.322 169.915 133.396 169.955 133.448 170.019C133.499 170.082 133.525 170.163 133.519 170.245C133.512 170.327 133.475 170.403 133.414 170.457C133.354 170.512 133.275 170.541 133.193 170.538H133.185C131.144 170.417 129.113 170.176 127.1 169.818C125.087 169.466 123.093 169.039 121.108 168.583C119.122 168.127 117.143 167.652 115.17 167.154L109.303 165.658C107.379 165.179 105.41 164.903 103.429 164.833C102.44 164.789 101.452 164.844 100.468 164.925C99.4874 165.04 98.5104 165.19 97.5549 165.44C96.5979 165.687 95.6609 166.006 94.752 166.395C93.8454 166.795 92.9734 167.27 92.1452 167.815C91.3149 168.361 90.5354 168.981 89.8161 169.668C89.1039 170.352 88.423 171.117 87.8995 171.924L87.8873 171.943C87.8427 172.014 87.7721 172.064 87.6908 172.083C87.6096 172.102 87.5244 172.087 87.4539 172.042C87.3833 171.998 87.3331 171.927 87.3143 171.845C87.2955 171.764 87.3095 171.678 87.3534 171.606L87.3516 171.609Z" fill="#000072"/>
<path d="M154.843 169.385C153.562 169.682 152.33 169.872 151.073 170.037C149.815 170.201 148.563 170.314 147.306 170.385C146.049 170.456 144.793 170.496 143.534 170.477C142.278 170.477 141.021 170.409 139.772 170.327C139.69 170.322 139.614 170.285 139.558 170.224C139.503 170.163 139.474 170.083 139.476 170C139.479 169.918 139.513 169.839 139.572 169.782C139.631 169.724 139.71 169.692 139.792 169.692H139.799C141.04 169.692 142.278 169.68 143.514 169.604C144.75 169.542 145.982 169.419 147.208 169.278C148.434 169.137 149.653 168.934 150.862 168.704C152.07 168.473 153.286 168.195 154.417 167.855L154.441 167.848C154.541 167.815 154.646 167.803 154.751 167.811C154.857 167.82 154.959 167.85 155.052 167.9C155.145 167.949 155.228 168.016 155.295 168.098C155.362 168.18 155.412 168.275 155.442 168.377C155.472 168.479 155.482 168.585 155.47 168.691C155.459 168.796 155.426 168.899 155.375 168.991C155.324 169.084 155.254 169.165 155.171 169.231C155.088 169.296 154.993 169.344 154.891 169.372C154.876 169.377 154.859 169.381 154.843 169.385Z" fill="#000072"/>
</g>
<path d="M91.9033 193.876C91.6895 193.876 91.4819 193.803 91.3145 193.669C91.147 193.535 91.0295 193.348 90.9811 193.139C90.9327 192.929 90.9563 192.709 91.0479 192.514C91.1396 192.319 91.2939 192.162 91.4859 192.067C95.7634 189.952 98.5584 187.85 100.547 185.252C101.822 183.585 104.195 183.263 105.839 184.529C108.401 186.505 113.298 189.483 117.305 187.253C117.414 187.186 117.535 187.142 117.662 187.124C117.788 187.105 117.917 187.113 118.04 187.146C118.163 187.179 118.279 187.237 118.379 187.316C118.48 187.395 118.564 187.494 118.626 187.606C118.687 187.718 118.726 187.842 118.739 187.97C118.752 188.098 118.739 188.227 118.701 188.35C118.663 188.473 118.601 188.587 118.519 188.685C118.436 188.783 118.334 188.863 118.22 188.92C113.272 191.674 107.617 188.299 104.689 186.042C103.871 185.413 102.686 185.579 102.046 186.412C99.8706 189.252 96.871 191.524 92.3194 193.774C92.1903 193.84 92.0479 193.875 91.9033 193.876Z" fill="#000072"/>
<g opacity="0.3">
<path d="M90.9902 178.591C90.9902 178.591 92.3552 185.054 92.3307 184.523C92.3062 183.992 95.182 179.545 95.182 179.545L93.9004 174.261" fill="#000072"/>
</g>
<g opacity="0.3">
<path d="M23.4185 181.033L69.656 183.833L73.3109 187.793C73.3109 187.793 77.3476 188.258 77.426 187.793C77.5045 187.329 77.7938 185.025 77.7938 185.025L73.6921 183.742L70.6459 179.392L24.9888 179.544" fill="#000072"/>
</g>
<g opacity="0.3">
<path d="M85.7695 187.998C86.2261 187.976 89.7535 187.783 92.3609 187.641C93.2368 187.593 94.0888 187.336 94.8466 186.891C95.6043 186.446 96.246 185.825 96.7187 185.081L98.0169 183.038L129.404 181.608L130.584 179.543H95.5726L92.6305 183.771L83.7959 184.704" fill="#000072"/>
</g>
</svg>
