<svg width="16" height="18" viewBox="0 0 16 18" fill="none" xmlns="http://www.w3.org/2000/svg">
<path d="M1.33908 14.2218L0.980121 13.9505L0.98012 13.9505L1.33908 14.2218ZM2.32034 11.4263L1.87034 11.4208V11.4263H2.32034ZM2.34094 9.73606L2.79094 9.74155V9.73606H2.34094ZM14.6662 14.2354L15.0305 13.9713L15.0305 13.9713L14.6662 14.2354ZM13.7218 11.4263L13.2718 11.4205V11.4263H13.7218ZM13.7424 9.81982L14.1924 9.82559V9.81982H13.7424ZM1.69804 14.4932C2.23722 13.7801 2.77034 12.7184 2.77034 11.4263H1.87034C1.87034 12.4671 1.43958 13.3427 0.980121 13.9505L1.69804 14.4932ZM2.77031 11.4318L2.7909 9.74155L1.89097 9.73058L1.87037 11.4208L2.77031 11.4318ZM15.0305 13.9713C14.5902 13.3639 14.1718 12.4805 14.1718 11.4263H13.2718C13.2718 12.721 13.7841 13.7854 14.3018 14.4995L15.0305 13.9713ZM14.1718 11.432L14.1924 9.82559L13.2925 9.81405L13.2719 11.4205L14.1718 11.432ZM14.1924 9.81982C14.1924 6.38674 11.422 3.60001 8 3.60001V4.50001C10.9209 4.50001 13.2924 6.87975 13.2924 9.81982H14.1924ZM14.3225 15.4687C14.7347 15.4687 15.0043 15.1779 15.118 14.9096C15.2314 14.6419 15.2482 14.2716 15.0305 13.9713L14.3018 14.4995C14.296 14.4914 14.2991 14.4902 14.2999 14.5037C14.3007 14.5182 14.2978 14.5386 14.2893 14.5585C14.2807 14.5789 14.2722 14.5852 14.2748 14.5831C14.2768 14.5816 14.2823 14.5777 14.2917 14.5743C14.3016 14.5707 14.3124 14.5687 14.3225 14.5687V15.4687ZM2.79094 9.73606C2.79094 6.84225 5.12513 4.50001 8 4.50001V3.60001C4.62404 3.60001 1.89094 6.34924 1.89094 9.73606H2.79094ZM1.67832 14.5687C1.68876 14.5687 1.69992 14.5708 1.71 14.5745C1.71962 14.5781 1.72513 14.5821 1.72688 14.5835C1.729 14.5852 1.71984 14.5779 1.71084 14.556C1.70201 14.5345 1.69915 14.5128 1.70021 14.4974C1.7012 14.4831 1.70451 14.4847 1.69804 14.4932L0.98012 13.9505C0.752922 14.251 0.767168 14.6274 0.878368 14.898C0.989705 15.169 1.25959 15.4687 1.67832 15.4687V14.5687ZM14.3225 14.5687H1.67832V15.4687H14.3225V14.5687ZM10.25 15.0187C10.25 16.1413 9.27044 17.1 8 17.1V18C9.7119 18 11.15 16.6922 11.15 15.0187H10.25ZM8 17.1C6.72956 17.1 5.75 16.1413 5.75 15.0187H4.85C4.85 16.6922 6.2881 18 8 18V17.1ZM9.35 2.25001C9.35 2.9956 8.74558 3.60001 8 3.60001V4.50001C9.24264 4.50001 10.25 3.49265 10.25 2.25001H9.35ZM8 3.60001C7.25442 3.60001 6.65 2.9956 6.65 2.25001H5.75C5.75 3.49265 6.75736 4.50001 8 4.50001V3.60001ZM6.65 2.25001C6.65 1.50443 7.25442 0.900012 8 0.900012V1.21891e-05C6.75736 1.21891e-05 5.75 1.00737 5.75 2.25001H6.65ZM8 0.900012C8.74558 0.900012 9.35 1.50443 9.35 2.25001H10.25C10.25 1.00737 9.24264 1.21891e-05 8 1.21891e-05V0.900012Z" fill="#DAF73A"/>
</svg>
