<svg width="20" height="21" viewBox="0 0 20 21" fill="none" xmlns="http://www.w3.org/2000/svg">
<path d="M16.2634 3.21429H14.442V2.60714C14.442 2.44612 14.378 2.29169 14.2641 2.17783C14.1503 2.06397 13.9958 2 13.8348 2C13.6738 2 13.5194 2.06397 13.4055 2.17783C13.2916 2.29169 13.2277 2.44612 13.2277 2.60714V3.21429H7.15625V2.60714C7.15625 2.44612 7.09228 2.29169 6.97842 2.17783C6.86456 2.06397 6.71013 2 6.54911 2C6.38808 2 6.23365 2.06397 6.11979 2.17783C6.00593 2.29169 5.94196 2.44612 5.94196 2.60714V3.21429H4.12054C3.79849 3.21429 3.48963 3.34222 3.26191 3.56994C3.03418 3.79766 2.90625 4.10652 2.90625 4.42857V16.5714C2.90625 16.8935 3.03418 17.2023 3.26191 17.4301C3.48963 17.6578 3.79849 17.7857 4.12054 17.7857H16.2634C16.5854 17.7857 16.8943 17.6578 17.122 17.4301C17.3497 17.2023 17.4777 16.8935 17.4777 16.5714V4.42857C17.4777 4.10652 17.3497 3.79766 17.122 3.56994C16.8943 3.34222 16.5854 3.21429 16.2634 3.21429ZM5.94196 4.42857V5.03571C5.94196 5.19674 6.00593 5.35117 6.11979 5.46503C6.23365 5.57889 6.38808 5.64286 6.54911 5.64286C6.71013 5.64286 6.86456 5.57889 6.97842 5.46503C7.09228 5.35117 7.15625 5.19674 7.15625 5.03571V4.42857H13.2277V5.03571C13.2277 5.19674 13.2916 5.35117 13.4055 5.46503C13.5194 5.57889 13.6738 5.64286 13.8348 5.64286C13.9958 5.64286 14.1503 5.57889 14.2641 5.46503C14.378 5.35117 14.442 5.19674 14.442 5.03571V4.42857H16.2634V6.85714H4.12054V4.42857H5.94196ZM16.2634 16.5714H4.12054V8.07143H16.2634V16.5714ZM8.97768 9.89286V14.75C8.97768 14.911 8.91371 15.0655 8.79985 15.1793C8.68599 15.2932 8.53156 15.3571 8.37054 15.3571C8.20951 15.3571 8.05508 15.2932 7.94122 15.1793C7.82736 15.0655 7.76339 14.911 7.76339 14.75V10.8749L7.42795 11.0434C7.28383 11.1155 7.11699 11.1273 6.96413 11.0764C6.81127 11.0254 6.68492 10.9158 6.61286 10.7717C6.5408 10.6276 6.52894 10.4607 6.57989 10.3079C6.63085 10.155 6.74044 10.0287 6.88455 9.95661L8.09884 9.34946C8.19144 9.30313 8.29435 9.28124 8.39779 9.28589C8.50123 9.29054 8.60176 9.32156 8.68983 9.37602C8.7779 9.43047 8.85058 9.50655 8.90096 9.59701C8.95134 9.68747 8.97775 9.78931 8.97768 9.89286ZM13.4675 12.2038L12.0134 14.1429H13.2277C13.3887 14.1429 13.5431 14.2068 13.657 14.3207C13.7709 14.4345 13.8348 14.589 13.8348 14.75C13.8348 14.911 13.7709 15.0655 13.657 15.1793C13.5431 15.2932 13.3887 15.3571 13.2277 15.3571H10.7991C10.6864 15.3571 10.5758 15.3257 10.4799 15.2665C10.384 15.2072 10.3065 15.1224 10.2561 15.0215C10.2056 14.9207 10.1843 14.8078 10.1944 14.6955C10.2045 14.5832 10.2457 14.4759 10.3134 14.3857L12.4976 11.4737C12.5473 11.4076 12.5829 11.332 12.6023 11.2516C12.6217 11.1712 12.6245 11.0876 12.6105 11.0061C12.5965 10.9246 12.5659 10.8468 12.5208 10.7775C12.4756 10.7082 12.4167 10.6489 12.3478 10.6031C12.2789 10.5574 12.2013 10.5262 12.1199 10.5116C12.0385 10.4969 11.9549 10.499 11.8744 10.5178C11.7938 10.5365 11.7179 10.5716 11.6514 10.6207C11.5849 10.6699 11.5291 10.7321 11.4875 10.8036C11.4488 10.8748 11.3962 10.9376 11.3329 10.9882C11.2695 11.0388 11.1967 11.0762 11.1186 11.0982C11.0406 11.1202 10.9589 11.1264 10.8785 11.1163C10.798 11.1062 10.7204 11.0801 10.6502 11.0396C10.58 10.999 10.5186 10.9448 10.4697 10.8802C10.4208 10.8155 10.3853 10.7417 10.3654 10.6631C10.3455 10.5845 10.3415 10.5028 10.3537 10.4226C10.3658 10.3424 10.394 10.2655 10.4363 10.1964C10.6369 9.84936 10.9463 9.57815 11.3167 9.42483C11.6871 9.2715 12.0977 9.24464 12.4849 9.3484C12.872 9.45215 13.2142 9.68074 13.4583 9.99871C13.7023 10.3167 13.8347 10.7063 13.8348 11.1071C13.8361 11.5031 13.707 11.8885 13.4675 12.2038Z" fill="#09805D"/>
</svg>
