<svg width="13" height="9" viewBox="0 0 13 9" fill="none" xmlns="http://www.w3.org/2000/svg">
<path d="M12.3537 0.853723L4.35372 8.85372C4.30729 8.90021 4.25214 8.93709 4.19144 8.96225C4.13074 8.98742 4.06568 9.00037 3.99997 9.00037C3.93427 9.00037 3.8692 8.98742 3.8085 8.96225C3.7478 8.93709 3.69266 8.90021 3.64622 8.85372L0.146223 5.35372C0.0524025 5.2599 -0.000305176 5.13265 -0.000305176 4.99997C-0.000305176 4.86729 0.0524025 4.74004 0.146223 4.64622C0.240043 4.5524 0.367291 4.49969 0.499973 4.49969C0.632655 4.49969 0.759902 4.5524 0.853723 4.64622L3.99997 7.7931L11.6462 0.146223C11.74 0.0524023 11.8673 -0.000305177 12 -0.000305176C12.1327 -0.000305175 12.2599 0.0524023 12.3537 0.146223C12.4475 0.240043 12.5003 0.367291 12.5003 0.499973C12.5003 0.632655 12.4475 0.759903 12.3537 0.853723Z" fill="#DAF73A"/>
</svg>
