<svg width="17" height="12" viewBox="0 0 17 12" fill="none" xmlns="http://www.w3.org/2000/svg">
<path d="M15.9425 1.06717L5.94254 11.0672C5.88449 11.1253 5.81556 11.1714 5.73969 11.2028C5.66381 11.2343 5.58248 11.2505 5.50035 11.2505C5.41821 11.2505 5.33688 11.2343 5.26101 11.2028C5.18514 11.1714 5.11621 11.1253 5.05816 11.0672L0.68316 6.69217C0.565885 6.57489 0.5 6.41583 0.5 6.24998C0.5 6.08413 0.565885 5.92507 0.68316 5.80779C0.800435 5.69052 0.959495 5.62463 1.12535 5.62463C1.2912 5.62463 1.45026 5.69052 1.56753 5.80779L5.50035 9.74139L15.0582 0.182793C15.1754 0.0655181 15.3345 -0.000366212 15.5003 -0.000366211C15.6662 -0.00036621 15.8253 0.0655181 15.9425 0.182793C16.0598 0.300069 16.1257 0.459129 16.1257 0.624981C16.1257 0.790834 16.0598 0.949894 15.9425 1.06717Z" fill="#1F1F1F"/>
</svg>
