<svg width="24" height="24" viewBox="0 0 24 24" fill="none" xmlns="http://www.w3.org/2000/svg">
<path d="M21.7969 7.54591L9.79687 19.5459C9.69236 19.6508 9.56816 19.734 9.43142 19.7908C9.29467 19.8476 9.14806 19.8768 9 19.8768C8.85193 19.8768 8.70532 19.8476 8.56858 19.7908C8.43183 19.734 8.30764 19.6508 8.20312 19.5459L2.95312 14.2959C2.84848 14.1913 2.76547 14.067 2.70883 13.9303C2.6522 13.7936 2.62305 13.647 2.62305 13.499C2.62305 13.351 2.6522 13.2045 2.70883 13.0678C2.76547 12.931 2.84848 12.8068 2.95312 12.7022C3.05777 12.5975 3.182 12.5145 3.31873 12.4579C3.45546 12.4012 3.60201 12.3721 3.75 12.3721C3.89799 12.3721 4.04454 12.4012 4.18126 12.4579C4.31799 12.5145 4.44223 12.5975 4.54687 12.7022L9.00094 17.1562L20.205 5.95404C20.4163 5.74269 20.703 5.62396 21.0019 5.62396C21.3008 5.62396 21.5874 5.74269 21.7987 5.95404C22.0101 6.16538 22.1288 6.45203 22.1288 6.75091C22.1288 7.0498 22.0101 7.33644 21.7987 7.54779L21.7969 7.54591Z" fill="#DAF73A"/>
</svg>
