<svg width="17" height="12" viewBox="0 0 17 12" fill="none" xmlns="http://www.w3.org/2000/svg">
<path d="M15.9422 1.06754L5.94217 11.0675C5.88412 11.1256 5.81519 11.1717 5.73932 11.2032C5.66345 11.2347 5.58212 11.2508 5.49998 11.2508C5.41785 11.2508 5.33652 11.2347 5.26064 11.2032C5.18477 11.1717 5.11584 11.1256 5.05779 11.0675L0.682794 6.69254C0.565518 6.57526 0.499634 6.4162 0.499634 6.25035C0.499634 6.0845 0.565518 5.92544 0.682794 5.80816C0.800069 5.69088 0.959129 5.625 1.12498 5.625C1.29083 5.625 1.44989 5.69088 1.56717 5.80816L5.49998 9.74175L15.0578 0.18316C15.1751 0.0658843 15.3341 -1.2357e-09 15.5 0C15.6658 1.2357e-09 15.8249 0.0658843 15.9422 0.18316C16.0594 0.300435 16.1253 0.459495 16.1253 0.625347C16.1253 0.7912 16.0594 0.95026 15.9422 1.06754Z" fill="white"/>
</svg>
