<svg width="28" height="28" viewBox="0 0 28 28" fill="none" xmlns="http://www.w3.org/2000/svg">
<path d="M25.429 8.80282L11.429 22.8028C11.3071 22.9252 11.1622 23.0223 11.0027 23.0885C10.8431 23.1548 10.6721 23.1889 10.4993 23.1889C10.3266 23.1889 10.1556 23.1548 9.99602 23.0885C9.83649 23.0223 9.6916 22.9252 9.56966 22.8028L3.44466 16.6778C3.32257 16.5557 3.22573 16.4108 3.15965 16.2513C3.09358 16.0918 3.05957 15.9208 3.05957 15.7481C3.05957 15.5755 3.09358 15.4045 3.15965 15.245C3.22573 15.0855 3.32257 14.9405 3.44466 14.8184C3.56675 14.6964 3.71169 14.5995 3.8712 14.5334C4.03072 14.4674 4.20169 14.4334 4.37435 14.4334C4.54701 14.4334 4.71797 14.4674 4.87749 14.5334C5.03701 14.5995 5.18195 14.6964 5.30403 14.8184L10.5004 20.0149L23.5718 6.94564C23.8184 6.69907 24.1528 6.56055 24.5015 6.56055C24.8502 6.56055 25.1847 6.69907 25.4312 6.94564C25.6778 7.1922 25.8163 7.52662 25.8163 7.87532C25.8163 8.22402 25.6778 8.55844 25.4312 8.80501L25.429 8.80282Z" fill="#FD8342"/>
</svg>
