<svg width="21" height="21" viewBox="0 0 21 21" fill="none" xmlns="http://www.w3.org/2000/svg">
<path d="M19.7244 10.2533C19.6979 10.1933 19.055 8.76729 17.626 7.33823C15.7218 5.43407 13.3168 4.42773 10.6696 4.42773C8.02249 4.42773 5.61745 5.43407 3.7133 7.33823C2.28423 8.76729 1.63839 10.1956 1.61486 10.2533C1.58034 10.3309 1.5625 10.4149 1.5625 10.4999C1.5625 10.5849 1.58034 10.6689 1.61486 10.7466C1.64142 10.8065 2.28423 12.2318 3.7133 13.6609C5.61745 15.5643 8.02249 16.5706 10.6696 16.5706C13.3168 16.5706 15.7218 15.5643 17.626 13.6609C19.055 12.2318 19.6979 10.8065 19.7244 10.7466C19.7589 10.6689 19.7768 10.5849 19.7768 10.4999C19.7768 10.4149 19.7589 10.3309 19.7244 10.2533ZM10.6696 15.3563C8.33365 15.3563 6.29289 14.5071 4.60352 12.8329C3.91035 12.1435 3.32062 11.3575 2.85267 10.4992C3.32049 9.64077 3.91024 8.8547 4.60352 8.16546C6.29289 6.49126 8.33365 5.64202 10.6696 5.64202C13.0056 5.64202 15.0464 6.49126 16.7358 8.16546C17.4303 8.85453 18.0213 9.6406 18.4904 10.4992C17.9432 11.5207 15.5594 15.3563 10.6696 15.3563ZM10.6696 6.85631C9.94915 6.85631 9.24484 7.06996 8.64577 7.47024C8.04671 7.87052 7.57979 8.43946 7.30407 9.1051C7.02836 9.77075 6.95621 10.5032 7.09678 11.2098C7.23734 11.9165 7.58428 12.5656 8.09375 13.0751C8.60321 13.5845 9.25231 13.9315 9.95895 14.072C10.6656 14.2126 11.3981 14.1404 12.0637 13.8647C12.7293 13.589 13.2983 13.1221 13.6986 12.523C14.0988 11.924 14.3125 11.2197 14.3125 10.4992C14.3115 9.53333 13.9274 8.60733 13.2444 7.92438C12.5615 7.24143 11.6355 6.85731 10.6696 6.85631ZM10.6696 12.9277C10.1893 12.9277 9.71977 12.7853 9.32039 12.5184C8.92102 12.2516 8.60974 11.8723 8.42593 11.4285C8.24212 10.9848 8.19402 10.4965 8.28773 10.0254C8.38144 9.55428 8.61273 9.12155 8.95238 8.7819C9.29202 8.44226 9.72475 8.21096 10.1958 8.11726C10.6669 8.02355 11.1552 8.07164 11.599 8.25546C12.0428 8.43927 12.4221 8.75054 12.6889 9.14992C12.9558 9.5493 13.0982 10.0188 13.0982 10.4992C13.0982 11.1433 12.8423 11.761 12.3869 12.2164C11.9314 12.6719 11.3137 12.9277 10.6696 12.9277Z" fill="#09805D"/>
</svg>
