<svg width="20" height="21" viewBox="0 0 20 21" fill="none" xmlns="http://www.w3.org/2000/svg">
<path d="M17.2531 6.35212L13.8614 2.96122C13.7487 2.84844 13.6148 2.75897 13.4675 2.69793C13.3201 2.63689 13.1622 2.60547 13.0027 2.60547C12.8432 2.60547 12.6853 2.63689 12.538 2.69793C12.3906 2.75897 12.2567 2.84844 12.144 2.96122L2.78563 12.3196C2.67238 12.4319 2.5826 12.5657 2.52149 12.713C2.46039 12.8604 2.42918 13.0184 2.42969 13.1779V16.5696C2.42969 16.8916 2.55763 17.2005 2.78535 17.4282C3.01307 17.6559 3.32193 17.7839 3.64398 17.7839H7.03563C7.19515 17.7844 7.35318 17.7532 7.50054 17.6921C7.64789 17.631 7.78163 17.5412 7.89398 17.4279L14.2439 11.0787L14.508 12.1336L11.7152 14.9257C11.6013 15.0396 11.5372 15.194 11.5371 15.355C11.5371 15.5161 11.601 15.6705 11.7148 15.7845C11.8286 15.8984 11.983 15.9624 12.1441 15.9625C12.3051 15.9626 12.4596 15.8987 12.5735 15.7848L15.6092 12.7491C15.6835 12.675 15.7373 12.5829 15.7653 12.4818C15.7934 12.3808 15.7948 12.2741 15.7694 12.1723L15.2457 10.0769L17.2531 8.06957C17.3659 7.95681 17.4553 7.82294 17.5164 7.67559C17.5774 7.52825 17.6088 7.37033 17.6088 7.21084C17.6088 7.05136 17.5774 6.89343 17.5164 6.74609C17.4553 6.59875 17.3659 6.46488 17.2531 6.35212ZM3.64398 14.3922L5.82135 16.5696H3.64398V14.3922ZM7.28684 16.3184L3.89518 12.9267L10.3226 6.49935L13.7142 9.891L7.28684 16.3184ZM14.5726 9.03265L11.1817 5.641L13.0031 3.81957L16.394 7.21122L14.5726 9.03265Z" fill="#09805D"/>
</svg>
