<svg width="30" height="31" viewBox="0 0 30 31" fill="none" xmlns="http://www.w3.org/2000/svg">
<rect y="0.5" width="30" height="30" rx="15" fill="url(#paint0_linear_474_15085)"/>
<path d="M15 8.25C15.1989 8.25 15.3897 8.32902 15.5303 8.46967C15.671 8.61032 15.75 8.80109 15.75 9V14.75H21.5C21.6989 14.75 21.8897 14.829 22.0303 14.9697C22.171 15.1103 22.25 15.3011 22.25 15.5C22.25 15.6989 22.171 15.8897 22.0303 16.0303C21.8897 16.171 21.6989 16.25 21.5 16.25H15.75V22C15.75 22.1989 15.671 22.3897 15.5303 22.5303C15.3897 22.671 15.1989 22.75 15 22.75C14.8011 22.75 14.6103 22.671 14.4697 22.5303C14.329 22.3897 14.25 22.1989 14.25 22V16.25H8.5C8.30109 16.25 8.11032 16.171 7.96967 16.0303C7.82902 15.8897 7.75 15.6989 7.75 15.5C7.75 15.3011 7.82902 15.1103 7.96967 14.9697C8.11032 14.829 8.30109 14.75 8.5 14.75H14.25V9C14.25 8.80109 14.329 8.61032 14.4697 8.46967C14.6103 8.32902 14.8011 8.25 15 8.25Z" fill="white"/>
<defs>
<linearGradient id="paint0_linear_474_15085" x1="-6.90611e-08" y1="28.9024" x2="37.543" y2="0.137838" gradientUnits="userSpaceOnUse">
<stop stop-color="#50A4DE"/>
<stop offset="0.333333" stop-color="#35BAD3"/>
<stop offset="0.666667" stop-color="#55CAB4"/>
<stop offset="1" stop-color="#00AA78"/>
</linearGradient>
</defs>
</svg>
