<svg width="33" height="32" viewBox="0 0 33 32" fill="none" xmlns="http://www.w3.org/2000/svg">
<g clip-path="url(#clip0_584_6161)">
<path d="M16.5 1C12.5227 1 8.70469 2.58133 5.89453 5.39336C3.0815 8.20652 1.5008 12.0217 1.5 16C1.5 19.9766 3.08203 23.7946 5.89453 26.6066C8.70469 29.4187 12.5227 31 16.5 31C20.4773 31 24.2953 29.4187 27.1055 26.6066C29.918 23.7946 31.5 19.9766 31.5 16C31.5 12.0234 29.918 8.20539 27.1055 5.39336C24.2953 2.58133 20.4773 1 16.5 1Z" fill="url(#paint0_linear_584_6161)"/>
<path d="M8.29151 15.8416C12.665 13.9366 15.5806 12.6806 17.0384 12.0738C21.2056 10.341 22.0704 10.0401 22.6353 10.0299C22.7595 10.0279 23.036 10.0586 23.2165 10.2045C23.3665 10.3275 23.4087 10.494 23.4298 10.6108C23.4485 10.7275 23.4743 10.9935 23.4532 11.2012C23.2282 13.5731 22.2509 19.3288 21.754 21.9855C21.5454 23.1095 21.1306 23.4864 20.7298 23.5232C19.8579 23.6034 19.197 22.9476 18.3532 22.3947C17.0337 21.5291 16.2884 20.9906 15.0064 20.1461C13.5251 19.1702 14.486 18.6337 15.3298 17.7571C15.5501 17.5277 19.3892 14.0366 19.4618 13.72C19.4712 13.6804 19.4806 13.5327 19.3915 13.4549C19.3048 13.3769 19.1759 13.4036 19.0821 13.4247C18.9485 13.4547 16.8415 14.8488 12.754 17.6066C12.1564 18.0177 11.615 18.2181 11.1275 18.2076C10.5931 18.1961 9.56183 17.9048 8.79542 17.6559C7.85792 17.3505 7.11026 17.189 7.17589 16.6703C7.2087 16.4003 7.58136 16.124 8.29151 15.8416Z" fill="white"/>
</g>
<rect x="1" y="0.5" width="31" height="31" rx="15.5" stroke="white"/>
<defs>
<linearGradient id="paint0_linear_584_6161" x1="1501.5" y1="1" x2="1501.5" y2="3001" gradientUnits="userSpaceOnUse">
<stop stop-color="#2AABEE"/>
<stop offset="1" stop-color="#229ED9"/>
</linearGradient>
<clipPath id="clip0_584_6161">
<rect x="1.5" y="1" width="30" height="30" rx="15" fill="white"/>
</clipPath>
</defs>
</svg>
