<svg width="40" height="40" viewBox="0 0 40 40" fill="none" xmlns="http://www.w3.org/2000/svg">
<path d="M29.8796 30.159C34.1924 25.88 34.1924 18.9423 29.8796 14.6632C25.5668 10.3842 18.5743 10.3842 14.2615 14.6632C9.94873 18.9423 9.94873 25.88 14.2615 30.159C18.5743 34.4381 25.5668 34.4381 29.8796 30.159Z" fill="#F1F1F2"/>
<path d="M30.4932 7.95822C30.6672 7.75287 30.5097 7.33912 30.8443 6.91084L27.7219 4.79064C27.7219 4.79064 31.9347 0.815574 36.6793 3.29621C41.4239 5.77684 38.3345 13.0606 38.3345 13.0606L34.9698 10.3559C34.4441 10.792 33.4104 10.9132 32.8835 11.3487C32.3199 10.4898 31.5379 9.79361 30.6165 9.33029C30.5115 9.27759 29.8839 8.83174 29.868 8.71604C29.857 8.62094 30.4309 8.03152 30.4932 7.95822Z" fill="#DDDFE0"/>
<path d="M9.20678 12.8858C8.97478 12.7483 8.40574 12.3727 7.94844 12.0765L10.4895 7.71497C10.4895 7.71497 5.19547 5.76741 1.53279 9.65041C-2.1299 13.5334 3.18799 19.4148 3.18799 19.4148L5.85181 15.3065L7.77382 16.0334C8.02308 15.0388 8.53255 14.1271 9.25074 13.3904C9.33256 13.3062 9.42414 13.2033 9.40033 13.0876C9.38018 12.9943 9.28982 12.9349 9.20678 12.8858Z" fill="#DDDFE0"/>
<path d="M16.5734 7.62917C16.5734 7.62917 14.8638 3.52144 18.2518 2.95565C21.6397 2.38986 21.7319 6.55696 21.7319 6.55696L24.8927 6.52001C24.8927 6.52001 24.2211 -0.937644 17.8421 0.0988303C11.9411 1.05716 13.6592 9.19509 13.6592 9.19509C13.6592 9.19509 16.1789 7.79091 16.5734 7.62917Z" fill="#DDDFE0"/>
<path d="M19.5852 7.04C11.1651 8.44478 5.48764 16.3562 6.90351 24.7103C8.31937 33.0645 16.2932 38.6976 24.7132 37.2928C33.1333 35.888 38.8108 27.9767 37.395 19.6225C35.9791 11.2683 28.0047 5.63521 19.5852 7.04ZM23.9617 32.8604C21.103 33.3374 18.1704 32.6681 15.8091 30.9999C13.4477 29.3316 11.8511 26.8009 11.3703 23.9646C10.8895 21.1283 11.5641 18.2187 13.2455 15.8759C14.9269 13.533 17.4775 11.9488 20.3362 11.4718C26.2891 10.479 31.9269 14.4613 32.9276 20.3676C33.1658 21.772 33.1228 23.2092 32.8011 24.5971C32.4795 25.9851 31.8854 27.2965 31.0528 28.4566C30.2202 29.6167 29.1654 30.6027 27.9487 31.3583C26.732 32.1139 25.3772 32.6243 23.9617 32.8604Z" fill="#9BDBE6"/>
<path d="M34.6091 31.7852C35.2965 32.6514 35.639 34.2082 36.006 35.2465C36.067 35.4125 36.1195 35.5912 36.0756 35.762C35.9956 36.0734 35.6061 36.2206 35.2898 36.1522C34.9735 36.0837 34.7159 35.862 34.4735 35.6482C33.9594 35.1938 32.7402 34.5257 32.2261 34.0732L34.6091 31.7852Z" fill="#DDDFE0"/>
<path d="M13.3652 35.2344C12.9988 36.2763 12.8035 38.0155 12.7998 39.1186C12.7998 39.2943 12.8065 39.482 12.9042 39.628C13.0825 39.8964 13.4989 39.9091 13.7755 39.7413C14.052 39.5735 14.2218 39.2809 14.3805 39.0005C14.7163 38.4044 15.6486 37.377 15.985 36.7809L13.3652 35.2344Z" fill="#DDDFE0"/>
<path d="M19.2139 7.02713C18.5753 7.13374 17.4433 7.46873 16.8401 7.6438C16.9738 7.61836 17.1057 7.58989 17.24 7.56747C25.7034 6.15481 33.9214 12.0266 35.2842 20.0603C36.5431 27.4877 31.5879 35.2191 24.1642 37.3654C32.9153 36.6457 38.6636 27.6573 37.4626 19.7301C36.1042 10.8017 27.6773 5.61507 19.2139 7.02713Z" fill="#5E8B8D"/>
<path d="M37.8621 3.99023C37.8621 3.99023 38.9697 8.54382 36.8468 11.6308L38.8396 13.2882C38.8396 13.2882 41.3215 6.7259 37.8621 3.99023Z" fill="#A4A4A4"/>
<path d="M17.583 0.978625C17.583 0.978625 21.5027 -0.0717826 23.4718 6.3924L24.8919 6.52083C24.8919 6.52083 23.4577 -1.21851 17.583 0.978625Z" fill="#A4A4A4"/>
<path d="M3.31572 9.89612C2.80441 10.5585 2.44073 11.321 2.24874 12.1333C2.05676 12.9455 2.04085 13.789 2.20208 14.6078C2.32113 15.2275 3.2974 15.067 3.17896 14.4449C3.03854 13.753 3.05017 13.0393 3.21307 12.3524C3.37596 11.6654 3.68629 11.0214 4.12287 10.4643C4.50934 9.96033 3.7022 9.39151 3.31694 9.89491L3.31572 9.89612Z" fill="white"/>
<path d="M22.0694 37.9457C13.308 37.9457 6.17981 30.8733 6.17981 22.1805C6.17981 13.4877 13.308 6.41406 22.0694 6.41406C30.8308 6.41406 37.9595 13.4864 37.9595 22.1805C37.9595 30.8745 30.8314 37.9457 22.0694 37.9457ZM22.0694 7.10706C13.6926 7.10706 6.87828 13.8687 6.87828 22.1799C6.87828 30.491 13.6926 37.2527 22.0694 37.2527C30.4461 37.2527 37.2611 30.491 37.2611 22.1805C37.2611 13.8699 30.4461 7.10706 22.0694 7.10706Z" fill="#303344"/>
<path d="M22.07 33.6826C15.8057 33.6826 10.7095 28.6262 10.7095 22.4116C10.7095 16.197 15.8057 11.1406 22.07 11.1406C28.3342 11.1406 33.4323 16.1964 33.4323 22.4116C33.4323 28.6268 28.3336 33.6826 22.07 33.6826ZM22.07 11.833C16.191 11.833 11.4079 16.5786 11.4079 22.4116C11.4079 28.2446 16.191 32.9896 22.07 32.9896C27.949 32.9896 32.7314 28.2446 32.7314 22.4116C32.7314 16.5786 27.949 11.833 22.07 11.833Z" fill="#303344"/>
<path d="M39.1542 13.9379L27.2803 4.6557L27.6374 4.38492C29.0973 3.27575 30.5186 2.60637 31.9827 2.33923C33.8144 2.00424 35.6833 2.33135 37.5387 3.30846C39.2672 4.21712 40.114 6.28038 39.9876 9.27046C39.917 10.6849 39.6862 12.087 39.2996 13.4503L39.1542 13.9379ZM28.4269 4.66842L38.7665 12.7524C39.1854 11.0563 40.2783 5.53467 37.2139 3.9215C34.2302 2.35013 31.3508 2.59365 28.4269 4.66842Z" fill="#303344"/>
<path d="M3.1871 20.1818L2.88183 19.7736C2.0501 18.6232 1.35151 17.3837 0.799241 16.0784C-0.346761 13.31 -0.258841 11.0856 1.05323 9.64506C2.46299 8.0961 4.10903 7.15776 5.94556 6.85488C7.41088 6.61257 8.97939 6.75977 10.7329 7.3086L11.1603 7.44308L3.1871 20.1818ZM7.32785 7.43339C5.10056 7.43339 3.19992 8.32024 1.57098 10.1085C-0.758272 12.6642 2.16748 17.4843 3.14497 18.9358L10.0906 7.83926C9.1926 7.57983 8.26308 7.44348 7.32785 7.43399V7.43339Z" fill="#303344"/>
<path d="M6.02082 15.1718L5.83875 15.8408L7.44674 16.2716L7.62881 15.6026L6.02082 15.1718Z" fill="#303344"/>
<path d="M8.37463 11.7698L7.93054 12.3047L9.07521 13.2402L9.5193 12.7053L8.37463 11.7698Z" fill="#303344"/>
<path d="M30.6115 7.11631L29.6208 8.66504L30.2106 9.03637L31.2012 7.48764L30.6115 7.11631Z" fill="#303344"/>
<path d="M34.9304 9.93904L33.1826 10.8135L33.4971 11.4323L35.2449 10.5578L34.9304 9.93904Z" fill="#303344"/>
<path d="M35.2915 36.5274C34.8981 36.5193 34.515 36.4018 34.1858 36.1882C33.7907 35.9422 33.4836 35.6157 33.1863 35.3001L32.0317 34.0734L32.5422 33.6003L33.6967 34.8276C33.9635 35.1105 34.2389 35.4031 34.557 35.6006C34.8751 35.7981 35.2133 35.875 35.4905 35.8132C35.5269 35.8068 35.5619 35.7939 35.5937 35.775C35.5975 35.7457 35.5995 35.7162 35.5998 35.6866C35.6348 34.3173 35.1954 32.9775 34.3549 31.8908L34.9044 31.4668C35.8505 32.677 36.3424 34.1763 36.2958 35.7072C36.2983 35.8422 36.2693 35.9759 36.211 36.0979C36.1401 36.2342 35.9832 36.4129 35.6413 36.4886C35.5265 36.5143 35.4092 36.5273 35.2915 36.5274Z" fill="#303344"/>
<path d="M13.4146 39.9995C13.1882 40.0038 12.9679 39.9263 12.7949 39.7814C12.5366 39.5561 12.4646 39.2362 12.4286 38.9473C12.2595 37.5997 12.4864 36.2324 13.0818 35.0098L13.7095 35.3127C13.1734 36.4137 12.969 37.6448 13.1209 38.8582C13.1398 39.0066 13.1728 39.1866 13.2565 39.2599C13.3401 39.3332 13.5104 39.3204 13.6472 39.2411C13.8304 39.1333 13.9818 38.9297 14.1265 38.7322L15.836 36.3927L16.4014 36.7992L14.6919 39.1387C14.5227 39.3701 14.3121 39.6585 13.9989 39.8396C13.8218 39.9432 13.6202 39.9983 13.4146 39.9995Z" fill="#303344"/>
<path d="M16.8212 7.6412C16.7663 6.88244 16.7527 6.1213 16.7803 5.36108C16.8096 4.73895 16.9408 4.01445 17.4751 3.61403C17.9849 3.23179 18.7627 3.25481 19.3678 3.3166C19.6804 3.3487 20.007 3.43351 20.2543 3.63463C20.4808 3.81636 20.6334 4.07381 20.7568 4.33308C21.1042 5.06001 21.2751 5.90203 21.3392 6.70044C21.3746 7.14205 22.0719 7.14568 22.0377 6.70044C21.9774 5.83596 21.7787 4.98653 21.4491 4.18406C21.1408 3.45714 20.6347 2.8762 19.833 2.69447C19.0942 2.52728 18.176 2.52728 17.4726 2.82653C16.7351 3.13971 16.3071 3.86058 16.1654 4.62083C15.9823 5.60036 16.0635 6.65258 16.1239 7.6412C16.1508 8.08402 16.8493 8.08705 16.8224 7.6412H16.8212Z" fill="#303344"/>
<path d="M13.2629 9.19612C13.0853 8.45414 12.9831 7.69637 12.9577 6.93417C12.8929 5.22408 13.2245 3.73267 13.9162 2.62108C14.6873 1.38228 15.8968 0.583266 17.5117 0.246457C19.5125 -0.170314 21.1421 0.0301971 22.3565 0.841325C24.3713 2.18977 24.8719 4.94361 25.2364 6.95356L24.5489 7.07471C24.1881 5.08051 23.7381 2.59927 21.9657 1.41438C20.8997 0.701391 19.4899 0.540861 17.6552 0.923102C16.2351 1.21872 15.177 1.91233 14.5103 2.98272C13.0041 5.40581 13.9297 8.97986 13.9388 9.01742L13.2629 9.19612Z" fill="#303344"/>
<path d="M20.0045 11.7119L20.4697 14.8122C20.4972 14.9939 20.7335 15.1 20.8971 15.0545C21.0968 14.9994 21.1694 14.8122 21.1413 14.6305L20.6761 11.5301C20.6486 11.3484 20.4123 11.2424 20.2487 11.2878C20.0484 11.343 19.9764 11.5271 20.0045 11.7119Z" fill="#303344"/>
<path d="M22.9843 29.8791L23.4495 32.9788C23.477 33.1605 23.7126 33.2671 23.8769 33.2211C24.0765 33.1654 24.1486 32.9788 24.1211 32.7971L23.6559 29.6973C23.6284 29.5156 23.3921 29.409 23.2285 29.455C23.0288 29.5108 22.9568 29.6973 22.9843 29.8791Z" fill="#303344"/>
<path d="M32.3579 20.1737L29.235 20.6426C29.0518 20.6704 28.9444 20.9037 28.9908 21.0666C29.0469 21.2647 29.235 21.3368 29.4181 21.3089L32.5411 20.84C32.7243 20.8116 32.8317 20.5784 32.7853 20.416C32.7292 20.2185 32.5411 20.1458 32.3579 20.1737Z" fill="#303344"/>
<path d="M14.2692 23.2655L11.1481 23.7344C10.9649 23.7623 10.8574 23.9961 10.9038 24.1584C10.9594 24.3559 11.145 24.4286 11.3312 24.4007L14.4548 23.9319C14.641 23.904 14.7448 23.6708 14.699 23.5078C14.6435 23.3097 14.4579 23.2377 14.2716 23.2655H14.2692Z" fill="#303344"/>
<path d="M22.0121 23.7367C21.7499 23.7368 21.4936 23.6598 21.2755 23.5153C21.0574 23.3709 20.8875 23.1655 20.7871 22.9251C20.6867 22.6848 20.6603 22.4203 20.7115 22.1652C20.7626 21.91 20.8889 21.6756 21.0743 21.4916C21.2597 21.3077 21.4959 21.1824 21.7531 21.1317C22.0103 21.081 22.2768 21.1071 22.5191 21.2067C22.7613 21.3063 22.9683 21.4749 23.1139 21.6913C23.2595 21.9077 23.3372 22.162 23.337 22.4222C23.3364 22.7706 23.1966 23.1046 22.9483 23.351C22.7 23.5974 22.3633 23.7361 22.0121 23.7367ZM22.0121 21.7982C21.8882 21.7982 21.7671 21.8347 21.664 21.903C21.5609 21.9712 21.4805 22.0683 21.433 22.1819C21.3855 22.2954 21.373 22.4204 21.397 22.5411C21.4211 22.6617 21.4806 22.7726 21.5681 22.8596C21.6556 22.9467 21.7672 23.0061 21.8887 23.0303C22.0102 23.0545 22.1362 23.0425 22.2508 22.9957C22.3654 22.9488 22.4635 22.8694 22.5326 22.7673C22.6017 22.6653 22.6388 22.5451 22.6392 22.4222C22.639 22.2572 22.5729 22.099 22.4554 21.9822C22.3379 21.8655 22.1785 21.7998 22.0121 21.7994V21.7982Z" fill="#303344"/>
<path d="M21.5486 21.514L16.9475 17.4002L16.2961 16.8181C16.2147 17.0156 16.1333 17.2128 16.0519 17.4099L18.6772 17.7213C18.8647 17.7437 19.0265 17.5462 19.0265 17.3748C19.0265 17.1688 18.8653 17.0507 18.6772 17.0283L16.0519 16.7169C15.7496 16.6812 15.5927 17.1191 15.8076 17.3081L20.41 21.4201L21.0614 22.0023C21.3948 22.2997 21.8899 21.8114 21.5554 21.5122L21.5486 21.514Z" fill="#303344"/>
<path d="M15.711 17.156L16.1451 19.6367C16.222 20.0753 16.8955 19.8893 16.8167 19.455L16.3845 16.9713C16.3075 16.5327 15.6347 16.7187 15.7128 17.153L15.711 17.156Z" fill="#303344"/>
<path d="M21.2944 23.1247L19.0018 26.4922L18.6794 26.9665C18.5079 27.2185 18.7924 27.5601 19.0739 27.4753L21.1277 26.8592C21.5551 26.7302 21.372 26.0614 20.9446 26.1929L18.8907 26.809L19.2851 27.3184L21.5777 23.9503L21.9001 23.4772C22.1522 23.1065 21.5478 22.7594 21.2969 23.1277L21.2944 23.1247Z" fill="#303344"/>
<path d="M19.3292 27.1394V24.9059C19.3292 24.4601 18.6307 24.4594 18.6307 24.9059V27.137C18.6307 27.5828 19.3292 27.5834 19.3292 27.137V27.1394Z" fill="#303344"/>
</svg>
