<svg width="24" height="24" viewBox="0 0 24 24" fill="none" xmlns="http://www.w3.org/2000/svg">
<path d="M12.1465 0C8.96461 0 5.91023 1.26506 3.66211 3.51469C1.41166 5.76521 0.147108 8.81734 0.146484 12C0.146484 15.1813 1.41211 18.2357 3.66211 20.4853C5.91023 22.7349 8.96461 24 12.1465 24C15.3284 24 18.3827 22.7349 20.6309 20.4853C22.8809 18.2357 24.1465 15.1813 24.1465 12C24.1465 8.81869 22.8809 5.76431 20.6309 3.51469C18.3827 1.26506 15.3284 0 12.1465 0Z" fill="url(#paint0_linear_446_14565)"/>
<path d="M6.32149 11.3701C9.82024 9.84612 12.1527 8.84131 13.319 8.35587C16.6527 6.96968 17.3446 6.72893 17.7965 6.72077C17.8959 6.71918 18.1171 6.74374 18.2615 6.86046C18.3815 6.9589 18.4152 7.09202 18.4321 7.18549C18.4471 7.27887 18.4677 7.49168 18.4509 7.65781C18.2709 9.55531 17.489 14.1599 17.0915 16.2852C16.9246 17.1845 16.5927 17.486 16.2721 17.5154C15.5746 17.5796 15.0459 17.0549 14.3709 16.6126C13.3152 15.9202 12.719 15.4893 11.6934 14.8137C10.5084 14.033 11.2771 13.6038 11.9521 12.9026C12.1284 12.719 15.1996 9.92618 15.2577 9.67287C15.2652 9.64118 15.2727 9.52305 15.2015 9.4608C15.1321 9.39837 15.029 9.41974 14.954 9.43662C14.8471 9.46062 13.1615 10.5759 9.89149 12.7822C9.41337 13.1111 8.98024 13.2714 8.59024 13.2629C8.16274 13.2537 7.33774 13.0207 6.72462 12.8216C5.97462 12.5772 5.37649 12.4481 5.42899 12.0331C5.45524 11.8171 5.75337 11.5961 6.32149 11.3701Z" fill="white"/>
<defs>
<linearGradient id="paint0_linear_446_14565" x1="1200.15" y1="0" x2="1200.15" y2="2400" gradientUnits="userSpaceOnUse">
<stop stop-color="#2AABEE"/>
<stop offset="1" stop-color="#229ED9"/>
</linearGradient>
</defs>
</svg>
