<svg width="24" height="24" viewBox="0 0 24 24" fill="none" xmlns="http://www.w3.org/2000/svg">
<rect width="24" height="24" rx="12" fill="#0077FF"/>
<path fill-rule="evenodd" clip-rule="evenodd" d="M18.2453 8.69873C18.3359 8.40091 18.2453 8.18164 17.8117 8.18164H16.3799C16.0155 8.18164 15.8475 8.37091 15.7564 8.57982C15.7564 8.57982 15.0282 10.3231 13.9968 11.4555C13.663 11.7838 13.5113 11.888 13.3291 11.888C13.238 11.888 13.1011 11.7838 13.1011 11.4855V8.69873C13.1011 8.34091 13.0008 8.18164 12.6975 8.18164H10.4459C10.2184 8.18164 10.0815 8.34746 10.0815 8.5051C10.0815 8.84382 10.5975 8.92237 10.6504 9.87582V11.9475C10.6504 12.4018 10.567 12.4842 10.3848 12.4842C9.89932 12.4842 8.71841 10.7327 8.0175 8.72873C7.88168 8.33873 7.74423 8.18164 7.37822 8.18164H5.94532C5.53622 8.18164 5.45441 8.37091 5.45441 8.57982C5.45441 8.95182 5.93986 10.7998 7.71532 13.244C8.89895 14.9131 10.5653 15.818 12.0833 15.818C12.9937 15.818 13.106 15.6173 13.106 15.2709V14.0093C13.106 13.6073 13.1922 13.5271 13.4808 13.5271C13.6935 13.5271 14.0573 13.6318 14.9071 14.4364C15.878 15.3904 16.0379 15.818 16.5844 15.818H18.0162C18.4253 15.818 18.6304 15.6173 18.5126 15.2202C18.3828 14.8253 17.9191 14.252 17.3044 13.5718C16.9706 13.1845 16.4699 12.7673 16.3177 12.5584C16.1055 12.2905 16.166 12.1711 16.3177 11.9327C16.3177 11.9327 18.0631 9.51855 18.2448 8.69873" fill="white"/>
</svg>
