<svg width="24" height="24" viewBox="0 0 24 24" fill="none" xmlns="http://www.w3.org/2000/svg">
<path d="M14.2611 0.176454L13.5411 0.0754017C11.3772 -0.237031 9.16907 0.072061 7.17415 0.966643C5.17923 1.86122 3.4797 3.30444 2.27368 5.12803C0.990512 6.87117 0.225581 8.94118 0.0669211 11.0998C-0.0917391 13.2585 0.362319 15.4181 1.37684 17.3301C1.48067 17.5218 1.54531 17.7321 1.567 17.949C1.58869 18.1659 1.56698 18.3849 1.50316 18.5933C0.985263 20.3743 0.505263 22.168 0 24.0501L0.631579 23.8607C2.33684 23.4059 4.0421 22.9512 5.74737 22.5343C6.10729 22.4595 6.48141 22.4947 6.82105 22.6354C8.35098 23.3821 10.0229 23.7929 11.7247 23.8402C13.4265 23.8875 15.1186 23.5703 16.6877 22.9098C18.2568 22.2493 19.6664 21.2608 20.822 20.0107C21.9776 18.7606 22.8525 17.2777 23.3878 15.6617C23.9232 14.0456 24.1066 12.3338 23.9259 10.641C23.7452 8.94817 23.2045 7.3136 22.3401 5.84697C21.4757 4.38033 20.3076 3.11556 18.9142 2.13754C17.5207 1.15951 15.9342 0.49086 14.2611 0.176454ZM17.4442 16.7491C16.9851 17.1601 16.4253 17.4421 15.8218 17.5664C15.2182 17.6906 14.5925 17.6527 14.0084 17.4565C11.3615 16.7111 9.0652 15.0504 7.52842 12.7701C6.94141 11.9636 6.46952 11.0794 6.12631 10.1428C5.94044 9.59933 5.90693 9.01536 6.0294 8.45422C6.15187 7.89308 6.42565 7.37619 6.82105 6.95961C7.01354 6.71395 7.27555 6.53195 7.57295 6.43732C7.87036 6.34269 8.18936 6.33982 8.48842 6.42909C8.74105 6.49224 8.91789 6.85856 9.14526 7.13645C9.32968 7.65814 9.54568 8.16845 9.78947 8.66488C9.97443 8.91815 10.0517 9.23431 10.0043 9.54433C9.95701 9.85436 9.78895 10.1331 9.53684 10.3196C8.96842 10.8249 9.05684 11.2417 9.46105 11.8101C10.3547 13.0975 11.5877 14.1119 13.0232 14.7407C13.4274 14.9175 13.7305 14.9554 13.9958 14.5386C14.1095 14.3743 14.2611 14.2354 14.3874 14.0838C15.12 13.1617 14.8926 13.1743 16.0547 13.6796C16.4248 13.835 16.7836 14.0169 17.1284 14.2228C17.4695 14.4249 17.9874 14.6396 18.0632 14.9428C18.1361 15.2717 18.1169 15.6143 18.0077 15.933C17.8985 16.2516 17.7035 16.534 17.4442 16.7491Z" fill="#60D669"/>
</svg>
