<svg width="60" height="61" viewBox="0 0 60 61" fill="none" xmlns="http://www.w3.org/2000/svg">
<path d="M1.27304 30.1407C1.27165 35.1819 2.58886 40.1042 5.09351 44.4428L1.03351 59.2666L16.2037 55.2889C20.3996 57.5731 25.1008 58.77 29.8782 58.7703H29.8907C45.6616 58.7703 58.4996 45.937 58.5063 30.1633C58.5093 22.5198 55.5354 15.3324 50.1321 9.92492C44.7298 4.51795 37.5449 1.53864 29.8896 1.53516C14.1168 1.53516 1.27979 14.3677 1.27328 30.1407" fill="url(#paint0_linear_2038_2404)"/>
<path d="M0.251401 30.1316C0.249773 35.3542 1.61419 40.4526 4.20815 44.9465L0.00256348 60.3016L15.7168 56.1814C20.0465 58.5421 24.9214 59.7867 29.8819 59.7886H29.8947C46.2314 59.7886 59.5305 46.4937 59.5374 30.1553C59.5402 22.2372 56.4593 14.7914 50.863 9.19023C45.2661 3.58977 37.8242 0.503256 29.8947 0.5C13.5551 0.5 0.257912 13.793 0.251401 30.1316ZM9.60977 44.1726L9.02303 43.2412C6.55652 39.3193 5.25466 34.7872 5.25652 30.1335C5.26163 16.5533 16.3137 5.50465 29.904 5.50465C36.4854 5.50744 42.6705 8.07302 47.3226 12.7279C51.9744 17.3833 54.5342 23.5716 54.5326 30.1535C54.5265 43.7337 43.4742 54.7837 29.8947 54.7837H29.8849C25.4633 54.7814 21.1267 53.594 17.3449 51.35L16.4449 50.8163L7.11977 53.2612L9.60977 44.1726Z" fill="url(#paint1_linear_2038_2404)"/>
<path d="M22.4858 17.7438C21.9309 16.5105 21.347 16.4856 20.8193 16.464C20.3872 16.4454 19.8933 16.4468 19.3998 16.4468C18.9058 16.4468 18.1033 16.6326 17.4249 17.3733C16.7458 18.1147 14.8323 19.9063 14.8323 23.5503C14.8323 27.1945 17.4865 30.7161 17.8565 31.2108C18.227 31.7045 22.9805 39.4217 30.5088 42.3905C36.7656 44.8577 38.0388 44.367 39.3968 44.2433C40.7549 44.1201 43.7791 42.4522 44.3961 40.7226C45.0135 38.9933 45.0135 37.511 44.8284 37.2012C44.6433 36.8926 44.1493 36.7073 43.4086 36.337C42.6677 35.9666 39.0263 34.1747 38.3475 33.9275C37.6684 33.6805 37.1747 33.5573 36.6807 34.2989C36.1868 35.0394 34.7684 36.7073 34.3361 37.2012C33.9042 37.6963 33.4719 37.758 32.7314 37.3875C31.9902 37.0159 29.6049 36.2347 26.7749 33.7117C24.573 31.7484 23.0865 29.324 22.6544 28.5824C22.2223 27.8419 22.6082 27.4405 22.9795 27.0715C23.3123 26.7396 23.7205 26.2066 24.0912 25.7742C24.4605 25.3417 24.5837 25.0331 24.8307 24.5391C25.0779 24.0447 24.9542 23.6122 24.7693 23.2417C24.5837 22.8712 23.1444 19.2082 22.4858 17.7438Z" fill="white"/>
<defs>
<linearGradient id="paint0_linear_2038_2404" x1="2874.67" y1="5774.68" x2="2874.67" y2="1.53516" gradientUnits="userSpaceOnUse">
<stop stop-color="#1FAF38"/>
<stop offset="1" stop-color="#60D669"/>
</linearGradient>
<linearGradient id="paint1_linear_2038_2404" x1="2976.75" y1="5980.66" x2="2976.75" y2="0.5" gradientUnits="userSpaceOnUse">
<stop stop-color="#F9F9F9"/>
<stop offset="1" stop-color="white"/>
</linearGradient>
</defs>
</svg>
