<svg width="67" height="67" viewBox="0 0 67 67" fill="none" xmlns="http://www.w3.org/2000/svg">
<path d="M6.65527 58.6292L15.1155 61.9147C16.9557 62.6216 18.9778 62.701 20.8678 62.1407C22.7578 61.5803 24.4099 60.4116 25.5676 58.8161L25.8345 58.9187C29.1609 60.2081 32.863 60.1245 36.1279 58.6865C39.3928 57.2485 41.9535 54.5736 43.2478 51.2491L43.4572 50.7255C44.5721 47.8481 46.6712 45.4594 49.3814 43.984L49.3917 43.9778C53.9657 41.4724 57.5075 37.4316 59.392 32.5688C63.7248 21.3714 58.1702 8.76318 46.9666 4.43039C35.7671 0.101715 23.1589 5.65425 18.8261 16.8579C16.9442 21.7195 16.8402 27.0897 18.5324 32.0206C19.5305 34.9392 19.4694 38.116 18.3599 40.9942L18.1505 41.5178C17.3476 43.5804 17.0666 45.8095 17.3324 48.0068C17.5982 50.2042 18.4026 52.3019 19.6742 54.1137L18.1957 53.5387C13.5959 51.7522 8.44178 54.0295 6.65527 58.6292ZM27.3171 55.0952L27.3109 55.0932C26.1674 54.6512 25.1222 53.9882 24.2351 53.142C23.348 52.2959 22.6363 51.2831 22.1409 50.1618C21.6454 49.0404 21.3758 47.8323 21.3475 46.6067C21.3193 45.3811 21.5328 44.1619 21.9761 43.0189L22.1835 42.4952C23.6464 38.7143 23.7301 34.5387 22.4196 30.7023L22.4176 30.694C21.0386 26.6774 21.1237 22.3026 22.6578 18.3425C26.1692 9.26011 36.3954 4.75073 45.484 8.26624C54.5685 11.7776 59.0778 22.0038 55.5623 31.0924C54.0266 35.0511 51.1424 38.3404 47.4183 40.3802C43.859 42.3175 41.101 45.4531 39.6337 49.2305L39.4243 49.7562C38.5265 52.0695 36.7467 53.9316 34.4762 54.9328C32.2058 55.934 29.6306 55.9924 27.3171 55.0952Z" fill="white"/>
<path d="M28.0016 29.9473C26.7281 25.6175 28.0012 13.9017 40.9905 13.9017" stroke="white" stroke-width="3" stroke-linecap="round"/>
</svg>
