<svg width="74" height="75" viewBox="0 0 74 75" fill="none" xmlns="http://www.w3.org/2000/svg">
<path d="M27.0319 31.4895C27.1851 31.9503 27.1492 32.4531 26.932 32.8874C26.7149 33.3218 26.3342 33.6522 25.8736 33.8061C25.3109 33.984 24.7889 34.2716 24.3378 34.6522C23.8868 35.0328 23.5155 35.4989 23.2454 36.0237C22.5637 37.303 22.1018 39.4069 22.5307 42.8415C22.5905 43.3242 22.4561 43.8108 22.157 44.1944C21.858 44.578 21.4189 44.827 20.9362 44.8868C20.4535 44.9466 19.9669 44.8122 19.5833 44.5132C19.1997 44.2142 18.9506 43.775 18.8909 43.2923C18.407 39.3959 18.8579 36.4599 20.0125 34.3009C21.1854 32.1016 22.9705 30.9104 24.7116 30.3312C24.94 30.2548 25.1813 30.2241 25.4215 30.241C25.6618 30.2578 25.8963 30.3219 26.1118 30.4295C26.3273 30.537 26.5195 30.686 26.6774 30.8679C26.8352 31.0498 26.9557 31.261 27.0319 31.4895ZM45.1173 11.8132C45.3519 11.7422 45.5697 11.6248 45.7581 11.468C45.9465 11.3112 46.1015 11.1183 46.214 10.9006C46.3265 10.6829 46.3941 10.4448 46.413 10.2005C46.4319 9.95614 46.4016 9.7105 46.3239 9.47809C46.2462 9.24568 46.1226 9.03121 45.9606 8.84738C45.7985 8.66354 45.6012 8.51408 45.3804 8.40782C45.1596 8.30156 44.9197 8.24066 44.6749 8.22873C44.4302 8.21681 44.1855 8.25409 43.9554 8.33838C40.5208 9.482 38.3765 12.3044 37.1156 15.3284C36.9455 15.7369 36.7902 16.1513 36.6501 16.571C35.9633 15.2704 35.0848 14.0804 34.0439 13.0412C32.6338 11.631 30.9507 10.5234 29.0978 9.78597C27.2448 9.04857 25.2609 8.69694 23.2674 8.75257C21.1415 8.81122 19.4443 10.512 19.3857 12.6343C19.3297 14.6543 19.6918 16.6641 20.4493 18.5375C21.2069 20.4109 22.3436 22.1075 23.7879 23.5208C20.7084 24.1866 17.9253 25.8268 15.8509 28.1983C13.7765 30.5698 12.5212 33.5464 12.271 36.6872L12.249 36.9584C11.7651 42.9962 13.0516 49.044 15.9511 54.3621L17.2707 56.774C17.3049 56.8375 17.344 56.8986 17.388 56.9572L21.0535 62.0962C21.8843 63.2597 22.9585 64.2282 24.2015 64.9343C25.4446 65.6405 26.8265 66.0674 28.2512 66.1853C29.676 66.3032 31.1093 66.1093 32.4515 65.6171C33.7937 65.1249 35.0126 64.3462 36.0233 63.3352C36.1785 63.1799 36.3628 63.0567 36.5656 62.9727C36.7685 62.8886 36.9859 62.8454 37.2054 62.8454C37.425 62.8454 37.6424 62.8886 37.8452 62.9727C38.048 63.0567 38.2323 63.1799 38.3875 63.3352C39.3982 64.3462 40.6171 65.1249 41.9593 65.6171C43.3015 66.1093 44.7348 66.3032 46.1596 66.1853C47.5843 66.0674 48.9663 65.6405 50.2093 64.9343C51.4523 64.2282 52.5266 63.2597 53.3573 62.0962L57.0228 56.9609L57.1401 56.774L58.456 54.3621C61.3555 49.044 62.642 42.9962 62.1581 36.9584L62.1398 36.6872C61.9776 34.663 61.3967 32.6947 60.4339 30.9068C59.4711 29.1189 58.1474 27.5505 56.5468 26.301C54.9461 25.0515 53.1033 24.1481 51.1352 23.648C49.1672 23.148 47.1166 23.0622 45.1137 23.3961L39.04 24.4078C39.0766 21.9116 39.5165 19.1039 40.5025 16.736C41.5288 14.2618 43.0537 12.5024 45.1137 11.8132M32.5081 23.9313L31.9436 23.836C29.7923 23.4175 27.8151 22.3657 26.2658 20.8156C25.2085 19.7579 24.3781 18.4955 23.8254 17.1058C23.2726 15.7161 23.0092 14.2283 23.0512 12.7333C23.0539 12.6496 23.0884 12.57 23.1476 12.5108C23.2068 12.4516 23.2864 12.4171 23.3701 12.4144C24.8653 12.3729 26.3533 12.6369 27.743 13.1903C29.1328 13.7436 30.395 14.5747 31.4524 15.6327C33.6774 17.8576 34.7514 20.7937 34.6671 23.715C34.6643 23.7987 34.6298 23.8783 34.5706 23.9375C34.5114 23.9967 34.4319 24.0312 34.3482 24.0339C33.733 24.0513 33.1175 24.0169 32.5081 23.9313ZM31.3058 27.4465L31.94 27.5528L34.7954 28.0293C36.3911 28.2952 38.0198 28.2952 39.6155 28.0293L45.7148 27.0103C47.2172 26.7597 48.7554 26.824 50.2317 27.1991C51.708 27.5741 53.0902 28.2518 54.2909 29.1892C55.4915 30.1265 56.4843 31.3031 57.2063 32.6443C57.9284 33.9855 58.3639 35.462 58.4853 36.9804L58.5073 37.2516C58.9338 42.5801 57.7976 47.9173 55.2377 52.61L53.9768 54.9192L50.3736 59.9629C49.8525 60.6933 49.1786 61.3014 48.3986 61.7449C47.6186 62.1883 46.7514 62.4566 45.8573 62.5309C44.9631 62.6052 44.0636 62.4838 43.2211 62.1751C42.3786 61.8665 41.6135 61.378 40.979 60.7437C40.4834 60.2476 39.8948 59.8541 39.247 59.5856C38.5992 59.3171 37.9048 59.1789 37.2036 59.1789C36.5023 59.1789 35.8079 59.3171 35.1601 59.5856C34.5123 59.8541 33.9238 60.2476 33.4281 60.7437C32.7936 61.3774 32.0288 61.8653 31.1867 62.1736C30.3446 62.4818 29.4455 62.603 28.5518 62.5287C27.6581 62.4544 26.7914 62.1864 26.0117 61.7433C25.2321 61.3002 24.5583 60.6927 24.0372 59.9629L20.434 54.9192L19.1731 52.61C16.6132 47.9173 15.477 42.5801 15.9035 37.2516L15.9255 36.9804C16.047 35.4624 16.4824 33.9862 17.2042 32.6453C17.926 31.3044 18.9185 30.128 20.1187 29.1907C21.3189 28.2534 22.7007 27.5756 24.1766 27.2003C25.6524 26.825 27.1902 26.7603 28.6923 27.0103L31.3058 27.4465Z" fill="white"/>
</svg>
