<svg width="59" height="60" viewBox="0 0 59 60" fill="none" xmlns="http://www.w3.org/2000/svg">
<g clip-path="url(#clip0_466_2257)">
<path d="M29.4996 3.33398C24.3133 3.33398 19.2435 4.89796 14.9313 7.82813C10.6191 10.7583 7.2581 14.9231 5.2734 19.7958C3.28871 24.6685 2.76942 30.0302 3.78121 35.2031C4.793 40.3759 7.29042 45.1274 10.9577 48.8568C14.6249 52.5862 19.2973 55.126 24.3839 56.1549C29.4705 57.1839 34.7429 56.6558 39.5344 54.6374C44.3259 52.6191 48.4212 49.2012 51.3026 44.8159C54.1839 40.4305 55.7218 35.2748 55.7218 30.0007C55.7218 22.9282 52.9591 16.1454 48.0415 11.1445C43.1239 6.1435 36.4541 3.33398 29.4996 3.33398ZM29.4996 53.334C24.9616 53.334 20.5255 51.9655 16.7523 49.4016C12.9791 46.8377 10.0383 43.1935 8.30168 38.9299C6.56506 34.6663 6.11069 29.9748 6.996 25.4485C7.88132 20.9223 10.0666 16.7647 13.2754 13.5015C16.4842 10.2383 20.5726 8.01598 25.0233 7.11566C29.4741 6.21534 34.0875 6.67742 38.28 8.44346C42.4726 10.2095 46.056 13.2002 48.5772 17.0373C51.0984 20.8745 52.444 25.3858 52.444 30.0007C52.444 36.189 50.0267 42.124 45.7238 46.4998C41.4208 50.8757 35.5848 53.334 29.4996 53.334Z" fill="white"/>
<path d="M31.0082 30.6667V17.9167C31.0082 17.4746 30.8356 17.0507 30.5282 16.7382C30.2209 16.4256 29.804 16.25 29.3694 16.25C28.9347 16.25 28.5178 16.4256 28.2105 16.7382C27.9031 17.0507 27.7305 17.4746 27.7305 17.9167V32.45L37.3999 39.1167C37.578 39.2529 37.7816 39.3508 37.9982 39.4043C38.2148 39.4578 38.4398 39.4658 38.6595 39.4278C38.8792 39.3899 39.089 39.3067 39.2761 39.1835C39.4632 39.0603 39.6235 38.8995 39.7474 38.7111C39.8713 38.5227 39.9561 38.3106 39.9966 38.0877C40.0371 37.8648 40.0325 37.6359 39.9831 37.4149C39.9336 37.1939 39.8404 36.9855 39.709 36.8024C39.5776 36.6193 39.4109 36.4653 39.2191 36.35L31.0082 30.6667Z" fill="white"/>
<path d="M13.1111 29.9008C13.0961 26.9026 13.8816 23.9564 15.3837 21.3764C16.8858 18.7964 19.0482 16.6793 21.6405 15.2509C24.2327 13.8224 27.1576 13.1362 30.1032 13.2653C33.0488 13.3945 35.9047 14.3342 38.3664 15.9842L39.7595 13.7175C37.4212 12.1598 34.7726 11.1482 32.0042 10.7552C29.2357 10.3622 26.416 10.5976 23.7476 11.4445C21.0792 12.2914 18.6284 13.7289 16.5712 15.6535C14.514 17.5781 12.9015 19.9422 11.8496 22.576C10.7976 25.2097 10.3323 28.0477 10.487 30.886C10.6418 33.7243 11.4128 36.4926 12.7446 38.9919C14.0764 41.4912 15.936 43.6595 18.1898 45.3411C20.4436 47.0227 23.0357 48.1758 25.7797 48.7175L26.2222 46.1675C22.5314 45.4014 19.2128 43.3657 16.8249 40.403C14.4369 37.4404 13.1254 33.7316 13.1111 29.9008Z" fill="white"/>
</g>
<defs>
<clipPath id="clip0_466_2257">
<rect width="59" height="60" fill="white"/>
</clipPath>
</defs>
</svg>
