<svg width="59" height="61" viewBox="0 0 59 61" fill="none" xmlns="http://www.w3.org/2000/svg">
<g clip-path="url(#clip0_506_2601)">
<path d="M29.4996 3.38867C24.3133 3.38867 19.2435 4.97871 14.9313 7.95772C10.6191 10.9367 7.2581 15.1709 5.2734 20.1248C3.28871 25.0787 2.76942 30.5299 3.78121 35.7889C4.793 41.0479 7.29042 45.8787 10.9577 49.6702C14.6249 53.4618 19.2973 56.0439 24.3839 57.09C29.4705 58.1361 34.7429 57.5992 39.5344 55.5472C44.3259 53.4952 48.4212 50.0203 51.3026 45.5619C54.1839 41.1035 55.7218 35.8619 55.7218 30.4998C55.7218 23.3095 52.9591 16.4137 48.0415 11.3293C43.1239 6.24501 36.4541 3.38867 29.4996 3.38867ZM29.4996 54.222C24.9616 54.222 20.5255 52.8307 16.7523 50.2241C12.9791 47.6175 10.0383 43.9126 8.30168 39.5779C6.56506 35.2432 6.11069 30.4735 6.996 25.8718C7.88132 21.2701 10.0666 17.0433 13.2754 13.7256C16.4842 10.408 20.5726 8.1487 25.0233 7.23338C29.4741 6.31805 34.0875 6.78783 38.28 8.58331C42.4726 10.3788 46.056 13.4193 48.5772 17.3204C51.0984 21.2215 52.444 25.808 52.444 30.4998C52.444 36.7913 50.0267 42.8251 45.7238 47.2739C41.4208 51.7227 35.5848 54.222 29.4996 54.222Z" fill="white"/>
<path d="M30.4978 33.3432L42.6081 36.6982C43.0279 36.8145 43.3859 37.0985 43.6032 37.4877C43.8206 37.8769 43.8794 38.3394 43.7669 38.7734C43.6545 39.2075 43.3798 39.5776 43.0033 39.8023C42.6269 40.027 42.1796 40.0879 41.7597 39.9716L27.9556 36.1474L24.126 24.7366C24.0427 24.5229 24.0025 24.2938 24.0077 24.0635C24.0129 23.8331 24.0636 23.6063 24.1565 23.3968C24.2494 23.1874 24.3827 22.9997 24.5481 22.8453C24.7136 22.691 24.9078 22.5731 25.1188 22.4989C25.3298 22.4248 25.5533 22.3959 25.7754 22.4141C25.9976 22.4323 26.2139 22.4971 26.411 22.6047C26.6081 22.7122 26.7819 22.8602 26.9218 23.0396C27.0618 23.2189 27.1648 23.4259 27.2247 23.6479L30.4978 33.3432Z" fill="white"/>
<path d="M13.1111 30.3988C13.0961 27.3506 13.8816 24.3553 15.3837 21.7323C16.8858 19.1092 19.0482 16.9569 21.6405 15.5046C24.2327 14.0524 27.1576 13.3547 30.1032 13.486C33.0488 13.6173 35.9047 14.5727 38.3664 16.2502L39.7595 13.9457C37.4212 12.3621 34.7726 11.3336 32.0042 10.934C29.2357 10.5345 26.416 10.7738 23.7476 11.6349C21.0792 12.4959 18.6284 13.9573 16.5712 15.914C14.514 17.8707 12.9015 20.2742 11.8496 22.9518C10.7976 25.6295 10.3323 28.5147 10.487 31.4004C10.6418 34.286 11.4128 37.1004 12.7446 39.6414C14.0764 42.1823 15.936 44.3868 18.1898 46.0964C20.4436 47.806 23.0357 48.9783 25.7797 49.5291L26.2222 46.9366C22.5314 46.1577 19.2128 44.0881 16.8249 41.076C14.4369 38.064 13.1254 34.2934 13.1111 30.3988Z" fill="white"/>
</g>
<defs>
<clipPath id="clip0_506_2601">
<rect width="59" height="61" fill="white"/>
</clipPath>
</defs>
</svg>
