<svg width="61" height="61" viewBox="0 0 61 61" fill="none" xmlns="http://www.w3.org/2000/svg">
<g clip-path="url(#clip0_466_2252)">
<path d="M30.2631 3.60938C25.0096 3.60938 19.8742 5.1672 15.5061 8.08586C11.138 11.0045 7.7335 15.1529 5.72309 20.0065C3.71268 24.86 3.18667 30.2008 4.21156 35.3533C5.23646 40.5058 7.76624 45.2387 11.481 48.9534C15.1957 52.6682 19.9286 55.1979 25.0811 56.2228C30.2336 57.2477 35.5743 56.7217 40.4279 54.7113C45.2815 52.7009 49.4299 49.2964 52.3485 44.9283C55.2672 40.5602 56.825 35.4247 56.825 30.1713C56.825 23.1266 54.0265 16.3705 49.0452 11.3892C44.0639 6.40785 37.3078 3.60938 30.2631 3.60938ZM30.2631 53.413C25.6663 53.413 21.1728 52.0499 17.3507 49.496C13.5286 46.9422 10.5497 43.3124 8.79059 39.0655C7.03148 34.8186 6.57122 30.1455 7.46801 25.6371C8.36479 21.1286 10.5783 16.9873 13.8288 13.7369C17.0792 10.4865 21.2204 8.27298 25.7289 7.3762C30.2373 6.47941 34.9104 6.93967 39.1573 8.69878C43.4042 10.4579 47.034 13.4368 49.5878 17.2589C52.1417 21.081 53.5048 25.5745 53.5048 30.1713C53.5048 36.3354 51.0561 42.247 46.6974 46.6056C42.3388 50.9643 36.4272 53.413 30.2631 53.413Z" fill="white"/>
<path d="M31.1808 30.8888L38.9929 20.8759C39.2637 20.5287 39.6614 20.3034 40.0983 20.2495C40.5353 20.1955 40.9758 20.3173 41.323 20.5882C41.6701 20.859 41.8954 21.2567 41.9494 21.6936C42.0033 22.1306 41.8815 22.5711 41.6106 22.9183L32.7058 34.3317L20.8987 33.5422C20.673 33.5382 20.4504 33.4882 20.2447 33.3952C20.0389 33.3023 19.8543 33.1684 19.7021 33.0017C19.5498 32.8349 19.4332 32.6389 19.3593 32.4256C19.2855 32.2123 19.2559 31.9861 19.2724 31.7609C19.2889 31.5358 19.3511 31.3164 19.4553 31.1161C19.5595 30.9158 19.7035 30.7389 19.8784 30.5961C20.0533 30.4534 20.2555 30.3478 20.4726 30.2859C20.6897 30.2239 20.9171 30.2069 21.141 30.2359L31.1808 30.8888Z" fill="white"/>
<path d="M13.6621 30.071C13.6469 27.0845 14.4425 24.1499 15.9641 21.58C17.4856 19.0101 19.6761 16.9014 22.3019 15.4786C24.9278 14.0557 27.8905 13.3722 30.8742 13.5009C33.858 13.6295 36.7509 14.5655 39.2445 16.209L40.6557 13.9512C38.287 12.3997 35.6042 11.392 32.7999 11.0005C29.9955 10.6091 27.1393 10.8436 24.4363 11.6872C21.7334 12.5308 19.2508 13.9625 17.167 15.8796C15.0832 17.7967 13.4498 20.1515 12.3842 22.7749C11.3186 25.3983 10.8473 28.2251 11.004 31.0523C11.1608 33.8795 11.9417 36.6369 13.2908 39.1264C14.6399 41.6158 16.5236 43.7757 18.8066 45.4506C21.0896 47.1256 23.7152 48.2741 26.4948 48.8138L26.9431 46.2738C23.2044 45.5107 19.8428 43.483 17.4239 40.5319C15.0051 37.5809 13.6766 33.8867 13.6621 30.071Z" fill="white"/>
</g>
<defs>
<clipPath id="clip0_466_2252">
<rect width="59.7643" height="59.7643" fill="white" transform="translate(0.380859 0.289062)"/>
</clipPath>
</defs>
</svg>
