<svg width="88" height="88" viewBox="0 0 88 88" fill="none" xmlns="http://www.w3.org/2000/svg">
<path d="M20.0226 37.7687C16.1018 31.143 14.1432 27.8301 15.4465 25.1944C16.7571 22.5586 20.4668 22.3438 27.8898 21.9179L29.8083 21.8087C31.9198 21.6849 32.972 21.6267 33.893 21.1352C34.8104 20.6437 35.4912 19.7809 36.8527 18.048L38.0905 16.4753C42.8814 10.3847 45.2769 7.34127 48.0291 7.8109C50.7814 8.28052 52.0701 11.9502 54.6439 19.2931M21.6172 49.6659C19.604 57.2746 18.5956 61.0753 20.5432 63.1722C22.4873 65.2692 26.0914 64.2753 33.3032 62.2803L36.8564 60.5547M62.5475 27.8265C69.4281 30.6879 72.8684 32.1223 73.2579 35.0456C73.5928 37.543 71.5214 39.7164 67.2875 43.3824" stroke="white" stroke-width="3" stroke-linecap="round"/>
<path d="M59.6019 71.7282C65.0081 73.1334 67.713 73.8397 69.1728 72.358C70.629 70.8763 69.8754 68.1932 68.3683 62.8198L67.9751 61.4364C67.5491 59.9074 67.3344 59.1429 67.4399 58.3893C67.5492 57.6321 67.9678 56.9695 68.8015 55.6371L69.566 54.4284C72.5039 49.7504 73.971 47.4131 72.9881 45.5528C72.0088 43.6925 69.2274 43.5396 63.6611 43.2411L62.2194 43.161C60.6395 43.0773 59.8458 43.0336 59.1578 42.6878C58.4661 42.3419 57.9564 41.7303 56.937 40.5071L56.0087 39.3967C52.4155 35.1009 50.6208 32.953 48.5529 33.2807C46.4888 33.612 45.524 36.204 43.5946 41.3881L43.0922 42.7278C42.5461 44.2022 42.2694 44.9376 41.7343 45.48C41.2027 46.0225 40.4674 46.3101 39.0039 46.8853L37.6678 47.4059C32.5092 49.4264 29.9281 50.4384 29.6332 52.5026C29.3419 54.5668 31.5262 56.3215 35.8985 59.8237L37.0271 60.7338C38.2721 61.7277 38.8947 62.2264 39.2514 62.9072C39.6155 63.588 39.6701 64.3779 39.7829 65.9543L39.8885 67.3887C40.289 72.9332 40.4928 75.7072 42.375 76.6538C44.2571 77.6003 46.5761 76.0895 51.2105 73.0751" stroke="white" stroke-width="3" stroke-linecap="round"/>
</svg>
