<svg width="25" height="24" viewBox="0 0 25 24" fill="none" xmlns="http://www.w3.org/2000/svg">
<rect x="0.5" width="24" height="24" rx="3" fill="white"/>
<path d="M9.90079 6.94107C9.90681 6.32934 10.1023 5.73439 10.4604 5.23751C10.8186 4.74064 11.322 4.36607 11.9019 4.16501C12.4818 3.96394 13.1098 3.94619 13.7002 4.11416C14.2906 4.28214 14.8145 4.62766 15.2004 5.1035C15.5945 4.61771 16.1322 4.26807 16.7372 4.10429C17.3421 3.9405 17.9835 3.9709 18.5701 4.19116C19.1567 4.41143 19.6587 4.81035 20.0047 5.33121C20.3507 5.85207 20.5231 6.46835 20.4974 7.09244C20.4417 8.9705 19.0683 10.4015 17.8873 11.3027C17.1533 11.859 16.3608 12.334 15.5237 12.7196C15.5054 12.7284 15.4907 12.7348 15.4795 12.7389L15.4672 12.7442L15.4636 12.746H15.4619C15.3793 12.7815 15.2904 12.7998 15.2005 12.8C15.1106 12.8001 15.0216 12.7821 14.939 12.7469H14.9372L14.9337 12.7442L14.9204 12.7389C14.8514 12.709 14.7831 12.6776 14.7155 12.6448C13.9237 12.2663 13.1733 11.8071 12.4764 11.2745C11.2822 10.354 9.8999 8.89129 9.8999 6.97451L9.90079 6.94107Z" fill="url(#paint0_linear_570_4942)"/>
<defs>
<linearGradient id="paint0_linear_570_4942" x1="15.1999" y1="4" x2="15.1999" y2="12.8" gradientUnits="userSpaceOnUse">
<stop stop-color="#FC5CA4"/>
<stop offset="1" stop-color="#FF2A1D"/>
</linearGradient>
</defs>
</svg>
