<svg width="23" height="20" viewBox="0 0 23 20" fill="none" xmlns="http://www.w3.org/2000/svg">
<g clip-path="url(#clip0_570_4563)">
<path d="M4.93572 0.600924C6.18459 0.437745 7.48225 0.717843 8.55109 1.3891C9.15439 1.74738 9.63702 2.26595 10.1319 2.75688C10.4908 3.11087 10.8461 3.46915 11.2059 3.82227L11.2192 3.859C10.9504 4.12563 10.6454 4.6588 10.304 5.4586C9.58824 5.71221 9.09979 5.96834 8.83859 6.22675C8.2556 5.6614 7.69154 5.07602 7.1109 4.50778C6.55873 3.98685 5.72427 3.77688 5.00109 4.01597C4.17756 4.24919 3.54909 5.04261 3.50551 5.90381C3.47713 6.3518 3.59319 6.80689 3.83373 7.18475C3.98338 7.42812 4.20222 7.61369 4.39822 7.81692C4.86949 8.29404 5.35204 8.76014 5.81619 9.2439C5.56827 9.48928 5.27487 9.96422 4.93572 10.6688C4.21446 11.0132 3.71411 11.3264 3.43451 11.6083C2.80795 11.0148 2.20881 10.3893 1.58798 9.78923C0.848744 9.01444 0.354386 8.00922 0.183813 6.94864C-0.003687 5.81076 0.174351 4.6128 0.697268 3.58563C1.13633 2.72444 1.80074 1.9764 2.60916 1.45101C3.31185 1.0059 4.10786 0.69397 4.93572 0.600924Z" fill="#EA4335"/>
<path d="M11.2291 14.6153L16.6464 9.23657L18.1111 10.113L19.0276 11.6134L11.2291 19.3857L5.81934 13.9941L6.85744 12.5225L8.21517 11.6115L11.2291 14.6153Z" fill="#34A853"/>
<path d="M8.84285 6.23193L10.2054 6.97446L11.2292 8.61552L5.8195 13.9942L3.43408 11.6083L8.84285 6.23193Z" fill="#FBBC05"/>
<path d="M17.7616 0.63377C19.3491 0.90486 20.8091 1.90335 21.6095 3.31599C22.5211 4.86794 22.5708 6.88179 21.7619 8.4877C21.4267 9.17749 20.9147 9.75955 20.3695 10.2887C19.9173 10.7242 19.4878 11.189 19.028 11.6135C18.2323 10.8235 17.4358 10.0339 16.6468 9.2367C17.209 8.6647 17.78 8.10214 18.3441 7.53206C18.7078 7.1618 18.9356 6.65416 18.9541 6.13183C18.9792 5.53876 18.7466 4.9372 18.32 4.52593C17.8852 4.11134 17.2761 3.87566 16.6766 3.92568C16.1609 3.95052 15.6631 4.18628 15.2994 4.55356C13.9421 5.90657 12.5882 7.26342 11.2294 8.61555C10.4306 7.82449 9.63065 7.03448 8.84315 6.23196C8.84169 6.2301 8.8401 6.22834 8.83838 6.22672C9.63395 5.43951 10.4243 4.64705 11.219 3.85896C11.7949 3.2874 12.3689 2.71338 12.9452 2.14147C13.6916 1.38618 14.6757 0.891393 15.7039 0.664377C16.3815 0.536002 17.0807 0.521661 17.7616 0.63377Z" fill="#4285F4"/>
</g>
<defs>
<clipPath id="clip0_570_4563">
<rect width="22.2222" height="18.8889" fill="white" transform="translate(0.11084 0.555542)"/>
</clipPath>
</defs>
</svg>
