<svg width="32" height="32" viewBox="0 0 32 32" fill="none" xmlns="http://www.w3.org/2000/svg">
<g clip-path="url(#clip0_570_5693)">
<rect x="28" y="28" width="4" height="4" fill="#FFBA6B"/>
<rect x="24" y="28" width="4" height="4" fill="#B5F4BC"/>
<rect x="20" y="28" width="4" height="4" fill="white"/>
<rect x="16" y="28" width="4" height="4" fill="white"/>
<rect x="12" y="28" width="4" height="4" fill="white"/>
<rect x="8" y="28" width="4" height="4" fill="#B5F4BC"/>
<rect x="4" y="28" width="4" height="4" fill="white"/>
<rect y="28" width="4" height="4" fill="white"/>
<rect x="28" y="24" width="4" height="4" fill="#B5F4BC"/>
<rect x="24" y="24" width="4" height="4" fill="#FFBA6B"/>
<rect x="20" y="24" width="4" height="4" fill="#FFBA6B"/>
<rect x="16" y="24" width="4" height="4" fill="white"/>
<rect x="12" y="24" width="4" height="4" fill="#ACA4D5"/>
<rect x="8" y="24" width="4" height="4" fill="#B5F4BC"/>
<rect x="4" y="24" width="4" height="4" fill="#FFBA6B"/>
<rect y="24" width="4" height="4" fill="#ACA4D5"/>
<rect x="28" y="20" width="4" height="4" fill="#B5F4BC"/>
<rect x="24" y="20" width="4" height="4" fill="#B5F4BC"/>
<rect x="20" y="20" width="4" height="4" fill="#FFBA6B"/>
<rect x="16" y="20" width="4" height="4" fill="#B5F4BC"/>
<rect x="12" y="20" width="4" height="4" fill="white"/>
<rect x="8" y="20" width="4" height="4" fill="#FFBA6B"/>
<rect x="4" y="20" width="4" height="4" fill="#ACA4D5"/>
<rect y="20" width="4" height="4" fill="#B5F4BC"/>
<rect x="28" y="16" width="4" height="4" fill="#FFBA6B"/>
<rect x="24" y="16" width="4" height="4" fill="#ACA4D5"/>
<rect x="20" y="16" width="4" height="4" fill="#ACA4D5"/>
<rect x="16" y="16" width="4" height="4" fill="#B5F4BC"/>
<rect x="12" y="16" width="4" height="4" fill="#FFBA6B"/>
<rect x="8" y="16" width="4" height="4" fill="white"/>
<rect x="4" y="16" width="4" height="4" fill="white"/>
<rect y="16" width="4" height="4" fill="#ACA4D5"/>
<rect x="28" y="12" width="4" height="4" fill="white"/>
<rect x="24" y="12" width="4" height="4" fill="white"/>
<rect x="20" y="12" width="4" height="4" fill="#ACA4D5"/>
<rect x="16" y="12" width="4" height="4" fill="#FFBA6B"/>
<rect x="12" y="12" width="4" height="4" fill="#FFBA6B"/>
<rect x="8" y="12" width="4" height="4" fill="#FFBA6B"/>
<rect x="4" y="12" width="4" height="4" fill="#ACA4D5"/>
<rect y="12" width="4" height="4" fill="#FFBA6B"/>
<rect x="28" y="8" width="4" height="4" fill="white"/>
<rect x="24" y="8" width="4" height="4" fill="white"/>
<rect x="20" y="8" width="4" height="4" fill="#ACA4D5"/>
<rect x="16" y="8" width="4" height="4" fill="white"/>
<rect x="12" y="8" width="4" height="4" fill="#FFBA6B"/>
<rect x="8" y="8" width="4" height="4" fill="#B5F4BC"/>
<rect x="4" y="8" width="4" height="4" fill="#B5F4BC"/>
<rect y="8" width="4" height="4" fill="#ACA4D5"/>
<rect x="28" y="4" width="4" height="4" fill="white"/>
<rect x="24" y="4" width="4" height="4" fill="white"/>
<rect x="20" y="4" width="4" height="4" fill="white"/>
<rect x="16" y="4" width="4" height="4" fill="#ACA4D5"/>
<rect x="12" y="4" width="4" height="4" fill="#FFBA6B"/>
<rect x="8" y="4" width="4" height="4" fill="#B5F4BC"/>
<rect x="4" y="4" width="4" height="4" fill="#B5F4BC"/>
<rect y="4" width="4" height="4" fill="#B5F4BC"/>
<rect x="28" width="4" height="4" fill="#FFBA6B"/>
<rect x="24" width="4" height="4" fill="white"/>
<rect x="20" width="4" height="4" fill="#ACA4D5"/>
<rect x="16" width="4" height="4" fill="#FFBA6B"/>
<rect x="12" width="4" height="4" fill="#B5F4BC"/>
<rect x="8" width="4" height="4" fill="#B5F4BC"/>
<rect x="4" width="4" height="4" fill="#FFBA6B"/>
<rect width="4" height="4" fill="#ACA4D5"/>
</g>
<defs>
<clipPath id="clip0_570_5693">
<rect width="32" height="32" rx="16" fill="white"/>
</clipPath>
</defs>
</svg>
