<svg width="32" height="51" viewBox="0 0 32 51" fill="none" xmlns="http://www.w3.org/2000/svg">
<path opacity="0.19" d="M15.9985 1C7.72184 1 1 2.43411 1 4.20955C1 4.2411 1 4.27264 1 4.30419L3.76973 44.9584L3.92935 47.253C3.92935 47.253 4.08011 48.6871 4.78953 49.1317C4.8335 49.1621 4.88116 49.1871 4.93142 49.2063C5.37777 49.3812 11.3724 50.0667 15.9926 49.9836C20.6157 50.0725 26.6104 49.3812 27.0538 49.2063C27.1764 49.1587 27.2864 49.0852 27.376 48.9912C27.9347 48.4433 28.0618 47.253 28.0618 47.253L28.2066 45.1248L30.9882 4.29272C30.9882 4.26117 30.9882 4.22962 30.9882 4.19807C31 2.44845 24.2841 1 15.9985 1Z" fill="#D7FFFF"/>
<path opacity="0.33" d="M30.9733 4.60819L28.2449 44.663L28.2124 45.1448L28.0676 47.273C28.0688 47.2797 28.0688 47.2865 28.0676 47.2931V47.3189C28.0676 47.3189 28.0676 47.339 28.0676 47.3534C28.0676 47.3677 28.0676 47.3734 28.0676 47.3849C28.0704 47.402 28.0704 47.4194 28.0676 47.4365C28.0676 47.4365 28.0676 47.4623 28.0676 47.4767C28.0676 47.491 28.0676 47.5197 28.0676 47.5427C28.0676 47.5656 28.0676 47.5685 28.0676 47.5857C28.0676 47.6029 28.0676 47.6344 28.0528 47.6631V47.6947C28.0528 47.752 28.0232 47.8151 28.0084 47.8754C27.9937 47.9356 28.0084 47.9127 28.0084 47.927L27.9818 48.0131V48.0446C27.9831 48.056 27.9831 48.0676 27.9818 48.079C27.9818 48.1077 27.9641 48.1335 27.9552 48.1651C27.9446 48.1883 27.9357 48.2123 27.9286 48.2368C27.9286 48.2655 27.905 48.2913 27.8961 48.3199C27.8872 48.3486 27.8754 48.3687 27.8636 48.3974L27.8281 48.4748L27.7867 48.558C27.7867 48.581 27.7631 48.601 27.7513 48.6268C27.7273 48.6753 27.6986 48.7214 27.6655 48.7645C27.6655 48.7645 27.6655 48.7817 27.6508 48.7903C27.636 48.7989 27.5946 48.8649 27.568 48.8965L27.5325 48.9366C27.5153 48.958 27.4965 48.9781 27.4764 48.9968C27.3867 49.0915 27.2767 49.1659 27.1542 49.2148C26.7108 49.3898 20.7161 50.0753 16.093 49.9921C11.4728 50.081 5.47814 49.3898 5.03179 49.2148C4.89206 49.1539 4.76791 49.0638 4.66821 48.951L4.64456 48.928C4.61796 48.8993 4.59431 48.862 4.56771 48.8305L4.5411 48.7932C4.51706 48.7602 4.49533 48.7257 4.47607 48.6899L4.44947 48.6469L4.39035 48.5408C4.38426 48.5238 4.37633 48.5074 4.3667 48.492C4.34897 48.4548 4.33419 48.4175 4.31941 48.3802C4.30463 48.3429 4.30463 48.3458 4.29872 48.3314L4.25438 48.2196L4.23664 48.1679C4.22256 48.1323 4.21072 48.0959 4.20117 48.0589C4.20117 48.0389 4.20117 48.0245 4.18343 48.0073C4.1657 47.9901 4.18343 47.9729 4.18343 47.9557C4.17484 47.9397 4.1698 47.9221 4.16865 47.9041C4.16695 47.8878 4.16695 47.8715 4.16865 47.8553C4.16865 47.8209 4.15092 47.7893 4.145 47.7578C4.13909 47.7262 4.145 47.7291 4.145 47.7148L4.12727 47.623C4.12487 47.6106 4.12487 47.598 4.12727 47.5857C4.12727 47.557 4.12727 47.5283 4.12727 47.5025C4.12588 47.492 4.12588 47.4814 4.12727 47.471C4.12727 47.448 4.12727 47.4251 4.12727 47.405C4.12581 47.3955 4.12581 47.3858 4.12727 47.3763V47.3275C4.12854 47.3199 4.12854 47.3122 4.12727 47.3046C4.12727 47.3046 4.12727 47.2902 4.12727 47.2816V47.2644L3.96765 44.9699L3.93809 44.5425L1.01465 4.42175C1.05581 4.55881 1.12298 4.68721 1.2127 4.80036L1.24226 4.83191C1.31911 4.91222 1.39892 4.98966 1.47873 5.0671L1.56446 5.11873L4.3667 43.4812C4.40625 44.0345 4.61376 44.564 4.96306 45.003C5.31237 45.442 5.78782 45.7708 6.32946 45.9479C12.6326 48.0043 19.4517 48.0294 25.7708 46.0196C26.3188 45.8454 26.801 45.5171 27.1563 45.0764C27.5116 44.6356 27.7238 44.1024 27.766 43.5443L30.589 4.8692C30.6983 4.81023 30.7979 4.73579 30.8846 4.64834L30.9733 4.60819Z" fill="#A7FFFF"/>
<path opacity="0.33" d="M14.1601 48.7388C13.7411 48.9626 13.2664 49.0697 12.7886 49.0485C10.8772 49.1223 8.96278 49.0638 7.05993 48.8736C6.18948 48.8301 5.33608 48.6226 4.54737 48.2626C4.38322 48.1791 4.22608 48.0832 4.07738 47.9758C4.06878 47.9598 4.06375 47.9422 4.0626 47.9242C4.0609 47.908 4.0609 47.8916 4.0626 47.8754C4.0626 47.841 4.04486 47.8095 4.03895 47.7779C4.03304 47.7464 4.03895 47.7492 4.03895 47.7349L4.02121 47.6431C4.01881 47.6308 4.01881 47.6181 4.02121 47.6058C4.02121 47.5771 4.02121 47.5484 4.02121 47.5226C4.01982 47.5122 4.01982 47.5016 4.02121 47.4911C4.02121 47.4681 4.02121 47.4452 4.02121 47.4251C4.01976 47.4156 4.01976 47.4059 4.02121 47.3964V47.3477C4.02248 47.3401 4.02248 47.3323 4.02121 47.3247C4.02121 47.3247 4.02121 47.3104 4.02121 47.3018V47.2846L3.86159 44.99L3.83203 44.5626C3.93549 44.6774 4.04486 44.7921 4.16014 44.9011C5.21302 45.8643 6.47739 46.5831 7.85804 47.0035C9.79715 47.646 11.8515 47.8926 13.8409 48.3831C13.9591 48.4118 14.2104 48.5409 14.1601 48.7388Z" fill="#A7FFFF"/>
<path opacity="0.33" d="M28.2452 44.6631L28.2127 45.145L28.0678 47.2732C28.0691 47.2798 28.0691 47.2866 28.0678 47.2932V47.3191C28.0678 47.3191 28.0678 47.3391 28.0678 47.3535C28.0678 47.3678 28.0678 47.3736 28.0678 47.385C28.0707 47.4021 28.0707 47.4196 28.0678 47.4367C28.0678 47.4367 28.0678 47.4625 28.0678 47.4768C28.0678 47.4912 28.0678 47.5198 28.0678 47.5428C28.0678 47.5657 28.0678 47.5686 28.0678 47.5858C28.0678 47.603 28.0678 47.6346 28.0531 47.6633V47.6948C28.0531 47.7522 28.0235 47.8153 28.0087 47.8755C27.9939 47.9357 28.0087 47.9128 28.0087 47.9271L27.9821 48.0132V48.0447C27.8724 48.1197 27.7579 48.1877 27.6392 48.2484C26.8506 48.6086 25.9972 48.8162 25.1267 48.8593C23.2248 49.0495 21.3114 49.108 19.401 49.0343C18.9222 49.0556 18.4466 48.9484 18.0265 48.7245C17.9762 48.5266 18.2304 48.3975 18.4344 48.3459C20.4208 47.8554 22.4752 47.6088 24.4172 46.9663C25.7659 46.5396 27.0005 45.8284 28.0324 44.8839C28.1033 44.8094 28.1772 44.7377 28.2452 44.6631Z" fill="#A7FFFF"/>
<path d="M31 4.21815C31 4.2497 31 4.28125 31 4.3128C30.7694 6.03374 24.1481 7.43056 16.0044 7.43056C7.86078 7.43056 1.23353 6.04234 1.00592 4.3128C1.00592 4.28125 1.00592 4.2497 1.00592 4.21815C1.00001 2.44845 7.71594 1 15.9985 1C24.2811 1 31 2.44845 31 4.21815Z" stroke="white" stroke-width="0.81" stroke-miterlimit="10"/>
<path d="M15.9985 1C7.72184 1 1 2.43411 1 4.20955C1 4.2411 1 4.27264 1 4.30419L3.76973 44.9584L3.92935 47.253C3.92935 47.253 4.08011 48.6871 4.78953 49.1317C4.8335 49.1621 4.88116 49.1871 4.93142 49.2063C5.37777 49.3812 11.3724 50.0667 15.9926 49.9836C20.6157 50.0725 26.6104 49.3812 27.0538 49.2063C27.1764 49.1587 27.2864 49.0852 27.376 48.9912C27.9347 48.4433 28.0618 47.253 28.0618 47.253L28.2066 45.1248L30.9882 4.29272C30.9882 4.26117 30.9882 4.22962 30.9882 4.19807C31 2.44845 24.2841 1 15.9985 1Z" stroke="white" stroke-width="0.81" stroke-miterlimit="10"/>
<path opacity="0.19" d="M29.5606 5.58911L27.3112 44.8981C26.9486 45.431 26.4111 45.8292 25.7859 46.0282C24.7135 46.3739 23.622 46.6612 22.5166 46.8887L24.4232 6.87408C28.7478 6.7364 29.5606 5.58911 29.5606 5.58911Z" fill="#D7FFFF"/>
<path opacity="0.19" d="M9.45987 46.7999C8.64403 46.6221 7.89913 46.4299 7.23108 46.2263C6.93548 46.1345 6.63989 46.0456 6.34429 45.9395C6.22565 45.9008 6.11006 45.8539 5.99845 45.7989L2.98633 5.81873L4.54707 6.18872L7.2636 6.83121L9.45987 46.7999Z" fill="#D7FFFF"/>
<path opacity="0.19" d="M7.22517 46.2349C6.92957 46.1431 6.63398 46.0542 6.33838 45.9481C6.21974 45.9094 6.10415 45.8625 5.99253 45.8075L2.98633 5.81873L4.54707 6.18872C4.69487 7.70028 6.57781 36.1531 7.22517 46.2349Z" fill="#D7FFFF"/>
</svg>
