<svg width="32" height="51" viewBox="0 0 32 51" fill="none" xmlns="http://www.w3.org/2000/svg">
<path d="M29.7633 16.2587C29.6718 16.6883 29.3412 16.9661 29.0077 17.261C28.2675 17.881 27.4444 18.4012 26.5608 18.8075C20.4658 21.7945 12.9835 22.3587 6.76155 19.6352C5.67719 19.1853 4.66915 18.5789 3.77158 17.8367C3.42034 17.5331 2.53782 16.8429 2.44632 16.3675C2.34006 15.8091 3.55611 15.9379 3.94867 15.8463L4.0874 15.8148C4.7811 15.6662 5.48411 15.5619 6.19189 15.5026C10.9322 15.0673 15.7728 15.9523 20.454 15.096C22.7267 14.6778 24.9758 13.853 27.281 14.0564C27.9123 14.0801 28.5248 14.2713 29.052 14.6091L29.1612 14.6979C29.3885 14.8881 29.5628 15.1308 29.668 15.4036C29.7732 15.6763 29.806 15.9704 29.7633 16.2587Z" fill="#3291D9"/>
<g style="mix-blend-mode:multiply" opacity="0.5">
<path d="M29.7633 16.2586C29.6718 16.6881 29.3412 16.9659 29.0077 17.2609C28.2675 17.8808 27.4444 18.401 26.5608 18.8074C20.4658 21.7944 12.9835 22.3586 6.76155 19.6351C5.67719 19.1852 4.66915 18.5788 3.77158 17.8366C3.42034 17.533 2.53782 16.8428 2.44632 16.3674C2.34006 15.8089 3.55611 15.9378 3.94867 15.8462L4.0874 15.8147C4.30877 15.8519 4.53013 15.8863 4.73674 15.9092C5.81702 16.0333 6.89927 16.1516 7.98349 16.2643C9.1966 16.3874 10.4097 16.5077 11.6228 16.608C17.5053 17.1091 23.6889 17.2351 29.0136 14.7636L29.1583 14.6978C29.3861 14.8877 29.5609 15.1303 29.6667 15.403C29.7724 15.6758 29.8056 15.97 29.7633 16.2586Z" fill="#3291D9"/>
</g>
<path d="M29.784 16.124L29.2911 22.8856L27.7857 43.4854C27.7432 44.0425 27.5311 44.5747 27.1764 45.0147C26.8217 45.4547 26.3404 45.7826 25.7934 45.9569C19.4837 47.9638 12.6746 47.9387 6.38077 45.8853C5.84035 45.7078 5.36602 45.3793 5.01733 44.9411C4.66865 44.503 4.46117 43.9746 4.42093 43.4224L2.62931 18.8533L2.44631 16.3732C3.11337 16.4476 3.78337 16.6166 4.44453 16.6853C5.6901 16.8085 6.94453 16.8658 8.1901 16.9717C10.5337 17.155 12.8654 17.4385 15.2149 17.5445C19.5272 17.7221 23.8985 17.5273 28.1163 16.5651C28.6742 16.419 29.232 16.2787 29.784 16.124Z" fill="#68CEFF"/>
<g style="mix-blend-mode:multiply" opacity="0.5">
<path d="M29.2912 22.8856L27.7859 43.4854C27.7434 44.0424 27.5313 44.5747 27.1766 45.0147C26.8219 45.4547 26.3406 45.7826 25.7936 45.9569C19.4839 47.9638 12.6747 47.9387 6.38095 45.8853C5.84053 45.7078 5.3662 45.3793 5.01751 44.9411C4.66883 44.503 4.46135 43.9746 4.42111 43.4224L2.62949 18.8533C3.40092 21.7667 4.01275 24.7178 4.46242 27.694C4.82546 30.0968 5.08815 32.5196 5.73455 34.8537C6.38095 37.1877 7.44944 39.4874 9.21154 41.2115C10.9736 42.9355 13.5002 44.0238 15.9795 43.7059C17.8951 43.4596 19.6307 42.4057 20.9707 41.0482C22.3107 39.6908 23.2907 38.0469 24.1732 36.3773C26.4368 32.0981 28.1554 27.5676 29.2912 22.8856Z" fill="#68CEFF"/>
</g>
<g style="mix-blend-mode:screen" opacity="0.5">
<path d="M18.3232 18.4095C15.2178 18.3881 12.1167 18.1816 9.03747 17.7909C7.9749 17.6678 6.89168 17.5389 5.84091 17.7222C5.31932 17.7808 4.8335 18.0089 4.4625 18.3694C4.29528 18.5753 4.17469 18.813 4.10858 19.0672C4.04246 19.3213 4.03231 19.5861 4.0788 19.8443C4.17286 20.361 4.36289 20.8569 4.63961 21.3077C5.68152 23.1836 7.21339 24.8589 9.19096 25.784C10.7524 26.5143 12.5115 26.7462 14.2411 26.8321C15.7405 26.9037 17.2724 26.8665 18.7039 26.4283C20.4749 25.8899 21.9861 24.7702 23.3409 23.5444C24.6957 22.3187 25.9236 20.9669 27.3403 19.8214C27.7517 19.5315 28.1116 19.1785 28.4058 18.7761C28.6065 18.4553 28.9106 17.3298 28.2288 17.3298C27.8365 17.3721 27.4491 17.4498 27.0717 17.5618C26.6792 17.6363 26.2866 17.7079 25.8911 17.7737C24.2797 18.0405 22.6551 18.2259 21.0239 18.3293C20.1266 18.3723 19.2234 18.4038 18.3232 18.4095Z" fill="#9CF1FF"/>
</g>
<g style="mix-blend-mode:screen" opacity="0.5">
<path d="M9.89915 18.4265C8.9753 18.3263 8.01309 18.2232 7.13351 18.5153C6.90329 18.5926 6.6524 18.7358 6.63469 18.9707C6.61698 19.2055 6.85605 19.3888 7.07152 19.5119C8.81276 20.4494 10.7526 20.9863 12.7415 21.0813C14.7226 21.1717 16.7074 21.009 18.6447 20.5973C19.6923 20.4279 20.7074 20.1054 21.6553 19.6408C21.8885 19.5148 22.4051 19.2255 21.983 19.005C21.6347 18.8246 21.1477 18.9019 20.7758 18.9248C18.441 19.0442 16.1004 19.0031 13.7716 18.8017C12.4818 18.7015 11.189 18.5697 9.89915 18.4265Z" fill="#9CF1FF"/>
</g>
<g style="mix-blend-mode:screen" opacity="0.5">
<path d="M23.462 18.7902C23.3319 18.8358 23.2146 18.9104 23.1196 19.0079C23.0728 19.0572 23.0418 19.1186 23.0303 19.1847C23.0187 19.2508 23.0272 19.3187 23.0546 19.3802C23.1093 19.447 23.1803 19.4996 23.2613 19.5331C23.3422 19.5667 23.4304 19.58 23.518 19.572C23.7697 19.5864 24.022 19.5864 24.2737 19.572C24.7034 19.5543 25.1281 19.4752 25.534 19.3372C25.7672 19.2541 26.39 19.0508 26.446 18.7644C26.5405 18.2919 25.23 18.4064 24.988 18.4351C24.4648 18.4846 23.9513 18.6041 23.462 18.7902Z" fill="#9CF1FF"/>
</g>
<path opacity="0.19" d="M15.9796 1.0802C7.71509 1.0802 1.00021 2.51213 1.00021 4.28487C1.00021 4.31637 1.00021 4.34787 1.00021 4.37937L3.77174 44.9775L3.93114 47.2686C3.93114 47.2686 4.08167 48.7005 4.79005 49.1444C4.83567 49.1737 4.8841 49.1987 4.93467 49.2189C5.37741 49.3907 11.3633 50.0781 15.9796 49.9922C20.5929 50.0809 26.5817 49.3907 27.0244 49.2189C27.1443 49.1686 27.2527 49.0956 27.3432 49.0041C27.901 48.4571 28.028 47.2686 28.028 47.2686L28.1726 45.1436L30.95 4.37365C30.95 4.34214 30.95 4.31064 30.95 4.27914C30.9559 2.515 24.2499 1.0802 15.9796 1.0802Z" fill="#D7FFFF"/>
<path opacity="0.33" d="M30.9738 4.59411L28.2495 44.5851L28.217 45.0691L28.0724 47.1941C28.0731 47.1989 28.0731 47.2037 28.0724 47.2084V47.2285C28.0736 47.2361 28.0736 47.2438 28.0724 47.2514C28.0724 47.2514 28.0724 47.2743 28.0724 47.2886C28.0708 47.2991 28.0708 47.3097 28.0724 47.3201C28.0734 47.3373 28.0734 47.3545 28.0724 47.3717C28.0724 47.3717 28.0724 47.3974 28.0724 47.4118C28.0724 47.4261 28.0724 47.4519 28.0724 47.4748V47.5206C28.0738 47.5454 28.0738 47.5703 28.0724 47.5951V47.6294C28.0724 47.6867 28.0429 47.7468 28.0281 47.8098C28.0281 47.8299 28.0281 47.8442 28.0281 47.8614L28.0015 47.9473V47.9759C28.0032 47.9883 28.0032 48.0008 28.0015 48.0132C28.0015 48.0399 27.9927 48.0685 27.975 48.0991C27.9644 48.1223 27.9555 48.1462 27.9484 48.1707C27.9484 48.1993 27.9248 48.2222 27.9159 48.2509C27.9071 48.2795 27.8953 48.3024 27.8835 48.3311C27.8742 48.3578 27.8623 48.3837 27.8481 48.4084L27.8067 48.4914C27.7961 48.514 27.7843 48.536 27.7713 48.5573C27.7468 48.6063 27.7181 48.6532 27.6857 48.6976C27.6857 48.6976 27.6857 48.7148 27.6857 48.7234C27.6857 48.732 27.6296 48.7979 27.6031 48.8294L27.5677 48.8695C27.547 48.8895 27.5322 48.9124 27.5116 48.9296C27.4227 49.0242 27.314 49.0994 27.1928 49.1501C26.7501 49.322 20.7613 50.0093 16.1479 49.9234C11.5316 50.0121 5.54581 49.322 5.10307 49.1501C4.96223 49.0901 4.83712 49 4.73706 48.8867C4.72995 48.8783 4.72206 48.8706 4.71346 48.8637L4.63672 48.7664L4.61014 48.7291C4.58653 48.6948 4.56588 48.6604 4.54522 48.626L4.51864 48.5831C4.49798 48.5487 4.48027 48.5115 4.45961 48.4743L4.43601 48.4256C4.4183 48.3883 4.40353 48.3511 4.38877 48.3139C4.38013 48.2984 4.37321 48.2821 4.36811 48.2652L4.32385 48.1535L4.30614 48.1048C4.29208 48.0693 4.28026 48.0329 4.27072 47.996L4.25301 47.9444C4.25301 47.9244 4.25301 47.9101 4.25301 47.8929C4.25035 47.8748 4.25035 47.8565 4.25301 47.8385C4.2509 47.8233 4.2509 47.8079 4.25301 47.7927C4.25301 47.7583 4.2353 47.7268 4.22939 47.6924C4.22349 47.6581 4.22939 47.6666 4.22939 47.6523C4.22939 47.638 4.22939 47.5893 4.21169 47.5578C4.21063 47.5454 4.21063 47.533 4.21169 47.5206C4.21169 47.4948 4.21169 47.4662 4.21169 47.4404C4.2103 47.4299 4.2103 47.4194 4.21169 47.4089C4.21169 47.3831 4.21169 47.3602 4.21169 47.343C4.21039 47.3335 4.21039 47.3239 4.21169 47.3144V47.2657C4.21313 47.2581 4.21313 47.2504 4.21169 47.2428V47.2199C4.21105 47.2142 4.21105 47.2084 4.21169 47.2027L4.05231 44.9116L4.02278 44.482L1.05938 4.40796C1.10245 4.54405 1.16934 4.67193 1.25714 4.78599L1.28664 4.81463L1.52279 5.04946L1.60838 5.10102L4.40648 43.4052C4.44673 43.9574 4.65423 44.4858 5.00291 44.924C5.35159 45.3622 5.82592 45.6906 6.36635 45.8681C12.6602 47.9214 19.4693 47.9465 25.779 45.9397C26.326 45.7655 26.8073 45.4375 27.162 44.9976C27.5167 44.5576 27.7288 44.0253 27.7713 43.4682L30.5901 4.85186C30.6997 4.79366 30.7992 4.71926 30.8853 4.63134L30.9738 4.59411Z" fill="#A7FFFF"/>
<path opacity="0.33" d="M14.1876 48.6575C13.7672 48.8786 13.293 48.9855 12.8152 48.9668C10.9065 49.0409 8.99483 48.9816 7.09496 48.7893C6.22598 48.7469 5.37383 48.5406 4.5861 48.1821C4.4222 48.0987 4.26528 48.0029 4.11679 47.8957C4.11413 47.8777 4.11413 47.8594 4.11679 47.8413C4.11468 47.8261 4.11468 47.8107 4.11679 47.7955C4.11679 47.7611 4.09908 47.7296 4.09317 47.6953C4.08727 47.6609 4.09317 47.6695 4.09317 47.6552C4.09317 47.6408 4.09318 47.5922 4.07547 47.5607C4.07441 47.5483 4.07441 47.5358 4.07547 47.5234C4.07547 47.4977 4.07547 47.469 4.07547 47.4432C4.07408 47.4328 4.07408 47.4222 4.07547 47.4117C4.07547 47.386 4.07547 47.363 4.07547 47.3459C4.07417 47.3364 4.07417 47.3267 4.07547 47.3172V47.2685C4.07691 47.261 4.07691 47.2532 4.07547 47.2456V47.2227C4.07483 47.217 4.07483 47.2112 4.07547 47.2055L3.91609 44.9144L3.88658 44.4849C3.98988 44.6023 4.09909 44.7168 4.2142 44.8257C5.23959 45.7657 6.4661 46.4746 7.80629 46.902C9.74253 47.5435 11.7939 47.7898 13.7803 48.2795C13.9869 48.3339 14.2349 48.4599 14.1876 48.6575Z" fill="#A7FFFF"/>
<path opacity="0.33" d="M28.2496 44.5852L28.2171 45.0692L28.0725 47.1942C28.0732 47.1989 28.0732 47.2038 28.0725 47.2085V47.2286C28.0738 47.2361 28.0738 47.2439 28.0725 47.2515C28.0725 47.2515 28.0725 47.2744 28.0725 47.2887C28.0709 47.2991 28.0709 47.3098 28.0725 47.3202C28.0736 47.3374 28.0736 47.3546 28.0725 47.3717C28.0725 47.3717 28.0725 47.3975 28.0725 47.4118C28.0725 47.4262 28.0725 47.4519 28.0725 47.4748V47.5207C28.0739 47.5455 28.0739 47.5703 28.0725 47.5951V47.6295C28.0725 47.6868 28.043 47.7469 28.0282 47.8099C28.0282 47.83 28.0282 47.8443 28.0282 47.8615L28.0017 47.9474V47.976C27.8922 48.0518 27.7778 48.1206 27.6593 48.1822C26.8717 48.541 26.0195 48.7472 25.1504 48.7894C23.2515 48.9816 21.3409 49.041 19.4332 48.9669C18.9553 48.9856 18.4812 48.8787 18.0607 48.6576C18.0105 48.46 18.2644 48.3311 18.468 48.2796C20.4515 47.7899 22.5058 47.5436 24.442 46.9021C25.8195 46.4799 27.0815 45.7624 28.1345 44.8029C28.1079 44.7313 28.1817 44.6597 28.2496 44.5852Z" fill="#A7FFFF"/>
<path d="M31.0003 4.20467C31.0003 4.23617 31.0003 4.26767 31.0003 4.29917C30.773 6.01749 24.1585 7.41219 16.0298 7.41219C7.90111 7.41219 1.28659 6.02608 1.05636 4.29917C1.05636 4.26767 1.05636 4.23617 1.05636 4.20467C1.05636 2.4348 7.76239 1 16.0357 1C24.309 1 31.0003 2.4348 31.0003 4.20467Z" stroke="white" stroke-width="0.231973" stroke-miterlimit="10"/>
<path d="M16.0241 1C7.75967 1 1.04479 2.43193 1.04479 4.20467C1.04479 4.23617 1.04479 4.26767 1.04479 4.29917L3.81632 44.8973L3.97572 47.1884C3.97572 47.1884 4.12624 48.6203 4.83463 49.0642C4.88024 49.0935 4.92868 49.1185 4.97925 49.1387C5.42199 49.3105 11.4078 49.9979 16.0241 49.912C20.6375 50.0007 26.6263 49.3105 27.069 49.1387C27.1889 49.0884 27.2973 49.0154 27.3878 48.9239C27.9456 48.3769 28.0725 47.1884 28.0725 47.1884L28.2172 45.0634L30.9946 4.29344C30.9946 4.26194 30.9946 4.23044 30.9946 4.19894C31.0005 2.4348 24.2945 1 16.0241 1Z" stroke="white" stroke-width="0.231973" stroke-miterlimit="10"/>
<path opacity="0.19" d="M29.5627 5.57642L27.3165 44.8286C26.9537 45.3598 26.4173 45.7572 25.7935 45.9569C24.7227 46.3021 23.6329 46.5889 22.5291 46.8161L24.4329 6.86229C28.7451 6.72482 29.5627 5.57642 29.5627 5.57642Z" fill="#D7FFFF"/>
<path opacity="0.19" d="M9.48615 46.7216C8.6715 46.544 7.92771 46.3521 7.26065 46.1488C6.95073 46.0572 6.65557 45.9655 6.37517 45.8767C6.2567 45.8382 6.14127 45.7912 6.02982 45.7364L3.02805 5.7998L4.5865 6.16924L7.29902 6.81361L9.48615 46.7216Z" fill="#D7FFFF"/>
<path opacity="0.19" d="M7.26065 46.1574C6.95073 46.0657 6.65557 45.9741 6.37517 45.8853C6.2567 45.8467 6.14127 45.7998 6.02982 45.745L3.02805 5.7998L4.5865 6.16924C4.73408 7.66704 6.60835 36.0909 7.26065 46.1574Z" fill="#D7FFFF"/>
</svg>
