<svg width="34" height="34" viewBox="0 0 34 34" fill="none" xmlns="http://www.w3.org/2000/svg">
<rect x="1.36" y="1.36" width="31.28" height="31.28" rx="15.64" fill="#B8860B"/>
<rect x="1.36" y="1.36" width="31.28" height="31.28" rx="15.64" stroke="#FFD700" stroke-width="2.72"/>
<path d="M16.5132 25.6547V8.34558H17.622V25.6547H16.5132ZM19.7113 13.8831C19.6482 13.2926 19.3822 12.8329 18.9134 12.5038C18.4492 12.1748 17.8451 12.0102 17.1014 12.0102C16.5785 12.0102 16.13 12.0891 15.7559 12.2469C15.3818 12.4047 15.0955 12.6188 14.8972 12.8892C14.6989 13.1597 14.5974 13.4684 14.5929 13.8155C14.5929 14.104 14.6583 14.3542 14.789 14.566C14.9242 14.7779 15.1068 14.9582 15.3367 15.1069C15.5666 15.2512 15.8212 15.3729 16.1007 15.4721C16.3802 15.5712 16.6619 15.6546 16.9459 15.7222L18.2441 16.0468C18.7669 16.1685 19.2695 16.333 19.7519 16.5404C20.2387 16.7477 20.6737 17.0091 21.0568 17.3247C21.4444 17.6402 21.751 18.0211 21.9763 18.4673C22.2017 18.9136 22.3144 19.4365 22.3144 20.036C22.3144 20.8473 22.1071 21.5618 21.6924 22.1793C21.2777 22.7924 20.6782 23.2724 19.8938 23.6195C19.114 23.9621 18.1697 24.1334 17.0608 24.1334C15.9835 24.1334 15.0482 23.9666 14.2549 23.633C13.466 23.2995 12.8485 22.8126 12.4023 22.1726C11.9605 21.5325 11.7216 20.7527 11.6855 19.8331H14.1534C14.1895 20.3154 14.3383 20.7166 14.5997 21.0367C14.8611 21.3567 15.2015 21.5956 15.6207 21.7534C16.0444 21.9111 16.5177 21.99 17.0405 21.99C17.586 21.99 18.0638 21.9089 18.474 21.7466C18.8887 21.5798 19.2132 21.3499 19.4476 21.0569C19.682 20.7594 19.8014 20.4124 19.8059 20.0157C19.8014 19.6551 19.6955 19.3576 19.4882 19.1232C19.2808 18.8843 18.9901 18.686 18.6159 18.5282C18.2463 18.3659 17.8136 18.2217 17.3178 18.0955L15.7424 17.6898C14.6019 17.3968 13.7004 16.9528 13.0378 16.3578C12.3797 15.7583 12.0507 14.9627 12.0507 13.971C12.0507 13.1552 12.2715 12.4407 12.7133 11.8277C13.1595 11.2147 13.7658 10.7391 14.5321 10.401C15.2984 10.0585 16.1661 9.88717 17.1352 9.88717C18.1179 9.88717 18.9788 10.0585 19.718 10.401C20.4618 10.7391 21.0455 11.2101 21.4692 11.8142C21.893 12.4137 22.1116 13.1033 22.1251 13.8831H19.7113Z" fill="#FFD700"/>
</svg>
