<svg width="20" height="20" viewBox="0 0 20 20" fill="none" xmlns="http://www.w3.org/2000/svg">
<path d="M5.62501 6.87501V3.12501C5.62501 2.95925 5.69085 2.80028 5.80806 2.68307C5.92527 2.56586 6.08425 2.50001 6.25001 2.50001C6.41577 2.50001 6.57474 2.56586 6.69195 2.68307C6.80916 2.80028 6.87501 2.95925 6.87501 3.12501V6.87501C6.87501 7.04077 6.80916 7.19974 6.69195 7.31695C6.57474 7.43416 6.41577 7.50001 6.25001 7.50001C6.08425 7.50001 5.92527 7.43416 5.80806 7.31695C5.69085 7.19974 5.62501 7.04077 5.62501 6.87501ZM16.875 3.12501V17.5C16.875 17.6658 16.8092 17.8247 16.6919 17.942C16.5747 18.0592 16.4158 18.125 16.25 18.125C16.0842 18.125 15.9253 18.0592 15.8081 17.942C15.6909 17.8247 15.625 17.6658 15.625 17.5V13.75H11.875C11.7092 13.75 11.5503 13.6842 11.4331 13.567C11.3159 13.4497 11.25 13.2908 11.25 13.125C11.279 11.6279 11.4681 10.1382 11.8141 8.68126C12.5781 5.51798 14.0266 3.39766 16.0039 2.55079C16.099 2.51008 16.2026 2.49358 16.3056 2.50278C16.4086 2.51197 16.5077 2.54657 16.594 2.60348C16.6803 2.66038 16.7512 2.73781 16.8002 2.82883C16.8493 2.91985 16.875 3.02162 16.875 3.12501ZM15.625 4.21095C13.1117 6.13048 12.6195 10.8063 12.5234 12.5H15.625V4.21095ZM9.36641 3.02266C9.35417 2.9406 9.32571 2.86179 9.28269 2.79084C9.23968 2.71989 9.18296 2.65821 9.11586 2.60941C9.04875 2.5606 8.9726 2.52565 8.89184 2.50659C8.81109 2.48752 8.72735 2.48473 8.6455 2.49837C8.56366 2.51201 8.48535 2.54181 8.41514 2.58604C8.34493 2.63026 8.28423 2.68802 8.23658 2.75595C8.18893 2.82388 8.15529 2.90062 8.13761 2.98169C8.11992 3.06275 8.11856 3.14653 8.1336 3.22813L8.75001 6.92423C8.75001 7.58727 8.48661 8.22315 8.01777 8.69199C7.54893 9.16084 6.91305 9.42423 6.25001 9.42423C5.58696 9.42423 4.95108 9.16084 4.48224 8.69199C4.0134 8.22315 3.75001 7.58727 3.75001 6.92423L4.36563 3.22813C4.38067 3.14653 4.37931 3.06275 4.36163 2.98169C4.34394 2.90062 4.3103 2.82388 4.26265 2.75595C4.215 2.68802 4.1543 2.63026 4.08409 2.58604C4.01389 2.54181 3.93558 2.51201 3.85373 2.49837C3.77188 2.48473 3.68814 2.48752 3.60739 2.50659C3.52663 2.52565 3.45048 2.5606 3.38338 2.60941C3.31627 2.65821 3.25955 2.71989 3.21654 2.79084C3.17352 2.86179 3.14506 2.9406 3.13282 3.02266L2.50782 6.77267C2.50247 6.80651 2.49986 6.84074 2.50001 6.87501C2.50125 7.7608 2.81557 8.61764 3.3874 9.29412C3.95924 9.9706 4.75179 10.4232 5.62501 10.5719V17.5C5.62501 17.6658 5.69085 17.8247 5.80806 17.942C5.92527 18.0592 6.08425 18.125 6.25001 18.125C6.41577 18.125 6.57474 18.0592 6.69195 17.942C6.80916 17.8247 6.87501 17.6658 6.87501 17.5V10.5719C7.74822 10.4232 8.54077 9.9706 9.11261 9.29412C9.68445 8.61764 9.99876 7.7608 10 6.87501C9.9999 6.84072 9.99702 6.80649 9.99141 6.77267L9.36641 3.02266Z" fill="#DAF73A"/>
</svg>
