<svg width="80" height="80" viewBox="0 0 80 80" fill="none" xmlns="http://www.w3.org/2000/svg">
<path d="M14.5454 65.4533H65.4545M14.5454 14.5459H65.4545M28.6868 25.8587H51.3131M62.6262 65.4533H17.3737V14.5459H62.6262V65.4533ZM48.7959 56.6576C48.8814 54.0237 48.2561 51.4153 46.9858 49.1064C46.7444 49.9289 46.3325 50.6914 45.777 51.3444C45.2215 51.9973 44.5348 52.526 43.7616 52.8961C43.5892 50.8435 42.9328 48.8609 41.8464 47.1108C40.7599 45.3607 39.2742 43.8929 37.5111 42.8278C37.5111 50.379 31.204 50.379 31.204 56.6576C31.1809 57.819 31.3927 58.9731 31.8265 60.0507C32.2604 61.1283 32.9074 62.1071 33.7289 62.9285C34.5503 63.7499 35.5292 64.3969 36.6068 64.8308C37.6844 65.2646 38.8385 65.4764 40 65.4533C47.5515 65.4533 48.7959 60.6171 48.7959 56.6576Z" stroke="#FD8342" stroke-width="4.36364" stroke-linecap="round" stroke-linejoin="round"/>
</svg>
