<svg width="73" height="80" viewBox="0 0 73 80" fill="none" xmlns="http://www.w3.org/2000/svg">
<path d="M29.4696 49.0914V43.6368M29.4696 43.6368V25.455C29.4696 24.4906 29.8399 23.5656 30.4992 22.8837C31.1584 22.2017 32.0525 21.8186 32.9848 21.8186C33.917 21.8186 34.8111 22.2017 35.4703 22.8837C36.1296 23.5656 36.4999 24.4906 36.4999 25.455V40.0004H48.2862C51.485 40.0004 54.0757 42.6804 54.0757 45.9895V49.0914C54.0757 53.4313 52.4091 57.5934 49.4426 60.6622C46.4761 63.731 42.4527 65.455 38.2575 65.455H36.4999C32.7708 65.455 29.1944 63.9225 26.5576 61.1947C23.9207 58.4669 22.4393 54.7672 22.4393 50.9095C22.4393 48.9807 23.18 47.1308 24.4984 45.7669C25.8169 44.403 27.6051 43.6368 29.4696 43.6368ZM41.7726 32.7277H48.8029C51.1336 32.7277 53.3689 31.7699 55.0169 30.0651C56.665 28.3602 57.5908 26.0479 57.5908 23.6368C57.5908 21.2257 56.665 18.9134 55.0169 17.2086C53.3689 15.5037 51.1336 14.5459 48.8029 14.5459H24.1969C21.8662 14.5459 19.631 15.5037 17.9829 17.2086C16.3349 18.9134 15.409 21.2257 15.409 23.6368C15.409 26.0479 16.3349 28.3602 17.9829 30.0651C19.631 31.7699 21.8662 32.7277 24.1969 32.7277" stroke="#FD8342" stroke-width="4.36364"/>
</svg>
