<svg width="92" height="80" viewBox="0 0 92 80" fill="none" xmlns="http://www.w3.org/2000/svg">
<path d="M75.4012 24.5676L75.403 24.5687C75.4942 24.6254 75.5983 24.7276 75.6818 24.8883C75.7651 25.0486 75.8165 25.2465 75.8184 25.4595V54.5453C75.8184 54.8674 75.7064 55.1402 75.5595 55.3111L76.6623 56.2595L75.5595 55.3111C75.4184 55.4751 75.2784 55.515 75.1881 55.515H75.1793L75.1705 55.5151C75.1009 55.5159 75.0117 55.4948 74.9128 55.4218L65.6551 48.2442L63.3093 46.4256V49.3938V56.9695C63.3093 57.9346 62.9777 58.824 62.4398 59.4495C61.9077 60.0681 61.2374 60.3635 60.5941 60.3635H18.8972C18.254 60.3635 17.5836 60.0681 17.0516 59.4495C16.5137 58.824 16.182 57.9346 16.182 56.9695V23.0301C16.182 22.0651 16.5137 21.1756 17.0516 20.5501C17.5836 19.9315 18.254 19.6362 18.8972 19.6362H60.5941C61.2374 19.6362 61.9077 19.9315 62.4398 20.5502C62.9777 21.1756 63.3093 22.0651 63.3093 23.0301V30.621V33.5854L65.6539 31.7715L74.9209 24.6019C74.9209 24.6019 74.921 24.6018 74.9211 24.6018C75.0148 24.5293 75.1003 24.5043 75.167 24.5006C75.233 24.497 75.3125 24.5123 75.4012 24.5676ZM60.5941 58.4241H62.0487V56.9695V23.0301V21.5756H60.5941H18.8972H17.4426V23.0301V56.9695V58.4241H18.8972H60.5941ZM72.2122 51.1646L74.5578 52.9827V50.015V29.9998V27.0364L72.2135 28.8492L63.8741 35.2976L63.3093 35.7344V36.4483V43.5513V44.2643L63.8728 44.701L72.2122 51.1646Z" stroke="#FD8342" stroke-width="2.90909"/>
</svg>
