<svg width="79" height="80" viewBox="0 0 79 80" fill="none" xmlns="http://www.w3.org/2000/svg">
<path d="M42.2338 42.827L53.1696 59.7963H64.1054M64.105 54.1421V65.455M25.8297 31.5152V34.3434H17.6279C16.9028 34.3434 16.2074 34.0455 15.6947 33.5151C15.182 32.9847 14.8939 32.2653 14.8939 31.5152V25.8588C14.8939 25.1087 15.182 24.3893 15.6947 23.8589C16.2074 23.3285 16.9028 23.0306 17.6279 23.0306H23.0958L25.8297 31.5152ZM25.8297 31.5152H61.3721C62.0972 31.5152 62.7926 31.2173 63.3053 30.6869C63.818 30.1565 64.1061 29.4371 64.1061 28.687V17.3741C64.1061 16.624 63.818 15.9047 63.3053 15.3743C62.7926 14.8439 62.0972 14.5459 61.3721 14.5459H20.3629L25.8297 31.5152ZM58.6353 31.5152H25.8279V39.9999C25.8279 40.75 26.1159 41.4694 26.6286 41.9997C27.1413 42.5301 27.8367 42.8281 28.5618 42.8281H55.9013C56.6264 42.8281 57.3218 42.5301 57.8345 41.9997C58.3472 41.4694 58.6353 40.75 58.6353 39.9999V31.5152Z" stroke="#FD8342" stroke-width="4.36364" stroke-linecap="round" stroke-linejoin="round"/>
</svg>
