<svg width="28" height="13" viewBox="0 0 28 13" fill="none" xmlns="http://www.w3.org/2000/svg">
<g clip-path="url(#clip0_446_14657)">
<path d="M3.51222 4.58605C5.4254 1.3491 12.0578 10.5677 12.8831 12.0817C13.8284 13.8196 16.2368 12.8723 16.3793 11.142C16.5594 8.90446 16.5969 7.87521 18.36 6.42827C19.3504 4.9888 20.6258 4.82472 22.1789 5.95094C23.0717 6.44319 23.9195 7.01003 24.6998 7.66637C26.5755 9.12822 29.2539 6.51032 27.3557 5.02609C24.3547 2.69161 20.6333 0.357133 16.7695 2.29632C13.4758 3.95208 12.8981 7.86029 12.6355 11.142C13.7984 10.8287 14.9688 10.5155 16.1317 10.2022C13.7984 5.92856 4.8627 -5.05767 0.271061 2.69907C-0.951876 4.77251 2.28928 6.65203 3.51222 4.58605Z" fill="white"/>
</g>
<defs>
<clipPath id="clip0_446_14657">
<rect width="28" height="13" fill="white"/>
</clipPath>
</defs>
</svg>
