<svg width="246" height="299" viewBox="0 0 246 299" fill="none" xmlns="http://www.w3.org/2000/svg">
<path d="M220.219 221.781L241.467 241.215L213.126 272.801L178.314 292.078C176.194 293.253 173.86 293.989 171.451 294.244L140.379 297.533L124.681 281.618L120.363 289.453L28.0527 289.206L37.9533 276.718L159.786 240.807" fill="#F5F5F5"/>
<path d="M140.379 299C140.185 299 139.993 298.962 139.813 298.887C139.634 298.812 139.471 298.702 139.335 298.564L125.015 284.046L121.645 290.161C121.52 290.394 121.334 290.589 121.107 290.723C120.88 290.857 120.621 290.926 120.357 290.923L28.0432 290.678C27.7687 290.676 27.5003 290.597 27.2686 290.45C27.0368 290.303 26.8509 290.093 26.7322 289.845C26.6134 289.597 26.5665 289.321 26.5969 289.048C26.6272 288.774 26.7335 288.515 26.9038 288.299L36.8033 275.811C36.9914 275.574 37.2477 275.401 37.5373 275.316L159.37 239.399C159.74 239.298 160.135 239.346 160.47 239.534C160.805 239.721 161.054 240.033 161.162 240.402C161.27 240.771 161.23 241.168 161.049 241.507C160.869 241.847 160.563 242.102 160.197 242.218L38.8087 277.997L31.0806 287.745L119.501 287.979L123.399 280.905C123.509 280.705 123.665 280.534 123.852 280.405C124.04 280.275 124.256 280.191 124.481 280.16C124.707 280.129 124.937 280.151 125.153 280.224C125.369 280.298 125.565 280.42 125.725 280.583L140.927 295.998L171.296 292.786C173.511 292.554 175.657 291.877 177.605 290.796L212.2 271.638L239.403 241.321L219.229 222.869C219.084 222.74 218.965 222.583 218.88 222.408C218.795 222.232 218.746 222.042 218.736 221.847C218.725 221.652 218.754 221.457 218.819 221.274C218.885 221.09 218.986 220.921 219.117 220.777C219.248 220.633 219.407 220.517 219.583 220.435C219.76 220.353 219.951 220.307 220.146 220.3C220.34 220.293 220.534 220.324 220.716 220.393C220.898 220.462 221.065 220.566 221.206 220.7L242.451 240.131C242.737 240.392 242.908 240.756 242.927 241.144C242.946 241.531 242.812 241.91 242.553 242.198L214.212 273.783C214.103 273.905 213.975 274.007 213.832 274.087L179.024 293.364C176.734 294.636 174.211 295.432 171.606 295.705L140.536 298.992C140.484 298.997 140.432 299 140.379 299Z" fill="#000072"/>
<path d="M32.3143 231.303L1.46484 254.523L22.3312 260.999" fill="#F5F5F5"/>
<path d="M22.3319 262.466C22.1848 262.466 22.0385 262.443 21.898 262.399L1.03161 255.922C0.773713 255.842 0.542929 255.692 0.364704 255.489C0.186479 255.285 0.0677377 255.037 0.0215794 254.77C-0.0245789 254.503 0.00363551 254.229 0.103114 253.978C0.202592 253.726 0.369468 253.507 0.585338 253.344L31.4348 230.126C31.7462 229.9 32.1339 229.805 32.5143 229.862C32.8948 229.919 33.2375 230.124 33.4685 230.433C33.6995 230.741 33.8003 231.128 33.7492 231.51C33.6981 231.892 33.4991 232.239 33.1952 232.475L4.64069 253.967L22.7658 259.593C23.101 259.697 23.3879 259.918 23.5744 260.216C23.7609 260.514 23.8345 260.869 23.782 261.217C23.7295 261.564 23.5543 261.882 23.2882 262.111C23.0221 262.34 22.6828 262.466 22.3319 262.466Z" fill="#000072"/>
<path d="M243.401 268.581L147.952 275.251L138.296 279.903L114.065 278.679L106.11 272.558L14.0078 268.581L21.4956 252.397L51.8713 193.148L128.7 188.354L205.532 193.148L209.451 200.791C209.451 200.797 209.453 200.802 209.456 200.807L235.906 252.401L243.264 268.286L243.401 268.581Z" fill="#F5F5F5"/>
<g opacity="0.3">
<path d="M243.257 268.283C222.315 268.274 191.051 267.857 191.051 267.857L178.727 264.802L190.137 248.975C223.18 247.344 209.726 201.719 209.453 200.809L235.902 252.403L243.257 268.283Z" fill="#000072"/>
</g>
<path d="M138.299 281.372H138.225L113.996 280.147C113.699 280.132 113.413 280.027 113.177 279.845L105.588 274.007L13.9436 270.051C13.7029 270.04 13.4685 269.97 13.2612 269.848C13.0538 269.725 12.8799 269.552 12.7547 269.346C12.6295 269.14 12.5569 268.906 12.5433 268.665C12.5298 268.424 12.5757 268.183 12.6769 267.964L20.1704 251.78L20.1961 251.727L50.5708 192.473C50.687 192.247 50.8598 192.055 51.0723 191.915C51.2849 191.776 51.5299 191.695 51.7833 191.679L128.616 186.886C128.676 186.882 128.737 186.882 128.798 186.886L205.629 191.679C205.883 191.695 206.128 191.776 206.34 191.915C206.553 192.055 206.726 192.247 206.842 192.473L237.216 251.727C237.225 251.745 237.235 251.762 237.242 251.78L244.735 267.962C244.835 268.178 244.881 268.415 244.869 268.653C244.857 268.891 244.788 269.122 244.667 269.327C244.546 269.532 244.378 269.705 244.176 269.83C243.973 269.955 243.744 270.029 243.507 270.046L148.337 276.695L138.937 281.225C138.738 281.321 138.52 281.371 138.299 281.372ZM114.6 277.234L138.004 278.417L147.324 273.927C147.491 273.846 147.672 273.798 147.857 273.785L241.184 267.264L234.599 253.043L204.619 194.559L128.711 189.824L52.8022 194.559L22.8167 253.043L16.2585 267.208L106.177 271.089C106.478 271.102 106.768 271.208 107.007 271.392L114.6 277.234Z" fill="#000072"/>
<g opacity="0.3">
<path d="M111.501 189.424L100.179 260.993C100.179 260.993 82.6505 263.666 73.125 266.518L73.9796 268.584L112.765 269.731L115.513 275.25L129.643 274.434L126.552 190.863" fill="#000072"/>
</g>
<g opacity="0.3">
<path d="M147.096 189.424L158.418 260.993C158.418 260.993 175.948 263.666 185.473 266.518L184.618 268.584L145.834 269.731L143.085 275.25L128.955 274.434L132.046 190.863" fill="#000072"/>
</g>
<path d="M244.542 268.579V276.718H147.304L144.897 281.373C144.427 282.282 143.716 283.045 142.843 283.577C141.969 284.11 140.967 284.391 139.945 284.391H117.467C116.444 284.391 115.441 284.11 114.567 283.577C113.693 283.044 112.982 282.28 112.512 281.37L110.109 276.718H12.8711V268.579H112.086L116.053 275.249H141.35L145.318 268.574L244.542 268.579Z" fill="#FD8342"/>
<g opacity="0.6">
<path d="M244.545 268.579V271.15L145.324 271.145L141.356 277.82H116.059L112.092 271.15H12.875V268.579H112.092L116.059 275.249H141.356L145.324 268.574L244.545 268.579Z" fill="#F5F5F5"/>
</g>
<path d="M139.938 285.863H117.46C116.168 285.866 114.9 285.511 113.796 284.838C112.692 284.165 111.795 283.199 111.204 282.048L109.21 278.189H12.8645C12.4757 278.189 12.103 278.034 11.8281 277.759C11.5532 277.483 11.3987 277.11 11.3984 276.72V268.581C11.3987 268.192 11.5532 267.818 11.8281 267.543C12.103 267.267 12.4757 267.112 12.8645 267.112H112.079C112.333 267.112 112.583 267.178 112.804 267.304C113.024 267.43 113.209 267.611 113.339 267.83L116.879 273.783H140.511L144.051 267.825C144.182 267.606 144.366 267.425 144.587 267.3C144.808 267.174 145.057 267.108 145.311 267.107L244.535 267.112C244.924 267.112 245.297 267.267 245.572 267.543C245.846 267.818 246.001 268.192 246.001 268.581V276.72C246.001 277.11 245.847 277.483 245.572 277.759C245.297 278.034 244.924 278.189 244.536 278.189H148.189L146.195 282.051C145.603 283.201 144.705 284.166 143.601 284.838C142.497 285.511 141.23 285.865 139.938 285.863ZM14.3305 275.251H110.103C110.371 275.251 110.635 275.325 110.864 275.465C111.094 275.605 111.281 275.805 111.404 276.045L113.808 280.698C114.153 281.37 114.677 281.933 115.321 282.326C115.966 282.719 116.706 282.926 117.46 282.924H139.938C140.692 282.926 141.432 282.719 142.076 282.326C142.72 281.934 143.244 281.371 143.59 280.7L145.996 276.044C146.12 275.805 146.307 275.605 146.536 275.465C146.766 275.325 147.029 275.251 147.298 275.251H243.07V270.051L146.147 270.046L142.605 276.003C142.475 276.221 142.291 276.403 142.07 276.528C141.85 276.654 141.6 276.72 141.346 276.72H116.049C115.796 276.72 115.546 276.654 115.325 276.529C115.105 276.403 114.92 276.222 114.79 276.004L111.25 270.051H14.3305V275.251Z" fill="#000072"/>
<path d="M57.1087 270.058C56.7099 270.058 56.3092 270.054 55.9066 270.045C55.5216 270.032 55.1573 269.867 54.8927 269.586C54.628 269.306 54.4843 268.932 54.4925 268.546C54.5008 268.16 54.6603 267.792 54.9367 267.523C55.2131 267.254 55.584 267.105 55.9693 267.108C65.5793 267.308 74.2483 264.841 81.9023 262.66C94.4519 259.084 105.291 255.999 112.747 267.799C112.855 267.962 112.93 268.145 112.967 268.337C113.003 268.529 113.001 268.727 112.961 268.918C112.92 269.11 112.842 269.291 112.73 269.452C112.619 269.613 112.476 269.75 112.311 269.854C112.146 269.959 111.962 270.03 111.769 270.062C111.577 270.095 111.38 270.088 111.189 270.043C110.999 269.998 110.82 269.915 110.662 269.8C110.505 269.684 110.371 269.539 110.271 269.371C103.986 259.425 95.0596 261.969 82.7046 265.49C75.1646 267.635 66.6598 270.058 57.1087 270.058Z" fill="#000072"/>
<path d="M200.311 270.058C190.758 270.058 182.254 267.636 174.716 265.491C162.361 261.97 153.434 259.426 147.15 269.371C146.942 269.7 146.612 269.933 146.233 270.019C145.853 270.104 145.456 270.035 145.127 269.827C144.799 269.618 144.566 269.287 144.481 268.907C144.396 268.527 144.465 268.128 144.673 267.799C152.128 256 162.968 259.089 175.517 262.661C183.172 264.842 191.849 267.313 201.45 267.108C201.836 267.105 202.207 267.255 202.483 267.524C202.759 267.793 202.919 268.16 202.927 268.546C202.935 268.932 202.792 269.306 202.527 269.587C202.262 269.867 201.898 270.032 201.513 270.046C201.111 270.054 200.71 270.058 200.311 270.058Z" fill="#000072"/>
<g opacity="0.25">
<path d="M40.6356 244.705C40.3131 244.711 40.001 244.59 39.7674 244.367C39.5339 244.144 39.3979 243.838 39.3891 243.515C39.3803 243.191 39.4995 242.878 39.7206 242.642C39.9417 242.407 40.2467 242.269 40.5691 242.258C48.3997 241.822 57.2861 240.369 66.9815 237.94C91.1266 231.891 108.61 230.193 121.144 240.414C121.269 240.515 121.372 240.641 121.449 240.782C121.525 240.924 121.573 241.079 121.59 241.239C121.606 241.399 121.591 241.561 121.546 241.715C121.5 241.87 121.424 242.013 121.323 242.138C121.222 242.263 121.097 242.367 120.955 242.444C120.814 242.52 120.659 242.568 120.5 242.585C120.34 242.601 120.178 242.586 120.024 242.54C119.87 242.494 119.727 242.419 119.602 242.317C109.321 233.935 95.2199 233.394 67.574 240.319C57.7286 242.785 48.6883 244.262 40.703 244.707C40.6811 244.705 40.6584 244.705 40.6356 244.705Z" fill="#000072"/>
</g>
<g opacity="0.25">
<path d="M46.7431 234.341C46.4322 234.339 46.1338 234.218 45.9086 234.003C45.6835 233.788 45.5485 233.495 45.5312 233.184C45.5139 232.873 45.6156 232.567 45.8155 232.329C46.0154 232.09 46.2986 231.937 46.6073 231.9C52.8598 231.194 59.7105 229.915 66.9552 228.099C91.1003 222.048 108.584 220.352 121.118 230.573C121.243 230.674 121.346 230.799 121.423 230.941C121.499 231.082 121.547 231.238 121.564 231.398C121.58 231.558 121.565 231.72 121.519 231.874C121.473 232.028 121.398 232.172 121.297 232.297C121.195 232.422 121.07 232.526 120.929 232.602C120.788 232.679 120.633 232.727 120.473 232.743C120.313 232.76 120.152 232.745 119.998 232.699C119.844 232.653 119.701 232.577 119.576 232.476C109.295 224.093 95.1936 223.554 67.5477 230.477C60.1938 232.32 53.2405 233.618 46.8807 234.336C46.835 234.34 46.789 234.342 46.7431 234.341Z" fill="#000072"/>
</g>
<g opacity="0.25">
<path d="M53.3419 223.433C53.0344 223.434 52.7379 223.318 52.5116 223.11C52.2853 222.901 52.1458 222.615 52.1211 222.307C52.0964 222 52.1883 221.695 52.3783 221.453C52.5684 221.211 52.8426 221.049 53.1463 221.001C57.514 220.284 62.1666 219.311 66.973 218.108C91.119 212.058 108.601 210.362 121.136 220.582C121.26 220.683 121.364 220.809 121.44 220.95C121.517 221.092 121.565 221.247 121.581 221.407C121.598 221.567 121.583 221.729 121.537 221.883C121.491 222.038 121.416 222.181 121.314 222.306C121.213 222.431 121.088 222.535 120.947 222.612C120.806 222.688 120.651 222.736 120.491 222.753C120.331 222.769 120.17 222.754 120.016 222.708C119.862 222.662 119.718 222.587 119.594 222.485C109.312 214.103 95.2114 213.561 67.5655 220.487C62.6983 221.706 57.9755 222.694 53.5403 223.421C53.4746 223.43 53.4082 223.434 53.3419 223.433Z" fill="#000072"/>
</g>
<g opacity="0.25">
<path d="M218.035 244.705C218.012 244.705 217.989 244.705 217.967 244.705C209.982 244.261 200.942 242.784 191.095 240.318C163.451 233.391 149.348 233.933 139.062 242.316C138.938 242.418 138.794 242.493 138.64 242.539C138.486 242.585 138.325 242.6 138.165 242.584C138.005 242.567 137.851 242.519 137.709 242.443C137.568 242.366 137.443 242.262 137.342 242.137C137.241 242.012 137.165 241.869 137.119 241.714C137.073 241.56 137.058 241.398 137.075 241.238C137.091 241.078 137.139 240.923 137.216 240.781C137.292 240.64 137.396 240.514 137.52 240.413C150.054 230.194 167.537 231.891 191.683 237.939C201.38 240.368 210.266 241.821 218.097 242.257C218.419 242.267 218.725 242.405 218.947 242.641C219.168 242.876 219.288 243.19 219.279 243.514C219.27 243.838 219.133 244.144 218.899 244.367C218.665 244.59 218.352 244.711 218.029 244.704L218.035 244.705Z" fill="#000072"/>
</g>
<g opacity="0.25">
<path d="M211.9 234.343C211.854 234.343 211.808 234.34 211.762 234.334C205.401 233.617 198.449 232.318 191.095 230.476C163.451 223.549 149.348 224.091 139.062 232.474C138.811 232.679 138.488 232.775 138.165 232.742C137.843 232.708 137.546 232.547 137.342 232.295C137.137 232.043 137.041 231.719 137.075 231.396C137.108 231.073 137.269 230.776 137.52 230.571C150.054 220.353 167.537 222.049 191.683 228.097C198.933 229.913 205.779 231.192 212.031 231.898C212.34 231.935 212.623 232.088 212.823 232.327C213.023 232.565 213.125 232.871 213.107 233.183C213.09 233.494 212.955 233.786 212.73 234.001C212.505 234.216 212.206 234.337 211.895 234.339L211.9 234.343Z" fill="#000072"/>
</g>
<g opacity="0.25">
<path d="M205.319 223.434C205.253 223.434 205.186 223.429 205.121 223.418C200.682 222.691 195.963 221.705 191.095 220.484C163.45 213.557 149.348 214.098 139.062 222.482C138.938 222.584 138.794 222.66 138.64 222.706C138.486 222.752 138.325 222.767 138.165 222.75C138.005 222.734 137.851 222.686 137.709 222.609C137.568 222.532 137.443 222.429 137.342 222.304C137.241 222.179 137.165 222.035 137.119 221.881C137.073 221.726 137.058 221.565 137.075 221.404C137.091 221.244 137.139 221.089 137.216 220.947C137.292 220.806 137.396 220.681 137.52 220.579C150.054 210.36 167.537 212.056 191.683 218.105C196.489 219.317 201.141 220.285 205.509 221.002C205.813 221.05 206.087 221.212 206.277 221.454C206.467 221.697 206.559 222.002 206.534 222.309C206.509 222.616 206.37 222.903 206.143 223.111C205.917 223.32 205.62 223.435 205.312 223.434H205.319Z" fill="#000072"/>
</g>
<g opacity="0.25">
<path d="M200.102 214.66C200.035 214.66 199.969 214.655 199.903 214.644C195.462 213.915 190.743 212.931 185.879 211.709C158.233 204.784 144.132 205.324 133.846 213.707C133.594 213.912 133.271 214.009 132.948 213.975C132.626 213.942 132.33 213.781 132.125 213.529C131.921 213.276 131.825 212.953 131.858 212.629C131.892 212.306 132.052 212.009 132.304 211.804C144.837 201.584 162.321 203.281 186.467 209.33C191.267 210.533 195.919 211.506 200.294 212.224C200.598 212.272 200.872 212.434 201.062 212.676C201.252 212.918 201.344 213.224 201.319 213.531C201.295 213.838 201.155 214.124 200.929 214.333C200.703 214.542 200.406 214.657 200.098 214.656L200.102 214.66Z" fill="#000072"/>
</g>
<g opacity="0.25">
<path d="M196.617 205.882C196.55 205.882 196.484 205.876 196.418 205.865C191.971 205.136 187.253 204.153 182.394 202.931C154.748 196.005 140.647 196.546 130.361 204.929C130.236 205.03 130.092 205.106 129.939 205.152C129.785 205.198 129.623 205.213 129.463 205.196C129.304 205.18 129.149 205.132 129.008 205.055C128.866 204.978 128.742 204.875 128.641 204.75C128.539 204.625 128.464 204.481 128.418 204.327C128.372 204.172 128.357 204.011 128.374 203.851C128.39 203.691 128.438 203.535 128.515 203.394C128.591 203.252 128.695 203.127 128.819 203.026C141.353 192.808 158.836 194.504 182.982 200.552C187.777 201.754 192.429 202.727 196.809 203.446C197.113 203.494 197.387 203.655 197.577 203.898C197.767 204.14 197.859 204.445 197.834 204.752C197.809 205.059 197.67 205.346 197.444 205.555C197.217 205.763 196.921 205.879 196.613 205.878L196.617 205.882Z" fill="#000072"/>
</g>
<path d="M155.887 228.789L142.557 226.037L140.896 226.184L131.306 227.031L129.762 227.168L129.156 227.222L128.897 227.246L128.707 227.261L128.257 227.222L114.854 226.037L112.65 226.493L104.285 228.221L101.524 228.792H101.519C96.0903 234.037 86.298 234.472 80.4396 231.932C75.4262 229.763 73.2955 225.414 79.2375 220.037C71.6633 208.163 69.8659 187.634 81.1916 184.534C81.7736 168.281 85.4141 153.38 95.7286 141.441L98.9198 141.558L126.239 142.543H131.169L161.679 141.441C171.995 153.38 175.637 168.281 176.216 184.534C187.543 187.634 185.745 208.163 178.17 220.037C191.054 231.713 165.953 238.524 155.887 228.789Z" fill="#AD9FBC"/>
<path d="M160.146 219.417L158.504 224.46L157.182 227.826V230.521C157.182 230.521 177.139 240.097 182.638 227.314L182.163 224.459L180.578 221.591C180.578 221.591 182.972 217.45 160.146 219.417Z" fill="#F5F5F5"/>
<path d="M98.194 219.417L99.8357 224.46L101.158 227.826V230.521C101.158 230.521 81.1998 240.097 75.7012 227.314L76.1759 224.459L77.7597 221.591C77.7597 221.591 75.3669 217.45 98.194 219.417Z" fill="#F5F5F5"/>
<path d="M83.8159 220.038C78.0154 218.936 75.6948 225.532 75.6948 225.532C54.2245 221.292 46.9627 207.037 44.3781 192.076C42.7269 182.493 42.9909 172.626 42.669 164.913C42.3566 157.328 41.5163 152.97 40.2003 149.938C38.0895 145.085 34.7672 143.646 30.4526 137.813C30.3055 137.623 30.1678 137.422 30.032 137.226C24.2267 128.757 32.0108 117.486 42.0138 119.739C49.8757 121.507 56.0808 128.69 59.7943 139.562C62.8327 148.44 64.2067 159.776 63.4594 172.636C63.3474 174.58 63.1863 176.56 62.9761 178.575C62.6191 181.993 62.7558 185.456 63.523 188.81C65.1742 196.087 68.4139 200.563 73.6134 201.561C73.6182 201.552 76.0613 219.915 83.8159 220.038Z" fill="#AD9FBC"/>
<path d="M56.4865 131.984C56.4865 131.984 50.7609 151.396 33.4723 141.442L28.25 133.007V126.245L32.4639 122.803L35.1748 121.018L39.4077 119.442C39.4077 119.442 40.8034 119.396 42.0245 119.727C43.2456 120.058 46.5688 121.97 46.5688 121.97L49.5028 123.397L54.1032 128.25L56.4865 131.984Z" fill="#F5F5F5"/>
<g opacity="0.3">
<path d="M79.2323 220.04C77.0285 222.034 75.9385 223.884 75.6897 225.534C54.2194 221.294 46.9576 207.039 44.373 192.078C55.2848 208.111 60.7274 197.083 63.4581 172.633C63.3461 174.577 63.185 176.557 62.9749 178.573C62.6178 181.991 62.7546 185.453 63.5218 188.808C65.1293 195.893 68.2418 200.322 73.2067 201.463C73.6616 207.847 75.8806 214.79 79.2323 220.04Z" fill="#000072"/>
</g>
<path d="M75.703 227.001C75.6074 227.002 75.512 226.992 75.4182 226.974C42.4247 220.461 41.7942 190.689 41.3774 170.987C41.3318 168.86 41.29 166.85 41.2122 164.967C40.632 150.898 38.2545 148.469 34.3159 144.445C32.8356 142.933 31.1578 141.219 29.2835 138.685C29.1265 138.473 28.9765 138.262 28.8334 138.053C25.8254 133.664 25.8273 128.17 28.8334 123.713C31.8909 119.186 37.0685 117.11 42.344 118.298C58.6993 121.978 67.7908 146.826 64.4428 178.723C64.0858 182.127 64.2596 185.408 64.9575 188.477C66.4596 195.081 69.1486 198.831 73.1764 199.941C73.3655 199.989 73.5432 200.074 73.6991 200.191C73.8549 200.309 73.9858 200.457 74.084 200.625C74.1822 200.794 74.2458 200.981 74.271 201.175C74.2963 201.369 74.2827 201.566 74.231 201.754C74.1793 201.943 74.0906 202.119 73.97 202.273C73.8495 202.427 73.6996 202.555 73.529 202.65C73.3585 202.745 73.1707 202.804 72.9768 202.826C72.7829 202.847 72.5867 202.829 72.3997 202.773C67.3046 201.371 63.8389 196.779 62.0985 189.13C61.3284 185.746 61.1366 182.142 61.5288 178.416C63.0936 163.49 61.8725 149.526 58.0897 139.096C54.4625 129.094 48.643 122.729 41.704 121.164C36.8349 120.069 33.1176 122.613 31.2594 125.36C29.443 128.05 28.485 132.359 31.2452 136.388C31.3686 136.569 31.4978 136.752 31.6335 136.934C33.3882 139.306 34.9901 140.942 36.4039 142.387C40.6833 146.758 43.51 149.646 44.1367 164.844C44.2155 166.757 44.2582 168.781 44.3038 170.923C44.7244 190.805 45.3008 218.034 75.9803 224.09C76.3368 224.161 76.6541 224.363 76.8706 224.655C77.087 224.948 77.1872 225.311 77.1517 225.674C77.1162 226.036 76.9476 226.373 76.6785 226.618C76.4094 226.863 76.059 226.999 75.6954 226.999L75.703 227.001Z" fill="#000072"/>
<g opacity="0.6">
<path d="M162.439 142.349L134.334 143.363H129.408L98.898 142.261C88.5835 154.2 84.9402 169.102 84.361 185.354C73.0343 188.454 74.8327 208.982 82.4069 220.857C76.1136 226.557 78.8785 231.101 84.5319 233.119C76.9358 231.826 71.8474 226.729 79.2356 220.039C71.6613 208.164 69.8639 187.636 81.1896 184.536C81.7717 168.283 85.4121 153.382 95.7266 141.443L126.237 142.545H131.168L161.678 141.443C161.932 141.742 162.189 142.05 162.439 142.349Z" fill="#F5F5F5"/>
</g>
<path d="M122.849 235.339C113.872 235.491 105.873 234.424 101.514 228.792C100.586 227.576 99.8541 226.221 99.3456 224.777H99.3399V224.767C98.4996 222.46 98.0457 219.679 98.0504 216.324L95.1184 185.944L94.3027 177.475L115.436 182.723L123.215 184.658C123.215 184.658 122.139 222.233 122.482 222.365C125.658 223.602 127.476 225.381 128.252 227.223C129.821 230.952 127.129 234.958 122.849 235.339Z" fill="#AD9FBC"/>
<path d="M101.158 228.299C101.158 228.299 116.135 215.506 124.93 222.851L127.726 226.439L127.945 228.299L128.249 231.501L127.291 233.438L124.727 234.91C124.727 234.91 106.216 236.685 101.158 228.299Z" fill="#F5F5F5"/>
<g opacity="0.3">
<path d="M128.707 227.256L128.257 227.217C129.825 230.948 127.133 234.954 122.853 235.336C113.876 235.487 105.878 234.42 101.519 228.788C96.0902 234.033 86.2979 234.469 80.4395 231.928C89.2205 228.378 92.0301 217.727 87.3243 203.585C82.1153 187.934 94.8198 185.981 95.1179 185.936H95.1226L99.3394 224.76V224.771H99.3451C101.244 226.303 102.873 227.425 104.283 228.212C110.024 231.44 112.018 229.177 112.648 226.484C113.171 224.276 112.77 221.773 112.77 221.773L111.504 187.269C112.843 185.36 114.158 183.862 115.438 182.715C125.964 173.274 134.265 187.269 134.265 187.269L135.076 220.03L128.705 225.946C128.705 225.946 128.778 226.44 128.895 227.238L128.707 227.256Z" fill="#000072"/>
</g>
<path d="M123.705 184.674C123.779 189.417 123.819 194.159 123.824 198.9L123.845 206.01L123.837 213.116C123.837 215.482 123.822 217.853 123.85 220.202C123.859 220.782 123.868 221.387 123.897 221.915L123.909 222.07C123.909 222.07 123.909 222.101 123.909 222.086C123.909 222.071 123.909 222.048 123.9 222.029L123.86 221.88C123.743 221.531 123.496 221.241 123.17 221.07C122.958 220.975 123.026 221.01 123.023 221.005L123.036 221.011L123.065 221.022L123.511 221.207C123.81 221.325 124.105 221.458 124.397 221.605C125.612 222.179 126.729 222.941 127.708 223.862C128.698 224.831 129.548 226.065 129.966 227.516C130.384 228.967 130.337 230.575 129.771 231.981C129.222 233.378 128.27 234.579 127.037 235.432C126.436 235.85 125.783 236.186 125.094 236.433C124.411 236.666 123.703 236.819 122.985 236.89C122.954 236.893 122.922 236.895 122.89 236.895H122.876C119.807 236.941 116.704 236.851 113.585 236.401C110.484 235.938 107.303 235.116 104.46 233.366C103.032 232.486 101.755 231.38 100.681 230.09C99.6173 228.8 98.7666 227.349 98.1611 225.79C96.9363 222.709 96.6106 219.47 96.5859 216.329L96.5925 216.471C96.4292 214.853 96.2422 213.236 96.1111 211.618C95.9801 210 95.8842 208.372 95.7684 206.75L95.1037 197.011L94.4391 187.273L93.82 177.53C93.8096 177.402 93.8499 177.274 93.9322 177.176C94.0145 177.077 94.1322 177.015 94.2599 177.002C94.3876 176.99 94.5151 177.028 94.6149 177.109C94.7146 177.19 94.7787 177.307 94.7932 177.435L96.0475 187.116L97.2553 196.802L98.4631 206.488C98.6596 208.106 98.8752 209.716 99.0565 211.332C99.2379 212.949 99.3632 214.568 99.5113 216.185C99.5161 216.23 99.518 216.275 99.5189 216.32V216.328C99.5389 219.227 99.855 222.133 100.886 224.702C101.857 227.264 103.664 229.423 106.014 230.826C108.353 232.254 111.157 232.988 114.017 233.39C116.891 233.787 119.854 233.844 122.827 233.797L122.716 233.804C124.577 233.659 126.268 232.48 126.882 230.854C127.195 230.053 127.245 229.173 127.023 228.342C126.795 227.501 126.29 226.704 125.605 226.007C124.864 225.297 124.017 224.705 123.094 224.256C122.858 224.13 122.616 224.016 122.368 223.916L121.997 223.754L121.794 223.659C121.459 223.47 121.206 223.163 121.082 222.798C121.062 222.745 121.048 222.691 121.039 222.636L121.031 222.594L121.006 222.427L120.998 222.332C120.988 222.214 120.986 222.128 120.983 222.046C120.967 221.386 120.983 220.809 120.983 220.2C121.028 217.809 121.101 215.442 121.187 213.063L121.481 205.953L121.847 198.848C122.085 194.111 122.379 189.376 122.729 184.644C122.737 184.517 122.793 184.398 122.887 184.312C122.981 184.226 123.104 184.181 123.231 184.184C123.358 184.188 123.478 184.241 123.567 184.332C123.655 184.423 123.705 184.545 123.706 184.672L123.705 184.674Z" fill="#000072"/>
<path d="M106.902 224.559C107.993 223.607 109.174 222.925 110.444 222.338C111.716 221.76 113.047 221.322 114.414 221.032C114.756 220.958 115.102 220.911 115.449 220.85L115.969 220.764L116.492 220.713L117.545 220.618L118.6 220.595L119.129 220.586L119.656 220.612L120.713 220.67C121.416 220.729 122.111 220.841 122.815 220.928C123.006 220.951 123.191 221.012 123.36 221.108C123.528 221.203 123.675 221.331 123.794 221.483C123.913 221.636 124.001 221.81 124.053 221.997C124.104 222.183 124.119 222.378 124.095 222.57C124.071 222.763 124.01 222.948 123.915 223.117C123.82 223.285 123.693 223.433 123.541 223.552C123.388 223.671 123.214 223.759 123.028 223.811C122.842 223.863 122.647 223.877 122.456 223.854C122.402 223.847 122.348 223.838 122.295 223.825L122.163 223.793C121.557 223.644 120.952 223.465 120.337 223.337L119.411 223.17L118.946 223.089L118.479 223.041L117.54 222.946L116.597 222.916L116.122 222.902L115.647 222.922C115.333 222.939 115.016 222.942 114.698 222.971C113.431 223.081 112.18 223.328 110.967 223.708C109.761 224.089 108.543 224.622 107.528 225.307L107.488 225.333C107.385 225.405 107.259 225.434 107.135 225.415C107.011 225.396 106.9 225.329 106.823 225.23C106.747 225.13 106.712 225.005 106.725 224.88C106.739 224.756 106.8 224.641 106.895 224.56L106.902 224.559Z" fill="#000072"/>
<path d="M114.283 228.174C114.494 228.706 114.66 229.256 114.778 229.816C114.902 230.391 114.972 230.977 114.986 231.566C114.993 232.201 114.915 232.833 114.755 233.448C114.561 234.125 114.246 234.76 113.825 235.324L113.771 235.398C113.535 235.716 113.183 235.929 112.791 235.987C112.4 236.046 112.001 235.946 111.683 235.71C111.364 235.474 111.153 235.121 111.094 234.728C111.036 234.336 111.136 233.936 111.371 233.617C111.469 233.486 111.587 233.371 111.722 233.278C112.025 233.071 112.289 232.81 112.499 232.509C112.733 232.142 112.917 231.745 113.045 231.33C113.18 230.868 113.27 230.395 113.316 229.917C113.364 229.422 113.372 228.925 113.34 228.429V228.391C113.328 228.272 113.36 228.153 113.43 228.056C113.5 227.959 113.603 227.89 113.719 227.864C113.836 227.837 113.958 227.854 114.063 227.911C114.168 227.968 114.248 228.062 114.289 228.174H114.283Z" fill="#000072"/>
<path d="M122.409 228.172C122.636 228.735 122.827 229.312 122.979 229.901C123.138 230.501 123.248 231.113 123.308 231.73C123.378 232.396 123.364 233.067 123.266 233.729C123.147 234.488 122.871 235.214 122.456 235.859L122.369 235.992C122.147 236.315 121.808 236.538 121.423 236.614C121.039 236.689 120.641 236.611 120.313 236.395C119.986 236.18 119.755 235.845 119.671 235.462C119.588 235.078 119.657 234.677 119.864 234.344C119.957 234.205 120.072 234.081 120.203 233.978C120.504 233.729 120.747 233.418 120.914 233.065C121.121 232.621 121.269 232.153 121.355 231.671C121.454 231.146 121.511 230.614 121.523 230.079C121.54 229.532 121.523 228.984 121.47 228.439V228.412C121.453 228.292 121.482 228.169 121.55 228.068C121.618 227.967 121.721 227.895 121.839 227.866C121.957 227.837 122.081 227.852 122.189 227.91C122.296 227.967 122.378 228.062 122.42 228.176L122.409 228.172Z" fill="#000072"/>
<path d="M88.3751 234.897C86.0307 234.897 83.7661 234.574 81.7893 233.982C77.6817 232.752 74.9595 230.424 74.3223 227.598C73.9217 225.822 74.1704 223.078 77.3722 219.795C71.96 210.635 70.0961 198.28 73.0614 190.569C74.4125 187.056 76.7189 184.616 79.7706 183.453C80.5843 164.929 85.3157 151.252 94.6228 140.477C94.7475 140.328 94.9008 140.204 95.0737 140.114C95.2466 140.024 95.4356 139.97 95.6297 139.954C95.8238 139.938 96.0192 139.961 96.2043 140.022C96.3894 140.083 96.5606 140.18 96.7079 140.307C96.8552 140.435 96.9756 140.591 97.0621 140.766C97.1486 140.941 97.1995 141.131 97.2118 141.326C97.2241 141.52 97.1976 141.716 97.1337 141.9C97.0699 142.085 96.97 142.254 96.8399 142.4C87.8196 152.839 83.3161 166.244 82.66 184.585C82.6485 184.898 82.5377 185.199 82.3435 185.444C82.1493 185.69 81.8819 185.867 81.5804 185.949C78.9113 186.679 76.9648 188.589 75.7969 191.625C73.068 198.721 75.1237 210.853 80.4751 219.243C80.6619 219.536 80.7391 219.885 80.6928 220.23C80.6466 220.575 80.48 220.892 80.2226 221.125C78.5733 222.618 76.7094 224.842 77.1842 226.95C77.5753 228.687 79.6111 230.263 82.6305 231.167C88.0636 232.795 95.9474 232.135 100.504 227.727C100.784 227.456 101.159 227.308 101.548 227.315C101.937 227.322 102.307 227.483 102.577 227.763C102.847 228.044 102.995 228.42 102.988 228.81C102.982 229.2 102.821 229.57 102.541 229.841C98.87 233.395 93.4397 234.897 88.3751 234.897Z" fill="#000072"/>
<path d="M81.0688 183.07L88.4192 183.433C88.539 183.439 88.6527 183.487 88.7392 183.571C88.8256 183.654 88.8788 183.766 88.8888 183.885C88.8988 184.005 88.865 184.124 88.7936 184.221C88.7222 184.317 88.6181 184.384 88.5009 184.41L81.3166 185.998C81.125 186.045 80.926 186.053 80.7313 186.022C80.5365 185.991 80.3499 185.921 80.1824 185.817C80.0149 185.712 79.87 185.576 79.7561 185.414C79.6422 185.253 79.5616 185.07 79.5191 184.877C79.4766 184.684 79.4731 184.485 79.5087 184.29C79.5443 184.096 79.6183 183.911 79.7264 183.745C79.8345 183.58 79.9746 183.438 80.1382 183.328C80.3019 183.217 80.4859 183.141 80.6794 183.103C80.8073 183.075 80.9381 183.064 81.0688 183.07Z" fill="#000072"/>
<path d="M78.5525 218.738C78.7263 218.659 78.9045 218.59 79.0862 218.532C79.2476 218.475 79.3995 218.437 79.5552 218.387C79.8638 218.305 80.1696 218.227 80.4725 218.169C81.0689 218.047 81.671 217.955 82.2766 217.895C83.4593 217.783 84.6485 217.76 85.8346 217.825C86.9985 217.887 88.1579 218.016 89.3071 218.21C89.8769 218.306 90.4466 218.429 91.0068 218.538L92.6818 218.943C92.803 218.971 92.909 219.045 92.9781 219.148C93.0472 219.252 93.0743 219.378 93.0538 219.501C93.0334 219.624 92.9669 219.735 92.868 219.81C92.7691 219.886 92.6451 219.921 92.5214 219.908H92.4986L90.8312 219.752C90.2738 219.727 89.7202 219.686 89.1666 219.676C88.0668 219.65 86.9664 219.687 85.8707 219.786C84.797 219.882 83.7318 220.058 82.684 220.311C82.1768 220.438 81.6763 220.59 81.1847 220.767C80.9416 220.852 80.7099 220.95 80.482 221.047C80.3747 221.099 80.2579 221.148 80.1592 221.202C80.0751 221.241 79.9945 221.287 79.918 221.339C79.77 221.517 79.5839 221.659 79.3737 221.755C79.1635 221.851 78.9344 221.898 78.7034 221.893C78.4725 221.889 78.2456 221.832 78.0395 221.727C77.8334 221.623 77.6535 221.473 77.513 221.289C77.3725 221.105 77.275 220.892 77.2278 220.666C77.1806 220.439 77.1849 220.205 77.2403 219.98C77.2957 219.755 77.4009 219.546 77.548 219.367C77.6951 219.189 77.8803 219.046 78.0901 218.949L78.5525 218.738Z" fill="#000072"/>
<path d="M90.3105 224.946C90.1541 225.672 90.078 226.413 90.0835 227.156C90.0787 227.862 90.1841 228.564 90.3959 229.237C90.5883 229.82 90.9217 230.346 91.3664 230.768C91.768 231.166 92.3321 231.358 92.878 231.541L93.0195 231.589C93.392 231.713 93.6998 231.981 93.8753 232.333C94.0508 232.685 94.0796 233.092 93.9553 233.466C93.831 233.839 93.5639 234.147 93.2126 234.323C92.8614 234.499 92.4548 234.528 92.0823 234.403C91.9832 234.369 91.8877 234.325 91.7975 234.271L91.1518 233.891L90.8365 233.695C90.7349 233.622 90.639 233.533 90.5412 233.451C90.3513 233.283 90.1538 233.121 89.9715 232.942C89.8072 232.743 89.6467 232.543 89.4919 232.343C88.9393 231.538 88.5921 230.609 88.4807 229.638C88.3919 228.76 88.4402 227.873 88.6241 227.01C88.7897 226.183 89.0477 225.378 89.3932 224.609C89.4438 224.499 89.5329 224.412 89.6435 224.364C89.754 224.317 89.8783 224.311 89.9926 224.349C90.1069 224.388 90.2032 224.466 90.263 224.571C90.3229 224.676 90.3421 224.799 90.3171 224.917L90.3105 224.946Z" fill="#000072"/>
<path d="M83.4469 224.931C83.1436 225.588 82.9171 226.278 82.7718 226.987C82.6257 227.655 82.5875 228.343 82.6588 229.023C82.7348 229.611 82.959 230.17 83.3102 230.648C83.402 230.753 83.4897 230.858 83.5732 230.962L83.8999 231.227C84.0049 231.323 84.124 231.403 84.2531 231.463L84.6225 231.681L84.7545 231.758C85.0932 231.957 85.3391 232.283 85.4382 232.663C85.5373 233.044 85.4815 233.449 85.2829 233.788C85.0843 234.128 84.7593 234.374 84.3794 234.473C83.9995 234.573 83.5957 234.517 83.257 234.318C83.1678 234.264 83.0838 234.202 83.0063 234.132L82.467 233.637C82.2811 233.478 82.1139 233.297 81.9685 233.1L81.5212 232.507C81.4016 232.284 81.2857 232.061 81.1756 231.841C80.7856 230.96 80.6223 229.995 80.7008 229.035C80.7904 228.17 81.0177 227.325 81.374 226.533C81.7062 225.775 82.126 225.059 82.6246 224.399C82.6974 224.302 82.8036 224.235 82.9225 224.212C83.0414 224.189 83.1647 224.211 83.2683 224.274C83.372 224.337 83.4487 224.436 83.4836 224.552C83.5186 224.668 83.5092 224.793 83.4574 224.903L83.4469 224.931Z" fill="#000072"/>
<path d="M163.089 177.473L159.342 216.324C159.346 221.932 158.076 225.942 155.872 228.79C152.373 233.32 146.52 234.902 139.698 235.26C138.032 235.356 136.308 235.369 134.543 235.339C130.263 234.959 127.57 230.952 129.139 227.221C129.514 226.363 130.054 225.587 130.727 224.937C131.714 223.963 133.087 223.077 134.905 222.368C135.247 222.235 134.172 184.661 134.172 184.661L154.363 179.646L163.089 177.473Z" fill="#AD9FBC"/>
<path d="M156.098 228.298C156.098 228.298 141.123 215.506 132.327 222.851L129.531 226.439L129.312 228.298L129.008 231.5L129.966 233.438L132.53 234.91C132.53 234.91 151.04 236.684 156.098 228.298Z" fill="#F5F5F5"/>
<path d="M134.679 184.642C135.023 189.375 135.317 194.109 135.561 198.846L135.927 205.951L136.222 213.061C136.306 215.434 136.38 217.803 136.424 220.198C136.433 220.803 136.444 221.384 136.424 222.044C136.424 222.129 136.418 222.214 136.409 222.329L136.401 222.425L136.376 222.592L136.368 222.634C136.354 222.686 136.392 222.567 136.325 222.796C136.202 223.161 135.948 223.468 135.612 223.657L135.41 223.752L135.04 223.914C134.792 224.014 134.549 224.128 134.313 224.254C133.391 224.704 132.543 225.295 131.802 226.005C131.117 226.702 130.611 227.499 130.384 228.34C130.162 229.171 130.211 230.051 130.526 230.852C131.139 232.476 132.83 233.655 134.691 233.802L134.58 233.795C137.554 233.842 140.516 233.785 143.39 233.388C146.263 232.99 149.054 232.246 151.394 230.824C153.743 229.421 155.55 227.262 156.521 224.7C157.552 222.131 157.869 219.227 157.889 216.326V216.32C157.889 216.276 157.889 216.225 157.895 216.183C158.044 214.566 158.17 212.942 158.351 211.33C158.532 209.718 158.748 208.101 158.944 206.486L160.152 196.8L161.36 187.108L162.614 177.427C162.629 177.299 162.693 177.182 162.793 177.101C162.892 177.02 163.02 176.982 163.148 176.995C163.275 177.007 163.393 177.069 163.475 177.168C163.558 177.267 163.598 177.394 163.588 177.522L162.968 187.265L162.304 197.003L161.639 206.742C161.523 208.364 161.427 209.989 161.296 211.61C161.165 213.231 160.978 214.845 160.815 216.463L160.822 216.321C160.796 219.461 160.471 222.701 159.245 225.782C158.64 227.341 157.79 228.793 156.726 230.082C155.652 231.372 154.375 232.479 152.946 233.358C150.105 235.108 146.923 235.927 143.823 236.394C140.704 236.843 137.6 236.933 134.531 236.887H134.519C134.486 236.887 134.453 236.886 134.42 236.882C133.702 236.812 132.994 236.659 132.312 236.425C131.623 236.179 130.97 235.842 130.369 235.424C129.135 234.572 128.183 233.371 127.633 231.974C127.064 230.567 127.032 228.95 127.444 227.508C127.855 226.065 128.711 224.823 129.702 223.854C130.681 222.933 131.798 222.171 133.012 221.598C133.304 221.449 133.599 221.316 133.898 221.199L134.345 221.014L134.372 221.003L134.386 220.997C134.386 220.997 134.45 220.964 134.239 221.062C133.913 221.232 133.666 221.522 133.55 221.872L133.509 222.021C133.504 222.04 133.501 222.059 133.5 222.078C133.5 222.093 133.5 222.066 133.5 222.062L133.513 221.907C133.541 221.383 133.55 220.778 133.558 220.194C133.588 217.846 133.575 215.474 133.573 213.108L133.564 206.002L133.585 198.892C133.585 194.152 133.625 189.41 133.705 184.666C133.708 184.541 133.759 184.422 133.847 184.333C133.935 184.244 134.054 184.193 134.179 184.189C134.304 184.186 134.426 184.23 134.519 184.313C134.612 184.397 134.67 184.513 134.681 184.638L134.679 184.642Z" fill="#000072"/>
<path d="M149.87 225.311C148.855 224.625 147.636 224.092 146.43 223.712C145.217 223.332 143.966 223.085 142.699 222.974C142.385 222.946 142.067 222.943 141.75 222.926L141.275 222.906L140.8 222.92L139.857 222.95L138.918 223.045L138.45 223.092L137.986 223.174L137.059 223.341C136.446 223.469 135.84 223.648 135.234 223.797L135.11 223.827C134.923 223.873 134.728 223.881 134.537 223.852C134.346 223.822 134.163 223.755 133.998 223.655C133.833 223.554 133.689 223.422 133.575 223.266C133.461 223.109 133.379 222.932 133.333 222.744C133.287 222.556 133.279 222.361 133.308 222.17C133.338 221.978 133.405 221.795 133.505 221.629C133.605 221.464 133.737 221.32 133.893 221.206C134.049 221.091 134.226 221.009 134.413 220.963C134.467 220.95 134.529 220.939 134.583 220.931C135.286 220.845 135.981 220.733 136.684 220.674L137.741 220.616L138.268 220.59L138.798 220.599L139.853 220.622L140.904 220.717L141.428 220.768L141.948 220.853C142.294 220.915 142.64 220.962 142.983 221.036C144.35 221.326 145.681 221.764 146.953 222.342C148.223 222.929 149.404 223.612 150.495 224.563C150.591 224.644 150.652 224.758 150.665 224.883C150.678 225.008 150.643 225.133 150.567 225.233C150.491 225.332 150.379 225.399 150.256 225.418C150.132 225.437 150.005 225.408 149.903 225.336L149.87 225.311Z" fill="#000072"/>
<path d="M144.066 228.429C144.033 228.925 144.042 229.422 144.091 229.917C144.135 230.395 144.226 230.868 144.36 231.33C144.489 231.745 144.672 232.142 144.906 232.509C145.117 232.81 145.381 233.07 145.684 233.278C146.007 233.504 146.227 233.85 146.297 234.239C146.366 234.628 146.279 235.028 146.055 235.353C145.831 235.678 145.487 235.901 145.1 235.973C144.712 236.045 144.312 235.961 143.986 235.738C143.853 235.646 143.736 235.533 143.639 235.403L143.582 235.324C143.16 234.76 142.845 234.125 142.65 233.448C142.491 232.833 142.414 232.2 142.42 231.566C142.434 230.977 142.503 230.391 142.627 229.816C142.746 229.256 142.912 228.707 143.123 228.174C143.164 228.062 143.245 227.968 143.35 227.911C143.454 227.854 143.577 227.837 143.693 227.864C143.809 227.89 143.912 227.959 143.982 228.056C144.052 228.153 144.084 228.272 144.073 228.391L144.066 228.429Z" fill="#000072"/>
<path d="M135.954 228.431C135.901 228.976 135.883 229.524 135.901 230.072C135.913 230.606 135.97 231.139 136.069 231.664C136.154 232.145 136.302 232.614 136.509 233.057C136.676 233.41 136.919 233.722 137.22 233.97C137.391 234.103 137.532 234.272 137.632 234.466C137.732 234.659 137.789 234.871 137.799 235.089C137.809 235.306 137.772 235.523 137.69 235.724C137.608 235.926 137.483 236.107 137.325 236.255C137.166 236.404 136.977 236.516 136.77 236.583C136.564 236.651 136.345 236.673 136.13 236.648C135.914 236.623 135.706 236.551 135.521 236.437C135.336 236.323 135.178 236.171 135.057 235.99L134.962 235.852C134.548 235.206 134.272 234.48 134.153 233.721C134.054 233.06 134.04 232.388 134.111 231.723C134.171 231.105 134.281 230.493 134.44 229.893C134.592 229.305 134.782 228.727 135.01 228.164C135.055 228.054 135.137 227.964 135.243 227.911C135.348 227.857 135.469 227.843 135.584 227.872C135.699 227.9 135.799 227.969 135.867 228.066C135.935 228.163 135.966 228.281 135.955 228.399L135.954 228.431Z" fill="#000072"/>
<path d="M169.03 234.897C163.964 234.897 158.535 233.391 154.866 229.841C154.727 229.707 154.617 229.547 154.54 229.37C154.463 229.193 154.422 229.003 154.418 228.81C154.415 228.617 154.449 228.425 154.52 228.246C154.59 228.066 154.696 227.902 154.829 227.763C154.963 227.625 155.123 227.514 155.299 227.437C155.476 227.36 155.666 227.318 155.858 227.315C156.051 227.311 156.242 227.346 156.421 227.417C156.601 227.487 156.764 227.593 156.903 227.727C161.46 232.135 169.341 232.795 174.776 231.167C177.795 230.263 179.831 228.687 180.222 226.95C180.697 224.842 178.831 222.618 177.184 221.125C176.927 220.892 176.76 220.575 176.714 220.23C176.668 219.885 176.745 219.536 176.931 219.243C182.283 210.853 184.338 198.721 181.609 191.625C180.441 188.589 178.495 186.677 175.826 185.949C175.525 185.867 175.257 185.69 175.063 185.444C174.869 185.199 174.758 184.898 174.747 184.585C174.09 166.244 169.584 152.839 160.567 142.4C160.437 142.254 160.337 142.085 160.273 141.9C160.209 141.716 160.183 141.52 160.195 141.326C160.207 141.131 160.258 140.941 160.345 140.766C160.431 140.591 160.551 140.435 160.699 140.307C160.846 140.18 161.017 140.083 161.202 140.022C161.387 139.961 161.583 139.938 161.777 139.954C161.971 139.97 162.16 140.024 162.333 140.114C162.506 140.204 162.659 140.328 162.784 140.477C172.089 151.252 176.822 164.933 177.636 183.453C180.687 184.616 182.993 187.056 184.344 190.569C187.311 198.277 185.447 210.635 180.034 219.795C183.236 223.078 183.485 225.822 183.084 227.598C182.446 230.424 179.725 232.752 175.617 233.982C173.639 234.574 171.373 234.897 169.03 234.897Z" fill="#000072"/>
<path d="M176.096 185.997L168.909 184.409C168.792 184.384 168.688 184.317 168.616 184.221C168.545 184.124 168.511 184.005 168.521 183.885C168.531 183.765 168.584 183.653 168.671 183.57C168.757 183.487 168.871 183.438 168.991 183.433L176.341 183.069C176.731 183.054 177.11 183.194 177.397 183.458C177.684 183.721 177.856 184.088 177.876 184.478C177.895 184.867 177.76 185.249 177.5 185.54C177.24 185.831 176.876 186.007 176.488 186.031C176.356 186.036 176.225 186.025 176.096 185.997Z" fill="#000072"/>
<path d="M177.486 221.337C177.41 221.285 177.329 221.239 177.245 221.2C177.15 221.146 177.029 221.097 176.921 221.045C176.694 220.95 176.463 220.855 176.22 220.765C175.728 220.588 175.227 220.436 174.719 220.31C173.671 220.056 172.606 219.88 171.533 219.784C170.437 219.685 169.337 219.648 168.237 219.674C167.683 219.684 167.13 219.725 166.573 219.75L164.906 219.906H164.883C164.759 219.919 164.635 219.884 164.536 219.808C164.437 219.733 164.371 219.622 164.35 219.499C164.33 219.376 164.357 219.25 164.426 219.146C164.495 219.043 164.601 218.969 164.722 218.941L166.397 218.536C166.961 218.427 167.526 218.303 168.097 218.208C169.246 218.014 170.406 217.885 171.57 217.823C172.756 217.758 173.945 217.781 175.128 217.893C175.733 217.953 176.335 218.045 176.932 218.167C177.235 218.225 177.54 218.303 177.848 218.385C178.005 218.433 178.157 218.473 178.318 218.53C178.499 218.588 178.677 218.657 178.851 218.736L179.303 218.941C179.491 219.022 179.662 219.14 179.805 219.288C179.947 219.436 180.059 219.611 180.133 219.802C180.208 219.994 180.243 220.199 180.237 220.404C180.231 220.61 180.184 220.812 180.099 221C180.014 221.187 179.893 221.355 179.742 221.495C179.591 221.634 179.414 221.742 179.221 221.812C179.028 221.882 178.823 221.912 178.618 221.902C178.413 221.891 178.212 221.84 178.028 221.75C177.819 221.654 177.634 221.513 177.486 221.337Z" fill="#000072"/>
<path d="M168.016 224.607C168.361 225.376 168.619 226.181 168.785 227.008C168.969 227.871 169.018 228.758 168.929 229.636C168.817 230.607 168.47 231.536 167.917 232.341C167.763 232.541 167.602 232.741 167.438 232.94C167.259 233.119 167.065 233.281 166.868 233.449C166.773 233.531 166.678 233.62 166.573 233.693L166.258 233.889L165.612 234.269C165.274 234.47 164.871 234.529 164.49 234.432C164.11 234.334 163.783 234.09 163.583 233.752C163.382 233.413 163.324 233.009 163.421 232.628C163.518 232.246 163.762 231.919 164.099 231.718C164.188 231.666 164.282 231.622 164.379 231.589L164.528 231.539C165.075 231.356 165.639 231.164 166.039 230.766C166.484 230.344 166.818 229.818 167.011 229.235C167.222 228.562 167.328 227.86 167.323 227.154C167.329 226.411 167.252 225.67 167.095 224.944L167.088 224.911C167.061 224.793 167.079 224.668 167.138 224.561C167.198 224.455 167.295 224.374 167.41 224.336C167.526 224.297 167.652 224.303 167.763 224.353C167.874 224.402 167.963 224.491 168.012 224.603L168.016 224.607Z" fill="#000072"/>
<path d="M174.775 224.398C175.275 225.058 175.694 225.774 176.026 226.533C176.383 227.325 176.61 228.17 176.7 229.034C176.779 229.995 176.615 230.959 176.225 231.84C176.114 232.063 175.998 232.287 175.879 232.506L175.432 233.099C175.287 233.297 175.12 233.477 174.934 233.637L174.395 234.132C174.251 234.263 174.083 234.365 173.901 234.432C173.718 234.498 173.524 234.528 173.33 234.52C173.135 234.511 172.945 234.464 172.768 234.382C172.592 234.3 172.434 234.183 172.303 234.039C172.171 233.896 172.07 233.727 172.003 233.544C171.937 233.361 171.907 233.167 171.915 232.972C171.924 232.777 171.971 232.586 172.053 232.41C172.135 232.233 172.251 232.075 172.395 231.943C172.47 231.875 172.552 231.814 172.639 231.761L172.777 231.68L173.148 231.463C173.277 231.402 173.396 231.322 173.501 231.227L173.828 230.962C173.91 230.857 173.997 230.752 174.09 230.647C174.441 230.17 174.665 229.611 174.741 229.023C174.813 228.342 174.775 227.655 174.629 226.986C174.484 226.278 174.257 225.588 173.954 224.931L173.94 224.9C173.889 224.79 173.88 224.666 173.915 224.55C173.951 224.435 174.027 224.336 174.13 224.274C174.233 224.211 174.356 224.189 174.474 224.212C174.592 224.234 174.698 224.299 174.772 224.395L174.775 224.398Z" fill="#000072"/>
<g opacity="0.3">
<path d="M155.871 228.785C152.372 233.315 146.519 234.897 139.697 235.255C139.194 235.031 138.921 234.903 138.921 234.903C128.395 235.702 128.689 230.336 129.744 227.161C129.997 226.388 130.326 225.641 130.726 224.933C130.726 225.843 130.916 226.534 131.283 227.026C132.749 229.058 136.903 227.962 140.873 226.179C142.897 225.26 144.861 224.211 146.751 223.039C151.985 219.804 153.001 204.24 154.223 182.204C154.272 181.315 154.317 180.459 154.36 179.634C155.346 159.954 154.223 157.471 154.223 157.471C115.621 162.124 97.1016 141.591 97.1016 141.591L98.8999 141.551L126.219 142.536H131.153L161.663 141.434C171.979 153.372 175.621 168.274 176.2 184.526C178.497 185.153 180.251 186.5 181.531 188.341C168.856 180.967 160.413 181.515 161.072 199.094L161.038 207.174C163.911 194.3 185.993 183.016 182.816 208.154L183.623 205.744C182.689 210.822 180.765 215.94 178.154 220.028C191.038 231.709 165.937 238.52 155.871 228.785Z" fill="#000072"/>
</g>
<path d="M156.63 15.5681C203.403 -11.8171 208.853 0.678923 197.838 56.5132C205.168 94.5378 214.127 133.231 156.379 144.56C140.251 147.722 123.665 147.722 107.537 144.56C49.7893 133.236 58.7488 94.5378 66.0781 56.5132C55.0638 0.678923 60.5159 -11.8171 107.287 15.5681C123.736 10.6047 140.184 10.6047 156.63 15.5681Z" fill="#AD9FBC"/>
<g opacity="0.3">
<path d="M107.546 140.753C123.673 143.915 140.259 143.915 156.386 140.753C192.346 133.698 202.437 116.031 203.163 94.5237C202.849 84.106 200.751 72.9564 198.589 61.7793C198.403 61.8535 198.213 61.9281 198.019 62.0029C198.153 61.9515 198.282 61.9002 198.412 61.8488C198.946 66.5419 199.238 71.1351 199.147 75.5713C199.622 99.0199 190.688 118.613 152.337 126.133C136.209 129.297 119.622 129.297 103.495 126.133C79.0233 121.331 66.5325 111.619 60.8184 99.1198C60.9257 99.3539 61.0405 99.5861 61.1526 99.8182C63.3554 118.903 74.5805 134.286 107.546 140.753Z" fill="#000072"/>
</g>
<g opacity="0.6">
<path d="M201.765 10.8636C196.827 1.44305 183.613 4.49282 158.049 19.4619C141.6 14.5005 125.153 14.5005 108.708 19.4619C61.9356 -7.92324 56.4854 4.57276 67.4997 60.407C63.6742 80.2472 59.408 100.278 64.4062 116.496C57.2916 99.6535 61.9499 77.971 66.0888 56.5094C55.0745 0.675133 60.5227 -11.8209 107.297 15.5643C123.741 10.6028 140.186 10.6028 156.633 15.5643C185.237 -1.18614 198.394 -3.01505 201.765 10.8636Z" fill="#F5F5F5"/>
</g>
<path d="M130.452 124.738C142.126 124.738 151.588 117.794 151.588 109.228C151.588 100.663 142.126 93.7188 130.452 93.7188C118.779 93.7188 109.316 100.663 109.316 109.228C109.316 117.794 118.779 124.738 130.452 124.738Z" fill="#F5F5F5"/>
<path d="M79.557 90.5933C80.1846 88.0592 81.456 85.5785 83.4661 83.5688C84.4981 82.5398 85.7015 81.6993 87.022 81.0852C88.404 80.444 89.9017 80.0915 91.4239 80.0489C92.9625 80.0188 94.4896 80.3202 95.9018 80.9329C97.2636 81.5251 98.4992 82.3741 99.5413 83.4337C101.568 85.4957 102.744 88.0649 103.238 90.6332C103.292 90.9072 103.251 91.1917 103.12 91.4385C102.99 91.6853 102.778 91.8793 102.521 91.9876C102.264 92.0959 101.977 92.1118 101.71 92.0327C101.443 91.9536 101.211 91.7842 101.054 91.5534L101.027 91.5144C99.6884 89.577 98.306 87.8385 96.6851 86.6319C95.0643 85.4253 93.304 84.7801 91.5103 84.7944C89.7167 84.8239 87.8823 85.5128 86.2254 86.7375C84.5504 87.9498 83.1053 89.6569 81.7247 91.5582L81.701 91.5915C81.5366 91.818 81.2987 91.9803 81.0281 92.0504C80.7575 92.1206 80.4709 92.0942 80.2176 91.9759C79.9642 91.8576 79.7597 91.6547 79.6392 91.4019C79.5187 91.1492 79.4896 90.8623 79.557 90.5904V90.5933Z" fill="#000072"/>
<path d="M179.937 91.5571C178.558 89.654 177.113 87.9488 175.438 86.7365C173.781 85.5118 171.946 84.8229 170.153 84.7934C168.359 84.7791 166.591 85.4243 164.978 86.6308C163.365 87.8374 161.975 89.5759 160.635 91.5133L160.609 91.5504C160.452 91.7789 160.22 91.9461 159.954 92.0238C159.688 92.1016 159.403 92.0853 159.148 91.9776C158.892 91.87 158.682 91.6775 158.551 91.4325C158.42 91.1875 158.378 90.9049 158.43 90.6322C158.924 88.0629 160.098 85.4937 162.127 83.4326C163.167 82.3728 164.4 81.5229 165.76 80.929C167.173 80.3163 168.7 80.0148 170.239 80.045C171.761 80.0876 173.259 80.4401 174.64 81.0813C175.961 81.6953 177.165 82.5358 178.197 83.5649C180.204 85.5746 181.478 88.0553 182.106 90.5894C182.174 90.8613 182.145 91.1484 182.025 91.4015C181.904 91.6545 181.7 91.8577 181.446 91.9761C181.193 92.0946 180.906 92.121 180.635 92.0508C180.364 91.9806 180.126 91.8182 179.962 91.5914L179.937 91.5571Z" fill="#000072"/>
<path d="M125.224 99.4751C128.443 97.5719 131.662 97.6106 134.88 99.5912C135.098 99.7278 135.284 99.9108 135.424 100.127C135.564 100.343 135.656 100.588 135.692 100.843C135.728 101.099 135.707 101.359 135.632 101.606C135.557 101.853 135.429 102.08 135.256 102.272C134.532 103.069 133.658 103.716 132.684 104.175C131.874 104.563 130.985 104.761 130.087 104.753C129.189 104.745 128.304 104.531 127.501 104.128C126.549 103.662 125.673 103.052 124.905 102.32C124.703 102.13 124.548 101.895 124.452 101.634C124.356 101.374 124.322 101.094 124.353 100.817C124.384 100.541 124.479 100.276 124.63 100.043C124.781 99.8099 124.985 99.6154 125.224 99.4751Z" fill="#000072"/>
<path d="M132.052 104.189C132.085 104.671 132.11 105.154 132.122 105.635C132.134 105.843 132.122 106.213 132.108 106.511C132.08 106.823 132.033 107.134 131.968 107.441C131.695 108.675 131.091 109.81 130.222 110.724C129.144 111.858 127.711 112.588 126.162 112.793C126.012 112.811 125.856 112.833 125.712 112.845L125.302 112.866C124.758 112.887 124.213 112.87 123.671 112.815C122.589 112.707 121.528 112.446 120.519 112.039C119.513 111.619 118.544 111.03 117.744 110.194C117.335 109.769 116.999 109.278 116.751 108.741C116.505 108.194 116.375 107.602 116.371 107.002C116.357 105.806 116.838 104.761 117.43 103.92C117.506 103.811 117.619 103.735 117.748 103.706C117.877 103.677 118.012 103.697 118.127 103.762C118.242 103.826 118.329 103.932 118.371 104.057C118.413 104.182 118.407 104.319 118.354 104.44L118.347 104.455C117.992 105.276 117.793 106.132 117.946 106.878C118.099 107.624 118.515 108.239 119.127 108.72C119.778 109.208 120.521 109.558 121.311 109.748C122.127 109.962 122.968 110.064 123.811 110.05C124.23 110.042 124.649 110.01 125.065 109.954L125.372 109.907L125.635 109.845C125.805 109.803 125.972 109.751 126.136 109.689C126.766 109.43 127.326 109.024 127.767 108.504C128.209 107.983 128.519 107.364 128.672 106.699C128.713 106.536 128.745 106.371 128.767 106.204C128.767 106.021 128.798 105.908 128.801 105.633C128.812 105.152 128.837 104.669 128.87 104.187C128.897 103.782 129.076 103.402 129.371 103.124C129.667 102.846 130.057 102.691 130.462 102.691C130.868 102.691 131.258 102.846 131.553 103.124C131.849 103.402 132.028 103.782 132.054 104.187L132.052 104.189Z" fill="#000072"/>
<path d="M136.267 111.903C136.267 113.164 135.896 114.2 135.281 115.004C133.121 117.843 128.006 117.843 125.846 115.004C125.231 114.2 124.859 113.164 124.859 111.903C124.859 111.903 129.901 108.548 130.563 108.622C131.226 108.697 136.267 111.903 136.267 111.903Z" fill="#000072"/>
<path d="M135.282 115.005C133.123 117.844 128.008 117.844 125.848 115.005C128.008 112.17 133.123 112.17 135.282 115.005Z" fill="#F43838"/>
<path d="M132.05 104.193C132.082 104.675 132.108 105.158 132.119 105.639C132.119 105.914 132.15 106.026 132.153 106.21C132.175 106.377 132.207 106.542 132.248 106.705C132.406 107.464 132.775 108.162 133.313 108.719C133.85 109.276 134.535 109.669 135.287 109.851L135.549 109.913L135.858 109.96C136.273 110.016 136.692 110.048 137.111 110.055C137.954 110.069 138.795 109.968 139.611 109.754C140.401 109.563 141.144 109.214 141.795 108.726C142.407 108.245 142.833 107.625 142.976 106.884C143.12 106.143 142.93 105.282 142.575 104.461L142.568 104.446C142.516 104.325 142.51 104.188 142.552 104.063C142.594 103.938 142.681 103.832 142.796 103.767C142.911 103.703 143.045 103.683 143.174 103.712C143.303 103.741 143.416 103.817 143.492 103.925C144.085 104.767 144.564 105.812 144.55 107.008C144.547 107.608 144.418 108.2 144.17 108.747C143.922 109.283 143.587 109.773 143.178 110.198C142.378 111.034 141.409 111.625 140.403 112.043C139.395 112.45 138.334 112.711 137.252 112.819C136.71 112.874 136.165 112.891 135.62 112.87L135.21 112.849C135.067 112.837 134.91 112.815 134.76 112.797C133.211 112.59 131.779 111.86 130.701 110.728C129.831 109.814 129.227 108.678 128.954 107.445C128.889 107.138 128.842 106.827 128.814 106.515C128.8 106.217 128.787 105.848 128.801 105.639C128.812 105.158 128.837 104.675 128.87 104.193C128.896 103.787 129.075 103.407 129.371 103.13C129.666 102.852 130.057 102.697 130.462 102.697C130.867 102.697 131.257 102.852 131.553 103.13C131.849 103.407 132.028 103.787 132.054 104.193H132.05Z" fill="#000072"/>
<path d="M91.9999 21.9446C82.9796 27.4637 76.7024 35.6043 72.2919 45.5187C67.421 15.2094 64.732 5.16556 91.9999 21.9446Z" fill="#F982BB"/>
<g opacity="0.3">
<path d="M92.0061 21.9461C91.4013 22.3125 90.8126 22.696 90.2343 23.088C73.541 14.1014 72.7928 20.3875 75.6119 39.0354C74.3904 41.1339 73.2851 43.2982 72.301 45.5184C67.429 15.209 64.7381 5.16904 92.0061 21.9461Z" fill="#000072"/>
</g>
<path d="M171.92 21.9446C180.94 27.4637 187.218 35.6043 191.628 45.5187C196.495 15.2094 199.188 5.16556 171.92 21.9446Z" fill="#F982BB"/>
<g opacity="0.3">
<path d="M194.747 21.6735C192.365 18.1641 187.753 19.6315 178.7 27.0385C176.603 25.1306 174.331 23.4252 171.914 21.9447C189.786 10.9493 194.789 11.4756 194.747 21.6735Z" fill="#000072"/>
</g>
<path d="M130.568 118.457C128.77 118.457 127.08 117.886 125.81 116.852C124.323 115.641 123.538 113.929 123.538 111.904C123.526 111.722 123.552 111.539 123.613 111.368C123.674 111.196 123.77 111.039 123.894 110.906C124.019 110.773 124.169 110.667 124.336 110.594C124.503 110.522 124.683 110.484 124.865 110.484C125.046 110.484 125.226 110.522 125.393 110.594C125.56 110.667 125.71 110.773 125.835 110.906C125.959 111.039 126.055 111.196 126.116 111.368C126.177 111.539 126.203 111.722 126.191 111.904C126.191 114.982 128.945 115.805 130.568 115.805C132.192 115.805 134.946 114.983 134.946 111.904C134.968 111.566 135.117 111.25 135.364 111.019C135.61 110.787 135.935 110.659 136.272 110.659C136.61 110.659 136.935 110.787 137.181 111.019C137.428 111.25 137.577 111.566 137.599 111.904C137.599 116.205 134.062 118.457 130.568 118.457Z" fill="#000072"/>
<path d="M72.2958 47.116C72.2269 47.116 72.1581 47.1112 72.0898 47.1018C71.7492 47.0573 71.4321 46.9034 71.186 46.6633C70.9398 46.4232 70.7779 46.1096 70.7244 45.7696C70.5218 44.5154 70.3247 43.2961 70.1329 42.1117C67.4315 25.4593 65.9427 16.2824 70.5231 13.205C74.0743 10.8185 80.3306 12.8872 92.8365 20.5816C93.0687 20.7244 93.2604 20.9245 93.3934 21.1627C93.5264 21.4009 93.5962 21.6693 93.5962 21.9423C93.5962 22.2153 93.5264 22.4837 93.3934 22.7219C93.2604 22.9601 93.0687 23.1602 92.8365 23.303C84.592 28.3511 78.3499 35.8285 73.7514 46.1654C73.6267 46.4481 73.4228 46.6885 73.1644 46.8572C72.906 47.026 72.6043 47.1159 72.2958 47.116ZM73.9233 15.4564C73.2643 15.4564 72.7108 15.5811 72.2958 15.8599C69.5071 17.7335 71.0112 27.627 73.0649 40.3152C77.2266 32.5218 82.4841 26.487 89.0072 21.9899C84.78 19.452 77.6596 15.4564 73.9223 15.4564H73.9233Z" fill="#000072"/>
<path d="M131.962 148.552C123.66 148.55 115.378 147.742 107.232 146.139C81.2935 141.051 66.2248 129.922 61.1659 112.116C56.7117 96.438 60.4063 77.3686 63.9774 58.9233L64.4436 56.5111C58.737 27.5073 56.9633 8.29132 65.638 2.10327C72.4821 -2.77923 85.0185 0.723496 107.502 13.8209C123.738 9.05448 140.187 9.05448 156.421 13.8209C178.905 0.723496 191.441 -2.77923 198.285 2.10327C206.96 8.28847 205.186 27.5102 199.48 56.5111L199.946 58.9233C203.518 77.3647 207.212 96.4351 202.757 112.116C197.698 129.922 182.628 141.051 156.691 146.139C148.545 147.742 140.264 148.55 131.962 148.552ZM73.0926 3.18711C70.7834 3.18711 68.9366 3.70571 67.5019 4.7296C59.8005 10.223 63.026 32.7133 67.6577 56.1981C67.6975 56.402 67.6975 56.6117 67.6577 56.8156L67.1307 59.539C59.8907 96.9195 53.0514 132.227 107.847 142.975C123.769 146.115 140.149 146.115 156.07 142.975C210.866 132.223 204.027 96.9195 196.787 59.54L196.261 56.8156C196.221 56.6117 196.221 56.402 196.261 56.1981C200.893 32.7133 204.118 10.223 196.417 4.7296C190.775 0.705418 178.756 4.47649 157.437 16.9563C157.247 17.0679 157.035 17.139 156.816 17.165C156.597 17.191 156.375 17.1715 156.163 17.1076C140.102 12.2603 123.814 12.2603 107.753 17.1076C107.541 17.1718 107.319 17.1915 107.1 17.1654C106.88 17.1394 106.669 17.0682 106.478 16.9563C90.5883 7.65092 79.8607 3.18711 73.0936 3.18711H73.0926Z" fill="#000072"/>
<path d="M191.621 47.1148C191.313 47.1147 191.012 47.0253 190.754 46.8574C190.496 46.6896 190.292 46.4504 190.167 46.1689C185.57 35.832 179.326 28.3546 171.082 23.3065C170.85 23.1637 170.658 22.9636 170.525 22.7254C170.392 22.4872 170.322 22.2188 170.322 21.9458C170.322 21.6728 170.392 21.4044 170.525 21.1662C170.658 20.928 170.85 20.7279 171.082 20.5851C183.588 12.8907 189.844 10.8229 193.395 13.2085C197.976 16.2859 196.488 25.4609 193.786 42.1152C193.596 43.2996 193.399 44.5189 193.195 45.7731C193.141 46.1131 192.979 46.4265 192.733 46.6666C192.487 46.9067 192.17 47.0606 191.83 47.1053C191.76 47.1132 191.69 47.1164 191.621 47.1148ZM174.909 21.9934C181.435 26.4895 186.693 32.5282 190.855 40.3149C192.909 27.6305 194.413 17.737 191.625 15.8596C188.857 14.0011 179.882 19.0026 174.906 21.9886L174.909 21.9934Z" fill="#000072"/>
<path d="M188.773 113.439C189.543 113.283 190.197 113.196 190.911 113.11C191.624 113.025 192.302 112.968 192.999 112.927C194.387 112.842 195.777 112.827 197.166 112.882C199.937 113 202.7 113.377 205.376 114.102C208.057 114.807 210.63 115.873 213.025 117.271C215.416 118.654 217.56 120.433 219.431 122.428C219.525 122.529 219.576 122.662 219.574 122.799C219.572 122.937 219.517 123.069 219.42 123.166C219.323 123.264 219.193 123.32 219.055 123.323C218.918 123.327 218.785 123.276 218.684 123.183L218.675 123.174C216.748 121.379 214.603 119.83 212.26 118.679C209.927 117.519 207.449 116.681 204.891 116.189C202.345 115.679 199.737 115.502 197.146 115.565C195.851 115.6 194.559 115.701 193.275 115.866C192.635 115.948 191.997 116.046 191.367 116.164C190.738 116.282 190.085 116.418 189.549 116.567L189.522 116.573C189.319 116.629 189.106 116.645 188.896 116.619C188.687 116.593 188.484 116.525 188.301 116.421C188.117 116.316 187.955 116.176 187.826 116.009C187.696 115.842 187.6 115.651 187.544 115.447C187.488 115.243 187.473 115.03 187.499 114.82C187.525 114.609 187.592 114.407 187.696 114.222C187.801 114.038 187.94 113.877 188.107 113.747C188.274 113.617 188.464 113.521 188.668 113.464C188.7 113.455 188.738 113.445 188.773 113.439Z" fill="#000072"/>
<path d="M185.366 123.19C185.772 123.328 186.071 123.449 186.406 123.59C186.741 123.731 187.05 123.87 187.365 124.018C187.993 124.316 188.61 124.63 189.21 124.97C192.802 126.976 195.992 129.632 198.618 132.802C200.344 134.898 201.797 137.206 202.941 139.67C204.056 142.116 204.887 144.683 205.417 147.319C205.448 147.456 205.423 147.599 205.35 147.717C205.276 147.836 205.159 147.921 205.023 147.954C204.887 147.986 204.744 147.964 204.625 147.892C204.505 147.82 204.419 147.703 204.385 147.568C203.705 145.075 202.741 142.669 201.513 140.397C198.415 134.802 193.64 130.326 187.864 127.601C187.295 127.332 186.725 127.088 186.148 126.861C185.864 126.749 185.57 126.643 185.282 126.545C184.995 126.447 184.684 126.348 184.463 126.291H184.445C184.039 126.176 183.695 125.907 183.485 125.541C183.275 125.174 183.217 124.74 183.323 124.332C183.43 123.923 183.691 123.572 184.053 123.355C184.414 123.138 184.846 123.071 185.256 123.169C185.292 123.167 185.331 123.178 185.366 123.19Z" fill="#000072"/>
<path d="M72.0266 116.567C71.4901 116.418 70.8255 116.281 70.2083 116.164C69.5911 116.047 68.9407 115.948 68.3008 115.866C67.0162 115.701 65.7242 115.6 64.4296 115.565C61.8384 115.502 59.2311 115.679 56.6845 116.189C54.1271 116.681 51.6482 117.519 49.3154 118.679C46.9729 119.83 44.828 121.379 42.9005 123.174L42.8929 123.182C42.792 123.275 42.6589 123.326 42.5215 123.323C42.3842 123.32 42.2534 123.264 42.1565 123.166C42.0596 123.069 42.0042 122.937 42.002 122.8C41.9998 122.662 42.051 122.529 42.1447 122.428C44.0152 120.43 46.1592 118.654 48.551 117.271C50.9458 115.873 53.5187 114.807 56.1993 114.102C58.8759 113.377 61.639 113 64.4097 112.882C65.7984 112.827 67.1889 112.842 68.5761 112.927C69.2712 112.968 69.9662 113.028 70.665 113.11C71.3639 113.193 72.0323 113.283 72.8024 113.439C73.0094 113.481 73.2062 113.563 73.3814 113.681C73.5567 113.8 73.707 113.951 73.8238 114.128C73.9406 114.304 74.0215 114.502 74.0621 114.71C74.1026 114.917 74.1019 115.131 74.06 115.339C74.0181 115.546 73.9358 115.743 73.8179 115.919C73.6999 116.095 73.5486 116.245 73.3726 116.362C73.1966 116.479 72.9993 116.56 72.792 116.601C72.5846 116.642 72.3714 116.641 72.1643 116.599C72.1292 116.592 72.095 116.584 72.0608 116.575L72.0266 116.567Z" fill="#000072"/>
<path d="M77.1052 126.284C76.8839 126.342 76.5639 126.442 76.2857 126.539C76.0075 126.636 75.7084 126.743 75.4198 126.855C74.8444 127.082 74.2699 127.326 73.704 127.595C67.9184 130.306 63.1397 134.786 60.0548 140.391C58.8268 142.663 57.8634 145.069 57.1835 147.562C57.1473 147.695 57.0608 147.809 56.9423 147.879C56.8237 147.95 56.6825 147.971 56.5484 147.939C56.4143 147.907 56.2979 147.824 56.2238 147.708C56.1497 147.591 56.1238 147.45 56.1514 147.315C56.6807 144.68 57.5103 142.114 58.6239 139.668C59.7676 137.204 61.22 134.897 62.9461 132.801C65.5729 129.63 68.7629 126.975 72.3548 124.968C72.9549 124.632 73.5711 124.318 74.1997 124.017C74.5149 123.868 74.833 123.726 75.1587 123.589C75.4843 123.452 75.792 123.327 76.1984 123.189C76.6024 123.052 77.0444 123.081 77.4271 123.27C77.8097 123.459 78.1017 123.793 78.2389 124.198C78.376 124.603 78.347 125.046 78.1582 125.429C77.9695 125.813 77.6364 126.105 77.2324 126.243C77.1963 126.255 77.1602 126.266 77.1251 126.276L77.1052 126.284Z" fill="#000072"/>
<path d="M203.123 75.4672C202.976 72.9302 201.868 70.5453 200.024 68.8006C198.181 67.0558 195.742 66.0832 193.206 66.0819H153.724C144.172 65.9486 142.14 73.3509 142.14 73.3509C134.345 68.7986 126.552 68.7986 118.761 73.3509C118.761 73.3509 116.729 65.9486 107.177 66.0819H67.702C65.1658 66.0814 62.7255 67.0533 60.8815 68.7985C59.0376 70.5436 57.9298 72.9296 57.7853 75.4672C56.9839 89.479 61.7599 99.637 72.8758 105.404C82.1563 110.222 93.1602 110.435 102.775 106.341C111.572 102.597 118.014 95.6471 120.046 82.6991C126.361 77.2961 133.231 76.7594 140.857 82.6991C142.893 95.6471 149.335 102.597 158.127 106.341C167.747 110.433 178.747 110.222 188.026 105.404C199.143 99.6351 203.918 89.479 203.123 75.4672ZM95.2301 100.146C91.2421 101.215 87.0482 101.433 82.9938 100.63C73.1939 98.6835 67.363 92.7543 66.0099 79.7055C65.9244 78.9044 66.008 78.0942 66.2554 77.3276C66.5027 76.561 66.9081 75.8551 67.4454 75.2558C67.9827 74.6566 68.6398 74.1772 69.374 73.849C70.1082 73.5208 70.9031 73.3511 71.707 73.3509H105.517C107.04 73.3501 108.504 73.9368 109.607 74.9892C110.709 76.0417 111.365 77.4791 111.438 79.0032C111.971 90.5676 106.919 97.024 95.2301 100.146ZM194.893 79.7055C193.54 92.7543 187.708 98.6835 177.908 100.63C173.86 101.433 169.663 101.215 165.672 100.146C153.984 97.024 148.932 90.5638 149.468 79.0032C149.543 77.4786 150.2 76.0413 151.303 74.9891C152.407 73.9368 153.872 73.3503 155.395 73.3509H189.197C190.001 73.3514 190.796 73.5213 191.53 73.8496C192.264 74.1779 192.921 74.6573 193.458 75.2565C193.995 75.8558 194.4 76.5615 194.648 77.328C194.895 78.0945 194.979 78.9045 194.893 79.7055Z" fill="#FD8342"/>
<g opacity="0.6">
<path d="M111.433 82.4221C111.432 82.3779 111.429 82.3337 111.423 82.2898C110.902 91.8131 105.761 97.3332 95.2289 100.146C91.241 101.215 87.047 101.433 82.9926 100.629C73.5374 98.7529 67.7758 93.1691 66.1673 81.0556C65.9884 81.7296 65.9346 82.4309 66.0088 83.1244C67.3618 96.1732 73.1927 102.102 82.9926 104.048C87.047 104.852 91.2381 104.634 95.2289 103.565C106.918 100.444 111.97 93.9827 111.433 82.4221ZM194.733 81.0518C193.125 93.1653 187.362 98.751 177.907 100.626C173.859 101.429 169.662 101.211 165.671 100.142C155.139 97.3294 149.997 91.8093 149.477 82.286C149.471 82.3299 149.468 82.374 149.467 82.4183C148.931 93.9789 153.983 100.44 165.671 103.561C169.659 104.63 173.859 104.848 177.907 104.045C187.707 102.099 193.539 96.1694 194.892 83.1205C194.965 82.427 194.911 81.7259 194.733 81.0518ZM203.121 75.4633C202.975 72.9263 201.867 70.5414 200.023 68.7966C198.18 67.0519 195.74 66.0793 193.205 66.0779H153.722C144.171 65.9447 142.138 73.347 142.138 73.347C134.344 68.7947 126.551 68.7947 118.76 73.347C118.76 73.347 116.728 65.9447 107.176 66.0779H67.7008C65.1646 66.0775 62.7243 67.0494 60.8804 68.7946C59.0365 70.5397 57.9287 72.9257 57.7841 75.4633C57.6892 77.0372 57.673 78.5635 57.731 80.0365C57.7414 79.6559 57.7632 79.2753 57.7841 78.8823C57.9287 76.3447 59.0365 73.9587 60.8804 72.2136C62.7243 70.4684 65.1646 69.4964 67.7008 69.4969H107.178C116.729 69.3637 118.762 76.766 118.762 76.766C126.556 72.2149 134.349 72.2149 142.14 76.766C142.14 76.766 144.172 69.3637 153.724 69.4969H193.207C195.742 69.4983 198.182 70.4709 200.025 72.2156C201.869 73.9604 202.977 76.3453 203.123 78.8823C203.144 79.2629 203.166 79.6435 203.176 80.0241C203.228 78.5524 203.21 77.0334 203.121 75.4671V75.4633ZM194.733 81.0518C193.125 93.1653 187.362 98.751 177.907 100.626C173.859 101.429 169.662 101.211 165.671 100.142C155.139 97.3294 149.997 91.8093 149.477 82.286C149.471 82.3299 149.468 82.374 149.467 82.4183C148.931 93.9789 153.983 100.44 165.671 103.561C169.659 104.63 173.859 104.848 177.907 104.045C187.707 102.099 193.539 96.1694 194.892 83.1205C194.965 82.427 194.911 81.7259 194.733 81.0518ZM111.433 82.4183C111.432 82.374 111.429 82.3299 111.423 82.286C110.902 91.8093 105.761 97.3294 95.2289 100.142C91.241 101.211 87.047 101.429 82.9926 100.626C73.5374 98.7491 67.7758 93.1653 66.1673 81.0518C65.9884 81.7258 65.9346 82.4271 66.0088 83.1205C67.3618 96.1694 73.1927 102.099 82.9926 104.045C87.047 104.848 91.2381 104.63 95.2289 103.561C106.918 100.444 111.97 93.9827 111.433 82.4221V82.4183Z" fill="#F5F5F5"/>
</g>
<path d="M88.6887 110.841C82.9326 110.85 77.259 109.471 72.1463 106.821C60.7105 100.886 55.3448 90.3064 56.1946 75.3753C56.3638 72.4316 57.6496 69.6641 59.7888 67.6397C61.928 65.6153 64.7586 64.4872 67.7007 64.4865H107.177C107.267 64.4865 107.356 64.4865 107.443 64.4865C114.24 64.4865 117.971 68.1586 119.549 71.1056C126.791 67.4221 134.11 67.423 141.351 71.1056C142.951 68.1205 146.745 64.3856 153.744 64.4884H193.205C196.146 64.4909 198.976 65.6196 201.115 67.6437C203.254 69.6677 204.54 72.4341 204.711 75.3772C205.559 90.3073 200.191 100.888 188.759 106.822C179.147 111.813 167.756 112.173 157.506 107.81C147.364 103.491 141.434 95.5628 139.39 83.5845C133.017 78.8362 127.314 78.8266 121.522 83.5436C119.489 95.5457 113.555 103.487 103.397 107.809C98.7479 109.8 93.7452 110.832 88.6887 110.841ZM107.433 67.6752H67.7045C65.5751 67.6756 63.5264 68.492 61.9782 69.9572C60.43 71.4225 59.4995 73.4256 59.3774 75.5561C58.5912 89.3082 63.2466 98.6079 73.6105 103.986C82.3801 108.539 92.7848 108.861 102.155 104.871C111.524 100.881 116.7 93.7644 118.477 82.4502C118.535 82.0743 118.726 81.7317 119.015 81.4844C126.25 75.2935 133.928 75.2773 141.835 81.4378C142.155 81.6869 142.368 82.0485 142.432 82.4493C144.212 93.7634 149.398 100.889 158.753 104.871C168.126 108.861 178.53 108.539 187.297 103.986C197.66 98.6088 202.317 89.3091 201.54 75.5561C201.416 73.426 200.485 71.4236 198.937 69.9585C197.389 68.4934 195.341 67.6763 193.212 67.6743H153.726C145.56 67.5515 143.749 73.5274 143.675 73.7814C143.607 74.0148 143.488 74.2298 143.326 74.4102C143.163 74.5906 142.962 74.7316 142.738 74.8227C142.513 74.9137 142.27 74.9523 142.029 74.9356C141.787 74.9189 141.552 74.8474 141.342 74.7263C134.016 70.4443 126.893 70.4443 119.566 74.7263C119.355 74.8494 119.12 74.9224 118.877 74.9398C118.634 74.9571 118.39 74.9183 118.164 74.8264C117.939 74.7344 117.737 74.5918 117.575 74.4095C117.413 74.2272 117.295 74.01 117.23 73.7748C117.16 73.534 115.374 67.6752 107.433 67.6752ZM172.928 102.705C170.341 102.701 167.765 102.359 165.266 101.686C152.838 98.37 147.312 91.138 147.882 78.9285C147.972 76.9928 148.804 75.1665 150.204 73.8302C151.604 72.4938 153.465 71.7503 155.398 71.7546H189.201C190.227 71.7556 191.242 71.9729 192.18 72.3924C193.117 72.8118 193.956 73.4241 194.642 74.1895C195.328 74.9548 195.846 75.8562 196.162 76.835C196.478 77.8139 196.585 78.8484 196.477 79.8715C195.126 92.8956 189.324 99.9886 178.218 102.194C176.475 102.537 174.702 102.708 172.926 102.705H172.928ZM155.399 74.9452C154.284 74.942 153.211 75.3698 152.404 76.1397C151.596 76.9095 151.116 77.962 151.063 79.0779C150.564 89.8192 155.057 95.6589 166.087 98.604C169.939 99.6355 173.921 99.7945 177.603 99.0646C187.267 97.1453 192.113 91.1238 193.314 79.5403C193.375 78.9595 193.313 78.3723 193.133 77.8168C192.953 77.2613 192.659 76.7498 192.27 76.3155C191.884 75.8827 191.412 75.5369 190.883 75.301C190.355 75.0651 189.782 74.9444 189.204 74.9471L155.399 74.9452ZM87.9841 102.704C86.207 102.707 84.4338 102.536 82.6897 102.194C71.5804 99.9886 65.7818 92.8956 64.4306 79.8696C64.3223 78.8466 64.4298 77.8122 64.746 76.8335C65.0623 75.8548 65.5803 74.9536 66.2664 74.1885C66.9526 73.4233 67.7915 72.8112 68.7289 72.392C69.6663 71.9727 70.6812 71.7555 71.7077 71.7546H105.518C107.451 71.7499 109.312 72.4936 110.712 73.8306C112.111 75.1676 112.941 76.9946 113.029 78.9304C113.599 91.1371 108.071 98.369 95.6438 101.687C93.1449 102.358 90.5693 102.7 87.9822 102.704H87.9841ZM71.7077 74.9452C71.1289 74.9424 70.5561 75.0629 70.0274 75.2989C69.4986 75.5348 69.026 75.8806 68.6408 76.3135C68.2512 76.7479 67.957 77.2594 67.7771 77.8149C67.5971 78.3704 67.5356 78.9576 67.5963 79.5384C68.7974 91.1238 73.6428 97.1424 83.3069 99.0646C86.9919 99.7935 90.9741 99.6355 94.8225 98.604C105.852 95.6542 110.345 89.8192 109.847 79.0769C109.796 77.9614 109.317 76.9088 108.51 76.1389C107.703 75.369 106.63 74.9413 105.516 74.9452H71.7077Z" fill="#000072"/>
<path d="M128.707 276.722C128.514 276.722 128.323 276.684 128.145 276.611C127.968 276.537 127.806 276.429 127.67 276.292C127.534 276.156 127.426 275.994 127.352 275.815C127.278 275.637 127.24 275.446 127.24 275.253V260.892C127.24 260.734 127.266 260.578 127.315 260.428C127.622 258.36 127.433 238.028 127.24 225.558C127.235 225.168 127.383 224.792 127.654 224.513C127.925 224.233 128.295 224.072 128.684 224.066H128.707C129.091 224.067 129.461 224.219 129.735 224.489C130.009 224.76 130.166 225.128 130.172 225.514C130.588 252.356 130.408 259.026 130.162 260.893H130.173V275.254C130.172 275.644 130.018 276.017 129.743 276.292C129.468 276.568 129.095 276.722 128.707 276.722ZM127.472 260.094L127.478 260.091L127.472 260.094Z" fill="#000072"/>
<g opacity="0.25">
<path d="M235.555 251.683C235.005 251.907 234.442 252.099 233.869 252.259L233.008 252.497L232.138 252.699C230.977 252.959 229.802 253.175 228.625 253.326C227.446 253.516 226.251 253.578 225.068 253.701C223.877 253.75 222.686 253.85 221.494 253.858C219.108 253.916 216.722 253.845 214.34 253.712L210.769 253.455L207.211 253.075C202.479 252.469 197.765 251.685 193.11 250.647L189.615 249.886C188.463 249.622 187.313 249.342 186.158 249.091C183.851 248.575 181.54 248.084 179.222 247.646C176.904 247.208 174.584 246.803 172.256 246.478C169.931 246.135 167.604 245.868 165.271 245.689C160.618 245.324 155.936 245.378 151.435 246.218C149.198 246.631 147.011 247.277 144.909 248.147C142.824 249.022 140.853 250.148 139.04 251.501C135.401 254.203 132.437 257.781 129.955 261.683C129.746 262.011 129.415 262.243 129.035 262.327C128.656 262.411 128.258 262.34 127.931 262.131C127.752 262.015 127.599 261.862 127.484 261.683C125 257.787 122.037 254.204 118.398 251.501C116.585 250.148 114.614 249.021 112.53 248.146C110.441 247.265 108.247 246.649 106.003 246.22C101.503 245.38 96.8219 245.325 92.1674 245.69C89.8386 245.87 87.5104 246.133 85.1828 246.48C82.8556 246.806 80.5303 247.205 78.2173 247.648C75.9043 248.09 73.5884 248.577 71.2859 249.092C70.1313 249.344 68.9814 249.623 67.8287 249.887L64.3355 250.648C59.6829 251.686 54.9648 252.469 50.2334 253.077L46.6746 253.457L43.1045 253.714C40.7222 253.846 38.3351 253.918 35.9499 253.86C34.7573 253.851 33.5657 253.751 32.376 253.702C31.1881 253.579 30.0022 253.512 28.8182 253.321C27.637 253.166 26.4624 252.954 25.305 252.694L24.4353 252.492L23.575 252.254C23.0022 252.094 22.4392 251.902 21.8887 251.677C22.4488 251.866 23.0195 252.023 23.5978 252.146L24.4666 252.33L25.342 252.476C26.5109 252.662 27.6864 252.8 28.8657 252.881C30.0411 253.001 31.2261 253.007 32.4045 253.071C33.5866 253.059 34.7668 253.097 35.9471 253.044C40.6682 252.892 45.3739 252.426 50.033 251.646C54.6913 250.877 59.3259 249.956 63.8958 248.772L70.7893 247.025C73.1013 246.454 75.4219 245.898 77.7577 245.398C82.4226 244.384 87.1493 243.552 91.95 243.121C94.3589 242.889 96.7787 242.79 99.1985 242.825C101.643 242.853 104.083 243.072 106.494 243.479C111.336 244.301 116.097 246.213 120.094 249.189C124.113 252.146 127.318 256.005 129.949 260.099H127.481C130.114 256.008 133.317 252.147 137.336 249.19C141.333 246.216 146.093 244.299 150.936 243.48C153.347 243.073 155.786 242.854 158.231 242.826C160.651 242.791 163.07 242.89 165.479 243.122C170.28 243.551 175.005 244.388 179.671 245.399C182.006 245.9 184.324 246.446 186.639 247.027L193.538 248.775C198.112 249.959 202.748 250.879 207.401 251.649C212.06 252.428 216.766 252.894 221.488 253.045C222.669 253.098 223.848 253.06 225.031 253.071C226.208 253.012 227.394 253.004 228.57 252.881C229.749 252.8 230.925 252.662 232.093 252.476L232.969 252.329L233.838 252.146C234.419 252.024 234.992 251.87 235.555 251.683Z" fill="#000072"/>
<path d="M121.967 264.555C120.267 262.79 118.485 261.13 116.561 259.697C114.636 258.264 112.584 257.032 110.398 256.117C108.208 255.204 105.922 254.545 103.583 254.152C101.215 253.78 98.8215 253.604 96.4253 253.625C91.5999 253.663 86.7404 254.291 81.9083 255.083C77.0763 255.874 72.2433 256.877 67.396 257.815C67.2726 257.84 67.1445 257.816 67.0383 257.749C66.932 257.681 66.8557 257.575 66.8252 257.453C66.7947 257.331 66.8123 257.201 66.8744 257.092C66.9364 256.982 67.0382 256.9 67.1587 256.864C71.8891 255.412 76.6746 254.133 81.5342 253.091C83.9668 252.584 86.4175 252.127 88.8967 251.804C91.3758 251.482 93.8778 251.241 96.4035 251.214C98.9292 251.188 101.475 251.31 103.993 251.765C106.524 252.208 108.986 252.983 111.316 254.068C115.979 256.282 119.848 259.849 122.721 263.931C122.793 264.032 122.823 264.157 122.807 264.28C122.791 264.403 122.729 264.515 122.633 264.594C122.538 264.673 122.416 264.713 122.292 264.706C122.169 264.698 122.053 264.644 121.967 264.554V264.555Z" fill="#000072"/>
<path d="M19.4257 256.853C19.6793 256.97 20.022 257.108 20.3373 257.226C20.6525 257.344 20.9924 257.457 21.3191 257.574C21.9837 257.787 22.656 258.001 23.3425 258.176C24.704 258.556 26.096 258.842 27.5013 259.094C30.3099 259.591 33.168 259.855 36.0355 259.989L38.1899 260.052C38.9077 260.067 39.6275 260.043 40.3472 260.04C41.7866 260.05 43.2242 259.945 44.6646 259.874C46.105 259.804 47.5378 259.622 48.9773 259.5C50.4101 259.325 51.841 259.12 53.2757 258.929H53.2937C53.3981 258.918 53.503 258.947 53.5865 259.011C53.6699 259.074 53.7256 259.168 53.7418 259.272C53.7579 259.376 53.7334 259.482 53.6733 259.569C53.6131 259.655 53.5221 259.715 53.4191 259.735C51.9853 259.993 50.5525 260.268 49.114 260.513C47.6679 260.703 46.2256 260.948 44.7719 261.094C43.3182 261.241 41.8636 261.409 40.4042 261.468C39.673 261.505 38.9419 261.563 38.2089 261.583L36.0098 261.622C33.0648 261.643 30.1215 261.472 27.1984 261.112C25.7333 260.914 24.2692 260.686 22.8145 260.357C22.0863 260.206 21.3618 260.015 20.6364 259.818C20.2736 259.708 19.9128 259.614 19.5492 259.489C19.1855 259.363 18.8399 259.255 18.4259 259.086C18.2772 259.026 18.1419 258.936 18.0277 258.823C17.9134 258.71 17.8225 258.576 17.7601 258.428C17.6978 258.279 17.6651 258.12 17.6641 257.959C17.6631 257.799 17.6937 257.639 17.7541 257.49C17.8146 257.341 17.9038 257.205 18.0165 257.091C18.1293 256.976 18.2635 256.885 18.4114 256.823C18.5593 256.76 18.7181 256.728 18.8786 256.727C19.0391 256.726 19.1982 256.756 19.3469 256.817L19.3954 256.838L19.4257 256.853Z" fill="#000072"/>
<path d="M17.7172 261.193C17.8626 261.317 18.0144 261.433 18.1721 261.54C18.3411 261.663 18.5253 261.776 18.7048 261.891C19.0732 262.115 19.4521 262.332 19.8442 262.522C20.6386 262.915 21.4645 263.241 22.3131 263.496C23.1725 263.755 24.0511 263.946 24.9405 264.067C25.8411 264.19 26.7492 264.25 27.6581 264.247H27.6781C27.8019 264.249 27.9204 264.298 28.0097 264.384C28.099 264.47 28.1524 264.587 28.1591 264.711C28.1659 264.835 28.1255 264.957 28.046 265.052C27.9666 265.147 27.8541 265.208 27.7312 265.224C26.7745 265.352 25.8099 265.414 24.8446 265.409C23.8683 265.405 22.8939 265.323 21.9304 265.166C20.9541 265.006 19.9927 264.765 19.0561 264.445C18.5813 264.289 18.117 264.101 17.6536 263.896C17.4229 263.789 17.1931 263.685 16.9633 263.561C16.7157 263.436 16.4751 263.297 16.2426 263.145L16.2312 263.137C16.0965 263.049 15.9804 262.935 15.8896 262.802C15.7988 262.669 15.735 262.519 15.7019 262.361C15.6689 262.203 15.6671 262.04 15.6969 261.882C15.7266 261.724 15.7871 261.572 15.8751 261.437C15.9631 261.302 16.0767 261.186 16.2096 261.095C16.3424 261.004 16.4918 260.94 16.6493 260.907C16.8068 260.874 16.9693 260.872 17.1274 260.902C17.2855 260.932 17.4363 260.992 17.571 261.081C17.6223 261.115 17.6712 261.152 17.7172 261.193Z" fill="#000072"/>
<path d="M135.16 264.494C136.015 263.066 137.041 261.846 138.164 260.681C139.29 259.527 140.518 258.478 141.833 257.546C143.15 256.61 144.542 255.787 145.996 255.084C147.458 254.394 148.971 253.816 150.52 253.355C152.07 252.89 153.659 252.584 155.257 252.337C156.859 252.142 158.473 251.994 160.086 252.002C163.31 251.993 166.526 252.318 169.683 252.972C171.247 253.287 172.792 253.688 174.312 254.174L178.826 255.523C181.837 256.417 184.856 257.277 187.883 258.103C193.942 259.742 200.01 261.27 206.251 261.867C206.376 261.882 206.49 261.945 206.57 262.043C206.65 262.141 206.689 262.265 206.68 262.391C206.67 262.517 206.612 262.635 206.518 262.719C206.424 262.803 206.302 262.848 206.176 262.844H206.162C203.002 262.656 199.855 262.285 196.737 261.733C193.619 261.191 190.53 260.533 187.453 259.83C184.377 259.127 181.311 258.395 178.256 257.628L169.167 255.321C166.185 254.584 163.135 254.158 160.066 254.05C158.534 253.983 157.005 254.067 155.48 254.193C153.96 254.37 152.447 254.601 150.967 254.986C149.484 255.366 148.033 255.858 146.625 256.459C145.22 257.074 143.869 257.806 142.586 258.647C141.3 259.488 140.092 260.443 138.978 261.502C137.875 262.557 136.82 263.735 136.009 264.979L135.99 265.009C135.921 265.118 135.812 265.196 135.686 265.224C135.56 265.253 135.428 265.231 135.319 265.162C135.209 265.093 135.132 264.984 135.102 264.858C135.073 264.732 135.095 264.6 135.163 264.49L135.16 264.494Z" fill="#000072"/>
<path d="M239.716 261.068C237.732 261.525 235.823 261.819 233.875 262.073C231.926 262.326 229.987 262.501 228.04 262.61C226.093 262.72 224.147 262.78 222.197 262.752C220.25 262.752 218.304 262.646 216.369 262.521C216.242 262.513 216.123 262.456 216.038 262.362C215.952 262.267 215.906 262.144 215.91 262.016C215.914 261.889 215.968 261.768 216.059 261.68C216.15 261.591 216.272 261.542 216.399 261.542H216.41C218.332 261.542 220.251 261.523 222.165 261.405C224.08 261.31 225.988 261.12 227.888 260.903C229.788 260.686 231.676 260.374 233.548 260.018C235.421 259.662 237.303 259.234 239.055 258.711L239.092 258.699C239.248 258.648 239.411 258.629 239.574 258.643C239.737 258.657 239.895 258.703 240.04 258.779C240.184 258.855 240.312 258.959 240.416 259.085C240.52 259.212 240.597 259.358 240.644 259.514C240.691 259.671 240.705 259.836 240.687 259.999C240.67 260.161 240.619 260.319 240.54 260.462C240.46 260.604 240.353 260.73 240.224 260.831C240.095 260.931 239.948 261.005 239.79 261.048C239.767 261.055 239.74 261.062 239.716 261.068Z" fill="#000072"/>
</g>
<path d="M142.215 298.808C141.883 298.809 141.562 298.696 141.303 298.49C141.043 298.284 140.861 297.995 140.786 297.672C140.711 297.349 140.748 297.009 140.89 296.709C141.032 296.41 141.271 296.167 141.568 296.02C148.195 292.76 152.524 289.521 155.606 285.517C157.58 282.948 161.257 282.451 163.804 284.403C167.773 287.448 175.358 292.037 181.566 288.601C181.735 288.498 181.923 288.43 182.118 288.402C182.314 288.373 182.513 288.385 182.705 288.436C182.896 288.487 183.074 288.576 183.23 288.697C183.386 288.819 183.516 288.972 183.611 289.145C183.707 289.318 183.767 289.509 183.787 289.706C183.807 289.903 183.787 290.103 183.729 290.292C183.67 290.481 183.574 290.656 183.446 290.807C183.318 290.958 183.161 291.082 182.984 291.17C175.318 295.415 166.557 290.213 162.022 286.734C160.755 285.764 158.918 286.021 157.927 287.305C154.557 291.682 149.91 295.184 142.859 298.651C142.659 298.753 142.439 298.807 142.215 298.808Z" fill="#000072"/>
<g opacity="0.3">
<path d="M140.799 275.249C140.799 275.249 142.913 285.21 142.875 284.391C142.838 283.573 147.293 276.718 147.293 276.718L145.307 268.574" fill="#000072"/>
</g>
<g opacity="0.3">
<path d="M36.125 279.013L107.754 283.328L113.416 289.431C113.416 289.431 119.669 290.147 119.791 289.431C119.912 288.716 120.361 285.165 120.361 285.165L114.006 283.187L109.287 276.482L38.5576 276.717" fill="#000072"/>
</g>
<g opacity="0.3">
<path d="M132.71 289.754C133.417 289.72 138.882 289.423 142.921 289.204C144.278 289.13 145.598 288.734 146.771 288.048C147.945 287.362 148.939 286.405 149.672 285.258L151.683 282.109L200.306 279.906L202.134 276.723H147.896L143.339 283.239L129.652 284.678" fill="#000072"/>
</g>
</svg>
