<svg width="429" height="259" viewBox="0 0 429 259" fill="none" xmlns="http://www.w3.org/2000/svg">
<path d="M23.4832 186.364C23.4832 186.364 27.771 185.233 32.6738 187.435C35.9726 188.92 39.5487 191.916 42.2806 197.795C49.065 212.398 52.0321 247.276 93.4382 242.367L85.52 224.333C75.6479 220.941 68.176 214.687 65.2994 202.977C62.1152 188.046 56.163 175.501 47.9071 167.848C37.9808 158.63 24.7195 156.513 8.94945 165.865C6.09697 167.558 3.8958 170.034 2.92488 172.955C-0.126609 182.167 9.93243 190.147 23.4832 186.364Z" fill="#FD8342"/>
<g opacity="0.3">
<path d="M23.4889 186.361C23.4889 186.361 27.7766 185.23 32.6795 187.433C35.9783 188.917 39.5544 191.913 42.2863 197.792C49.0707 212.396 52.0378 247.273 93.4439 242.364L89.0355 232.321C56.615 232.605 51.887 202.337 44.9096 189.239C41.846 183.489 38.1071 180.659 34.7239 179.325C29.7064 177.342 25.485 178.665 25.485 178.665C14.4128 182.31 5.28853 177.728 3.97989 170.707C3.54454 171.421 3.19486 172.174 2.93659 172.953C-0.120927 182.165 9.93812 190.145 23.4889 186.361Z" fill="#000072"/>
</g>
<g opacity="0.6">
<path d="M4.30469 170.175C4.87923 169.71 5.49204 169.284 6.13799 168.9C21.902 159.548 35.1633 161.67 45.0957 170.882C53.3516 178.535 59.3038 191.081 62.488 206.012C64.5058 214.226 68.7863 219.756 74.5697 223.492C76.0963 224.472 77.8979 225.059 79.7756 225.186C81.6534 225.314 83.5345 224.979 85.2113 224.217C75.496 220.803 68.1507 214.56 65.3042 202.973C62.1201 188.043 56.1679 175.497 47.912 167.844C37.9856 158.626 24.7243 156.509 8.95428 165.861C7.06297 166.974 5.4746 168.448 4.30469 170.175Z" fill="#F5F5F5"/>
</g>
<path d="M85.8286 244.497C88.4576 244.489 91.0831 244.327 93.6877 244.01C94.1796 243.952 94.6251 243.722 94.9264 243.372C95.2277 243.021 95.36 242.579 95.2943 242.142C95.2285 241.705 94.9701 241.309 94.5759 241.041C94.1816 240.773 93.6838 240.656 93.192 240.714C60.4374 244.599 52.9148 222.447 47.4246 206.271C46.2824 202.906 45.2041 199.733 44.01 197.16C36.6672 181.353 23.0887 184.727 22.9524 184.768C16.7047 186.513 10.8369 185.671 7.22938 182.517C4.50716 180.141 3.59413 176.826 4.72427 173.423C5.5384 170.973 7.4103 168.779 9.99501 167.246C19.843 161.404 28.9661 159.983 37.111 163.02C49.3761 167.596 58.9792 182.27 63.4587 203.28C66.2159 214.501 73.2078 221.879 84.842 225.88C85.0712 225.959 85.3155 225.997 85.5611 225.992C85.8067 225.987 86.0488 225.938 86.2735 225.85C86.4983 225.762 86.7012 225.635 86.8708 225.477C87.0405 225.319 87.1734 225.133 87.2621 224.93C87.3508 224.726 87.3935 224.509 87.3878 224.291C87.3821 224.072 87.328 223.857 87.2287 223.658C87.1294 223.458 86.9869 223.278 86.8091 223.127C86.6314 222.976 86.422 222.858 86.1929 222.779C75.6767 219.163 69.6172 212.755 67.1253 202.616C62.4215 180.536 52.003 164.97 38.5596 159.957C29.1844 156.458 18.8745 157.981 7.91687 164.482C4.60486 166.447 2.19624 169.289 1.13485 172.484C-0.37642 177.035 0.921367 181.673 4.60727 184.891C9.21827 188.917 16.4851 190.058 24.0463 187.946C24.4335 187.849 34.5396 185.48 40.5509 198.427C41.675 200.845 42.7219 203.947 43.8424 207.231C48.9599 222.308 56.4934 244.496 85.8286 244.497Z" fill="#000072"/>
<path d="M407.542 68.3162C404.49 90.6853 392.586 105.348 374.964 115.048C369.29 147.005 361.094 167.423 339.987 174.181L297.387 185.157L263.326 170.473L225.454 144.599L223.391 101.827C222.583 97.7434 223.735 93.2202 225.761 88.8793H225.767C230.513 78.6969 240.024 69.5274 240.024 69.5274C239.632 53.8679 242.207 39.4678 247.471 26.1985C247.937 25.0211 248.67 23.9414 249.625 23.0267C250.58 22.112 251.737 21.3818 253.023 20.8815C254.309 20.3813 255.698 20.1218 257.102 20.1192C258.506 20.1165 259.896 20.3708 261.185 20.8661C274.712 26.0592 286.948 33.8246 297.773 44.3982C318.138 44.7037 336.103 51.5795 352.651 62.3514C370.001 56.6064 386.417 55.3738 401.626 59.9934C403.535 60.569 405.164 61.7095 406.241 63.2244C407.318 64.7393 407.777 66.5366 407.542 68.3162Z" fill="#8C9BAA"/>
<g opacity="0.6">
<path d="M237.78 71.8438C237.78 72.7727 237.792 73.7105 237.816 74.6573C237.816 74.6573 229.289 82.8783 224.35 92.4015C227.154 84.0466 234.161 75.7559 237.78 71.8438Z" fill="#F5F5F5"/>
</g>
<g opacity="0.6">
<path d="M372.751 120.179C373.227 119.917 373.698 119.654 374.162 119.381C371.768 131.873 368.874 142.468 364.81 151.011C368.168 142.415 370.634 132.104 372.751 120.179Z" fill="#F5F5F5"/>
</g>
<g opacity="0.6">
<path d="M407.549 68.3136C406.536 75.7307 404.551 82.301 401.705 88.1211C403.388 83.6408 404.612 78.764 405.335 73.453C405.574 71.6718 405.116 69.8719 404.039 68.3548C402.962 66.8377 401.331 65.6955 399.419 65.1195C384.21 60.5053 367.795 61.7379 350.451 67.4776C333.909 56.7056 315.938 49.8298 295.572 49.5243C284.747 38.9507 272.517 31.1853 258.991 25.9922C256.732 25.1253 254.198 25.01 251.851 25.6674C249.505 26.3248 247.503 27.7109 246.212 29.5722C246.622 28.436 247.044 27.3052 247.49 26.1852C247.957 25.0101 248.691 23.9328 249.645 23.0201C250.6 22.1075 251.756 21.3791 253.041 20.88C254.326 20.381 255.712 20.122 257.114 20.1192C258.517 20.1163 259.905 20.3697 261.192 20.8635C274.719 26.0565 286.955 33.822 297.78 44.3956C318.145 44.7011 336.11 51.5769 352.658 62.3488C370.008 56.6038 386.423 55.3712 401.633 59.9908C403.542 60.5664 405.171 61.7069 406.248 63.2218C407.325 64.7367 407.784 66.534 407.549 68.3136Z" fill="#F5F5F5"/>
</g>
<g opacity="0.6">
<path d="M246.193 29.5781C241.792 41.9042 239.663 55.1842 240.025 69.52C240.025 69.52 239.139 70.3775 237.776 71.8459C237.74 57.2689 240.314 43.8013 245.259 31.3306C245.502 30.7194 245.815 30.1321 246.193 29.5781Z" fill="#F5F5F5"/>
</g>
<g opacity="0.6">
<path d="M401.696 88.123C396.491 101.998 386.897 112.057 374.16 119.383C374.432 117.963 374.703 116.516 374.962 115.042C386.74 108.563 395.967 99.865 401.696 88.123Z" fill="#F5F5F5"/>
</g>
<path d="M300.455 152.497C314.023 152.05 318.348 138.612 309.469 129.488C305.618 125.53 303.672 120.322 304.726 115.174C305.376 112.003 306.954 108.834 309.235 105.664C314.526 96.6749 313.038 90.8344 306.37 87.3981C294.791 85.784 289.726 94.9299 286.168 106.578C283.105 114.174 277.363 117.284 269.967 117.648C267.749 117.756 265.55 118.237 263.639 119.243C256.135 123.198 255.223 132.365 261.106 138.054L275.513 153.902" fill="white"/>
<path d="M339.988 175.836C339.547 175.836 339.12 175.699 338.783 175.447C338.445 175.195 338.218 174.845 338.142 174.459C338.066 174.073 338.146 173.676 338.368 173.337C338.59 172.999 338.939 172.741 339.354 172.608C349.068 169.5 356.13 163.373 361.578 153.334C366.402 144.447 369.96 132.558 373.117 114.784C373.159 114.548 373.258 114.322 373.407 114.123C373.556 113.924 373.751 113.756 373.98 113.63C392.53 103.424 402.901 88.537 405.685 68.1154C405.867 66.713 405.503 65.2976 404.655 64.104C403.807 62.9104 402.525 62.0101 401.023 61.5526C386.759 57.2256 371.151 57.9941 353.306 63.9031C353.016 63.9997 352.703 64.0306 352.396 63.9932C352.089 63.9558 351.797 63.8512 351.546 63.6887C333.746 52.1001 316.148 46.3336 297.743 46.0571C297.487 46.0533 297.235 46.0031 297.003 45.9096C296.77 45.8162 296.561 45.6814 296.389 45.5137C285.954 35.3184 273.86 27.539 260.447 22.391C259.394 21.9862 258.258 21.7785 257.11 21.7807C255.963 21.7829 254.828 21.995 253.777 22.4038C252.726 22.8127 251.781 23.4094 251 24.157C250.22 24.9046 249.621 25.7869 249.241 26.7491C243.989 39.9894 241.522 54.3681 241.902 69.4863C241.912 69.9165 241.735 70.3337 241.407 70.6503C241.219 70.8314 222.718 88.8457 225.245 101.538C225.331 101.973 225.22 102.419 224.935 102.781C224.794 102.96 224.615 103.112 224.408 103.229C224.201 103.347 223.97 103.427 223.728 103.464C223.239 103.541 222.736 103.442 222.33 103.189C221.923 102.936 221.647 102.55 221.56 102.116C218.941 88.9261 234.981 72.0758 238.152 68.8989C237.848 53.6199 240.393 39.0698 245.718 25.644C246.268 24.2517 247.135 22.9749 248.265 21.8932C249.394 20.8116 250.762 19.9481 252.284 19.3566C253.805 18.7651 255.447 18.4582 257.108 18.4551C258.769 18.452 260.412 18.7527 261.936 19.3384C275.609 24.5904 287.948 32.4598 298.619 42.7473C317.249 43.1824 335.044 48.9896 352.95 60.4807C371.01 54.6628 387.588 53.9651 402.237 58.4078C406.994 59.8516 410.009 64.1035 409.406 68.5195C406.512 89.7418 395.806 105.296 376.686 116.054C371.163 146.748 362.848 168.625 340.629 175.74C340.423 175.805 340.206 175.837 339.988 175.836Z" fill="#000072"/>
<g opacity="0.3">
<path d="M304.368 180.113L315.103 172.567C357.727 178.904 365.992 140.344 367.449 129.801C334.193 167.509 214.182 141.094 225.785 88.8672H225.779C223.753 93.2081 222.601 97.7313 223.409 101.815L225.471 144.586L263.343 170.46L297.404 185.145L304.798 183.239C304.484 181.38 304.368 180.113 304.368 180.113Z" fill="#000072"/>
</g>
<path d="M250.886 60.3364C250.886 60.3364 261.741 51.6277 275.762 48.5462C270.62 41.4078 264.9 35.189 257.821 31.1289C253.257 40.023 251.263 49.8774 250.886 60.3364Z" fill="#EF7FD2"/>
<g opacity="0.3">
<path d="M275.762 48.5482C273.742 48.9941 271.756 49.5544 269.816 50.2256C266.342 46.4313 262.537 43.1515 258.225 40.6863C255.234 46.5117 253.346 52.7444 252.291 59.2879C251.38 59.9417 250.886 60.3383 250.886 60.3383C251.266 49.8772 253.256 40.0271 257.821 31.1309C264.901 35.1931 270.618 41.4097 275.762 48.5482Z" fill="#000072"/>
</g>
<path d="M364.314 74.8517C370.159 82.4307 373.322 92.1157 374.516 103.344C383.293 95.2798 391.095 86.0438 395.744 73.0275C395.83 72.7933 395.859 72.5456 395.83 72.3006C395.801 72.0556 395.713 71.8189 395.573 71.6062C395.434 71.3934 395.244 71.2095 395.019 71.0665C394.793 70.9235 394.536 70.8247 394.264 70.7766C385.389 69.2793 375.54 70.2857 364.314 74.8517Z" fill="#EF7FD2"/>
<g opacity="0.3">
<path d="M395.743 73.0215C394.863 75.4938 393.826 77.92 392.637 80.2885C385.485 78.386 377.253 78.0698 367.604 79.8383C366.637 78.1072 365.535 76.4382 364.306 74.8436C375.535 70.2776 385.383 69.27 394.26 70.7706C394.532 70.8183 394.79 70.9168 395.016 71.0597C395.242 71.2025 395.432 71.3864 395.572 71.5992C395.712 71.812 395.8 72.0488 395.829 72.294C395.859 72.5391 395.83 72.7871 395.743 73.0215Z" fill="#000072"/>
</g>
<path d="M250.889 61.9964C250.638 61.9964 250.39 61.9516 250.16 61.8647C249.929 61.7779 249.72 61.6507 249.545 61.4907C249.371 61.3308 249.234 61.1413 249.144 60.9336C249.053 60.7259 249.011 60.5041 249.018 60.2815C249.437 48.6982 251.76 38.9359 256.123 30.4373C256.234 30.2202 256.397 30.0269 256.6 29.8706C256.802 29.7143 257.041 29.5987 257.299 29.5317C257.556 29.4647 257.827 29.4478 258.093 29.4822C258.359 29.5166 258.613 29.6014 258.839 29.731C265.345 33.4621 271.224 39.1556 277.342 47.6488C277.502 47.8714 277.6 48.1246 277.628 48.3875C277.656 48.6504 277.613 48.9155 277.503 49.1608C277.393 49.4061 277.219 49.6246 276.995 49.7981C276.771 49.9717 276.504 50.0955 276.215 50.1591C262.838 53.0991 252.247 61.4862 252.142 61.5698C251.798 61.8447 251.352 61.9966 250.889 61.9964ZM258.634 33.6389C255.488 40.3775 253.621 47.9725 252.965 56.7144C256.932 54.0745 264.118 49.8954 272.797 47.5481C268.069 41.2896 263.497 36.7976 258.634 33.6389Z" fill="#000072"/>
<path d="M374.515 105.005C374.049 105.004 373.601 104.849 373.256 104.571C372.912 104.292 372.697 103.91 372.653 103.498C371.415 91.8704 368.183 82.8112 362.77 75.7886C362.616 75.5886 362.513 75.3611 362.468 75.122C362.423 74.8829 362.438 74.6379 362.51 74.4043C362.583 74.1707 362.713 73.9541 362.89 73.7696C363.066 73.5851 363.287 73.4372 363.535 73.3362C374.577 68.8452 384.743 67.4754 394.618 69.1453C395.145 69.2352 395.646 69.4235 396.086 69.6979C396.526 69.9723 396.895 70.3264 397.17 70.737C397.448 71.1526 397.624 71.6158 397.686 72.096C397.748 72.5763 397.696 73.0629 397.532 73.5238C392.313 88.119 383.209 97.7408 375.86 104.493C375.686 104.654 375.477 104.783 375.246 104.87C375.015 104.958 374.766 105.004 374.515 105.005ZM367.084 75.5817C371.582 82.032 374.491 89.9293 375.921 99.5908C382.387 93.2873 389.612 84.6987 393.965 72.5259C393.97 72.5125 393.972 72.4982 393.97 72.4841C393.968 72.47 393.963 72.4565 393.954 72.4445C385.424 70.9782 376.625 72.0136 367.084 75.5839V75.5817Z" fill="#000072"/>
<path d="M246.058 100.197C247.784 97.7008 250.078 95.5523 252.793 93.8896C254.213 93.046 255.795 92.3032 257.606 91.8531C259.397 91.3911 261.465 91.2164 263.546 91.6741C265.631 92.0814 267.526 93.2047 268.853 94.5423C270.179 95.8799 271.004 97.4255 271.528 98.9304C272.555 101.957 272.506 104.933 271.841 107.747C271.785 107.986 271.642 108.201 271.433 108.359C271.225 108.517 270.964 108.609 270.69 108.622C270.417 108.634 270.146 108.565 269.921 108.426C269.696 108.288 269.529 108.087 269.446 107.854L269.429 107.808C268.964 106.503 268.575 105.236 268.122 104.027C267.695 102.873 267.176 101.747 266.567 100.659C265.97 99.6485 265.303 98.745 264.543 98.1126C263.783 97.4802 263.01 97.0622 262.103 96.8639C260.316 96.4127 257.802 96.9164 255.34 97.8982C254.057 98.4122 252.806 98.9886 251.594 99.6249C250.336 100.277 249.093 100.999 247.776 101.702L247.738 101.721C247.5 101.851 247.221 101.904 246.944 101.874C246.668 101.844 246.411 101.732 246.215 101.555C246.019 101.379 245.897 101.149 245.867 100.903C245.837 100.657 245.901 100.409 246.05 100.199L246.058 100.197Z" fill="#000072"/>
<path d="M341.92 125.668C339.033 132.977 331.597 136.776 325.312 134.816C319.027 132.855 316.266 125.876 319.161 118.567C322.055 111.258 329.03 107.877 335.315 109.838C341.6 111.798 344.815 118.36 341.92 125.668Z" fill="#000072"/>
<path d="M334.844 119.12C334.017 121.217 331.498 122.186 329.235 121.478C326.973 120.771 325.825 118.659 326.652 116.563C327.479 114.466 329.85 113.612 332.113 114.317C334.375 115.022 335.673 117.024 334.844 119.12Z" fill="#F5F5F5"/>
<path d="M405.524 188.643C405.524 188.643 401.237 187.512 396.334 189.715C393.035 191.199 389.459 194.195 386.727 200.074C379.943 214.678 376.975 249.555 335.569 244.646L343.488 226.613C353.36 223.22 360.832 216.966 363.708 205.257C366.892 190.326 372.844 177.78 381.1 170.127C391.027 160.915 404.288 158.793 420.058 168.144C422.911 169.838 425.112 172.314 426.083 175.234C429.134 184.447 419.075 192.427 405.524 188.643Z" fill="#8C9BAA"/>
<path d="M405.523 188.643C405.523 188.643 401.235 187.512 396.332 189.715C399.408 170.422 381.099 170.127 381.099 170.127C391.025 160.915 404.286 158.793 420.056 168.144C422.909 169.838 425.11 172.314 426.081 175.234C429.132 184.447 419.073 192.427 405.523 188.643Z" fill="white"/>
<g opacity="0.3">
<path d="M405.525 188.642C405.525 188.642 401.238 187.511 396.335 189.714C393.036 191.198 389.46 194.194 386.728 200.073C379.943 214.677 376.976 249.554 335.57 244.645L339.979 234.602C372.399 234.886 377.127 204.618 384.105 191.514C387.168 185.764 390.907 182.94 394.29 181.6C399.308 179.617 403.529 180.941 403.529 180.941C414.601 184.585 423.726 180.003 425.034 172.982C425.47 173.696 425.819 174.449 426.078 175.228C429.135 184.446 419.076 192.425 405.525 188.642Z" fill="#000072"/>
</g>
<g opacity="0.6">
<path d="M424.701 172.46C424.126 171.995 423.513 171.569 422.867 171.185C407.103 161.833 393.842 163.955 383.91 173.168C375.654 180.821 369.701 193.366 366.517 208.297C364.499 216.513 360.219 222.041 354.436 225.779C352.909 226.759 351.107 227.345 349.229 227.473C347.352 227.6 345.471 227.264 343.794 226.502C353.509 223.088 360.855 216.845 363.701 205.259C366.885 190.328 372.837 177.782 381.093 170.129C391.02 160.917 404.281 158.795 420.051 168.146C421.942 169.259 423.531 170.733 424.701 172.46Z" fill="#F5F5F5"/>
</g>
<path d="M218.99 238.026C213.804 245.288 202.696 243.091 190.429 239.061C183.772 242.592 175.642 245.459 166.614 247.919C164.588 248.477 162.516 249.013 160.397 249.527L129.068 243.777L118.967 224.425L112.333 195.496L160.686 188.818L211.814 231.97L218.99 238.026Z" fill="#FD8342"/>
<path d="M139.338 38.6898C148.948 23.8063 159.575 10.9089 172.671 2.84232C174.17 1.91605 176.001 1.51524 177.812 1.71709C179.622 1.91895 181.285 2.70919 182.48 3.93559C197.057 18.9413 204.4 38.753 203.354 64.133" fill="#FD8342"/>
<g opacity="0.6">
<path d="M185.757 7.53743L185.636 7.41953C184.442 6.19391 182.779 5.40419 180.969 5.20235C179.159 5.00052 177.328 5.40083 175.83 6.32626C163.256 14.0703 152.956 26.2677 143.651 40.4052L139.333 38.6903C148.946 23.8079 159.572 10.9083 172.664 2.8428C174.163 1.91748 175.995 1.51727 177.806 1.71907C179.617 1.92088 181.28 2.71047 182.476 3.93607C183.622 5.10973 184.713 6.30482 185.757 7.53743Z" fill="#F5F5F5"/>
</g>
<path d="M286.249 245.996C262.259 249.046 248.359 242.482 248.359 242.482L236.171 218.818L275.516 164.281L304.309 176.318L330.543 189.917L322.3 224.708" fill="#8C9BAA"/>
<path d="M243.351 113.885C242.711 120.895 239.636 135.488 225.458 144.599C194.412 179.433 147.802 183.195 96.3487 177.3C93.243 176.748 90.6136 175.869 88.3642 174.69V174.685C74.916 167.632 75.0969 149.979 68.7406 129.336C68.5235 128.623 68.3004 127.916 68.0652 127.192C47.0666 106.977 25.8088 86.7196 19.4043 68.7075C18.8738 67.2275 18.956 65.6278 19.6361 64.197C20.3162 62.7661 21.5494 61.5984 23.1131 60.9045C42.0793 52.4371 64.6458 50.5078 91.3252 56.092C133.787 29.741 182.285 30.0143 210.918 74.3132C220.133 88.6489 229.884 100.182 240.39 107.754C240.785 108.041 241.149 108.36 241.475 108.708C242.844 110.146 243.519 112.007 243.351 113.885Z" fill="#FD8342"/>
<g opacity="0.6">
<path d="M243.356 113.883C243.325 114.183 243.295 114.5 243.259 114.832C242.75 113.964 242.046 113.198 241.191 112.581C230.685 105.009 220.934 93.4756 211.719 79.1398C183.086 34.841 134.588 34.5676 92.1262 60.9187C65.4468 55.3344 42.8802 57.2584 23.914 65.7312C22.9164 66.1744 22.0457 66.8142 21.3685 67.6018C20.6913 68.3893 20.2253 69.3039 20.0062 70.2758C19.7951 69.7506 19.5961 69.2254 19.4091 68.7055C18.8787 67.2256 18.9609 65.6258 19.641 64.195C20.3211 62.7642 21.5542 61.5965 23.118 60.9026C42.0842 52.4351 64.6507 50.5058 91.3301 56.0901C133.792 29.739 182.29 30.0124 210.923 74.3112C220.138 88.647 229.889 100.18 240.395 107.752C241.411 108.484 242.211 109.425 242.727 110.493C243.243 111.561 243.459 112.725 243.356 113.883Z" fill="#F5F5F5"/>
</g>
<path d="M311.041 201.878C311.041 220.668 295.439 235.901 276.191 235.901C256.944 235.901 248.356 216.453 248.356 197.662C248.356 178.872 256.944 167.854 276.191 167.854C295.439 167.854 311.041 183.086 311.041 201.878Z" fill="white"/>
<path d="M243.358 113.885C242.719 120.895 239.643 135.488 225.465 144.599C194.42 179.433 147.809 183.195 96.356 177.3C93.2502 176.748 90.6208 175.869 88.3714 174.69V174.685L88.3594 174.674C97.2907 159.481 108.743 146.287 135.712 145.413C143.081 144.851 148.738 142.659 150.855 137.074C151.602 135.092 152.441 133.13 153.556 131.287C160.829 119.25 171.823 112.744 190.584 117.814C196.693 120.418 202.404 120.89 207.319 117.144C207.319 117.144 221.913 102.39 240.397 107.754C241.413 108.486 242.214 109.427 242.729 110.495C243.245 111.563 243.461 112.727 243.358 113.885Z" fill="#F5F5F5"/>
<g opacity="0.3">
<path d="M239.493 109.269C239.179 109.391 238.908 109.515 238.677 109.627C233.818 115.22 228.546 120.519 222.895 125.49C158.882 183.304 81.3666 157.193 68.4068 96.4629L67.5625 101.032L71.0434 124.267L71.2448 124.46C71.4406 124.649 71.5847 124.876 71.6657 125.123C73.7378 131.446 75.1755 137.638 76.4444 143.097C80.2521 159.478 83.0033 171.313 98.5164 174.066C98.6122 174.084 98.7062 174.109 98.7974 174.141C105.488 174.802 112.199 175.213 118.861 175.032C122.25 174.946 125.629 174.665 128.977 174.188L130.224 174.004L131.46 173.78C132.288 173.641 133.101 173.458 133.916 173.279C135.544 172.903 137.151 172.502 138.665 171.967C141.723 170.906 144.614 169.422 147.304 167.668L148.355 166.985L149.458 166.282C150.224 165.848 150.965 165.38 151.762 164.986C153.334 164.154 154.977 163.433 156.677 162.831C160.084 161.622 163.804 160.902 167.62 161.071C169.559 161.153 171.469 161.52 173.273 162.157C175.139 162.816 176.824 163.822 178.218 165.106C179.609 166.412 180.641 167.986 181.233 169.704C181.463 170.36 181.636 171.029 181.751 171.708C183.788 171.084 185.799 170.408 187.781 169.68L187.818 169.667C188.416 169.446 189.012 169.22 189.606 168.988L189.696 168.954C190.272 168.729 190.846 168.499 191.417 168.265L191.559 168.207C192.117 167.978 192.673 167.743 193.226 167.503L193.404 167.427C193.947 167.191 194.488 166.951 195.027 166.705L195.23 166.613C195.76 166.371 196.287 166.124 196.812 165.872L197.04 165.764C197.558 165.515 198.074 165.261 198.588 165.002L198.829 164.881C199.338 164.624 199.844 164.362 200.348 164.097L200.602 163.962C201.102 163.696 201.599 163.426 202.094 163.151L202.354 163.008C202.846 162.733 203.335 162.455 203.822 162.172L204.089 162.015C204.572 161.729 205.054 161.441 205.537 161.151L205.803 160.989C206.286 160.696 206.762 160.398 207.232 160.096L207.499 159.924C207.972 159.621 208.442 159.313 208.91 159L209.173 158.823C209.641 158.508 210.107 158.189 210.57 157.866L210.828 157.684C211.291 157.358 211.752 157.027 212.211 156.691L212.461 156.508C212.92 156.169 213.378 155.826 213.834 155.478L214.075 155.293C214.532 154.942 214.986 154.585 215.438 154.221L215.666 154.036C216.12 153.671 216.572 153.301 217.023 152.925L217.23 152.75C217.613 152.429 217.993 152.104 218.37 151.775L218.49 151.668C218.946 151.25 219.4 150.828 219.85 150.399C219.894 150.358 219.938 150.315 219.981 150.273C220.44 149.834 220.897 149.389 221.351 148.939L221.453 148.837C221.916 148.375 222.376 147.907 222.834 147.433L222.889 147.375C223.361 146.884 223.829 146.387 224.293 145.884C224.163 145.794 224.048 145.689 223.949 145.571C223.805 145.394 223.702 145.194 223.645 144.981C223.588 144.769 223.579 144.549 223.618 144.333C223.657 144.117 223.743 143.911 223.872 143.725C224.001 143.539 224.17 143.377 224.369 143.25C225.945 142.237 227.431 141.118 228.814 139.902C227.765 140.823 226.657 141.689 225.496 142.495C225.612 142.151 225.851 141.849 226.178 141.637C227.484 140.798 228.727 139.884 229.902 138.903C229.573 139.217 229.236 139.527 228.89 139.832C238.447 131.386 240.905 120.17 241.49 113.745C241.563 112.913 241.42 112.077 241.074 111.302C240.728 110.526 240.187 109.831 239.493 109.269Z" fill="#000072"/>
</g>
<path d="M164.496 39.1171C168.316 21.4318 178.366 11.6074 178.366 11.6074C178.366 11.6074 193.564 27.5595 193.602 54.5076" fill="#EF7FD2"/>
<g opacity="0.3">
<path d="M193.604 54.5095L192.489 53.92C188.973 34.5359 178.377 23.3995 178.377 23.3995C178.377 23.3995 172.13 29.509 167.613 40.7632L164.507 39.1233C168.324 21.4381 178.377 11.6094 178.377 11.6094C178.377 11.6094 193.568 27.5636 193.604 54.5095Z" fill="#000072"/>
</g>
<path d="M129.032 200.014C129.032 200.014 123.278 209.245 129.032 209.755C133.736 210.169 164.942 244.63 162.917 248.897L190.431 239.06C190.431 239.06 195.858 227.296 192.442 216.007C189.025 204.717 160.238 194.201 160.238 194.201" fill="white"/>
<g opacity="0.3">
<path d="M218.992 238.03C213.806 245.291 202.697 243.094 190.431 239.064C183.773 242.596 175.644 245.463 166.616 247.923L162.919 247.746L168.075 233.571C168.075 233.571 163.046 232.595 162.805 232.499C162.925 232.499 164.493 232.767 168.92 233.571C182.187 235.982 187.416 226.336 187.416 226.336L211.815 231.974L218.992 238.03Z" fill="#000072"/>
</g>
<path d="M172.404 135.682L176.052 139.97C177.084 146.445 180.361 150.014 186.927 149.329C187.729 149.248 188.497 148.993 189.163 148.588C189.829 148.182 190.373 147.638 190.748 147.002C192.847 143.418 191.252 139.532 185.701 135.319L185.69 129.982" fill="#EA4949"/>
<path d="M223.743 235.902C160.223 229.023 138.522 194.118 144.395 170.867C149.132 152.123 171.013 140.931 209.326 158.273C277.164 88.6042 316.469 200.075 223.743 235.902Z" fill="#FF0074"/>
<path d="M278.359 170.723C277.955 167.411 276.453 164.764 275.513 158.944C275.187 156.945 275.344 155.552 275.778 154.598C277.581 159.41 278.479 164.887 278.359 170.723Z" fill="#EA4949"/>
<g opacity="0.3">
<path d="M146.041 166.128C145.886 166.632 145.739 167.139 145.608 167.654C139.735 190.902 161.433 225.811 224.953 232.687C252.382 222.089 268.253 204.874 275.257 187.686C277.595 180.892 278.572 174.165 278.348 167.922C271.316 185.066 255.456 202.226 228.089 212.799C176.509 207.21 152.507 183.147 148.449 161.85C146.805 164.253 145.562 166.856 144.761 169.576C145.112 168.406 145.539 167.255 146.041 166.128Z" fill="#000072"/>
</g>
<g opacity="0.6">
<path d="M278.214 165.728C273.323 139.586 245.564 126.204 209.929 162.796C171.617 145.454 149.738 156.644 145.004 175.39C144.206 178.611 143.922 181.916 144.159 185.208C143.164 180.187 143.279 175.315 144.4 170.867C149.134 152.121 171.014 140.931 209.326 158.273C246.963 119.623 275.813 136.729 278.214 165.728Z" fill="#F5F5F5"/>
</g>
<path d="M223.745 237.565C223.67 237.565 223.594 237.561 223.519 237.553C191.021 234.033 165.555 222.559 151.812 205.245C143.128 194.304 139.76 181.641 142.574 170.504C144.857 161.467 150.875 154.501 159.521 150.889C168.293 147.225 183.935 145.227 208.874 156.209C232.876 132.048 250.555 132.808 259.012 135.457C271.445 139.351 279.568 151.694 280.209 167.669C281.088 189.578 267.024 220.993 224.486 237.426C224.253 237.517 224 237.564 223.745 237.565ZM175.345 151.307C169.252 151.307 164.58 152.456 161.113 153.905C153.537 157.07 148.25 163.23 146.226 171.238C143.643 181.46 146.794 193.158 154.871 203.334C167.927 219.782 192.274 230.734 223.467 234.203C263.906 218.389 277.304 188.579 276.47 167.794C275.885 153.217 268.719 142.03 257.775 138.601C244.531 134.453 227.829 141.829 210.751 159.368C210.477 159.65 210.106 159.841 209.695 159.913C209.285 159.984 208.859 159.931 208.487 159.762C194.469 153.414 183.602 151.307 175.345 151.307Z" fill="#000072"/>
<path d="M177.635 179.992C176.019 185.619 171.767 190.351 166.141 193.299C165.038 193.877 163.892 194.417 162.703 194.917C162.694 194.918 162.686 194.922 162.679 194.928C161.34 195.491 159.947 196.01 158.506 196.471C158.464 196.487 158.446 196.493 158.446 196.493C147.591 200.003 133.937 200.785 118.065 199.403L133.141 221.643L135.554 235.856L136.434 241.027C135.873 237.067 135.674 233.192 135.952 229.612C136 228.921 136.072 228.24 136.157 227.576C136.155 227.573 136.155 227.571 136.155 227.568C136.155 227.565 136.155 227.562 136.157 227.56C136.627 223.905 137.652 220.625 139.353 217.983C141.21 215.089 143.882 212.951 147.536 211.9C148.085 211.74 148.645 211.613 149.213 211.52C149.215 211.518 149.218 211.516 149.221 211.515C149.224 211.514 149.228 211.514 149.231 211.514C156.842 210.18 164.428 214.408 166.84 221.156C168.39 225.48 168.855 231.397 165.984 239.039C165.634 239.956 165.242 240.904 164.796 241.874C155.298 262.507 144.744 256.076 137.508 253.396C135.355 252.598 132.864 252.207 130.271 252.024C127.569 251.832 124.765 251.874 122.129 251.933C114.772 252.094 107.433 250.631 101.022 247.41C93.2791 243.519 87.6043 237.63 85.3489 228.455C83.612 221.413 84.4563 214.06 87.4716 207.372L92.278 196.702C93.3745 194.277 94.1987 191.762 94.7385 189.194C95.5587 185.265 96.1376 181.305 96.3426 177.296C106.836 178.363 116.907 178.738 126.025 177.591C129.196 177.206 132.327 176.591 135.385 175.753C137.747 175.09 140.023 174.206 142.175 173.116C143.902 172.253 145.56 171.286 147.138 170.222C164.308 158.727 181.953 164.954 177.635 179.992Z" fill="#FD8342"/>
<path d="M164.8 241.878C155.302 262.511 144.749 256.08 137.512 253.4C135.359 252.601 132.868 252.21 130.275 252.028C127.586 244.691 129.72 237.939 132.139 233.394C133.996 229.889 136.028 227.703 136.143 227.58V227.569C136.065 227.301 134.955 222.863 139.339 217.992C140.72 216.449 142.656 214.868 145.34 213.356C146.576 212.668 147.866 212.06 149.199 211.534C149.202 211.532 149.204 211.531 149.208 211.53C149.211 211.529 149.214 211.528 149.217 211.529C156.828 210.194 164.414 214.423 166.827 221.17C168.582 226.004 168.962 232.853 164.8 241.878Z" fill="white"/>
<path d="M177.633 179.992C176.017 185.619 171.765 190.351 166.139 193.299C165.036 193.877 163.89 194.417 162.701 194.917C162.692 194.918 162.684 194.922 162.677 194.928C160.355 195.796 158.812 196.359 158.504 196.471C158.462 196.487 158.444 196.493 158.444 196.493C141.679 192.377 142.185 173.116 142.185 173.116C143.912 172.253 145.57 171.286 147.148 170.222C164.305 158.727 181.951 164.954 177.633 179.992Z" fill="white"/>
<path d="M136.613 245.724C135.923 243.448 135.375 241.14 134.973 238.81C134.554 236.461 134.306 234.09 134.23 231.712C134.199 229.32 134.269 226.888 134.792 224.48C135.32 222.026 136.27 219.658 137.607 217.46C138.982 215.234 140.972 213.181 143.517 211.791C146.062 210.4 148.973 209.722 151.918 209.669C154.867 209.663 157.768 210.338 160.335 211.629C162.857 212.928 165.063 214.737 166.594 216.939L167.163 217.767C167.332 218.053 167.487 218.346 167.646 218.636C167.991 219.208 168.209 219.826 168.47 220.43C168.914 221.614 169.253 222.829 169.481 224.061C169.946 226.514 169.977 229.004 169.723 231.443C169.157 236.327 167.373 240.976 165.094 245.284C163.945 247.454 162.632 249.586 160.993 251.589C159.35 253.574 157.326 255.473 154.664 256.756C153.317 257.4 151.849 257.82 150.332 257.996C148.841 258.158 147.33 258.11 145.856 257.855C142.971 257.374 140.45 256.303 138.085 255.372C136.879 254.887 135.86 254.525 134.687 254.262C133.502 253.999 132.297 253.814 131.082 253.708C128.607 253.479 126.049 253.476 123.458 253.521C122.188 253.547 120.786 253.575 119.431 253.532C118.077 253.489 116.708 253.396 115.353 253.236C112.638 252.932 109.963 252.396 107.364 251.636C102.162 250.108 97.2891 247.677 93.2064 244.329C89.149 240.958 86.1409 236.579 84.532 231.907C83.7093 229.579 83.1532 227.184 82.8723 224.758C82.6031 222.334 82.5999 219.893 82.8627 217.469C83.1316 215.051 83.6566 212.66 84.4306 210.33C84.8045 209.162 85.2749 208.021 85.7574 206.89L87.2168 203.644L90.138 197.162C90.6349 196.065 91.0945 195.052 91.4901 193.985C91.8857 192.919 92.2355 191.852 92.5285 190.77C92.8216 189.687 93.0448 188.59 93.2655 187.447C93.4862 186.305 93.678 185.187 93.848 184.055C94.1914 181.789 94.4246 179.519 94.5476 177.244V177.222C94.5592 177.011 94.6176 176.803 94.7194 176.612C94.8213 176.421 94.9647 176.249 95.1412 176.108C95.3178 175.966 95.5242 175.856 95.7485 175.785C95.9728 175.714 96.2107 175.684 96.4484 175.694L96.5606 175.703C103.397 176.389 110.257 176.825 117.065 176.636C120.454 176.551 123.833 176.269 127.18 175.792L128.428 175.608L129.664 175.384C130.491 175.245 131.304 175.062 132.119 174.883C133.748 174.507 135.354 174.106 136.868 173.571C139.927 172.51 142.818 171.026 145.507 169.272L146.558 168.589L147.662 167.886C148.427 167.452 149.168 166.984 149.965 166.59C151.537 165.758 153.181 165.037 154.88 164.435C158.287 163.226 162.007 162.506 165.823 162.675C167.762 162.757 169.672 163.124 171.476 163.761C173.342 164.42 175.028 165.426 176.421 166.71C177.812 168.016 178.844 169.59 179.437 171.309C180.007 172.974 180.241 174.716 180.128 176.453C180.027 178.131 179.693 179.792 179.133 181.397C178.588 182.991 177.84 184.525 176.905 185.969C175.039 188.85 172.511 191.35 169.486 193.306C168.737 193.795 167.959 194.245 167.163 194.669L164.78 195.826L162.334 196.852L159.834 197.754C156.481 198.905 153.017 199.726 149.53 200.365C146.05 200.992 142.524 201.399 138.979 201.581C135.456 201.739 131.925 201.701 128.407 201.467C124.899 201.222 121.422 200.712 118.011 199.941C117.871 199.91 117.748 199.834 117.664 199.729C117.581 199.624 117.542 199.496 117.555 199.367C117.568 199.239 117.632 199.119 117.735 199.029C117.839 198.938 117.975 198.884 118.12 198.875H118.13C121.627 198.654 125.07 198.623 128.502 198.537C131.935 198.452 135.341 198.359 138.735 198.154C142.124 197.925 145.497 197.606 148.822 197.082C152.137 196.571 155.392 195.789 158.546 194.747L160.858 193.89L163.107 192.925L165.278 191.848C165.966 191.475 166.64 191.081 167.286 190.652C169.873 188.947 172.042 186.792 173.662 184.318C174.46 183.089 175.098 181.783 175.564 180.426C176.037 179.083 176.32 177.694 176.408 176.289C176.577 173.543 175.748 170.837 173.725 168.976C171.73 167.097 168.734 166.097 165.622 165.958C162.51 165.819 159.27 166.407 156.249 167.48C154.725 168.019 153.251 168.664 151.842 169.409C151.118 169.763 150.445 170.192 149.747 170.588L148.737 171.231L148.23 171.553L147.687 171.91C144.784 173.798 141.616 175.428 138.208 176.607C136.494 177.208 134.752 177.64 133.022 178.037C132.153 178.228 131.284 178.421 130.406 178.567L129.092 178.804L127.774 178.998C124.268 179.493 120.73 179.785 117.182 179.871C110.114 180.06 103.095 179.601 96.1505 178.898L98.1635 177.374V177.391C98.0381 179.768 97.7969 182.131 97.4399 184.481C97.2622 185.656 97.0611 186.826 96.8368 187.991C96.6137 189.143 96.3737 190.335 96.0516 191.517C95.7296 192.699 95.3569 193.86 94.9263 195.008C94.4957 196.156 93.9819 197.299 93.5019 198.361L90.5807 204.842L89.1128 208.077C88.6629 209.117 88.2335 210.166 87.891 211.238C87.183 213.374 86.7037 215.565 86.4593 217.782C86.2197 219.994 86.2225 222.222 86.4678 224.434C86.7235 226.641 87.229 228.819 87.9766 230.936C89.4171 235.151 92.0694 238.959 95.6717 241.985C99.2901 244.957 103.753 247.2 108.488 248.585C110.867 249.28 113.317 249.771 115.802 250.05C117.045 250.197 118.299 250.272 119.552 250.322C120.805 250.372 122.033 250.337 123.379 250.31C126.023 250.265 128.715 250.261 131.452 250.513C132.844 250.637 134.224 250.852 135.58 251.156C136.952 251.455 138.374 251.966 139.548 252.442C141.954 253.398 144.228 254.328 146.513 254.701C148.799 255.074 150.996 254.873 152.956 253.924C154.916 252.976 156.625 251.446 158.068 249.694C159.51 247.941 160.731 245.964 161.807 243.924C163.978 239.824 165.6 235.529 166.109 231.132C166.342 228.94 166.312 226.737 165.905 224.594C165.708 223.529 165.416 222.481 165.032 221.457C164.819 220.976 164.653 220.477 164.371 220.022L163.988 219.327L163.53 218.665C162.313 216.899 160.542 215.466 158.546 214.432C156.531 213.419 154.255 212.887 151.941 212.889C149.659 212.931 147.343 213.481 145.407 214.532C143.471 215.584 141.922 217.168 140.776 219.012C139.65 220.874 138.957 222.977 138.476 225.136C137.955 227.327 137.607 229.547 137.436 231.781C137.355 232.912 137.289 234.048 137.284 235.191C137.254 236.332 137.268 237.479 137.303 238.627C137.396 240.924 137.561 243.229 137.798 245.544C137.821 245.682 137.783 245.822 137.692 245.936C137.6 246.049 137.462 246.126 137.308 246.151C137.153 246.176 136.994 246.146 136.864 246.067C136.734 245.989 136.643 245.869 136.611 245.732L136.613 245.724Z" fill="#000072"/>
<path d="M103.134 216.541C104.269 215.237 105.546 214.106 106.899 213.004C108.264 211.904 109.736 210.914 111.298 210.045C114.434 208.303 118.088 206.998 122.04 206.876C124.023 206.805 126.005 207.04 127.897 207.57C129.814 208.066 131.544 208.955 133.144 209.928C136.306 211.958 138.763 214.603 140.667 217.422C140.926 217.779 141.016 218.212 140.916 218.627C140.817 219.043 140.537 219.406 140.138 219.639C139.738 219.871 139.251 219.954 138.783 219.868C138.315 219.783 137.905 219.537 137.64 219.183V219.176C135.677 216.704 133.449 214.46 130.863 212.745C129.566 211.908 128.187 211.18 126.704 210.72C125.219 210.247 123.659 209.984 122.081 209.94C120.457 209.913 118.837 210.086 117.268 210.455C115.645 210.846 114.069 211.378 112.564 212.044C111.023 212.725 109.54 213.505 108.128 214.377C106.693 215.249 105.329 216.207 104.042 217.246L104.022 217.263C103.911 217.356 103.764 217.409 103.611 217.41C103.458 217.411 103.31 217.36 103.198 217.267C103.085 217.175 103.017 217.048 103.006 216.913C102.994 216.777 103.042 216.643 103.138 216.537L103.134 216.541Z" fill="#000072"/>
<path d="M171.393 167.126L162.755 171.694C162.628 171.777 162.47 171.812 162.314 171.792C162.158 171.772 162.017 171.699 161.921 171.588C161.825 171.478 161.782 171.338 161.8 171.199C161.818 171.06 161.897 170.933 162.019 170.845L169.183 164.58C169.354 164.431 169.556 164.313 169.778 164.234C169.999 164.154 170.237 164.114 170.476 164.115C170.715 164.117 170.952 164.161 171.172 164.243C171.392 164.326 171.592 164.447 171.76 164.599C171.927 164.75 172.06 164.929 172.15 165.127C172.24 165.324 172.285 165.534 172.283 165.747C172.281 165.96 172.232 166.17 172.139 166.366C172.045 166.561 171.91 166.739 171.739 166.888C171.635 166.979 171.518 167.059 171.393 167.126Z" fill="#000072"/>
<path d="M167.755 179.07L177.054 174.854C177.267 174.753 177.501 174.692 177.742 174.673C177.982 174.653 178.224 174.677 178.454 174.741C178.685 174.806 178.898 174.911 179.082 175.05C179.266 175.188 179.418 175.358 179.527 175.549C179.637 175.74 179.703 175.949 179.721 176.163C179.739 176.377 179.709 176.592 179.633 176.795C179.557 176.999 179.436 177.187 179.277 177.348C179.119 177.51 178.925 177.642 178.709 177.737C178.583 177.793 178.451 177.837 178.314 177.866L168.175 180.075C168.1 180.1 168.021 180.111 167.942 180.109C167.863 180.106 167.785 180.089 167.713 180.06C167.641 180.031 167.576 179.989 167.522 179.937C167.468 179.886 167.427 179.825 167.399 179.759C167.371 179.693 167.359 179.623 167.362 179.553C167.365 179.482 167.383 179.413 167.416 179.349C167.449 179.285 167.496 179.228 167.554 179.18C167.612 179.132 167.681 179.095 167.755 179.07Z" fill="#000072"/>
<path d="M160.401 251.193C159.948 251.193 159.511 251.047 159.17 250.782C158.83 250.517 158.609 250.151 158.548 249.752C158.488 249.354 158.592 248.949 158.841 248.613C159.091 248.278 159.469 248.034 159.905 247.926C172.599 244.818 182.272 241.457 189.475 237.637C189.715 237.509 189.984 237.431 190.262 237.409C190.541 237.386 190.821 237.419 191.083 237.505C206.085 242.435 213.714 242.328 217.415 237.14C217.681 236.767 218.102 236.504 218.586 236.407C219.07 236.311 219.578 236.389 219.997 236.626C220.416 236.862 220.712 237.236 220.821 237.666C220.929 238.097 220.841 238.547 220.575 238.92C214.706 247.148 202.779 244.825 190.62 240.896C183.216 244.705 173.479 248.058 160.899 251.134C160.736 251.174 160.569 251.194 160.401 251.193Z" fill="#000072"/>
<path d="M239.676 211.661C221.788 196.798 204.742 219.066 215.154 232.23C226.785 253.568 253.982 258.844 248.918 227.697C247.926 221.589 244.749 215.877 239.676 211.661Z" fill="white"/>
<g opacity="0.3">
<path d="M249.534 235.38C249.112 257.744 225.719 251.613 215.154 232.234C210.986 226.971 211.216 220.251 214.134 215.031C214.315 217.922 215.401 220.71 217.27 223.081C225.991 239.094 243.485 246.061 249.534 235.38Z" fill="#000072"/>
</g>
<path d="M238.45 251.31C229.835 251.31 219.528 243.974 213.54 233.072C207.075 224.764 210.449 213.93 217.318 208.621C222.689 204.47 231.719 202.77 240.958 210.443C246.215 214.811 249.701 220.853 250.775 227.456C253.726 245.614 245.643 249.858 242.031 250.846C240.869 251.158 239.663 251.314 238.45 251.31ZM227.546 208.375C224.795 208.375 222.156 209.289 219.774 211.13C214.075 215.535 211.475 224.679 216.689 231.271C216.747 231.344 216.798 231.422 216.842 231.502C223.503 243.721 234.536 249.41 240.934 247.667C246.621 246.119 248.857 238.926 247.071 227.932C246.118 222.075 243.04 216.726 238.401 212.873C234.805 209.889 231.079 208.38 227.546 208.38V208.375Z" fill="#000072"/>
<path d="M241.463 232.884C243.568 236.952 242.358 241.443 238.759 242.913C235.16 244.384 230.536 242.279 228.43 238.21C226.324 234.141 227.967 230.486 231.566 229.015C235.165 227.543 239.357 228.815 241.463 232.884Z" fill="#000072"/>
<path d="M228.792 217.013C230.103 219.388 230.248 222.124 227.925 223.137C225.602 224.15 223.243 222.789 221.933 220.414C220.622 218.038 220.856 215.549 223.178 214.536C225.501 213.523 227.481 214.643 228.792 217.013Z" fill="#000072"/>
<path d="M222.45 224.726C223.833 226.297 224.367 228.332 222.721 229.476C221.075 230.62 219.036 229.984 217.656 228.413C216.276 226.841 216.07 224.929 217.715 223.786C219.36 222.642 221.064 223.154 222.45 224.726Z" fill="#000072"/>
<path d="M239.092 218.451C239.823 220.337 239.575 222.416 237.598 223.021C235.622 223.625 233.922 222.435 233.193 220.548C232.463 218.662 232.976 216.797 234.956 216.189C236.936 215.581 238.363 216.564 239.092 218.451Z" fill="#000072"/>
<path d="M152.889 247.369C156.261 247.369 158.995 244.28 158.995 240.469C158.995 236.658 156.261 233.568 152.889 233.568C149.516 233.568 146.782 236.658 146.782 240.469C146.782 244.28 149.516 247.369 152.889 247.369Z" fill="#000072"/>
<path d="M144.445 231.562C146.402 231.562 147.989 229.552 147.989 227.073C147.989 224.594 146.402 222.584 144.445 222.584C142.489 222.584 140.902 224.594 140.902 227.073C140.902 229.552 142.489 231.562 144.445 231.562Z" fill="#000072"/>
<path d="M152.93 226.334C155.116 226.334 156.887 224.234 156.887 221.644C156.887 219.055 155.116 216.955 152.93 216.955C150.745 216.955 148.974 219.055 148.974 221.644C148.974 224.234 150.745 226.334 152.93 226.334Z" fill="#000072"/>
<path d="M162.916 228.813C164.873 228.813 166.459 226.849 166.459 224.425C166.459 222.002 164.873 220.037 162.916 220.037C160.959 220.037 159.373 222.002 159.373 224.425C159.373 226.849 160.959 228.813 162.916 228.813Z" fill="#000072"/>
<path d="M96.3512 178.958C96.2272 178.958 96.1036 178.946 95.9821 178.924C78.0362 175.742 74.9196 162.344 70.9756 145.371C69.6863 139.823 68.3535 134.091 66.3923 128.027L65.6168 127.277C45.1767 107.606 24.0442 87.2622 17.6229 69.2019C16.9539 67.3456 17.0551 65.3379 17.908 63.5422C18.7609 61.7466 20.3092 60.2817 22.2725 59.4128C41.7815 50.6967 64.8823 48.9774 90.9405 54.2991C115.238 39.4081 140.787 33.6331 162.962 38.0383C182.983 42.0148 200.129 54.2702 212.546 73.4785C222.261 88.5913 231.754 99.3782 241.572 106.457C242.824 107.357 243.811 108.516 244.446 109.832C245.081 111.148 245.346 112.581 245.217 114.009C244.493 121.918 241.116 136.582 226.559 145.937C226.156 146.184 225.661 146.281 225.178 146.207C224.696 146.133 224.265 145.895 223.978 145.542C223.692 145.19 223.572 144.751 223.644 144.321C223.717 143.891 223.976 143.503 224.366 143.241C237.707 134.666 240.819 121.079 241.486 113.741C241.566 112.852 241.401 111.959 241.005 111.14C240.609 110.321 239.994 109.599 239.214 109.039C229.03 101.697 219.245 90.6031 209.302 75.1312C197.255 56.4942 181.39 45.1049 162.143 41.2827C140.794 37.0436 116.025 42.7833 92.3939 57.4492C92.1781 57.5832 91.9329 57.6752 91.6743 57.7192C91.4158 57.7631 91.1497 57.7581 90.8935 57.7043C65.3804 52.3623 42.8573 53.9379 23.9538 62.3829C22.7878 62.8998 21.8685 63.7704 21.3619 64.8372C20.8553 65.9041 20.795 67.0968 21.1918 68.1997C27.3623 85.5484 48.2089 105.614 68.3644 125.02L69.4402 126.056C69.6371 126.245 69.7816 126.472 69.8624 126.72C71.9345 133.043 73.3722 139.234 74.641 144.693C78.4487 161.074 81.1999 172.909 96.713 175.662C97.167 175.744 97.5707 175.972 97.846 176.303C98.1214 176.634 98.2489 177.044 98.2039 177.454C98.1589 177.863 97.9446 178.244 97.6024 178.521C97.2602 178.798 96.8144 178.953 96.3512 178.955V178.958Z" fill="#000072"/>
<path d="M75.6473 70.383C67.243 82.2256 64.5944 95.3149 66.1997 109.326C50.4285 98.7672 37.5676 86.2289 30.6191 69.668C30.6191 69.668 52.1279 63.0591 75.6473 70.383Z" fill="#EF7FD2"/>
<g opacity="0.3">
<path d="M75.6505 70.3813C73.777 73.0161 72.1513 75.7836 70.7898 78.6559C56.636 76.6944 44.1587 79.0953 36.7772 81.1801C34.3569 77.5078 32.2988 73.6563 30.626 69.6686C30.626 69.6686 52.1311 63.0554 75.6505 70.3813Z" fill="#000072"/>
</g>
<path d="M66.2024 110.989C65.7959 110.989 65.4005 110.871 65.0759 110.653C47.0577 98.5899 35.2148 85.3732 28.8682 70.2453C28.7813 70.0375 28.7421 69.8164 28.7527 69.595C28.7633 69.3735 28.8235 69.1562 28.9299 68.9557C29.0363 68.7552 29.1867 68.5757 29.3722 68.4275C29.5578 68.2794 29.7747 68.1657 30.0104 68.0931C30.9138 67.8155 52.408 61.3802 76.2687 68.8101C76.5344 68.8926 76.7757 69.0273 76.9747 69.2042C77.1736 69.381 77.3251 69.5955 77.4179 69.8317C77.5106 70.0678 77.5422 70.3194 77.5103 70.5679C77.4784 70.8164 77.3838 71.0553 77.2336 71.2668C69.4059 82.2959 66.4075 94.6885 68.0671 109.154C68.0943 109.386 68.0664 109.62 67.985 109.842C67.9037 110.064 67.7707 110.268 67.5949 110.441C67.419 110.614 67.2042 110.752 66.9643 110.846C66.7244 110.941 66.4648 110.989 66.2024 110.989ZM33.0993 70.7533C38.9803 83.8061 48.8898 95.0207 64.0061 105.712C63.2113 92.8438 66.1132 81.5371 72.8313 71.3064C54.9747 66.3856 38.5171 69.4639 33.0993 70.7533Z" fill="#000072"/>
<path d="M203.359 65.797H203.29C202.794 65.7808 202.326 65.5903 201.988 65.2673C201.65 64.9443 201.47 64.5153 201.488 64.0746C202.484 39.8672 195.614 19.9997 181.067 5.02407C180.176 4.10697 178.933 3.51618 177.58 3.36592C176.227 3.21565 174.859 3.51659 173.741 4.21054C162.44 11.171 152.031 22.391 140.964 39.5189C140.841 39.7083 140.678 39.8744 140.484 40.0078C140.289 40.1412 140.067 40.2392 139.83 40.2963C139.593 40.3534 139.345 40.3684 139.101 40.3404C138.858 40.3125 138.623 40.2422 138.41 40.1336C138.196 40.0249 138.01 39.88 137.859 39.7071C137.709 39.5343 137.599 39.3368 137.535 39.1261C137.471 38.9153 137.454 38.6954 137.485 38.4788C137.516 38.2623 137.596 38.0533 137.718 37.864C149.065 20.2913 159.835 8.72939 171.61 1.47737C173.486 0.314085 175.782 -0.189436 178.052 0.0641797C180.322 0.317795 182.406 1.31053 183.9 2.85038C199.085 18.4831 206.262 39.1223 205.229 64.1957C205.211 64.6258 205.006 65.033 204.657 65.3316C204.308 65.6302 203.843 65.797 203.359 65.797Z" fill="#000072"/>
<path d="M193.606 56.1743C193.11 56.1743 192.635 55.9994 192.284 55.6881C191.933 55.3768 191.736 54.9545 191.735 54.514C191.702 33.3464 181.99 18.9967 178.321 14.331C175.474 17.7298 169.146 26.432 166.337 39.4355C166.294 39.6525 166.202 39.8596 166.068 40.045C165.934 40.2303 165.76 40.3901 165.556 40.5151C165.351 40.6401 165.121 40.7277 164.878 40.7729C164.636 40.8181 164.385 40.82 164.142 40.7784C163.898 40.7369 163.667 40.6527 163.46 40.5308C163.253 40.4089 163.076 40.2518 162.939 40.0684C162.801 39.8851 162.706 39.6793 162.658 39.463C162.611 39.2467 162.613 39.0242 162.663 38.8084C166.536 20.8702 176.561 10.9086 176.986 10.4927C177.165 10.3178 177.384 10.1788 177.629 10.0852C177.873 9.99148 178.137 9.94523 178.403 9.94949C178.67 9.95375 178.932 10.0084 179.172 10.1099C179.413 10.2113 179.626 10.3572 179.798 10.5378C180.436 11.2077 195.434 27.2669 195.478 54.5087C195.478 54.7271 195.43 54.9434 195.337 55.1453C195.243 55.3472 195.106 55.5308 194.932 55.6855C194.759 55.8402 194.553 55.9629 194.326 56.0468C194.099 56.1307 193.855 56.174 193.61 56.1743H193.606Z" fill="#000072"/>
<path d="M117.062 134.027C116.116 130.675 116.219 127.156 117.36 123.852C117.969 122.105 118.907 120.462 120.134 118.993C121.42 117.459 123.039 116.171 124.896 115.204C126.794 114.229 128.914 113.646 131.1 113.497C133.216 113.354 135.342 113.593 137.351 114.201C141.265 115.386 144.37 117.671 146.616 120.323C146.784 120.523 146.87 120.769 146.86 121.019C146.849 121.269 146.742 121.508 146.556 121.697C146.371 121.885 146.118 122.011 145.841 122.053C145.563 122.096 145.278 122.053 145.032 121.931L144.997 121.912C141.97 120.397 138.983 119.126 136.013 118.697C133.059 118.247 130.259 118.62 127.911 119.842C125.563 121.063 123.634 123.086 122.275 125.557C120.895 128.031 120.104 130.886 119.472 133.933L119.465 133.964C119.414 134.21 119.27 134.433 119.057 134.596C118.844 134.759 118.574 134.852 118.293 134.86C118.012 134.868 117.736 134.789 117.512 134.638C117.288 134.487 117.129 134.272 117.062 134.029V134.027Z" fill="#000072"/>
<path d="M187.416 109.607C186.359 106.632 185.978 103.401 186.625 100.087C186.951 98.3603 187.621 96.6987 188.603 95.1804C188.733 94.9832 188.862 94.787 189.004 94.5941L189.467 94.0281C189.784 93.6469 190.128 93.2842 190.497 92.9424C190.883 92.5995 191.288 92.2746 191.711 91.9692C192.163 91.6862 192.588 91.3689 193.091 91.1439C194.048 90.6315 195.122 90.2971 196.199 90.0484C197.284 89.8641 198.39 89.7344 199.455 89.8159C201.497 89.9244 203.487 90.4281 205.287 91.2918C208.724 92.921 211.237 95.3583 213.05 98.0368C213.194 98.25 213.252 98.5007 213.215 98.7474C213.177 98.9941 213.046 99.222 212.843 99.3935C212.64 99.565 212.377 99.6697 212.098 99.6904C211.819 99.7111 211.54 99.6465 211.308 99.5074L211.27 99.4849C208.54 97.8471 205.883 96.324 203.18 95.5459C201.943 95.159 200.639 94.9703 199.327 94.9885C198.751 95.003 198.177 95.0749 197.618 95.2029C197.096 95.3679 196.567 95.5041 196.105 95.7817C194.189 96.7463 192.694 98.7903 191.737 101.237C191.248 102.515 190.862 103.821 190.579 105.147C190.274 106.52 190.079 107.934 189.817 109.407L189.809 109.451C189.765 109.694 189.629 109.917 189.425 110.084C189.22 110.251 188.959 110.352 188.682 110.37C188.405 110.388 188.129 110.323 187.899 110.185C187.669 110.046 187.499 109.843 187.415 109.608L187.416 109.607Z" fill="#000072"/>
<path d="M178.971 120.605C179.368 126.286 176.001 127.597 170.018 125.879C168.329 125.396 168.054 123.38 169.564 122.557L175.822 119.149C176.126 118.984 176.474 118.891 176.831 118.88C177.188 118.869 177.542 118.94 177.859 119.087C178.176 119.233 178.445 119.45 178.64 119.716C178.834 119.982 178.949 120.288 178.971 120.605Z" fill="#000072"/>
<path d="M178.168 124.858L180.202 129.412L180.22 129.453C180.304 129.642 180.344 129.843 180.338 130.046C180.332 130.248 180.28 130.448 180.186 130.632C179.828 131.512 179.355 132.35 178.774 133.131C178.166 133.923 177.441 134.639 176.619 135.259C174.962 136.504 172.84 137.36 170.588 137.468C169.453 137.529 168.317 137.372 167.256 137.007C166.2 136.628 165.265 136.026 164.53 135.253C163.836 134.509 163.356 133.626 163.13 132.68C162.914 131.801 162.867 130.895 162.992 130.001C162.992 129.859 163.056 129.722 163.169 129.622C163.282 129.521 163.435 129.465 163.595 129.465C163.755 129.465 163.909 129.521 164.022 129.622C164.135 129.722 164.198 129.859 164.198 130.001V130.016C164.28 130.77 164.489 131.508 164.818 132.207C165.124 132.845 165.584 133.416 166.167 133.879C167.301 134.745 168.82 134.999 170.268 134.745C171.715 134.491 173.056 133.774 174.127 132.815C175.225 131.858 176.081 130.672 176.855 129.386L176.839 130.607L174.803 126.052C174.626 125.656 174.633 125.213 174.824 124.822C175.014 124.43 175.371 124.122 175.818 123.965C176.264 123.808 176.762 123.814 177.202 123.983C177.643 124.153 177.99 124.47 178.166 124.867L178.168 124.858Z" fill="#000072"/>
<path d="M178.983 128.448C180.589 128.675 182.187 128.792 183.713 128.614C185.228 128.456 186.666 127.989 187.582 127.242C188.013 126.881 188.316 126.417 188.454 125.906C188.569 125.305 188.513 124.688 188.29 124.112C187.824 122.806 186.77 121.506 185.595 120.298L185.585 120.286C185.474 120.191 185.409 120.062 185.402 119.925C185.395 119.789 185.447 119.655 185.548 119.551C185.648 119.448 185.789 119.382 185.942 119.368C186.095 119.354 186.249 119.393 186.371 119.476C187.977 120.385 189.547 121.503 190.619 123.187C191.197 124.092 191.489 125.119 191.463 126.16C191.408 127.285 190.948 128.365 190.15 129.24C189.402 130.051 188.464 130.707 187.401 131.162C186.412 131.594 185.355 131.89 184.265 132.038C182.179 132.32 180.048 132.155 178.049 131.556C177.607 131.436 177.233 131.169 177.006 130.812C176.778 130.454 176.712 130.033 176.823 129.634C176.934 129.235 177.213 128.889 177.601 128.667C177.99 128.445 178.46 128.363 178.915 128.439L178.983 128.448Z" fill="#000072"/>
<path d="M185.411 151.014C180.85 151.014 175.821 148.97 174.337 140.607L170.967 136.649L173.853 134.709L177.502 138.996C177.686 139.214 177.806 139.47 177.849 139.74C179.089 147.512 183.241 148.092 186.722 147.728C187.231 147.678 187.719 147.517 188.142 147.26C188.565 147.004 188.911 146.659 189.149 146.256C189.773 145.191 191.669 141.953 184.533 136.544C184.335 136.393 184.175 136.206 184.065 135.996C183.955 135.785 183.898 135.556 183.898 135.324L183.887 129.986H187.505L187.515 134.595C193.194 139.116 194.824 143.538 192.359 147.746C191.848 148.614 191.106 149.358 190.197 149.913C189.288 150.467 188.24 150.816 187.144 150.928C186.569 150.986 185.99 151.015 185.411 151.014Z" fill="#000072"/>
<path d="M177.044 141.54C177.044 141.54 177.496 138.228 181.316 138.11C181.316 138.11 182.56 135.396 186.341 136.356L185.705 131.712L179.404 131.283L173.4 136.363L177.075 141.722" fill="#000072"/>
<path d="M330.541 206.735C308.027 197.317 302.617 211.387 302.617 211.387C302.617 211.387 315.114 217.828 314.704 230.061C314.294 242.294 327.73 225.856 327.73 225.856" fill="#8C9BAA"/>
<g opacity="0.6">
<path d="M305.591 213.402C305.591 213.402 308.944 203.046 326.843 205.548C315.921 201.935 307.69 203.882 302.15 211.39" fill="#F5F5F5"/>
</g>
<path d="M307.515 162.08V162.096C307.515 162.096 306.737 177.568 284.014 177.3C281.976 173.522 280.154 169.696 278.375 166.314C271.941 154.122 278.375 152.514 278.375 152.514C277.067 143.94 289.484 145.547 289.484 145.547C296.582 147.037 302.293 153.656 307.515 162.08Z" fill="white"/>
<path d="M319.71 250.371C319.204 250.414 318.697 250.435 318.179 250.451C315.206 253.763 311.762 255.623 308.041 256.625C305.894 257.199 303.629 257.341 301.412 257.04C299.196 256.739 297.082 256.002 295.226 254.883C283.726 248.029 279.516 233.184 281.633 222.058C281.999 220.05 282.872 218.142 284.187 216.476C285.502 214.811 287.225 213.432 289.226 212.444L289.232 212.439C289.262 212.422 289.298 212.412 289.334 212.396C292.362 211.217 295.033 210.713 297.391 210.713H297.403C309.784 210.713 313.475 224.47 313.794 225.761C313.813 225.826 313.819 225.858 313.819 225.858C313.819 225.858 314.711 227.707 315.815 230.997C317.901 237.31 319.207 243.806 319.71 250.371Z" fill="white"/>
<path d="M181.157 135.141L184.311 141.451C184.385 141.573 184.404 141.716 184.362 141.85C184.321 141.984 184.222 142.098 184.088 142.169C183.954 142.239 183.794 142.261 183.642 142.229C183.49 142.197 183.358 142.114 183.273 141.997L178.563 136.506C178.339 136.221 178.248 135.87 178.308 135.526C178.369 135.182 178.576 134.872 178.887 134.661C179.199 134.45 179.589 134.354 179.978 134.393C180.367 134.432 180.724 134.603 180.975 134.87C181.046 134.954 181.107 135.045 181.157 135.141Z" fill="#000072"/>
<path d="M313.464 243.27C314.222 238.384 314.164 233.433 313.075 228.707C312.553 226.361 311.726 224.077 310.61 221.902C309.531 219.781 308.069 217.831 306.282 216.13C304.61 214.498 302.442 213.33 300.04 212.769C297.655 212.223 295.146 212.289 292.803 212.959C290.457 213.607 288.361 214.822 286.749 216.47C285.137 218.117 284.074 220.13 283.677 222.284C283.264 224.619 283.121 226.986 283.249 229.347C283.297 229.939 283.297 230.534 283.382 231.125L283.61 232.895C283.839 234.066 284.027 235.244 284.361 236.394C285.554 241.019 287.819 245.421 291.096 249.042C292.752 250.8 294.686 252.336 296.836 253.603C298.906 254.752 301.293 255.371 303.734 255.391C304.951 255.396 306.162 255.249 307.333 254.956C308.553 254.651 309.734 254.234 310.857 253.711C311.976 253.187 313.031 252.563 314.006 251.849C314.99 251.114 315.895 250.302 316.712 249.421L316.732 249.398C316.904 249.219 317.114 249.073 317.352 248.97C317.589 248.866 317.848 248.807 318.112 248.796C320.088 248.729 322.054 248.509 323.987 248.138C325.868 247.74 327.684 247.13 329.392 246.322C331.091 245.532 332.599 244.464 333.934 243.245C334.629 242.657 335.198 241.959 335.807 241.293C336.337 240.569 336.918 239.877 337.362 239.096C339.281 236.062 340.477 232.584 341.198 229.068C341.904 225.531 342.074 221.926 341.705 218.35C341.524 216.56 341.218 214.782 340.788 213.026L339.383 207.589C338.429 203.945 337.486 200.276 336.783 196.527C336.08 192.778 335.595 188.951 335.747 185.058C335.899 181.166 336.637 177.25 338.245 173.561L341.007 175.562C340.662 175.752 340.43 175.862 340.152 175.991C339.873 176.119 339.617 176.228 339.349 176.338C338.815 176.559 338.28 176.755 337.738 176.934C337.197 177.113 336.653 177.284 336.103 177.424C335.556 177.581 335.003 177.707 334.447 177.824C332.235 178.286 329.978 178.557 327.708 178.631C326.579 178.631 325.448 178.666 324.331 178.578C323.77 178.541 323.204 178.532 322.648 178.471L320.978 178.283C320.418 178.232 319.867 178.141 319.319 178.041L317.673 177.759C316.588 177.536 315.512 177.264 314.431 177.016C314.186 176.961 313.959 176.858 313.764 176.715C313.569 176.572 313.412 176.393 313.303 176.19L313.271 176.128C311.736 173.224 310.201 170.33 308.59 167.486C306.978 164.641 305.299 161.841 303.446 159.167C301.592 156.493 299.566 153.935 297.205 151.748C294.851 149.578 292.097 147.806 289.057 147.164L289.216 147.191C288.627 147.128 288.035 147.094 287.443 147.09C286.839 147.084 286.235 147.107 285.634 147.161C284.448 147.268 283.306 147.506 282.398 147.92C281.489 148.335 280.839 148.885 280.506 149.615C280.145 150.334 280.095 151.286 280.235 152.282V152.289L278.888 154.111C279.001 154.08 278.916 154.111 278.916 154.111L278.827 154.153C278.765 154.177 278.695 154.237 278.624 154.27C278.557 154.321 278.491 154.377 278.42 154.426L278.232 154.617C277.965 154.922 277.769 155.271 277.655 155.643C277.391 156.462 277.33 157.465 277.492 158.51C277.763 160.601 278.657 162.777 279.712 164.863L283.026 171.401C284.124 173.579 285.231 175.737 286.403 177.851C288.76 182.054 291.336 186.187 294.799 189.495C296.478 191.108 298.431 192.477 300.588 193.552C301.642 194.065 302.748 194.486 303.893 194.81C305.04 195.131 306.241 195.29 307.46 195.398L307.71 195.421C307.74 195.424 307.77 195.429 307.798 195.436C308.345 195.567 308.9 195.67 309.461 195.745C310.038 195.827 310.624 195.889 311.208 195.924C312.371 196.012 313.54 195.989 314.698 195.857C315.831 195.719 316.935 195.432 317.975 195.007C318.991 194.551 319.861 193.885 320.639 193.092L320.673 193.058C320.77 192.958 320.906 192.894 321.053 192.877C321.201 192.861 321.35 192.894 321.472 192.969C321.594 193.045 321.681 193.158 321.715 193.286C321.749 193.415 321.728 193.55 321.657 193.666C320.994 194.75 320.073 195.691 318.956 196.423C317.812 197.125 316.543 197.649 315.202 197.975C313.883 198.286 312.529 198.463 311.166 198.504C310.49 198.53 309.813 198.523 309.137 198.485C308.44 198.456 307.746 198.391 307.058 198.289L307.397 198.327C305.914 198.346 304.432 198.217 302.981 197.943C301.523 197.656 300.11 197.207 298.778 196.607C296.124 195.398 293.89 193.662 292.001 191.773C288.195 187.986 285.464 183.666 283.043 179.322C281.837 177.145 280.711 174.949 279.61 172.761L276.29 166.213C275.156 163.945 274.138 161.577 273.775 158.904L273.671 157.892C273.648 157.55 273.671 157.192 273.671 156.841C273.679 156.48 273.719 156.12 273.792 155.764C273.827 155.582 273.845 155.403 273.896 155.219L274.073 154.663C274.328 153.883 274.753 153.155 275.324 152.52C275.482 152.358 275.635 152.198 275.806 152.042C275.977 151.885 276.168 151.75 276.367 151.613C276.573 151.479 276.788 151.355 277.01 151.243C277.13 151.187 277.238 151.136 277.372 151.079C277.533 151.014 277.699 150.959 277.869 150.913L276.521 152.735V152.725C276.413 152.01 276.389 151.287 276.451 150.568C276.509 149.791 276.713 149.029 277.054 148.312C277.407 147.56 277.922 146.878 278.571 146.303C279.194 145.758 279.911 145.303 280.693 144.955C282.201 144.279 283.746 143.99 285.243 143.853C285.985 143.786 286.732 143.757 287.478 143.765C287.848 143.765 288.219 143.777 288.589 143.801C288.971 143.824 289.312 143.847 289.749 143.9C289.801 143.906 289.853 143.915 289.903 143.926C291.874 144.362 293.744 145.098 295.432 146.1C297.048 147.067 298.542 148.186 299.886 149.438C302.54 151.895 304.675 154.631 306.62 157.422C308.566 160.213 310.277 163.097 311.927 165.99C313.577 168.884 315.115 171.804 316.654 174.716L315.494 173.828C316.489 174.053 317.479 174.306 318.477 174.512L319.985 174.771C320.485 174.868 320.989 174.942 321.498 174.993L323.016 175.164C323.523 175.221 324.032 175.226 324.538 175.261C325.555 175.343 326.568 175.304 327.582 175.31C329.598 175.244 331.601 175.004 333.565 174.595C334.047 174.493 334.537 174.381 335.012 174.246C335.495 174.126 335.959 173.976 336.423 173.825C336.888 173.673 337.342 173.503 337.779 173.324C337.996 173.233 338.219 173.144 338.421 173.046C338.622 172.949 338.856 172.832 338.968 172.777L339.018 172.751C339.353 172.572 339.742 172.491 340.131 172.519C340.52 172.546 340.889 172.681 341.188 172.905C341.487 173.128 341.7 173.428 341.797 173.764C341.894 174.1 341.871 174.455 341.73 174.778C340.305 178.06 339.616 181.586 339.489 185.161C339.363 188.737 339.808 192.369 340.476 195.98C341.144 199.591 342.079 203.206 343.029 206.834L344.45 212.313C344.913 214.205 345.243 216.121 345.437 218.049C345.835 221.918 345.65 225.817 344.887 229.642C344.1 233.455 342.827 237.225 340.633 240.711C340.124 241.597 339.454 242.412 338.833 243.247C338.123 244.033 337.449 244.846 336.624 245.553C335.038 247.003 333.213 248.287 331.189 249.233C329.186 250.184 327.054 250.901 324.846 251.367C322.673 251.791 320.463 252.042 318.24 252.118L319.64 251.493C317.788 253.605 315.456 255.496 312.721 256.794C311.365 257.448 309.937 257.974 308.459 258.365C306.161 258.976 303.743 259.149 301.364 258.872C298.985 258.595 296.699 257.874 294.655 256.758C292.109 255.28 289.823 253.477 287.87 251.406C284.085 247.248 281.588 242.338 280.259 237.258C279.897 235.99 279.667 234.698 279.438 233.408L279.198 231.458C279.113 230.81 279.115 230.154 279.069 229.502C278.951 226.876 279.137 224.245 279.625 221.653C280.172 218.849 281.593 216.238 283.726 214.116C285.86 212.012 288.603 210.469 291.657 209.657C294.707 208.833 297.957 208.794 301.031 209.544C304.092 210.295 306.869 211.928 308.885 213.984C310.936 215.994 312.443 218.341 313.57 220.765C314.696 223.19 315.379 225.744 315.794 228.297C316.569 233.416 316.1 238.6 314.647 243.489C314.615 243.629 314.522 243.751 314.388 243.83C314.255 243.908 314.092 243.936 313.935 243.908C313.778 243.88 313.64 243.797 313.552 243.678C313.463 243.56 313.432 243.414 313.464 243.275V243.27Z" fill="#000072"/>
<path d="M300.845 210.847C300.948 210.608 301.02 210.476 301.11 210.311C301.201 210.146 301.286 209.999 301.377 209.848C301.559 209.546 301.755 209.258 301.957 208.974C302.365 208.412 302.815 207.875 303.304 207.366C304.277 206.355 305.407 205.473 306.661 204.746C309.162 203.292 312.095 202.552 314.949 202.454C317.803 202.355 320.602 202.775 323.239 203.469C325.875 204.162 328.386 205.145 330.796 206.247C330.94 206.308 331.05 206.416 331.104 206.549C331.158 206.682 331.151 206.828 331.084 206.956C331.017 207.084 330.896 207.184 330.747 207.233C330.598 207.282 330.433 207.277 330.289 207.219H330.283C327.836 206.308 325.33 205.547 322.782 205.055C320.233 204.563 317.638 204.378 315.154 204.648C312.671 204.918 310.33 205.711 308.451 207.006C307.51 207.652 306.678 208.414 305.979 209.268C305.633 209.692 305.319 210.136 305.038 210.596C304.903 210.827 304.773 211.058 304.658 211.291C304.602 211.407 304.546 211.523 304.498 211.636C304.45 211.75 304.397 211.883 304.386 211.923C304.271 212.354 303.969 212.727 303.545 212.959C303.121 213.192 302.61 213.265 302.126 213.163C301.641 213.062 301.221 212.793 300.96 212.416C300.698 212.039 300.615 211.586 300.73 211.155C300.749 211.082 300.773 211.01 300.803 210.94L300.845 210.847Z" fill="#000072"/>
<path d="M273.705 248.476C257.287 248.476 247.955 244.177 247.478 243.952C247.039 243.745 246.711 243.392 246.566 242.971C246.42 242.549 246.469 242.094 246.702 241.704C246.934 241.314 247.331 241.023 247.806 240.893C248.28 240.764 248.793 240.808 249.231 241.014C249.414 241.099 263.008 247.273 285.982 244.353C286.473 244.291 286.972 244.404 287.369 244.669C287.766 244.933 288.028 245.327 288.099 245.763C288.169 246.2 288.041 246.643 287.743 246.996C287.446 247.349 287.003 247.582 286.511 247.645C282.27 248.191 277.99 248.469 273.705 248.476Z" fill="#000072"/>
<path d="M343.177 246.78C340.548 246.772 337.923 246.61 335.318 246.294C334.834 246.228 334.399 245.995 334.105 245.647C333.812 245.298 333.684 244.861 333.749 244.43C333.814 243.999 334.066 243.607 334.452 243.339C334.838 243.071 335.327 242.949 335.814 242.997C368.573 246.883 376.091 224.728 381.581 208.554C382.723 205.189 383.802 202.016 384.996 199.443C392.339 183.636 405.917 187.01 406.053 187.051C412.302 188.797 418.169 187.954 421.776 184.8C424.499 182.424 425.412 179.11 424.282 175.708C423.467 173.256 421.597 171.062 419.011 169.53C409.163 163.687 400.04 162.266 391.896 165.304C379.63 169.88 370.027 184.553 365.547 205.564C362.79 216.785 355.799 224.163 344.164 228.163C343.701 228.322 343.186 228.312 342.732 228.133C342.278 227.955 341.923 227.624 341.744 227.213C341.565 226.802 341.577 226.344 341.777 225.941C341.978 225.538 342.35 225.222 342.813 225.062C353.329 221.446 359.389 215.039 361.881 204.899C366.584 182.819 377.004 167.253 390.447 162.24C399.823 158.742 410.131 160.265 421.083 166.765C424.395 168.73 426.804 171.572 427.865 174.768C429.376 179.319 428.078 183.956 424.393 187.174C419.782 191.2 412.515 192.341 404.953 190.229C404.566 190.132 394.46 187.764 388.449 200.71C387.325 203.128 386.278 206.23 385.159 209.514C380.047 224.591 372.514 246.779 343.177 246.78Z" fill="#000072"/>
<path d="M278.175 150.858C278.47 150.854 278.765 150.871 279.058 150.907C279.319 150.936 279.574 150.979 279.825 151.025C280.322 151.122 280.81 151.252 281.284 151.414C282.224 151.731 283.095 152.191 283.857 152.773C284.597 153.331 285.22 154 285.7 154.75C285.96 155.1 286.115 155.5 286.309 155.862C286.478 156.24 286.592 156.631 286.731 157.008C286.772 157.131 286.762 157.262 286.703 157.378C286.645 157.495 286.541 157.589 286.411 157.644C286.282 157.698 286.134 157.71 285.996 157.677C285.857 157.644 285.736 157.568 285.655 157.463L285.605 157.392C285.386 157.092 285.197 156.782 284.968 156.502C284.716 156.236 284.508 155.947 284.221 155.724C283.716 155.255 283.12 154.871 282.463 154.589C281.838 154.316 281.163 154.143 280.47 154.08C280.132 154.047 279.791 154.038 279.451 154.051C279.283 154.061 279.118 154.07 278.959 154.091C278.83 154.101 278.702 154.125 278.58 154.164C278.326 154.371 278.019 154.52 277.685 154.598C277.352 154.676 277.002 154.681 276.665 154.613C276.329 154.544 276.017 154.405 275.755 154.205C275.493 154.006 275.289 153.753 275.161 153.468C275.034 153.183 274.985 152.875 275.021 152.57C275.057 152.265 275.175 151.973 275.366 151.718C275.558 151.462 275.815 151.252 276.118 151.105C276.421 150.958 276.759 150.878 277.104 150.873L278.175 150.858Z" fill="#000072"/>
<path d="M286.756 143.876C286.854 143.911 286.951 143.95 287.045 143.994C287.127 144.03 287.185 144.064 287.255 144.101C287.395 144.17 287.512 144.241 287.636 144.315C287.871 144.455 288.097 144.605 288.315 144.766C288.732 145.069 289.121 145.401 289.479 145.76C290.16 146.445 290.746 147.201 291.223 148.011C291.675 148.788 292.044 149.601 292.325 150.44C292.468 150.849 292.566 151.268 292.687 151.678L292.928 152.921C292.956 153.051 292.928 153.186 292.851 153.299C292.773 153.413 292.651 153.497 292.508 153.535C292.365 153.573 292.212 153.562 292.077 153.505C291.942 153.448 291.836 153.349 291.779 153.227L291.76 153.187L291.237 152.104C291.031 151.759 290.851 151.407 290.634 151.077C290.213 150.423 289.723 149.806 289.171 149.234C288.644 148.695 288.045 148.214 287.389 147.802C287.08 147.61 286.754 147.441 286.414 147.296C286.257 147.228 286.096 147.167 285.932 147.115C285.854 147.092 285.773 147.065 285.705 147.052C285.672 147.043 285.639 147.036 285.605 147.03C285.588 147.03 285.527 147.014 285.577 147.037C285.107 146.897 284.718 146.597 284.496 146.203C284.274 145.808 284.238 145.352 284.395 144.933C284.552 144.515 284.89 144.169 285.333 143.972C285.777 143.775 286.291 143.743 286.762 143.882L286.756 143.876Z" fill="#000072"/>
<path d="M305.727 239.161C307.432 243.454 305.645 247.928 301.736 249.153C297.827 250.379 292.78 246.634 291.075 242.34C289.371 238.046 291.657 234.828 295.565 233.603C299.472 232.378 304.023 234.867 305.727 239.161Z" fill="#000072"/>
<path d="M287.824 230.789C289.656 230.789 291.141 229.117 291.141 227.055C291.141 224.994 289.656 223.322 287.824 223.322C285.993 223.322 284.508 224.994 284.508 227.055C284.508 229.117 285.993 230.789 287.824 230.789Z" fill="#000072"/>
<path d="M295.053 226.345C297.213 226.345 298.964 224.355 298.964 221.899C298.964 219.444 297.213 217.453 295.053 217.453C292.893 217.453 291.142 219.444 291.142 221.899C291.142 224.355 292.893 226.345 295.053 226.345Z" fill="#000072"/>
<path d="M305.44 229.184C307.424 228.9 308.703 226.848 308.297 224.601C307.89 222.353 305.952 220.76 303.968 221.044C301.984 221.327 300.706 223.379 301.112 225.627C301.519 227.874 303.456 229.467 305.44 229.184Z" fill="#000072"/>
<path d="M296.591 125.515C294.895 121.665 291.26 120.095 286.208 120.194C285.983 120.196 285.76 120.244 285.558 120.334C285.356 120.423 285.18 120.552 285.041 120.711C284.903 120.87 284.807 121.054 284.76 121.25C284.713 121.446 284.717 121.65 284.771 121.844C285.239 123.515 286.391 126.066 289.16 127.088C291.234 127.848 293.548 127.914 295.673 127.274C295.867 127.217 296.045 127.125 296.197 127.004C296.35 126.883 296.472 126.735 296.558 126.571C296.644 126.406 296.691 126.228 296.697 126.046C296.703 125.865 296.666 125.684 296.591 125.515Z" fill="#000072"/>
<path d="M290.881 126.56L287.312 132.991C287.191 133.211 287.013 133.403 286.793 133.551L286.686 133.622C284.662 134.975 281.883 135.424 279.469 134.957C277.072 134.51 274.905 133.378 273.3 131.734C272.483 130.911 271.882 129.937 271.543 128.881C271.193 127.8 271.197 126.652 271.554 125.573C271.912 124.549 272.571 123.629 273.463 122.908C274.284 122.241 275.21 121.683 276.212 121.254C276.347 121.188 276.506 121.17 276.656 121.205C276.806 121.24 276.934 121.324 277.016 121.441C277.097 121.558 277.125 121.698 277.094 121.833C277.062 121.967 276.973 122.086 276.846 122.164L276.824 122.178C276.031 122.714 275.293 123.279 274.721 123.931C274.167 124.538 273.796 125.26 273.642 126.029C273.376 127.486 274.175 128.917 275.437 129.955C276.708 130.997 278.326 131.644 280.046 131.798C281.713 131.947 283.259 131.623 284.694 130.94L284.068 131.572L287.636 125.141C287.85 124.761 288.224 124.471 288.677 124.335C289.13 124.2 289.626 124.229 290.055 124.417C290.483 124.604 290.811 124.936 290.966 125.338C291.121 125.74 291.091 126.18 290.882 126.562L290.881 126.56Z" fill="#000072"/>
<path d="M279.078 133.488C272.897 145.426 287.487 146.099 289.683 138.579L279.078 133.488Z" fill="#EA4949"/>
<path d="M287.494 132.281C287.628 133.482 288.308 134.614 289.473 135.586C290.68 136.593 292.196 137.258 293.83 137.496C295.451 137.711 297.143 137.488 298.321 136.516C298.934 135.999 299.411 135.369 299.718 134.67C300.041 133.934 300.216 133.118 300.334 132.281V132.255C300.336 132.185 300.354 132.115 300.386 132.051C300.418 131.987 300.464 131.929 300.521 131.88C300.578 131.831 300.646 131.793 300.72 131.768C300.794 131.743 300.873 131.73 300.952 131.732C301.031 131.734 301.109 131.749 301.181 131.778C301.254 131.806 301.319 131.847 301.374 131.898C301.429 131.949 301.471 132.009 301.5 132.075C301.529 132.141 301.542 132.211 301.54 132.281C301.636 133.225 301.582 134.177 301.38 135.107C301.153 136.109 300.657 137.047 299.933 137.842C299.166 138.667 298.168 139.298 297.038 139.67C295.932 140.033 294.755 140.193 293.578 140.141C291.241 140.053 288.991 139.332 287.128 138.075C286.148 137.411 285.336 136.571 284.744 135.61C284.12 134.593 283.821 133.444 283.88 132.287C283.898 131.878 284.091 131.49 284.419 131.202C284.748 130.915 285.188 130.75 285.649 130.741C286.11 130.732 286.558 130.88 286.9 131.154C287.243 131.429 287.454 131.809 287.492 132.218L287.494 132.281Z" fill="#000072"/>
<path d="M282.724 145.095C280.544 145.095 278.553 144.316 277.282 142.904C276.076 141.569 274.499 138.482 277.434 132.813C277.533 132.621 277.674 132.449 277.848 132.305C278.023 132.162 278.227 132.05 278.45 131.977C278.673 131.904 278.91 131.87 279.147 131.878C279.385 131.886 279.618 131.936 279.834 132.024C280.05 132.112 280.244 132.238 280.405 132.392C280.567 132.547 280.692 132.729 280.775 132.927C280.857 133.125 280.895 133.336 280.886 133.547C280.877 133.758 280.821 133.965 280.722 134.157C279.17 137.152 278.946 139.607 280.106 140.895C280.855 141.726 282.248 142.066 283.74 141.782C284.748 141.587 285.674 141.146 286.415 140.509C287.155 139.871 287.68 139.062 287.931 138.173C288.07 137.78 288.374 137.45 288.78 137.251C289.185 137.051 289.661 136.998 290.11 137.101C290.558 137.205 290.945 137.457 291.191 137.806C291.436 138.156 291.521 138.576 291.428 138.979C291.012 140.447 290.142 141.782 288.916 142.833C287.691 143.884 286.159 144.61 284.493 144.927C283.912 145.038 283.318 145.094 282.724 145.095Z" fill="#000072"/>
<path d="M278.374 135.824C282.957 135.975 286.361 137.599 288.425 140.911L288.69 137.641L285.687 133.086L279.581 134.56" fill="#000072"/>
<path d="M357.236 147.663C357.488 147.605 357.639 147.585 357.829 147.555C358.018 147.525 358.179 147.507 358.356 147.482C358.705 147.431 359.043 147.408 359.383 147.38C359.723 147.352 360.061 147.338 360.398 147.325C360.734 147.312 361.071 147.297 361.403 147.309L362.403 147.323C362.735 147.336 363.065 147.365 363.395 147.385C364.057 147.415 364.709 147.502 365.36 147.584C367.933 147.942 370.45 148.565 372.862 149.441L374.627 150.135C375.221 150.355 375.768 150.657 376.339 150.915C377.487 151.421 378.55 152.052 379.626 152.653C380.174 152.94 380.674 153.296 381.186 153.623L382.714 154.626C383.694 155.337 384.644 156.079 385.603 156.8C385.719 156.89 385.791 157.016 385.806 157.151C385.821 157.287 385.777 157.423 385.683 157.531C385.589 157.639 385.453 157.711 385.301 157.732C385.15 157.754 384.994 157.723 384.867 157.647L384.826 157.621C383.822 156.988 382.834 156.335 381.823 155.724L380.255 154.866C379.733 154.586 379.224 154.284 378.673 154.051C377.587 153.556 376.527 153.031 375.397 152.638C374.836 152.438 374.298 152.189 373.722 152.027L372.016 151.505C369.744 150.873 367.396 150.477 365.021 150.326C364.433 150.296 363.848 150.261 363.264 150.28C362.973 150.28 362.681 150.28 362.391 150.291L361.525 150.344C361.236 150.356 360.952 150.392 360.669 150.424C360.385 150.456 360.101 150.483 359.825 150.531C359.548 150.579 359.269 150.616 359.008 150.676C358.879 150.705 358.736 150.728 358.619 150.761C358.502 150.795 358.352 150.827 358.305 150.845C357.85 151.015 357.338 151.019 356.88 150.857C356.421 150.696 356.053 150.38 355.853 149.979C355.654 149.578 355.639 149.123 355.813 148.713C355.987 148.303 356.335 147.969 356.783 147.785C356.872 147.75 356.963 147.722 357.057 147.699L357.236 147.663Z" fill="#000072"/>
<path d="M350.763 159.71C351.004 159.744 351.143 159.773 351.318 159.808C351.493 159.842 351.643 159.877 351.8 159.915C352.117 159.99 352.426 160.073 352.731 160.163C353.341 160.346 353.934 160.551 354.511 160.781C355.664 161.243 356.764 161.802 357.796 162.452C359.842 163.739 361.58 165.375 362.91 167.264C363.55 168.195 364.1 169.173 364.554 170.187C364.99 171.19 365.337 172.222 365.591 173.274C366.086 175.34 366.301 177.452 366.233 179.564C366.234 179.634 366.221 179.704 366.192 179.77C366.163 179.835 366.12 179.895 366.066 179.946C366.011 179.997 365.946 180.038 365.873 180.066C365.801 180.095 365.723 180.11 365.643 180.112C365.564 180.113 365.485 180.101 365.412 180.076C365.338 180.05 365.27 180.012 365.213 179.964C365.156 179.915 365.11 179.857 365.078 179.792C365.046 179.728 365.028 179.659 365.026 179.588C364.887 177.587 364.48 175.608 363.813 173.693C363.484 172.756 363.072 171.843 362.582 170.963C362.09 170.1 361.516 169.275 360.866 168.498C359.577 166.985 357.961 165.715 356.113 164.763C355.202 164.295 354.243 163.906 353.247 163.602C352.753 163.452 352.251 163.324 351.749 163.219C351.5 163.168 351.249 163.122 351.002 163.084C350.754 163.047 350.476 163.013 350.337 163.007C350.083 163.008 349.831 162.963 349.596 162.874C349.362 162.786 349.151 162.656 348.975 162.493C348.799 162.329 348.662 162.136 348.573 161.924C348.484 161.712 348.445 161.486 348.457 161.26C348.47 161.035 348.534 160.813 348.645 160.61C348.757 160.407 348.914 160.226 349.107 160.079C349.3 159.931 349.525 159.82 349.768 159.752C350.01 159.685 350.266 159.661 350.519 159.684C350.586 159.687 350.653 159.693 350.719 159.703L350.763 159.71Z" fill="#000072"/>
<path d="M100.812 163.664C100.554 163.694 100.406 163.727 100.216 163.758C100.027 163.789 99.87 163.831 99.6963 163.865C99.3514 163.935 99.0281 164.027 98.7013 164.115C98.3744 164.203 98.056 164.302 97.7364 164.404C97.4168 164.506 97.102 164.604 96.798 164.726L95.8778 165.074C95.5762 165.197 95.2831 165.335 94.9852 165.464C94.3822 165.714 93.8189 166.013 93.2508 166.308C91.0196 167.502 88.9525 168.923 87.0912 170.542L85.756 171.777C85.2989 172.179 84.9214 172.643 84.5016 173.073C83.6573 173.931 82.9337 174.867 82.1943 175.785C81.8096 176.235 81.496 176.727 81.1619 177.206L80.1716 178.647C79.5686 179.634 79.0029 180.638 78.4192 181.629C78.3525 181.75 78.3402 181.89 78.3847 182.02C78.4292 182.149 78.5273 182.259 78.6591 182.327C78.791 182.395 78.9469 182.416 79.0955 182.386C79.2441 182.355 79.3743 182.276 79.46 182.164L79.4866 182.128C80.1487 181.204 80.788 180.272 81.4634 179.364L82.5489 178.049C82.9107 177.613 83.2569 177.164 83.667 176.762C84.4606 175.94 85.2229 175.099 86.1009 174.356C86.5363 173.982 86.9295 173.572 87.3939 173.23L88.752 172.173C90.5884 170.828 92.5939 169.677 94.7283 168.743C95.259 168.519 95.7861 168.291 96.3349 168.113C96.6062 168.018 96.8752 167.918 97.1478 167.83L97.9728 167.59C98.2454 167.503 98.5228 167.441 98.799 167.375C99.0752 167.31 99.3514 167.239 99.6264 167.194C99.9014 167.149 100.178 167.087 100.444 167.055C100.576 167.039 100.718 167.012 100.84 167.003C100.962 166.995 101.116 166.974 101.167 166.976C101.659 166.98 102.134 166.812 102.489 166.508C102.844 166.205 103.051 165.789 103.066 165.352C103.08 164.914 102.901 164.489 102.567 164.167C102.233 163.846 101.77 163.653 101.278 163.631C101.18 163.629 101.083 163.634 100.987 163.644L100.812 163.664Z" fill="#000072"/>
<path d="M111.935 172.657C111.725 172.771 111.609 172.843 111.462 172.934C111.315 173.025 111.19 173.107 111.06 173.195C110.798 173.372 110.548 173.553 110.303 173.739C109.821 174.11 109.359 174.5 108.917 174.907C108.045 175.72 107.264 176.606 106.585 177.552C105.237 179.43 104.323 181.528 103.896 183.723C103.698 184.8 103.604 185.89 103.615 186.981C103.637 188.056 103.753 189.128 103.964 190.187C104.383 192.267 105.08 194.295 106.041 196.228C106.101 196.357 106.215 196.459 106.359 196.514C106.503 196.569 106.666 196.572 106.812 196.523C106.959 196.473 107.078 196.375 107.144 196.249C107.21 196.122 107.219 195.978 107.167 195.846C106.447 193.947 105.984 191.977 105.79 189.98C105.696 189.002 105.69 188.018 105.772 187.039C105.861 186.076 106.043 185.122 106.316 184.187C106.868 182.353 107.825 180.636 109.132 179.134C109.777 178.395 110.501 177.713 111.293 177.098C111.688 176.792 112.099 176.506 112.519 176.24C112.729 176.109 112.941 175.981 113.153 175.864C113.365 175.747 113.61 175.622 113.737 175.569C113.96 175.477 114.161 175.347 114.327 175.186C114.494 175.024 114.623 174.836 114.707 174.63C114.792 174.425 114.83 174.206 114.819 173.988C114.809 173.769 114.75 173.555 114.646 173.356C114.542 173.158 114.396 172.979 114.214 172.831C114.033 172.683 113.821 172.569 113.589 172.494C113.358 172.419 113.112 172.385 112.866 172.394C112.62 172.403 112.379 172.456 112.156 172.548C112.095 172.573 112.035 172.602 111.977 172.633L111.935 172.657Z" fill="#000072"/>
<path d="M228.324 113.906C228.47 113.714 228.565 113.611 228.685 113.477C228.806 113.343 228.913 113.235 229.028 113.114C229.252 112.87 229.49 112.655 229.725 112.434C229.96 112.213 230.208 112.005 230.449 111.801C230.69 111.596 230.931 111.387 231.194 111.2L231.958 110.626C232.217 110.442 232.486 110.27 232.75 110.09C233.271 109.726 233.825 109.409 234.377 109.091C236.579 107.856 238.936 106.852 241.399 106.101L243.242 105.592C243.852 105.409 244.488 105.317 245.108 105.177C246.348 104.885 247.616 104.739 248.871 104.563C249.496 104.455 250.133 104.431 250.763 104.38L252.657 104.241C253.921 104.204 255.184 104.207 256.442 104.188C256.602 104.18 256.759 104.228 256.879 104.322C256.999 104.417 257.072 104.55 257.082 104.692C257.092 104.834 257.037 104.974 256.931 105.08C256.825 105.187 256.675 105.252 256.515 105.26H256.466C255.239 105.368 254.015 105.461 252.799 105.589L250.99 105.862C250.387 105.956 249.784 106.027 249.194 106.172C248.012 106.434 246.823 106.66 245.682 107.03C245.112 107.208 244.522 107.335 243.969 107.551L242.298 108.155C240.12 109.008 238.061 110.083 236.162 111.359C235.698 111.681 235.231 111.996 234.806 112.352C234.591 112.525 234.367 112.693 234.158 112.87L233.545 113.417C233.335 113.595 233.148 113.788 232.959 113.978C232.769 114.167 232.574 114.355 232.406 114.553C232.239 114.751 232.044 114.942 231.899 115.139C231.823 115.237 231.731 115.338 231.668 115.431C231.605 115.524 231.515 115.637 231.493 115.677C231.389 115.876 231.241 116.055 231.059 116.204C230.877 116.352 230.664 116.467 230.432 116.542C230.2 116.617 229.953 116.651 229.706 116.642C229.459 116.632 229.217 116.579 228.993 116.487C228.769 116.394 228.568 116.263 228.401 116.101C228.234 115.939 228.104 115.75 228.02 115.543C227.935 115.337 227.897 115.118 227.908 114.899C227.919 114.679 227.978 114.464 228.082 114.265C228.123 114.187 228.171 114.111 228.225 114.04L228.324 113.906Z" fill="#000072"/>
<path d="M232.368 126.776C232.575 126.661 232.701 126.602 232.857 126.526C233.014 126.45 233.155 126.387 233.301 126.323C233.597 126.194 233.891 126.078 234.188 125.966C234.78 125.747 235.379 125.555 235.985 125.389C237.194 125.063 238.435 124.841 239.691 124.726C242.185 124.499 244.704 124.715 247.103 125.362C248.275 125.688 249.413 126.102 250.505 126.601C251.577 127.1 252.602 127.673 253.573 128.316C255.476 129.582 257.202 131.046 258.714 132.676C258.822 132.781 258.879 132.919 258.872 133.061C258.865 133.203 258.795 133.337 258.677 133.433C258.56 133.529 258.404 133.58 258.244 133.574C258.084 133.567 257.933 133.505 257.825 133.4C256.239 131.975 254.466 130.724 252.545 129.673C251.603 129.159 250.617 128.713 249.596 128.337C248.588 127.977 247.547 127.693 246.484 127.488C244.392 127.104 242.235 127.093 240.139 127.457C239.107 127.638 238.097 127.907 237.124 128.259C236.641 128.436 236.168 128.633 235.712 128.847C235.487 128.954 235.264 129.062 235.05 129.183C234.837 129.304 234.602 129.437 234.492 129.514C234.299 129.65 234.078 129.75 233.841 129.81C233.604 129.87 233.356 129.888 233.112 129.863C232.867 129.837 232.631 129.77 232.415 129.663C232.2 129.557 232.011 129.414 231.858 129.242C231.705 129.071 231.592 128.874 231.525 128.664C231.457 128.453 231.437 128.233 231.466 128.016C231.494 127.798 231.57 127.588 231.69 127.397C231.81 127.206 231.971 127.038 232.164 126.902C232.216 126.864 232.271 126.828 232.328 126.795L232.368 126.776Z" fill="#000072"/>
<g opacity="0.3">
<path d="M166.46 230.058C162.823 245.219 151.661 242.743 135.945 229.613C135.824 229.506 135.686 229.399 135.553 229.281V238.027C110.225 244.362 100.123 219.174 100.123 219.174L110.749 211.66C107.541 191.515 117.757 181.954 126.037 177.592C117.956 178.608 109.135 178.428 99.9267 177.633H99.9508C99.7136 181.513 99.185 185.375 98.3684 189.192C97.8286 191.761 97.0044 194.276 95.9079 196.7L91.1015 207.371C88.0862 214.059 87.2419 221.412 88.9787 228.454C91.2342 237.628 96.909 243.518 104.652 247.409C110.261 250.227 116.576 251.696 123 251.911C122.714 251.916 122.423 251.92 122.141 251.927C124.776 251.868 127.581 251.825 130.282 252.018C132.869 252.2 135.36 252.591 137.519 253.39C144.756 256.069 155.309 262.5 164.808 241.867C165.254 240.897 165.652 239.949 165.996 239.032C166.445 236.059 166.601 233.056 166.46 230.058Z" fill="#000072"/>
</g>
<g opacity="0.3">
<path d="M173.394 165.854C173.177 179.632 160.267 186.732 139.924 189.92C139.924 189.92 118.198 193.627 121.371 199.664C143.3 201.394 163.586 199.69 176.597 182.76C176.597 182.76 181.535 171.557 173.394 165.854Z" fill="#000072"/>
</g>
<g opacity="0.3">
<path d="M121.365 199.662C121.365 199.662 135.998 212.172 152.884 204.515L149.562 198.873L139.767 200.196" fill="#000072"/>
</g>
<g opacity="0.3">
<path d="M301.906 257.096C302.757 257.004 303.597 256.847 304.417 256.626C308.138 255.624 311.581 253.764 314.554 250.452C315.073 250.436 315.58 250.415 316.086 250.372C326.929 249.659 334.98 244.637 338.574 232.756C340.595 226.084 340.625 219.058 338.918 212.322C335.719 199.747 331.487 187.063 335.797 175.584H335.805C332.505 176.329 329.023 176.756 326.139 176.991C322.418 177.302 319.705 177.312 319.705 177.312C313.897 187.945 308.023 187.757 297.391 180.817C286.759 173.877 282.273 153.223 282.273 153.223C282.273 153.223 279.499 152.124 277.454 152.971C276.767 153.255 276.164 153.764 275.784 154.605C275.349 155.559 275.193 156.953 275.518 158.952C276.459 164.772 277.961 167.419 278.365 170.731C278.588 172.516 278.485 174.499 277.81 177.269C277.81 177.28 277.81 177.291 277.81 177.302C275.699 191.648 267.558 207.324 251.691 220.116C252.705 219.918 253.983 219.5 255.569 218.83C272.28 211.723 279.143 200.276 281.802 193.77C285.595 197.323 291.077 200.7 297.982 200.26C312.058 199.371 311.051 203.61 311.051 203.61C313.924 203.333 316.825 203.356 319.692 203.679C322.346 203.974 325.283 204.58 327.991 205.748C335.933 218.562 326.616 238.798 316.189 228.401C315.238 227.425 314.391 226.374 313.656 225.261C305.605 246.258 294.816 245.931 282.019 229.918L282.224 236.52C284.088 243.83 288.357 250.792 295.238 254.892C297.449 256.215 300.013 257 302.672 257.167C302.41 257.146 302.155 257.123 301.906 257.096Z" fill="#000072"/>
</g>
</svg>
