<svg width="31" height="14" viewBox="0 0 31 14" fill="none" xmlns="http://www.w3.org/2000/svg">
<g clip-path="url(#clip0_446_14656)">
<path d="M3.68777 11.8451C2.78922 8.04637 10.1733 3.6813 10.6515 7.81154C10.8544 9.55895 12.9269 10.1046 14.0284 8.6818C15.7892 6.41638 18.0428 4.14405 21.0718 3.59151C23.8327 3.08732 26.724 4.30291 27.4486 7.03799C28.0139 9.19289 31.5139 8.2812 30.9414 6.11939C29.9414 2.3552 26.2747 0 22.2457 0C17.3399 0 13.6226 3.42575 10.8907 6.94129C12.0139 7.23138 13.1443 7.52146 14.2675 7.81154C13.1226 -2.11347 -1.8702 4.07499 0.195019 12.7637C0.709511 14.9324 4.20226 14.0138 3.68777 11.8451Z" fill="white"/>
</g>
<defs>
<clipPath id="clip0_446_14656">
<rect width="31" height="14" fill="white"/>
</clipPath>
</defs>
</svg>
