<svg width="60" height="60" viewBox="0 0 60 60" fill="none" xmlns="http://www.w3.org/2000/svg">
<rect width="60" height="60" rx="30" fill="white"/>
<path d="M11.862 46.8373C11.9693 45.4411 12.1804 44.0535 12.494 42.6842L12.5107 42.6042C12.5107 42.5273 12.534 42.4873 12.5539 42.4104C11.2163 43.1506 9.8273 43.8083 8.39602 44.3793C8.30056 44.3508 8.21232 44.3047 8.13656 44.2439C7.82625 44.0506 7.55117 43.8128 7.32162 43.5395C7.29876 43.5042 7.27201 43.4712 7.24179 43.441C7.21185 43.3918 7.19522 43.3703 7.16195 43.3241C7.10125 43.2609 7.06498 43.1808 7.05884 43.0965C7.06925 43.0657 7.08645 43.0372 7.10935 43.0128C7.13225 42.9885 7.16035 42.9688 7.19189 42.955C8.62975 42.4874 10.0322 41.9314 11.3897 41.2907C11.7279 41.1091 12.0766 40.9448 12.4342 40.7984L12.993 40.5154H13.0961C13.1892 40.4877 13.3323 40.537 13.5252 40.6415C13.5984 40.6815 13.6782 40.7246 13.7547 40.7738L14.0574 40.9953C14.1185 41.0465 14.1762 41.1009 14.2304 41.1584C14.3508 41.2479 14.4294 41.3767 14.4499 41.5183C14.4393 41.6072 14.4237 41.6955 14.4033 41.7829C14.3701 41.9367 14.3268 42.152 14.267 42.3981C14.2071 42.6442 14.1905 42.7765 14.1439 43.0319C14.0042 43.6963 13.941 44.0317 13.8345 44.7085C13.7281 45.3853 13.6716 45.939 13.6117 46.4066C13.5518 46.8742 13.5285 47.0988 13.4853 47.5664C13.4853 47.671 13.2657 47.6402 12.82 47.4495C12.457 47.3112 12.1303 47.1025 11.862 46.8373ZM7.45467 43.118C7.81107 43.1059 8.16049 43.023 8.47918 42.875C8.68541 42.7981 8.93488 42.6996 9.2276 42.5673L9.63341 42.3889L10.0326 42.2074C10.7184 41.8867 11.3847 41.5314 12.0284 41.143C10.557 41.902 9.02851 42.562 7.45467 43.118ZM12.6803 42.6319C12.514 43.3764 12.4408 43.7517 12.3144 44.5116C12.3943 44.2409 12.4741 43.9455 12.5506 43.6287C12.6836 43.0349 12.7202 42.7088 12.6803 42.6319Z" fill="#308085"/>
<path d="M19.619 47.6253C19.6868 47.669 19.7371 47.7322 19.7618 47.8052C19.7864 47.8782 19.7842 47.9566 19.7554 48.0283C19.5573 48.2816 19.3235 48.5092 19.0602 48.7051C18.4754 49.1339 17.7393 49.3466 16.9945 49.3019C16.9082 49.4716 16.8337 49.6463 16.7717 49.8249C16.6719 50.114 16.5854 50.3878 16.4823 50.6032C16.3781 50.8314 16.2188 51.0345 16.0166 51.1969C15.8921 51.2906 15.7482 51.3596 15.5937 51.3999C15.4392 51.4401 15.2775 51.4506 15.1185 51.4307C14.6282 51.378 14.1531 51.2402 13.7181 51.0246C13.2732 50.8156 12.8793 50.5245 12.5605 50.1694C12.359 49.9661 12.2413 49.7036 12.2279 49.428C12.2521 49.1999 12.3149 48.9767 12.4142 48.7666V48.7482C12.5085 48.5775 12.6479 48.4316 12.8194 48.324C12.991 48.2165 13.1891 48.1507 13.3954 48.1329C13.8182 48.0901 14.2459 48.1321 14.6495 48.2559C14.0241 47.9237 13.7114 47.5761 13.6981 47.2469C13.6919 47.0573 13.7365 46.8692 13.8279 46.6993C13.9642 46.4471 14.0973 46.1702 14.247 45.9118C14.3967 45.6534 14.563 45.3888 14.7692 45.075L15.3181 44.2536C15.358 44.1952 15.4611 44.1983 15.6507 44.2536C15.7125 44.28 15.7724 44.3098 15.8303 44.3428L16.0631 44.469C16.1252 44.5017 16.1851 44.5376 16.2428 44.5766C16.3758 44.6812 16.4257 44.7612 16.3891 44.8228C15.99 45.4811 15.6939 45.9764 15.501 46.3148C15.4611 46.3886 15.4411 46.4255 15.4045 46.5024L15.2981 46.6747C15.2282 46.8131 15.1684 46.9362 15.1251 47.0469V47.0654C15.0553 47.4653 15.1451 47.7391 15.3779 47.8806C15.6108 48.0221 16.1796 47.8806 16.4889 47.4161C16.7983 46.9516 17.0976 46.1856 17.4868 45.4719C17.5201 45.4103 17.6232 45.4042 17.7962 45.4534C17.8602 45.4735 17.9225 45.4982 17.9824 45.5272L18.2253 45.6318C18.2885 45.6626 18.3483 45.6903 18.4016 45.721C18.5446 45.8133 18.6011 45.8902 18.5679 45.9518C18.3749 46.3486 18.1521 46.8193 17.9026 47.3638C17.7795 47.6499 17.7197 47.7945 17.5999 48.0806C17.4802 48.3667 17.407 48.5144 17.2673 48.8035C17.5808 48.7358 17.8862 48.6389 18.1787 48.5144C18.3937 48.3987 18.5935 48.2603 18.7741 48.1021C19.0086 47.91 19.2204 47.6955 19.4061 47.4622C19.4853 47.5066 19.5571 47.5616 19.619 47.6253ZM14.257 46.3332L14.4432 46.0717L14.6162 45.8318C14.9421 45.3881 15.1995 44.9045 15.3813 44.3951C14.7559 45.3919 14.4466 45.8902 13.8245 46.89C13.9742 46.7208 14.1106 46.5363 14.257 46.3332ZM13.4952 48.4282C13.6707 48.3982 13.849 48.3848 14.0274 48.3882C14.1863 48.3956 14.3426 48.4279 14.4898 48.4836C14.3012 48.3881 14.093 48.3302 13.8787 48.3138C13.6644 48.2974 13.4488 48.3227 13.2458 48.3882C13.0717 48.4497 12.9089 48.5359 12.7634 48.6436C12.996 48.5422 13.2421 48.4698 13.4952 48.4282ZM15.491 49.3511L15.5975 49.0865C15.1699 48.9501 14.7109 48.9204 14.2669 49.0004C14.0238 49.0596 13.8093 49.1929 13.6582 49.3788L13.5983 49.5388L13.5418 49.6987C13.5058 49.8063 13.4889 49.9185 13.4919 50.031C13.5107 50.2576 13.6226 50.469 13.8046 50.6216C13.8046 50.6216 13.8046 50.6216 13.8279 50.6462C13.8511 50.6709 13.8678 50.6893 13.8744 50.6955C13.8854 50.7 13.8947 50.7075 13.901 50.717H13.9543L13.9842 50.7324H14.0208H14.0541H14.0873H14.1073C14.1257 50.7272 14.1454 50.7272 14.1638 50.7324H14.2037C14.2303 50.7324 14.2403 50.7324 14.2303 50.7478C14.3593 50.7405 14.4852 50.708 14.5996 50.6524C14.84 50.5284 15.0286 50.3334 15.1351 50.0987C15.2674 49.8605 15.3807 49.6137 15.4744 49.3603L15.491 49.3511ZM15.491 48.0037C15.3905 47.9888 15.2937 47.9575 15.205 47.9114C15.1207 47.8739 15.0459 47.8205 14.9854 47.7545C15.0461 47.8603 15.1416 47.9454 15.2582 47.9975C15.356 48.0356 15.4614 48.0545 15.5675 48.0529C15.6827 48.0522 15.7962 48.028 15.9002 47.9821C15.7669 48.0151 15.6283 48.0255 15.491 48.0129V48.0037ZM14.227 50.9693C14.3564 50.9717 14.4848 50.9475 14.6029 50.8985C14.4531 50.9213 14.3003 50.9213 14.1505 50.8985C14.0402 50.8781 13.9338 50.8428 13.8345 50.7939C13.742 50.7519 13.6586 50.6945 13.5884 50.6247C13.6446 50.7359 13.7354 50.8289 13.8492 50.892C13.963 50.955 14.0946 50.9851 14.227 50.9785V50.9693ZM16.9845 46.9362C17.4136 46.2871 17.6199 45.8441 17.6132 45.6103C17.0943 46.5332 16.8349 46.9793 16.3126 47.8899C16.5821 47.5176 16.7118 47.3269 16.9845 46.9454V46.9362ZM17.6897 48.8035C17.8292 48.7661 17.965 48.7178 18.0955 48.6589C17.723 48.7728 17.5334 48.8251 17.1542 48.9266C17.3405 48.9338 17.5255 48.8945 17.6897 48.8128V48.8035Z" fill="#308085"/>
<path d="M24.695 49.1289C24.715 49.196 24.724 49.2655 24.7216 49.335C24.2027 50.1687 23.6937 50.6917 23.2214 50.9101C22.7841 51.0794 22.3014 51.1213 21.8377 51.0301C21.7291 51.0074 21.6241 50.9723 21.525 50.9255C21.4301 50.8846 21.3399 50.8352 21.2556 50.7778L21.1258 50.6886L20.9828 50.5963C20.9495 50.5502 20.9296 50.5286 20.8963 50.4856C20.8717 50.4722 20.8502 50.4544 20.8331 50.4333C20.6901 50.1103 20.5337 49.7657 20.3674 49.3996C20.2776 49.2089 20.231 49.1135 20.1446 48.9228C20.1013 48.8243 20.0814 48.7782 20.0414 48.6798C20.0015 48.5813 19.9683 48.529 19.925 48.4306C19.8834 48.4388 19.8403 48.4388 19.7986 48.4306L19.1167 50.1379C19.0934 50.2025 18.9837 50.2179 18.7841 50.181L18.5479 50.1195L18.2619 50.0149L18.059 49.9164C17.8793 49.8211 17.8062 49.7411 17.8361 49.6765C18.7276 47.8307 19.1666 46.9078 20.0448 45.0343C20.0747 44.9697 20.1712 44.9543 20.3408 44.9882C20.4026 45.0005 20.4637 45.0159 20.5238 45.0343L20.7599 45.1174L20.9429 45.2035C21.0793 45.2804 21.1391 45.3512 21.1125 45.4158C20.7134 46.311 20.5105 46.7601 20.1146 47.6523C20.7241 47.4613 21.3196 47.2342 21.8975 46.9724C22.015 46.9295 22.1438 46.9209 22.2668 46.9478C22.3937 46.9671 22.517 47.0034 22.6326 47.0554H22.6692L22.7424 47.0862L22.8954 47.1693C23.0185 47.2431 23.0451 47.2985 22.9686 47.3385C22.3072 47.6753 21.6148 47.9573 20.8996 48.1814L20.9196 48.2091C21.1857 48.8243 21.4219 49.3012 21.5849 49.615C21.6498 49.7345 21.7254 49.8487 21.811 49.9564C21.8762 50.0538 21.9619 50.1381 22.0631 50.2042C22.1642 50.2702 22.2788 50.3168 22.3998 50.341H22.443C22.7099 50.3221 22.9651 50.2323 23.1782 50.0826C23.393 49.9336 23.5855 49.7587 23.7503 49.5627C23.8201 49.4704 23.9 49.3781 23.9598 49.2889C24.0197 49.1997 24.063 49.1227 24.1195 49.0428L24.1694 48.9474C24.186 48.9261 24.2005 48.9034 24.2126 48.8797L24.2426 48.8213C24.3415 48.8284 24.4363 48.8611 24.5162 48.9154C24.5961 48.9698 24.6581 49.0437 24.695 49.1289ZM19.1999 47.3385C19.3961 47.0308 19.5824 46.6955 19.7587 46.3602C20.0913 45.6834 20.2377 45.2866 20.1479 45.1727L19.1999 47.3385ZM20.231 47.7599C20.5105 47.7046 20.7998 47.6369 21.0992 47.5538C21.668 47.3877 21.9607 47.2277 21.994 47.1016C21.3121 47.3846 20.9595 47.5169 20.2344 47.7599H20.231ZM22.3067 50.5286C22.4084 50.5511 22.5143 50.5511 22.616 50.5286C22.7304 50.5037 22.8372 50.4553 22.9287 50.3871C22.8053 50.4469 22.6712 50.4855 22.5329 50.5009C22.4319 50.5061 22.3307 50.4957 22.2335 50.4702C22.1442 50.4523 22.0602 50.4166 21.9873 50.3656C22.0699 50.4566 22.1838 50.5185 22.31 50.5409L22.3067 50.5286Z" fill="#308085"/>
<path d="M27.9713 49.8216C27.9449 50.1753 27.8225 50.517 27.6154 50.8153C27.401 51.1437 27.0617 51.3862 26.6641 51.4951C25.9444 51.6792 25.1765 51.6101 24.5086 51.3013C24.305 51.2253 24.1209 51.1107 23.968 50.9651C23.815 50.8194 23.6967 50.6458 23.6205 50.4553C23.4911 50.1171 23.4829 49.7492 23.5972 49.4063C23.6986 49.0744 23.8859 48.7704 24.1427 48.5203C24.4249 48.2468 24.8119 48.0866 25.2204 48.0743C25.3996 48.0734 25.5786 48.0847 25.756 48.1081C25.8657 48.1081 26.0088 48.1081 26.1285 48.1327C26.4036 48.1624 26.6738 48.2223 26.9335 48.3111C27.222 48.4078 27.4739 48.5798 27.6586 48.8064C27.8853 49.1018 27.9956 49.4601 27.9713 49.8216ZM24.8013 48.3696C24.9275 48.315 25.0605 48.2747 25.1972 48.2496L25.3668 48.225C25.4093 48.2211 25.4515 48.2149 25.4932 48.2065H25.5464H25.5863H25.6163C25.2945 48.1428 24.9586 48.1992 24.6816 48.3634C24.5705 48.4378 24.4709 48.5257 24.3855 48.6249C24.511 48.5245 24.6509 48.4406 24.8013 48.3757V48.3696ZM26.7106 49.5417C26.7175 49.4209 26.7063 49.2997 26.6774 49.1817L26.6341 49.0925C26.4379 48.6003 26.1651 48.4096 25.7926 48.5142C25.5942 48.5799 25.4136 48.6849 25.2637 48.8218C25.0743 49.0104 24.9339 49.2364 24.8532 49.4827C24.7725 49.729 24.7536 49.989 24.798 50.2431C24.8449 50.5011 24.9959 50.7331 25.2204 50.8922C25.3461 50.972 25.4942 51.0162 25.6466 51.0195C25.799 51.0228 25.9491 50.985 26.0786 50.9106C26.2094 50.8125 26.3218 50.695 26.4113 50.563C26.6128 50.2576 26.7166 49.9056 26.7106 49.5478V49.5417ZM25.6595 51.206C25.7585 51.2107 25.8574 51.195 25.9489 51.1598C26.0603 51.1251 26.1616 51.0672 26.2449 50.9906C26.1289 51.0601 26.0006 51.1101 25.8657 51.1383C25.7711 51.1537 25.6743 51.1537 25.5797 51.1383C25.4893 51.1281 25.4021 51.1009 25.3236 51.0583C25.4153 51.1398 25.5332 51.1916 25.6595 51.206Z" fill="#308085"/>
<path d="M34.1316 51.3592C34.0884 51.4146 34.0452 51.4638 34.0019 51.51C33.6595 51.7836 33.2369 51.9571 32.7878 52.0083C32.688 52.0083 32.5849 52.0391 32.4884 52.0452C32.3634 52.056 32.2376 52.056 32.1126 52.0452C31.8256 52.0372 31.5468 51.9552 31.3076 51.8084C31.0655 51.9246 30.8031 52.0007 30.5326 52.0329C30.1503 52.0901 29.7606 52.0901 29.3783 52.0329C29.1985 52.0232 29.0232 51.9768 28.8651 51.897C28.7069 51.8172 28.5698 51.7061 28.4636 51.5715C28.3617 51.4067 28.3089 51.2199 28.3106 51.03C28.3106 50.4148 28.3106 50.1318 28.3106 49.5319C28.3106 49.4642 28.4137 49.4211 28.5966 49.4057C28.6521 49.4057 28.7219 49.4057 28.8062 49.4057H29.079C29.1525 49.408 29.2258 49.4142 29.2985 49.4242C29.4715 49.4611 29.558 49.5103 29.5546 49.5811C29.5546 50.061 29.5546 50.304 29.5812 50.787V50.8086C29.7043 51.2054 29.9139 51.4238 30.1933 51.4238C30.4727 51.4238 30.7854 51.1162 30.9484 50.4794V50.2302C30.9433 50.1369 30.9433 50.0435 30.9484 49.9503C30.965 49.7805 30.9717 49.61 30.9683 49.4396V48.9412C30.9683 48.8182 30.9683 48.6982 30.9683 48.5782C30.9683 48.4582 30.9683 48.3444 30.9683 48.2244C30.9683 48.1568 31.0548 48.1075 31.2278 48.0768C31.2927 48.0654 31.3582 48.0572 31.424 48.0522H31.6835H31.893C32.0627 48.0737 32.1458 48.1168 32.1525 48.1875V48.4152V48.4982V48.5905C32.1425 48.7185 32.1425 48.847 32.1525 48.9751C32.1525 49.3135 32.1758 49.5903 32.1824 49.7626C32.1907 50.1252 32.2397 50.4861 32.3288 50.8393C32.4053 51.147 32.4984 51.3192 32.6049 51.3131C32.6389 51.3069 32.6739 51.3069 32.708 51.3131C32.7218 51.3184 32.7374 51.3184 32.7512 51.3131C33.038 51.2608 33.2958 51.1171 33.4797 50.907C33.6562 50.7112 33.7987 50.4911 33.9021 50.2548C33.8622 49.9872 33.8289 49.7503 33.7924 49.5534C33.7292 49.1812 33.656 48.6797 33.5861 48.0583C33.5861 47.9906 33.6593 47.9353 33.8289 47.8891L34.0219 47.8491L34.2813 47.8184H34.4909C34.6594 47.8184 34.7492 47.8553 34.7603 47.9291L34.9832 49.3596C35.0264 49.6888 35.0896 50.1379 35.1794 50.707V50.7378L35.2027 50.787C35.2263 50.8289 35.2566 50.8673 35.2925 50.9008C35.3423 50.9502 35.407 50.9846 35.4782 50.9994C35.5494 51.0142 35.6238 51.0088 35.6917 50.9839C35.7079 50.9822 35.723 50.9757 35.7349 50.9654C35.9963 50.8596 36.2093 50.6724 36.337 50.4363C36.4697 50.2179 36.5704 49.9841 36.6364 49.7411C36.663 49.6365 36.6929 49.5226 36.7095 49.4088C36.7262 49.295 36.7295 49.2212 36.7461 49.1258C36.7461 49.0981 36.7461 49.0673 36.7461 49.0304V48.9443C36.7435 48.9259 36.7435 48.9073 36.7461 48.8889C36.8346 48.8618 36.9293 48.8569 37.0204 48.8747C37.1116 48.8925 37.196 48.9325 37.265 48.9904C37.3145 49.0434 37.3539 49.1037 37.3814 49.1689C37.265 50.1225 37.0488 50.7809 36.7162 51.1377C36.4008 51.4379 35.9932 51.6409 35.5486 51.7192C35.43 51.742 35.3101 51.7584 35.1894 51.7684C35.1296 51.7732 35.0695 51.7732 35.0098 51.7684C34.9478 51.7719 34.8855 51.7719 34.8235 51.7684C34.7492 51.7622 34.6763 51.7456 34.6073 51.7192L34.5142 51.6976C34.3501 51.6266 34.2157 51.5077 34.1316 51.3592ZM30.2232 51.5623C30.3273 51.5551 30.4284 51.5267 30.5193 51.4792C30.6233 51.4295 30.7142 51.3591 30.7854 51.2731C30.6813 51.3574 30.5619 51.4241 30.4328 51.47C30.3371 51.4977 30.237 51.5102 30.1367 51.5069C30.0465 51.5101 29.9566 51.4944 29.874 51.4607C29.9759 51.5268 30.0989 51.5593 30.2232 51.553V51.5623ZM31.2211 49.7503C31.281 48.9751 31.2477 48.4921 31.1413 48.2983C31.1413 49.3319 31.118 49.8364 31.1014 50.8855C31.138 50.4363 31.1612 50.1964 31.2078 49.7411L31.2211 49.7503ZM32.8543 51.4946C32.9566 51.4804 33.0542 51.4458 33.1404 51.3931C33.2398 51.3351 33.3239 51.2573 33.3865 51.1654C33.2913 51.2583 33.1786 51.3344 33.0539 51.39C32.9613 51.4232 32.8637 51.4429 32.7645 51.4484C32.6738 51.4559 32.5824 51.4476 32.4951 51.4238C32.6008 51.4769 32.7216 51.4984 32.841 51.4854L32.8543 51.4946ZM34.1316 49.2058C34.1084 48.5413 34.0086 48.1598 33.8556 48.0614C33.962 48.9135 34.0185 49.3381 34.125 50.1871C34.1383 49.8211 34.1416 49.4888 34.1316 49.2058ZM35.7316 51.1746C35.8304 51.1506 35.923 51.1088 36.0044 51.0516C36.0963 50.9847 36.1721 50.9009 36.2272 50.8055C36.1401 50.9053 36.0342 50.9898 35.9145 51.0547C35.8243 51.0955 35.7278 51.1235 35.6285 51.1377C35.5396 51.1547 35.4479 51.1547 35.359 51.1377C35.4762 51.1856 35.6071 51.1964 35.7316 51.1685V51.1746Z" fill="#308085"/>
<path d="M40.6346 48.4102C40.7659 48.7437 40.8025 49.1028 40.7411 49.4531C40.688 49.8373 40.4801 50.1889 40.159 50.4375C39.5759 50.8732 38.8384 51.0925 38.09 51.0528C37.8705 51.0582 37.6522 51.0214 37.4489 50.9446C37.2456 50.8678 37.0618 50.7527 36.9092 50.6067C36.6431 50.3461 36.4761 50.0124 36.4335 49.6561C36.3796 49.3143 36.4184 48.9654 36.5466 48.6409C36.6842 48.2866 36.9675 47.997 37.3349 47.8349C37.4995 47.7671 37.6697 47.7115 37.8439 47.6688C37.9503 47.635 38.08 47.5827 38.1964 47.5519C38.4633 47.4754 38.7392 47.4289 39.018 47.4135C39.3246 47.3944 39.6306 47.4575 39.8995 47.595C40.2383 47.7808 40.4978 48.0686 40.6346 48.4102ZM37.0855 48.2595C37.1758 48.162 37.2798 48.0761 37.3948 48.0041L37.5412 47.918L37.6476 47.8534L37.6975 47.8288H37.7341L37.7574 47.8103C37.438 47.8674 37.1552 48.0374 36.969 48.2841C36.9004 48.3941 36.8478 48.512 36.8127 48.6348C36.8831 48.4979 36.975 48.3715 37.0855 48.2595ZM39.3507 48.6256C39.3016 48.5161 39.2379 48.4127 39.1611 48.3179L39.0846 48.2533C38.6854 47.8749 38.3528 47.8042 38.0567 48.038C37.9032 48.1714 37.7829 48.3341 37.7042 48.5148C37.6126 48.7576 37.5821 49.0165 37.615 49.2718C37.6478 49.5272 37.7432 49.7722 37.8938 49.9884C38.0481 50.2063 38.2857 50.3623 38.559 50.4252C38.7096 50.452 38.8653 50.4372 39.0067 50.3824C39.1482 50.3277 39.269 50.2356 39.354 50.1176C39.4328 49.9802 39.4856 49.8314 39.5103 49.6777C39.5654 49.3201 39.51 48.9553 39.3507 48.6256ZM39.1045 50.5329C39.1968 50.5001 39.2807 50.4498 39.3507 50.3852C39.437 50.3108 39.5041 50.2193 39.5469 50.1176C39.4711 50.2246 39.3754 50.3183 39.2642 50.3944C39.1846 50.4451 39.0955 50.4816 39.0014 50.5021C38.9145 50.528 38.8224 50.5354 38.732 50.5237C38.8519 50.5633 38.9825 50.5665 39.1045 50.5329Z" fill="#308085"/>
<path d="M45.3181 47.0836C45.4512 47.4155 45.5024 47.7708 45.4677 48.1234C45.4383 48.3294 45.3601 48.5269 45.2388 48.7018C45.1175 48.8767 44.9561 49.0248 44.7659 49.1355C44.2202 49.4868 43.5591 49.651 42.8965 49.6C43.3821 50.7198 43.6216 51.2797 44.1073 52.3995C44.1339 52.4641 44.0441 52.5379 43.8678 52.6333C43.7894 52.6739 43.7083 52.7099 43.625 52.7409L43.3123 52.8486C43.2352 52.8766 43.1548 52.8962 43.0728 52.9071C42.8566 52.9594 42.7402 52.9501 42.7102 52.8824L40.3818 46.8005C40.3552 46.7329 40.4217 46.6621 40.5781 46.579C40.6246 46.5544 40.6845 46.5298 40.7577 46.496L41.0072 46.4098L41.2134 46.3575C41.383 46.3268 41.4795 46.3575 41.5061 46.4068L41.566 46.5421C41.6784 46.3879 41.8114 46.2473 41.9618 46.1237C42.2345 45.9037 42.5493 45.7326 42.8899 45.6192C43.2132 45.4884 43.5732 45.4561 43.9177 45.5269C44.2771 45.6314 44.5855 45.8491 44.7892 46.1422C45.0131 46.4311 45.1912 46.7481 45.3181 47.0836ZM41.9186 49.9692C41.7922 49.4585 41.6392 48.9386 41.4595 48.4095C41.1069 47.3697 40.8375 46.8251 40.6612 46.7636L41.9186 49.9692ZM41.8554 46.4837C41.8089 46.6026 41.7799 46.7268 41.7689 46.8528C41.8118 46.7048 41.8767 46.5629 41.9618 46.4314C42.0341 46.3201 42.1201 46.2169 42.2179 46.1237L42.3443 46.0161C42.3777 45.9907 42.4089 45.963 42.4375 45.933L42.4807 45.9053H42.5173L42.5373 45.8869C42.231 45.9943 41.9826 46.2086 41.8454 46.4837H41.8554ZM43.4952 46.4406C43.4703 46.4174 43.447 46.3927 43.4254 46.3668L43.3688 46.3114C43.2856 46.2361 43.1754 46.1914 43.0591 46.1857C42.9428 46.1801 42.8282 46.2138 42.7368 46.2806C42.6382 46.3541 42.5539 46.4425 42.4874 46.5421L42.4042 46.7206C42.2127 47.0826 42.1782 47.4986 42.3077 47.8834C42.3791 48.0169 42.4661 48.1428 42.5672 48.2587C42.6677 48.3809 42.7789 48.4951 42.8998 48.6002C43.021 48.6859 43.1603 48.7472 43.3087 48.7801C43.4571 48.8129 43.6113 48.8166 43.7613 48.7909C44.094 48.7171 44.247 48.4833 44.2403 48.0741C44.1993 47.8052 44.1233 47.5418 44.0141 47.2897C43.8983 46.977 43.7188 46.6877 43.4853 46.4375L43.4952 46.4406ZM43.9343 48.9386C44.0282 48.8918 44.1099 48.8267 44.1738 48.7479C44.2455 48.6613 44.2965 48.5617 44.3235 48.4556C44.2648 48.5701 44.1849 48.6742 44.0873 48.7632C44.0112 48.8258 43.9247 48.8767 43.8312 48.914C43.7484 48.9522 43.6576 48.9732 43.5651 48.9755C43.6861 48.9986 43.8118 48.9856 43.9243 48.9386H43.9343Z" fill="#308085"/>
<path d="M48.2386 45.6033C48.2393 45.4631 48.2271 45.3231 48.202 45.1849C48.1862 45.0729 48.1628 44.962 48.1322 44.8527C48.1089 44.7665 48.0756 44.6712 48.0523 44.5758L48.0191 44.4835L48.0024 44.4435V44.4004L47.9825 44.3512C48.0534 44.2909 48.1403 44.2491 48.2345 44.2302C48.3286 44.2113 48.4265 44.2159 48.518 44.2435C48.5853 44.2746 48.647 44.315 48.701 44.3635C48.9904 45.2864 49.0536 45.9847 48.9105 46.4339C48.71 46.8721 48.3986 47.2593 48.0024 47.5629C47.8961 47.6293 47.785 47.6889 47.6698 47.7413C47.6168 47.7721 47.5612 47.7988 47.5035 47.8213C47.4462 47.8443 47.3873 47.8638 47.3272 47.8798C47.2546 47.9036 47.1781 47.9161 47.101 47.9167H47.0045C46.8483 47.9132 46.6957 47.8718 46.562 47.7968C46.4284 47.7218 46.3183 47.6157 46.2428 47.4891C45.9102 46.9415 45.6474 46.4985 45.4279 46.1724C45.2083 45.8463 44.9323 45.4156 44.6063 44.868C44.573 44.8096 44.6262 44.7265 44.7659 44.6219L44.9323 44.5112L45.1651 44.3881L45.3613 44.3051C45.5243 44.2497 45.6241 44.2497 45.664 44.3051L46.499 45.5879C46.5498 45.5338 46.6121 45.4899 46.6819 45.4587C46.7305 45.4155 46.784 45.3774 46.8416 45.3449C46.9569 45.2723 47.0822 45.2144 47.2141 45.1726C47.373 45.1249 47.5442 45.1249 47.7031 45.1726C47.9109 45.2438 48.0898 45.3728 48.2153 45.5418L48.2386 45.6033ZM45.5776 45.7663C45.2782 45.1511 45.0254 44.8434 44.8424 44.8127C45.2981 45.5571 45.5243 45.9294 45.9834 46.6738C45.8437 46.3355 45.7073 46.0278 45.5776 45.7663ZM47.7297 45.9847C47.6956 45.9369 47.6501 45.8969 47.5966 45.8678L47.56 45.8402C47.3172 45.7263 47.1443 45.7479 47.0312 45.9017C46.978 45.9824 46.944 46.0725 46.9314 46.1663C46.925 46.284 46.9496 46.4015 47.0028 46.5086C47.0561 46.6157 47.1366 46.7093 47.2374 46.7815C47.3472 46.8574 47.4833 46.8935 47.6199 46.883C47.6952 46.8778 47.7671 46.8518 47.8264 46.8085C47.8856 46.7652 47.9296 46.7065 47.9525 46.64C47.9725 46.5684 47.9725 46.4932 47.9525 46.4216C47.9281 46.2584 47.8503 46.106 47.7297 45.9847ZM47.9126 46.9846C48.0288 46.8829 48.1157 46.756 48.1654 46.6154C48.2247 46.5213 48.2611 46.4163 48.2719 46.3078C48.2096 46.4787 48.1317 46.6444 48.039 46.8031C47.972 46.8751 47.8935 46.9374 47.8062 46.9876C47.7273 47.0355 47.6392 47.0689 47.5467 47.0861C47.6772 47.0884 47.8051 47.0529 47.9126 46.9846Z" fill="#308085"/>
<path d="M52.0572 41.4322C52.1256 41.386 52.2105 41.3657 52.2946 41.3754C52.3787 41.3851 52.4555 41.4242 52.5096 41.4845C52.7574 41.8819 52.9028 42.3267 52.9345 42.7845C52.9662 43.2423 52.8834 43.7006 52.6925 44.124C52.4196 44.6845 51.9917 45.1684 51.4518 45.5268L51.4285 45.5453C50.4539 46.259 49.6523 46.3974 49.1001 46.0467C48.6689 45.7355 48.3405 45.3188 48.1521 44.8439C47.9374 44.4122 47.8746 43.9291 47.9725 43.4626C48.0299 43.1724 48.17 42.9016 48.3783 42.6781C48.7102 42.274 49.1587 41.9648 49.6722 41.786C49.9831 41.7025 50.3168 41.7333 50.6036 41.8721C50.9861 42.026 51.1558 42.2536 51.0892 42.5582C51.0983 42.5884 51.0983 42.6203 51.0892 42.6505L51.0593 42.7027L51.0227 42.7458C50.7865 43.0965 50.6668 43.2719 50.4173 43.6164C50.1678 43.961 50.0348 44.124 49.7687 44.4593C49.7085 44.5406 49.6356 44.6132 49.5525 44.6747C49.7111 44.9167 49.9217 45.1261 50.1712 45.2899C50.3655 45.4132 50.6041 45.4617 50.8364 45.4253C51.1092 45.3504 51.3559 45.2103 51.5516 45.0192C51.7731 44.8185 51.9475 44.5776 52.0638 44.3117C52.2294 43.9201 52.3063 43.5013 52.29 43.0811C52.2731 42.8489 52.2251 42.6195 52.147 42.3982C52.0635 42.1174 51.944 41.8468 51.7911 41.5922C51.8707 41.527 51.9604 41.4731 52.0572 41.4322ZM48.2053 43.6687C48.2337 43.4826 48.2805 43.2993 48.345 43.1211C48.3749 43.0596 48.4082 42.995 48.4348 42.9304C48.4557 42.8808 48.4802 42.8325 48.508 42.7858L48.5313 42.7304L48.5512 42.6904V42.6658C48.2673 42.9716 48.1104 43.361 48.1088 43.7641C48.1041 43.9702 48.1208 44.1762 48.1587 44.3794C48.1499 44.1416 48.1655 43.9037 48.2053 43.6687ZM49.1067 42.6966C49.087 42.7306 49.0692 42.7655 49.0535 42.8012L49.0136 42.8812L48.9704 42.9796C48.9382 43.3639 49.0091 43.7496 49.1766 44.1025L49.283 44.2778C49.5724 43.9087 49.7121 43.7241 49.9849 43.3549V43.3211C50.0144 43.2425 50.0264 43.1591 50.0201 43.0761C50.0138 42.9931 49.9894 42.9121 49.9483 42.8381C49.9133 42.7547 49.8573 42.6803 49.785 42.6209C49.7127 42.5615 49.6262 42.5189 49.5325 42.4966C49.449 42.4846 49.3635 42.4965 49.2874 42.5305C49.2114 42.5646 49.1483 42.6193 49.1067 42.6874V42.6966ZM51.4352 45.2469C51.5787 45.1427 51.7033 45.0181 51.8044 44.8777C51.9133 44.7285 52.0016 44.5673 52.0672 44.3978C51.9029 44.7505 51.6386 45.0556 51.3021 45.2807C51.174 45.3633 51.0325 45.4266 50.883 45.4684C51.0894 45.4396 51.2836 45.3599 51.4451 45.2376L51.4352 45.2469ZM50.1911 43.3611C50.2289 43.283 50.2438 43.197 50.2344 43.1119C50.2196 43.0152 50.187 42.9215 50.1379 42.835C50.1739 42.9281 50.1872 43.0274 50.1768 43.1258C50.1665 43.2242 50.1327 43.3192 50.078 43.4042C50.0327 43.4765 49.9729 43.5402 49.9017 43.5918C50.0238 43.5476 50.1259 43.4662 50.1911 43.3611Z" fill="#308085"/>
<path d="M33.8589 32.7148V37.4524H27.4192V37.4247C27.8682 37.3662 28.3067 37.2524 28.7231 37.0863C29.2804 36.8567 29.7808 36.5238 30.1933 36.108L30.6391 35.6927C31.2744 35.0959 31.9164 34.4991 32.5617 33.9085C32.7346 33.7454 32.8943 33.6008 33.0872 33.4224C33.3434 33.1855 33.5995 32.9486 33.8589 32.7148Z" fill="#736357"/>
<path d="M33.8589 8.93359V31.1509C33.6788 31.2944 33.5067 31.4464 33.3434 31.6062L33.2203 31.7231L31.6037 33.209C31.2711 33.5166 30.9584 33.8242 30.6391 34.1011L29.3318 35.3316C29.0318 35.64 28.6675 35.889 28.2607 36.0638C27.9899 36.1696 27.7078 36.249 27.4192 36.3007V8.93359H33.8589Z" fill="#736357"/>
<path d="M33.8589 32.7148V37.4524H30.639V35.6927C31.2744 35.0959 31.9163 34.4991 32.5616 33.9085C32.7346 33.7454 32.8943 33.6008 33.0872 33.4224C33.3433 33.1855 33.5995 32.9486 33.8589 32.7148Z" fill="#534741"/>
<path d="M33.8589 8.93359V31.1509C33.6788 31.2944 33.5067 31.4464 33.3433 31.6062L33.2203 31.7231L31.6037 33.209C31.271 33.5166 30.9584 33.8242 30.639 34.1011V8.93359H33.8589Z" fill="#534741"/>
<path d="M32.5616 33.904C32.7346 33.741 32.8943 33.581 33.0872 33.418L32.6348 33.9563L32.5616 33.904Z" fill="#534741"/>
<path d="M42.4199 21.3744L43.2556 22.8404L33.3708 31.5701L32.4021 30.111L42.4199 21.3744Z" fill="#534741"/>
<path d="M16.6918 14.6039C16.7054 14.5733 16.7209 14.5435 16.7384 14.5147L16.7883 14.4224C17.2119 13.693 17.8474 13.0876 18.6233 12.6745C19.3991 12.2613 20.2843 12.057 21.179 12.0844C21.7499 11.1545 22.5908 10.3911 23.6067 9.88051C24.6226 9.36997 25.7728 9.13275 26.9269 9.19573C27.4917 8.5483 28.2019 8.02208 29.0082 7.65345C29.8146 7.28482 30.6979 7.08259 31.5971 7.06075C32.4987 7.03707 33.3938 7.2086 34.211 7.56165C35.0282 7.91471 35.7449 8.43952 36.3038 9.09421C37.5622 8.88283 38.8608 9.06654 39.9933 9.61614C41.1257 10.1657 42.0271 11.0497 42.554 12.1275C43.0363 13.1571 43.1426 14.3041 42.8567 15.3945C44.7493 16.3605 45.9834 17.911 45.9834 19.6737C45.9834 22.4609 42.8633 24.7466 38.895 24.9589C38.8508 24.9636 38.8062 24.9636 38.762 24.9589H19.4693C19.3961 24.9596 19.3236 24.9459 19.2564 24.9189C19.1896 24.8944 19.1294 24.8566 19.0801 24.8081C19.0277 24.7614 18.9868 24.7048 18.9604 24.642C18.9327 24.5795 18.918 24.5127 18.9172 24.4451V20.0275C17.9004 19.6302 17.0864 18.8884 16.642 17.9541C16.3906 17.4249 16.265 16.8519 16.2736 16.274C16.2822 15.696 16.4248 15.1265 16.6918 14.6039Z" fill="#308085"/>
<path d="M47.1642 23.0587C46.9297 22.476 46.5025 21.9765 45.9434 21.6313C46.0256 21.2065 46.0067 20.7704 45.8882 20.353C45.7697 19.9357 45.5543 19.5473 45.2571 19.2147C44.9599 18.8822 44.5879 18.6135 44.167 18.4273C43.7462 18.2411 43.2865 18.1419 42.82 18.1365C42.6474 18.1365 42.475 18.1488 42.3045 18.1735C42.0194 17.7443 41.6203 17.3899 41.1452 17.1438C40.6701 16.8977 40.1347 16.7682 39.5902 16.7676C39.0456 16.7682 38.5103 16.8977 38.0352 17.1438C37.5601 17.3899 37.161 17.7443 36.8759 18.1735C36.3748 18.1035 35.8629 18.1446 35.3824 18.2934C34.6561 18.5229 34.0416 18.9836 33.6486 19.5933C33.2557 20.203 33.1097 20.922 33.2369 21.622C32.8229 21.88 32.4791 22.2232 32.2325 22.6246C31.9859 23.0261 31.8431 23.4749 31.8154 23.9358C31.7877 24.3968 31.8758 24.8575 32.0728 25.2817C32.2698 25.706 32.5703 26.0823 32.9509 26.3811C33.4582 26.7795 34.0873 27.0214 34.7504 27.0733H44.3967C45.065 27.03 45.7016 26.7932 46.2162 26.3965C46.729 25.9998 47.0957 25.4654 47.2656 24.8674C47.4354 24.2693 47.4 23.6373 47.1642 23.0587Z" fill="#22CBA2"/>
<path d="M30.9351 21.3898C30.7266 20.8767 30.3498 20.4368 29.8574 20.1316C29.9407 19.6842 29.8975 19.2244 29.7319 18.797C29.5664 18.3695 29.2842 17.9889 28.9127 17.6921C28.6035 17.4459 28.2404 17.2643 27.8483 17.1599C27.604 17.0939 27.351 17.0598 27.0965 17.0584C26.9451 17.0564 26.7937 17.0666 26.6442 17.0891C26.3908 16.7065 26.0373 16.3891 25.6163 16.1662C25.1972 15.9507 24.7255 15.8374 24.2459 15.8371C23.8326 15.8361 23.4243 15.9201 23.0504 16.0829C22.6765 16.2457 22.3463 16.4832 22.0838 16.7784C21.8626 16.5305 21.5943 16.322 21.2921 16.1632C20.8729 15.9476 20.4013 15.8343 19.9217 15.834C19.4421 15.8343 18.9704 15.9476 18.5512 16.1632C18.1302 16.386 17.7767 16.7034 17.5234 17.0861C17.077 17.0224 16.6206 17.0594 16.1929 17.1937C15.7665 17.3237 15.3807 17.5475 15.0686 17.8459C14.7559 18.1446 14.5235 18.5071 14.3901 18.9041C14.2566 19.3011 14.2258 19.7216 14.3002 20.1316C13.934 20.3598 13.63 20.6634 13.412 21.0185C13.194 21.3737 13.068 21.7707 13.0438 22.1785C13.0197 22.5862 13.098 22.9936 13.2727 23.3687C13.4474 23.7437 13.7137 24.0762 14.0507 24.34C14.4973 24.6931 15.0521 24.9082 15.6374 24.9553H28.4869C29.0758 24.9168 29.6367 24.7081 30.0902 24.3585C30.5468 24.0074 30.8736 23.5333 31.025 23.0022C31.1764 22.4712 31.145 21.9097 30.9351 21.396V21.3898Z" fill="#50B7AF"/>
<path d="M46.1098 36.3228C45.5835 37.0231 44.9937 37.6807 44.3468 38.2886C44.1007 38.5193 43.8512 38.7408 43.5918 38.9531L43.5518 38.9869C43.2026 39.2761 42.84 39.5499 42.4675 39.8083C42.2047 39.9959 41.9319 40.1744 41.6525 40.3436C41.4707 40.4564 41.2844 40.5671 41.0937 40.6758C40.8875 40.7958 40.6746 40.9127 40.4617 41.0203C39.9327 41.2963 39.3887 41.5468 38.8318 41.771C38.599 41.8694 38.3595 41.9586 38.12 42.0448C37.5611 42.2499 36.9946 42.4273 36.4202 42.577C36.1109 42.66 35.8015 42.7339 35.4888 42.8015C34.2683 43.0668 33.0229 43.2224 31.77 43.2661C31.5505 43.2661 31.3309 43.2661 31.1048 43.2661C30.8786 43.2661 30.6757 43.2661 30.4595 43.2661L29.9405 43.2445C29.8341 43.2445 29.7243 43.2445 29.6079 43.2261H29.4117H29.3518H29.262H29.1289H29.0957C27.7464 43.1013 26.4164 42.8371 25.1307 42.4385C24.7981 42.3339 24.4654 42.2201 24.1328 42.1001C23.8002 41.9802 23.4675 41.8448 23.1615 41.7033C22.8555 41.5618 22.5295 41.3957 22.2202 41.248C22.0139 41.1403 21.811 41.0296 21.6081 40.9127L21.5216 40.8604C21.362 40.765 21.189 40.6696 21.046 40.5712C20.9029 40.4728 20.6568 40.3159 20.4639 40.1836L20.098 39.9252L19.7055 39.6052C19.5159 39.4668 19.3296 39.3253 19.1433 39.1745L18.844 38.9315L18.6045 38.7377L18.345 38.5131C18.2352 38.4178 18.1255 38.3224 18.0124 38.224C17.8993 38.1255 17.7995 38.0271 17.6964 37.9163C17.3804 37.6087 17.081 37.3011 16.7949 36.9688C16.6053 36.7535 16.4257 36.5289 16.2494 36.3013C16.1596 36.1874 16.0765 36.0705 15.9933 35.9536C15.8336 35.7291 15.6806 35.4953 15.5376 35.2584L15.6374 35.3045C16.2069 35.6111 16.8102 35.8607 17.4369 36.049C17.7081 36.1179 17.9836 36.1713 18.2619 36.209C18.3949 36.2274 18.528 36.2397 18.661 36.249C18.7941 36.2582 18.9238 36.249 19.0535 36.249C19.6965 36.2524 20.3336 36.1352 20.9262 35.9044C21.546 35.6542 22.1099 35.2995 22.5894 34.8585C22.922 34.5508 23.1881 34.1294 23.5307 33.8033C23.5657 33.771 23.6072 33.7454 23.6529 33.728C23.6985 33.7106 23.7475 33.7017 23.7968 33.7017C23.855 33.7 23.9127 33.7125 23.9641 33.7379C24.0155 33.7632 24.0587 33.8006 24.0896 33.8463C24.107 33.8699 24.1188 33.8967 24.1239 33.9248C24.1291 33.953 24.1276 33.9818 24.1195 34.0094C23.8467 35.1876 24.1594 36.1843 25.2338 36.8981C25.7401 37.2415 26.3522 37.4259 26.9801 37.4241C27.1236 37.4236 27.2668 37.4154 27.4092 37.3995C27.8582 37.341 28.2968 37.2272 28.7131 37.0611C29.2704 36.8315 29.7709 36.4985 30.1834 36.0828L30.6291 35.6675C31.2644 35.0707 31.9064 34.4739 32.5517 33.8833C32.7247 33.7202 32.8843 33.5756 33.0773 33.3972C33.3334 33.1603 33.5895 32.9234 33.849 32.6896L34.0585 32.4958C34.3102 32.233 34.5975 32.0014 34.9134 31.8067C35.2244 31.6039 35.5818 31.4702 35.9579 31.416C36.1146 31.415 36.2663 31.4676 36.3836 31.5637C36.7163 31.8375 36.1741 32.2343 36.051 32.5727C35.9353 32.8505 35.8538 33.1395 35.8082 33.4341C35.7351 33.897 35.7637 34.3688 35.8923 34.8213C36.0209 35.2738 36.2468 35.6976 36.5566 36.0674C36.9535 36.5284 37.4602 36.8982 38.0373 37.1479C38.6143 37.3977 39.246 37.5207 39.8829 37.5072C40.0685 37.5069 40.2539 37.4977 40.4384 37.4795C42.3129 37.3001 44.1301 36.7772 45.7838 35.9413C45.824 35.9191 45.87 35.9074 45.9169 35.9075C45.967 35.9111 46.0151 35.9274 46.0561 35.9545C46.097 35.9816 46.1291 36.0185 46.1489 36.0612C46.1688 36.104 46.1757 36.151 46.1687 36.1971C46.1618 36.2432 46.1415 36.2866 46.1098 36.3228Z" fill="#0096CD"/>
<path d="M18.2882 38.332V38.3505H18.2585L18.2882 38.332Z" fill="#17C7CB"/>
<path d="M43.5885 38.9528C43.5797 38.9695 43.5685 38.985 43.5552 38.9989C42.6914 39.8404 41.6929 40.5543 40.5948 41.1154C37.9647 42.4295 35.0405 43.1604 32.0528 43.2504H32.0029H31.7667C31.5472 43.2504 31.3276 43.2504 31.1015 43.2504C30.8753 43.2504 30.6724 43.2504 30.4562 43.2504L29.9372 43.2289C29.7643 43.2289 29.6046 43.2104 29.4183 43.195H29.3518H29.262H29.129H29.0957L28.7631 43.1643C26.5222 42.9539 24.3484 42.336 22.3665 41.3461L21.9707 41.1369C20.832 40.5532 19.7911 39.8196 18.8806 38.9589L18.854 38.9312C18.6659 38.7479 18.4894 38.5548 18.3251 38.3529C18.8339 38.5562 19.3602 38.7198 19.8984 38.842C21.5217 39.1496 22.9553 38.9189 24.1594 38.116C24.4488 37.9222 24.6551 37.6668 24.9378 37.47C25.0061 37.4241 25.0895 37.4015 25.1737 37.406C25.258 37.4105 25.338 37.4418 25.4001 37.4946C25.4138 37.5078 25.4235 37.5242 25.4281 37.542C25.4328 37.5599 25.4323 37.5785 25.4268 37.5961C25.2006 38.319 25.4567 38.9343 26.3448 39.3711C27.233 39.808 28.2408 39.7495 29.2154 39.4727C29.6581 39.3373 30.0706 39.1289 30.4329 38.8574C31.0981 38.3806 31.7967 37.9099 32.4819 37.4392L33.6328 36.6517L33.8789 36.4825C34.0202 36.3805 34.1743 36.2947 34.338 36.2271C34.7105 36.0856 35.1895 35.861 35.5521 36.0795C35.8282 36.2456 35.3791 36.4917 35.2627 36.6947C34.3513 38.3344 36.2606 39.9156 38.8717 39.7095C40.3875 39.6043 41.8765 39.2826 43.2858 38.7559C43.4521 38.7005 43.655 38.8297 43.5885 38.9528Z" fill="#17C7CB"/>
<path d="M40.5914 41.1196H40.5715C38.6256 42.3963 35.3857 43.1285 32.0494 43.2392H31.76H31.168C30.5825 43.2392 29.9938 43.2208 29.415 43.1808L29.1289 43.1593H29.0957L28.763 43.1285C27.3343 43.0062 25.9275 42.7199 24.5752 42.2764C23.6583 41.9861 22.7835 41.5924 21.9707 41.1043C21.8233 41.0084 21.6812 40.9057 21.5449 40.7966C21.9333 40.8972 22.3276 40.9774 22.7258 41.0366C23.814 41.21 24.9334 41.0848 25.9456 40.6767C26.1619 40.5782 26.3182 40.4521 26.5311 40.369C26.5831 40.3463 26.6399 40.3345 26.6974 40.3345C26.7549 40.3345 26.8117 40.3463 26.8637 40.369C26.8903 40.3875 26.8903 40.4059 26.8837 40.4182C26.7107 40.7813 26.9069 41.0858 27.5755 41.3042C28.2799 41.5034 29.0296 41.5214 29.7443 41.3565C30.0639 41.2927 30.3727 41.1892 30.6624 41.0489C31.4607 40.6797 32.269 40.3136 33.0773 39.9476C33.2477 39.8605 33.4271 39.7893 33.6128 39.7353C33.9019 39.6231 34.2218 39.5973 34.5275 39.6615C34.7371 39.7445 34.3945 39.8676 34.308 39.9691C33.6195 40.7874 35.0498 41.578 37.0323 41.4734C38.1561 41.4256 39.2712 41.2668 40.3586 40.9997C40.3947 40.9921 40.4322 40.9921 40.4683 40.9997C40.5548 41.0243 40.6247 41.0735 40.5914 41.1196Z" fill="#7AEBF9"/>
</svg>
