<svg width="102" height="37" viewBox="0 0 102 37" fill="none" xmlns="http://www.w3.org/2000/svg">
<g filter="url(#filter0_d_140_3729)">
<path d="M52.3543 34.0095V15.3302H47.5898V10.6604H52.3543V5.99061H57.1188V10.6604H66.6477V15.3302H57.1188V34.0095H52.3543ZM57.1188 5.99061V1.3208H66.6477V5.99061H57.1188Z" fill="#DAF73A"/>
</g>
<g filter="url(#filter1_d_140_3729)">
<path d="M95.234 34.0095V29.3397H99.9984V34.0095H95.234ZM90.4695 29.3397V15.3302H85.7051V10.6604H90.4695V1.3208H95.234V10.6604H99.9984V15.3302H95.234V29.3397H90.4695Z" fill="#DAF73A"/>
</g>
<g filter="url(#filter2_d_140_3729)">
<path d="M73.9785 34.0095V10.6604H78.743V34.0095H73.9785ZM73.9785 5.99061V1.3208H78.743V5.99061H73.9785Z" fill="#DAF73A"/>
</g>
<g filter="url(#filter3_d_140_3729)">
<path d="M13.3486 30.5755H26.9686V35.0001H13.3486V30.5755ZM13.3486 30.5755H8.80859V12.8774H13.3486V30.5755ZM31.5086 30.5755H26.9686V12.8774H31.5086V30.5755Z" fill="#DAF73A"/>
</g>
<g filter="url(#filter4_d_140_3729)">
<path d="M34.8579 5.48113H40.6567V27.4056H34.8579V5.48113ZM0 27.4056V5.48113H5.79879V0H17.3964V5.48113H5.79879V27.4056H0ZM17.3964 5.48113H23.1952V27.4056H17.3964V5.48113ZM23.1952 5.48113V0H34.8579V5.48113H23.1952Z" fill="#DAF73A"/>
</g>
<defs>
<filter id="filter0_d_140_3729" x="47.5898" y="1.3208" width="20.3432" height="33.9733" filterUnits="userSpaceOnUse" color-interpolation-filters="sRGB">
<feFlood flood-opacity="0" result="BackgroundImageFix"/>
<feColorMatrix in="SourceAlpha" type="matrix" values="0 0 0 0 0 0 0 0 0 0 0 0 0 0 0 0 0 0 127 0" result="hardAlpha"/>
<feOffset dx="1.2846" dy="1.2846"/>
<feComposite in2="hardAlpha" operator="out"/>
<feColorMatrix type="matrix" values="0 0 0 0 1 0 0 0 0 1 0 0 0 0 1 0 0 0 1 0"/>
<feBlend mode="normal" in2="BackgroundImageFix" result="effect1_dropShadow_140_3729"/>
<feBlend mode="normal" in="SourceGraphic" in2="effect1_dropShadow_140_3729" result="shape"/>
</filter>
<filter id="filter1_d_140_3729" x="85.7051" y="1.3208" width="15.5776" height="33.9733" filterUnits="userSpaceOnUse" color-interpolation-filters="sRGB">
<feFlood flood-opacity="0" result="BackgroundImageFix"/>
<feColorMatrix in="SourceAlpha" type="matrix" values="0 0 0 0 0 0 0 0 0 0 0 0 0 0 0 0 0 0 127 0" result="hardAlpha"/>
<feOffset dx="1.2846" dy="1.2846"/>
<feComposite in2="hardAlpha" operator="out"/>
<feColorMatrix type="matrix" values="0 0 0 0 1 0 0 0 0 1 0 0 0 0 1 0 0 0 1 0"/>
<feBlend mode="normal" in2="BackgroundImageFix" result="effect1_dropShadow_140_3729"/>
<feBlend mode="normal" in="SourceGraphic" in2="effect1_dropShadow_140_3729" result="shape"/>
</filter>
<filter id="filter2_d_140_3729" x="73.9785" y="1.3208" width="6.04827" height="33.9733" filterUnits="userSpaceOnUse" color-interpolation-filters="sRGB">
<feFlood flood-opacity="0" result="BackgroundImageFix"/>
<feColorMatrix in="SourceAlpha" type="matrix" values="0 0 0 0 0 0 0 0 0 0 0 0 0 0 0 0 0 0 127 0" result="hardAlpha"/>
<feOffset dx="1.2846" dy="1.2846"/>
<feComposite in2="hardAlpha" operator="out"/>
<feColorMatrix type="matrix" values="0 0 0 0 1 0 0 0 0 1 0 0 0 0 1 0 0 0 1 0"/>
<feBlend mode="normal" in2="BackgroundImageFix" result="effect1_dropShadow_140_3729"/>
<feBlend mode="normal" in="SourceGraphic" in2="effect1_dropShadow_140_3729" result="shape"/>
</filter>
<filter id="filter3_d_140_3729" x="8.80859" y="12.8774" width="23.9838" height="23.4072" filterUnits="userSpaceOnUse" color-interpolation-filters="sRGB">
<feFlood flood-opacity="0" result="BackgroundImageFix"/>
<feColorMatrix in="SourceAlpha" type="matrix" values="0 0 0 0 0 0 0 0 0 0 0 0 0 0 0 0 0 0 127 0" result="hardAlpha"/>
<feOffset dx="1.2846" dy="1.2846"/>
<feComposite in2="hardAlpha" operator="out"/>
<feColorMatrix type="matrix" values="0 0 0 0 1 0 0 0 0 1 0 0 0 0 1 0 0 0 1 0"/>
<feBlend mode="normal" in2="BackgroundImageFix" result="effect1_dropShadow_140_3729"/>
<feBlend mode="normal" in="SourceGraphic" in2="effect1_dropShadow_140_3729" result="shape"/>
</filter>
<filter id="filter4_d_140_3729" x="0" y="0" width="41.9408" height="28.6904" filterUnits="userSpaceOnUse" color-interpolation-filters="sRGB">
<feFlood flood-opacity="0" result="BackgroundImageFix"/>
<feColorMatrix in="SourceAlpha" type="matrix" values="0 0 0 0 0 0 0 0 0 0 0 0 0 0 0 0 0 0 127 0" result="hardAlpha"/>
<feOffset dx="1.2846" dy="1.2846"/>
<feComposite in2="hardAlpha" operator="out"/>
<feColorMatrix type="matrix" values="0 0 0 0 1 0 0 0 0 1 0 0 0 0 1 0 0 0 1 0"/>
<feBlend mode="normal" in2="BackgroundImageFix" result="effect1_dropShadow_140_3729"/>
<feBlend mode="normal" in="SourceGraphic" in2="effect1_dropShadow_140_3729" result="shape"/>
</filter>
</defs>
</svg>
