<svg width="352" height="118" viewBox="0 0 352 118" fill="none" xmlns="http://www.w3.org/2000/svg">
<g clip-path="url(#clip0_391_12996)">
<g clip-path="url(#clip1_391_12996)">
<path d="M151.546 27.3362C150.394 26.6965 149.499 25.8436 148.859 24.7348C148.219 23.626 147.878 22.3893 147.878 21.0247C147.878 19.66 148.219 18.3806 148.859 17.3145C149.499 16.2057 150.394 15.3528 151.546 14.7131C152.697 14.0734 153.976 13.7749 155.426 13.7749C156.535 13.7749 157.559 13.9455 158.454 14.3293C159.392 14.7131 160.16 15.2675 160.8 15.9925L159.478 17.2719C158.411 16.1631 157.089 15.566 155.469 15.566C154.403 15.566 153.465 15.8219 152.612 16.291C151.759 16.7601 151.076 17.3998 150.607 18.2527C150.138 19.1056 149.882 20.0012 149.882 21.0247C149.882 22.0482 150.138 22.9864 150.607 23.7966C151.076 24.6495 151.759 25.2892 152.612 25.7583C153.465 26.2274 154.403 26.4833 155.469 26.4833C157.047 26.4833 158.369 25.9289 159.478 24.7775L160.8 26.0568C160.16 26.7818 159.35 27.3362 158.454 27.72C157.516 28.1038 156.492 28.2744 155.384 28.2744C153.976 28.2744 152.697 27.9759 151.546 27.3362ZM174.446 26.3553V28.1038H164.126V13.9029H174.148V15.6513H166.13V20.0438H173.252V21.7496H166.13V26.3553H174.446ZM191.334 28.1038V17.741L186.174 26.398H185.235L180.075 17.8263V28.1038H178.114V13.9029H179.777L185.747 23.8819L191.59 13.9029H193.253V28.1038H191.334ZM208.52 26.3553V28.1038H198.2V13.9029H208.221V15.6513H200.247V20.0438H207.368V21.7496H200.247V26.3553H208.52ZM212.23 13.9029H214.234V24.8628L222.635 13.9029H224.512V28.1038H222.508V17.1439L214.064 28.1038H212.187V13.9029H212.23ZM215.77 12.1544C215.173 11.6853 214.874 11.003 214.831 10.1074H216.281C216.281 10.6192 216.495 11.0456 216.836 11.3441C217.177 11.6427 217.689 11.7706 218.328 11.7706C218.925 11.7706 219.437 11.6427 219.821 11.3441C220.205 11.0456 220.375 10.6618 220.418 10.1074H221.825C221.825 11.003 221.484 11.6853 220.887 12.1544C220.29 12.6235 219.437 12.8794 218.328 12.8794C217.22 12.8794 216.367 12.6661 215.77 12.1544ZM241.655 13.9029V28.1038H239.608V21.7923H231.463V28.1465H229.416V13.9029H231.463V20.0012H239.608V13.9029H241.655ZM255.856 24.5642H248.308L246.73 28.1038H244.641L251.08 13.9029H253.084L259.524 28.1038H257.392L255.856 24.5642ZM255.131 22.9437L252.061 15.9925L248.99 22.9437H255.131ZM272.275 13.9029V28.1038H270.27V23.9672H266.347C266.091 23.9672 265.921 23.9672 265.793 23.9672L262.935 28.1465H260.803L263.959 23.626C262.935 23.2849 262.168 22.7305 261.613 21.9202C261.059 21.11 260.803 20.1718 260.803 19.0203C260.803 17.3998 261.315 16.1631 262.338 15.2675C263.362 14.372 264.769 13.9029 266.518 13.9029H272.275ZM263.788 21.4085C264.385 21.9629 265.324 22.2614 266.518 22.2614H270.27V15.6513H266.646C265.409 15.6513 264.513 15.9499 263.831 16.5042C263.191 17.0586 262.85 17.9115 262.85 18.9777C262.85 20.0438 263.149 20.8541 263.788 21.4085ZM166.855 38.2534V52.4544H149.029V38.2534H151.034V50.7059H156.961V38.2534H158.966V50.7059H164.851V38.2534H166.855ZM176.749 46.2281H173.764V52.497H171.759V38.2534H173.764V44.437H176.749L181.227 38.2534H183.402L178.327 45.1194L183.658 52.4544H181.355L176.749 46.2281ZM188.732 51.6868C187.581 51.0471 186.685 50.1942 186.003 49.0854C185.363 47.9766 185.022 46.7399 185.022 45.3752C185.022 44.0106 185.363 42.7738 186.003 41.6651C186.643 40.5563 187.581 39.7034 188.732 39.0637C189.884 38.424 191.163 38.1255 192.613 38.1255C194.02 38.1255 195.342 38.424 196.494 39.0637C197.645 39.7034 198.541 40.5563 199.18 41.6651C199.82 42.7738 200.161 44.0106 200.161 45.3752C200.161 46.7399 199.82 48.0192 199.18 49.0854C198.541 50.1942 197.645 51.0471 196.494 51.6868C195.342 52.3264 194.063 52.625 192.613 52.625C191.206 52.6676 189.884 52.3264 188.732 51.6868ZM195.428 50.1089C196.281 49.6398 196.92 49.0001 197.389 48.1472C197.858 47.2943 198.114 46.3987 198.114 45.3752C198.114 44.3517 197.858 43.4135 197.389 42.6033C196.92 41.7504 196.238 41.1107 195.428 40.6416C194.575 40.1725 193.637 39.9166 192.613 39.9166C191.59 39.9166 190.609 40.1725 189.798 40.6416C188.946 41.1107 188.306 41.7504 187.794 42.6033C187.325 43.4562 187.069 44.3517 187.069 45.3752C187.069 46.3987 187.325 47.3369 187.794 48.1472C188.263 49.0001 188.946 49.6398 189.798 50.1089C190.651 50.578 191.59 50.8338 192.613 50.8338C193.679 50.8338 194.617 50.6206 195.428 50.1089ZM215.173 38.2534V52.4544H213.168V40.0445H206.857L206.729 44.2238C206.643 46.1855 206.516 47.7634 206.26 49.0001C206.004 50.2368 205.62 51.1324 205.066 51.772C204.511 52.3691 203.786 52.7102 202.891 52.7102C202.464 52.7102 202.038 52.6676 201.611 52.5397L201.739 50.7486C201.952 50.7912 202.166 50.8338 202.379 50.8338C202.976 50.8338 203.445 50.6206 203.786 50.1515C204.127 49.6824 204.383 49.0001 204.596 48.0619C204.767 47.1237 204.895 45.887 204.938 44.3517L205.151 38.3387H215.173V38.2534ZM229.331 48.9148H221.783L220.205 52.4544H218.115L224.555 38.2534H226.559L232.998 52.4544H230.866L229.331 48.9148ZM228.648 47.2943L225.578 40.3431L222.508 47.2943H228.648ZM158.923 63.9686C159.989 64.8642 160.501 66.0583 160.501 67.5935C160.501 69.1287 159.989 70.3655 158.923 71.2184C157.857 72.1139 156.407 72.5404 154.573 72.5404H151.076V76.8476H149.029V62.6466H154.573C156.407 62.6466 157.857 63.0731 158.923 63.9686ZM157.473 69.9817C158.156 69.4273 158.497 68.6597 158.497 67.6362C158.497 66.6127 158.156 65.8024 157.473 65.2907C156.791 64.7363 155.81 64.4804 154.531 64.4804H151.076V70.8772H154.531C155.81 70.7919 156.791 70.4934 157.473 69.9817ZM166.557 76.08C165.405 75.4403 164.51 74.5874 163.827 73.4786C163.188 72.3698 162.847 71.1331 162.847 69.7684C162.847 68.4038 163.188 67.1671 163.827 66.0583C164.467 64.9495 165.405 64.0966 166.557 63.4569C167.708 62.8172 168.988 62.5187 170.437 62.5187C171.845 62.5187 173.167 62.8172 174.318 63.4569C175.47 64.0966 176.365 64.9495 177.005 66.0583C177.645 67.1671 177.986 68.4038 177.986 69.7684C177.986 71.1331 177.645 72.4124 177.005 73.4786C176.365 74.5874 175.47 75.4403 174.318 76.08C173.167 76.7196 171.887 77.0182 170.437 77.0182C168.988 77.0182 167.708 76.7196 166.557 76.08ZM173.252 74.5021C174.105 74.033 174.745 73.3933 175.214 72.5404C175.683 71.6875 175.939 70.7919 175.939 69.7684C175.939 68.7449 175.683 67.8067 175.214 66.9965C174.745 66.1436 174.062 65.5039 173.252 65.0348C172.399 64.5657 171.461 64.3098 170.437 64.3098C169.414 64.3098 168.433 64.5657 167.623 65.0348C166.77 65.5039 166.13 66.1436 165.619 66.9965C165.149 67.8494 164.894 68.7449 164.894 69.7684C164.894 70.7919 165.149 71.7301 165.619 72.5404C166.088 73.3933 166.77 74.033 167.623 74.5021C168.476 74.9712 169.414 75.2271 170.437 75.2271C171.461 75.2271 172.399 74.9712 173.252 74.5021ZM181.781 62.6466H192.485V64.3525H183.785V68.4038H188.221C189.926 68.4038 191.206 68.7449 192.101 69.4699C192.997 70.1949 193.423 71.1757 193.423 72.4977C193.423 73.905 192.954 74.9712 191.973 75.6962C191.035 76.4211 189.671 76.8049 187.879 76.8049H181.781V62.6466ZM187.794 75.2697C188.946 75.2697 189.841 75.0565 190.438 74.5874C191.035 74.1609 191.334 73.4786 191.334 72.6257C191.334 70.9199 190.14 70.067 187.752 70.067H183.743V75.2697H187.794ZM199.65 76.08C198.498 75.4403 197.603 74.5874 196.92 73.4786C196.281 72.3698 195.939 71.1331 195.939 69.7684C195.939 68.4038 196.281 67.1671 196.92 66.0583C197.56 64.9495 198.498 64.0966 199.65 63.4569C200.801 62.8172 202.08 62.5187 203.53 62.5187C204.938 62.5187 206.26 62.8172 207.411 63.4569C208.562 64.0966 209.458 64.9495 210.098 66.0583C210.737 67.1671 211.079 68.4038 211.079 69.7684C211.079 71.1331 210.737 72.4124 210.098 73.4786C209.458 74.5874 208.562 75.4403 207.411 76.08C206.26 76.7196 204.98 77.0182 203.53 77.0182C202.08 77.0182 200.801 76.7196 199.65 76.08ZM206.345 74.5021C207.198 74.033 207.838 73.3933 208.307 72.5404C208.776 71.6875 209.032 70.7919 209.032 69.7684C209.032 68.7449 208.776 67.8067 208.307 66.9965C207.838 66.1436 207.155 65.5039 206.345 65.0348C205.492 64.5657 204.554 64.3098 203.53 64.3098C202.507 64.3098 201.526 64.5657 200.716 65.0348C199.863 65.5039 199.223 66.1436 198.711 66.9965C198.242 67.8494 197.986 68.7449 197.986 69.7684C197.986 70.7919 198.242 71.7301 198.711 72.5404C199.18 73.3933 199.863 74.033 200.716 74.5021C201.569 74.9712 202.507 75.2271 203.53 75.2271C204.554 75.2271 205.492 74.9712 206.345 74.5021ZM224.427 64.3951H219.565V76.8476H217.561V64.3951H212.699V62.6466H224.427V64.3951ZM229.715 76.08C228.563 75.4403 227.668 74.5874 226.985 73.4786C226.346 72.3698 226.004 71.1331 226.004 69.7684C226.004 68.4038 226.346 67.1671 226.985 66.0583C227.625 64.9495 228.563 64.0966 229.715 63.4569C230.866 62.8172 232.145 62.5187 233.595 62.5187C235.003 62.5187 236.325 62.8172 237.476 63.4569C238.628 64.0966 239.523 64.9495 240.163 66.0583C240.802 67.1671 241.144 68.4038 241.144 69.7684C241.144 71.1331 240.802 72.4124 240.163 73.4786C239.523 74.5874 238.628 75.4403 237.476 76.08C236.325 76.7196 235.045 77.0182 233.595 77.0182C232.188 77.0182 230.866 76.7196 229.715 76.08ZM236.41 74.5021C237.263 74.033 237.903 73.3933 238.372 72.5404C238.841 71.6875 239.097 70.7919 239.097 69.7684C239.097 68.7449 238.841 67.8067 238.372 66.9965C237.903 66.1436 237.22 65.5039 236.41 65.0348C235.557 64.5657 234.619 64.3098 233.595 64.3098C232.572 64.3098 231.591 64.5657 230.781 65.0348C229.928 65.5039 229.288 66.1436 228.776 66.9965C228.307 67.8494 228.051 68.7449 228.051 69.7684C228.051 70.7919 228.307 71.7301 228.776 72.5404C229.246 73.3933 229.928 74.033 230.781 74.5021C231.634 74.9712 232.572 75.2271 233.595 75.2271C234.662 75.2271 235.6 74.9712 236.41 74.5021ZM254.534 64.3951H249.673V76.8476H247.668V64.3951H242.807V62.6466H254.534V64.3951ZM267.84 75.0991V76.8476H257.519V62.6466H267.541V64.3951H259.524V68.7449H266.646V70.4508H259.524V75.0565H267.84V75.0991ZM272.147 62.6466L275.857 67.8494L279.567 62.6466H281.955L277.136 69.4699L282.339 76.8476H279.951L275.857 71.1757L271.806 76.8476H269.46L274.62 69.5552L269.801 62.6466H272.147ZM297.18 62.6466V76.8476H295.133V70.4934H286.988V76.8476H284.941V62.6466H286.988V68.7449H295.133V62.6466H297.18ZM302.127 62.6466H304.131V73.6065L312.532 62.6466H314.409V76.8476H312.404V65.8877L303.96 76.8476H302.084V62.6466H302.127ZM324.302 70.6213H321.317V76.8902H319.313V62.6893H321.317V68.8729H324.302L328.78 62.6893H330.955L325.923 69.5126L331.253 76.8476H328.951L324.302 70.6213ZM333.855 62.6466H335.859V73.6065L344.26 62.6466H346.137V76.8476H344.132V65.8877L335.689 76.8476H333.812V62.6466H333.855ZM140.202 11.003H138.837V108.363H140.202V11.003Z" fill="#7C7C7C"/>
<path d="M74.657 46.1846V58.6797H67.0235V74.3732H56.5327V58.6797H48.8992V46.1846H74.657Z" fill="#7C7C7C"/>
<path d="M12.6077 80.5996H24.6764L27.491 88.2331L30.3056 80.5996H42.3742L34.7407 94.6726L42.8007 108.746H30.732L27.491 100.302L24.2499 108.746H12.2239L20.2839 94.6726L12.6077 80.5996Z" fill="#7C7C7C"/>
<path d="M61.9489 80.1318C52.6948 80.1318 46.2554 86.5713 46.2554 94.8019C46.2554 103.075 52.6948 109.515 61.9489 109.515C71.203 109.515 77.6424 103.075 77.6424 94.8019C77.6851 86.5713 71.2456 80.1318 61.9489 80.1318ZM61.5651 100.175L55.8506 91.8167C55.68 91.5608 55.8506 91.2197 56.1918 91.2197L67.7913 91.3476C68.0898 91.3476 68.3031 91.7314 68.0899 91.9873L62.2048 100.218C62.0342 100.388 61.7357 100.388 61.5651 100.175Z" fill="url(#paint0_linear_391_12996)"/>
<path d="M61.9489 40.3847C71.203 40.3847 77.6424 33.9452 77.6424 25.7146C77.6424 17.4414 71.203 11.002 61.9489 11.002C52.6948 11.002 46.2554 17.4414 46.2554 25.7146C46.2554 33.9452 52.6948 40.3847 61.9489 40.3847ZM62.3754 20.2987L68.0898 28.6572C68.2604 28.913 68.0898 29.2542 67.7487 29.2542L56.1491 29.1263C55.8506 29.1263 55.6374 28.7425 55.8506 28.4866L61.7357 20.256C61.8636 20.0854 62.2048 20.0854 62.3754 20.2987Z" fill="url(#paint1_linear_391_12996)"/>
<path d="M27.9596 74.6298C37.2137 74.6298 43.6532 68.1903 43.6532 59.9171C43.6532 51.6865 37.2137 45.2471 27.9596 45.2471C18.7056 45.2471 12.2661 51.6865 12.2661 59.9171C12.2661 68.1903 18.7056 74.6298 27.9596 74.6298ZM30.9875 54.6291L31.1154 65.9301C31.1154 66.2286 30.7742 66.4419 30.5184 66.2713L22.3731 60.6847C22.1599 60.5141 22.1599 60.2156 22.3731 60.045L30.3904 54.2879C30.6037 54.1173 30.9875 54.2879 30.9875 54.6291Z" fill="url(#paint2_linear_391_12996)"/>
<path d="M111.672 60.13C111.672 51.8994 105.233 45.46 95.9784 45.46C86.7244 45.46 80.2849 51.8994 80.2849 60.13C80.2849 68.4032 86.7244 74.8427 95.9784 74.8427C105.233 74.8427 111.672 68.4032 111.672 60.13ZM93.5903 54.5008L101.608 60.2579C101.821 60.4285 101.821 60.727 101.608 60.8976L93.4624 66.4842C93.2065 66.6548 92.8653 66.4842 92.8653 66.143L92.9933 54.842C92.9933 54.5008 93.3344 54.3302 93.5903 54.5008Z" fill="url(#paint3_linear_391_12996)"/>
<path d="M28.6422 11.3857C22.2027 11.3857 16.5735 11.7696 16.5735 11.7696V20.4266H30.22V22.3456H16.5735V39.9582H27.0216V30.9174C27.0216 30.9174 29.026 31.1306 30.6465 31.1306C37.4698 31.1306 41.5211 27.1219 41.5211 21.2795C41.5211 15.3944 37.5124 11.3857 28.6422 11.3857Z" fill="#7C7C7C"/>
<path d="M99.2195 21.8329C96.7887 21.8329 94.7843 22.0461 94.7843 22.0461V19.4447H106.469V11.7686H84.3362V39.9572C84.3362 39.9572 90.3918 40.341 97.2151 40.341C106.085 40.341 110.094 36.3323 110.094 31.087C110.094 25.8842 106.085 21.8329 99.2195 21.8329ZM101.48 31.8546H94.6564V29.9355H101.48V31.8546Z" fill="#7C7C7C"/>
<path d="M109.967 98.5127V80.6016H88.4314C88.4314 95.229 85.8727 98.5127 85.8727 98.5127H83.6978V110.922H93.2077V106.189H103.443V110.922H112.953V98.5127H109.967ZM99.5619 98.8112H99.4766H97.7281H97.6428V89.5145H97.7281H99.4766H99.5619V98.8112Z" fill="#7C7C7C"/>
</g>
</g>
<defs>
<linearGradient id="paint0_linear_391_12996" x1="61.9657" y1="109.502" x2="61.9657" y2="80.1159" gradientUnits="userSpaceOnUse">
<stop offset="0.00515464" stop-color="#F2B33F"/>
<stop offset="1" stop-color="#F6E14F"/>
</linearGradient>
<linearGradient id="paint1_linear_391_12996" x1="61.9657" y1="10.9794" x2="61.9657" y2="40.3657" gradientUnits="userSpaceOnUse">
<stop offset="0.00515464" stop-color="#3686FB"/>
<stop offset="1" stop-color="#59BFF9"/>
</linearGradient>
<linearGradient id="paint2_linear_391_12996" x1="12.2726" y1="59.9394" x2="43.6701" y2="59.9394" gradientUnits="userSpaceOnUse">
<stop offset="0.00515464" stop-color="#67D4D8"/>
<stop offset="1" stop-color="#AFE15E"/>
</linearGradient>
<linearGradient id="paint3_linear_391_12996" x1="111.685" y1="60.1354" x2="80.2874" y2="60.1354" gradientUnits="userSpaceOnUse">
<stop offset="0.00515464" stop-color="#DF37BF"/>
<stop offset="1" stop-color="#ED7A48"/>
</linearGradient>
<clipPath id="clip0_391_12996">
<rect width="350.69" height="118" fill="white" transform="translate(0.653809)"/>
</clipPath>
<clipPath id="clip1_391_12996">
<rect width="352.96" height="118" fill="white" transform="translate(0.65332)"/>
</clipPath>
</defs>
</svg>
